<svg xmlns="http://www.w3.org/2000/svg" viewBox="0 0 691.3 201.8">
  <style>
    .st2{fill:#139faa}.st3{fill:#01686b}.st4{fill:#3dc0d1}
  </style>
  <path d="M584.5 59.6c46.3 8.8 85.6 30 103.1 40.5-21.2 10-43.4 18-66.1 24 9.1 23 17.3 46.3 24.5 70-27.7-13.9-94.4-44.2-172.9-56.6-.9-11.7 2.6-23.6 9.7-32.9l101.7-45z" class="st2"/>
  <path d="M473.1 137.4c.2 0 .3 0 .5.1l2.1.3c.3 0 .6.1 1 .1 11 1.6 46.1 6 89.2 1.2-28.3-11.8-58.2-20.1-88.4-25.8-3.4 7.5-5 15.9-4.4 24.1z" class="st3"/>
  <path d="M106.7 59.6C60.4 68.4 21.1 89.5 3.6 100c21.2 10 43.4 18 66.1 24-9.1 23-17.3 46.3-24.5 70 27.7-13.9 94.4-44.2 172.9-56.6.9-11.7-2.6-23.6-9.7-32.9L106.7 59.6z" class="st2"/>
  <path d="M345.6 104.3c-46.5 0-81.1-.1-124.9 7.7-32.6 5.8-64.9 14.4-95.5 27.1-6.5-19.7-23.2-70.3-32.7-99.4 35.6-13.2 73.2-22.1 111.2-28.1C253.5 3.9 292.8 4 345.6 4c52.8 0 92.2-.1 141.9 7.7 38.1 6 75.7 14.9 111.2 28.1-9.6 29-26.2 79.7-32.7 99.4-30.6-12.7-62.9-21.3-95.5-27.1-43.7-7.9-78.4-7.8-124.9-7.8z" class="st4"/>
  <path d="M218.1 137.4c-.2 0-.3 0-.5.1l-2.1.3c-.3 0-.6.1-1 .1-11 1.6-46.1 6-89.2 1.2 28.3-11.8 58.2-20.1 88.4-25.8 3.5 7.5 5 15.9 4.4 24.1z" class="st3"/>
</svg>