<svg xmlns="http://www.w3.org/2000/svg" viewBox="0 0 691.3 201.8">
  <style>
    .st0{fill:#139faa}.st1{fill:#01686b}.st5,.st6{display:inline;fill:#139faa}.st6{fill:#01686b}
  </style>
  <g id="banner">
    <path d="M148.6 79.6V21.7c-6.6-3.1-13.7-5.6-20.7-7.7C86.6 1.7 42.7-1.8 0 3.7c25.3 17.2 47.2 39.5 64.1 65.1-20.7 9.5-39.2 23.8-53.6 41.4C52 112.3 93 123.8 129.3 144l19.3-64.4zM549.7 121.8v57.9c45 16.4 94 22 141.6 16.2-27.4-15.1-50.8-37.4-67.1-64 13.4-3.9 26.3-9.4 38-16.9 10.6-6.7 20.2-15.1 28-24.8-39-3.5-77.1-15.7-114.3-28.4l-26.2 60z" class="st0"/>
    <path d="M105 46c0-13.7 11.2-24.8 24.9-24.6l18.7.3v46.5c-13.5-4.8-26.5-11.1-38.5-18.8L105 46zM549.7 179.7v-39.9c14.8 5.8 28.9 13.3 41.7 22.6 0 9.6-7.8 17.4-17.4 17.4h-24.3z" class="st1"/>
    <path d="M591.3 160.8v1.6c-26.5-19.1-58.4-31-90.9-35.1-45.1-5.7-91.4 3-133.2 20.8-35.8 15.2-69 37-106.5 47.3-52.4 14.5-111 4-155.7-26.8V46.1C149.7 77 208.2 87.4 260.7 73c37.5-10.3 70.7-32.1 106.5-47.3C409.1 7.8 455.3-.9 500.4 4.8c32.5 4.1 64.4 16 90.9 35.1v120.9z" style="fill:#3dc0d1"/>
  </g>
  <path id="text-path" d="M108.7 124.1c44.2 29 101 38.4 152 24.4 37.5-10.3 70.7-32.1 106.5-47.3 41.9-17.8 88.1-26.4 133.2-20.8 31.7 4 62.7 15.3 88.7 33.6" style="fill:none;stroke:#000;stroke-miterlimit:10"/>
</svg>