<?xml version="1.0" encoding="utf-8"?>
<!-- Generator: Adobe Illustrator 16.0.0, SVG Export Plug-In . SVG Version: 6.00 Build 0)  -->
<!DOCTYPE svg PUBLIC "-//W3C//DTD SVG 1.1//EN" "http://www.w3.org/Graphics/SVG/1.1/DTD/svg11.dtd">
<svg version="1.1" id="Layer_1" xmlns="http://www.w3.org/2000/svg" xmlns:xlink="http://www.w3.org/1999/xlink" x="0px" y="0px"
	 width="400px" height="133px" viewBox="0 0 400 133" enable-background="new 0 0 400 133" xml:space="preserve">
<g id="Layer_1_1_">
	<rect width="400" height="134"/>
</g>
<g id="Layer_2">
</g>
<g>
	<text transform="matrix(1 0 0 1 161.1997 34.8496)" fill="#999999" font-family="'Roboto-Light'" font-size="14.1645">Normal Font</text>
	<g enable-background="new    ">
		<path fill="#FFFFFF" d="M154.508,109.296V56.127h16.557v6.374h-9.717v15.818h9.057v6.375h-9.057v24.602H154.508L154.508,109.296z"
			/>
		<path fill="#FFFFFF" d="M186.261,110.268c-3.395,0-6.082-1.652-8.064-4.955c-1.982-3.304-2.973-7.845-2.973-13.623
			c0-5.777,0.991-10.325,2.973-13.642c1.982-3.316,4.67-4.976,8.064-4.976s6.089,1.659,8.085,4.976
			c1.995,3.316,2.992,7.864,2.992,13.642c0,5.778-0.998,10.319-2.992,13.623C192.35,108.615,189.655,110.268,186.261,110.268z
			 M186.203,78.98c-3.071,0-4.606,4.236-4.606,12.709c0,8.447,1.587,12.67,4.761,12.67c3.071,0,4.606-4.223,4.606-12.67
			C190.964,83.217,189.377,78.98,186.203,78.98z"/>
		<path fill="#FFFFFF" d="M203.867,109.296V74.044h6.219v3.81h0.154c1.736-2.928,3.912-4.393,6.529-4.393
			c2.332,0,4.205,0.92,5.617,2.76s2.117,4.405,2.117,7.695v25.38h-6.219V84.071c0-3.394-1.113-5.091-3.342-5.091
			c-1.244,0-2.365,0.641-3.361,1.924c-0.998,1.282-1.496,2.04-1.496,2.273v26.118H203.867L203.867,109.296z"/>
		<path fill="#FFFFFF" d="M245.492,103.388v5.52c-2.1,0.906-3.926,1.36-5.48,1.36c-4.354,0-6.529-2.627-6.529-7.881V79.485h-4.043
			v-0.546c2.955-3.61,6.193-8.274,9.717-13.99h0.545v9.095h5.791v5.441h-5.791v20.101c0,1.863,0.174,3.124,0.525,3.784
			c0.35,0.659,0.99,0.989,1.924,0.989C243.004,104.359,244.119,104.035,245.492,103.388z"/>
	</g>
</g>
</svg>
