<?xml version="1.0" encoding="utf-8"?>
<!-- Generator: Adobe Illustrator 16.0.0, SVG Export Plug-In . SVG Version: 6.00 Build 0)  -->
<!DOCTYPE svg PUBLIC "-//W3C//DTD SVG 1.1//EN" "http://www.w3.org/Graphics/SVG/1.1/DTD/svg11.dtd">
<svg version="1.1" id="Layer_1" xmlns="http://www.w3.org/2000/svg" xmlns:xlink="http://www.w3.org/1999/xlink" x="0px" y="0px"
	 width="400px" height="133px" viewBox="0 0 400 133" enable-background="new 0 0 400 133" xml:space="preserve">
<g id="Layer_1_1_">
	<rect width="400" height="134"/>
</g>
<g id="Layer_2">
</g>
<g>
	<text transform="matrix(1 0 0 1 161.1997 34.8496)" fill="#999999" font-family="'Roboto-Light'" font-size="14.1645">Normal Font</text>
	<g enable-background="new    ">
		<path fill="#FFFFFF" d="M130.878,56.127h28.545v6.82h-20.882v14.943h20.882v6.82h-20.882v24.943h-7.663V56.127L130.878,56.127z"/>
		<path fill="#FFFFFF" d="M182.336,74.328c5.364,0,9.821,1.73,13.372,5.191s5.326,7.811,5.326,13.047
			c0,5.082-1.8,9.305-5.402,12.662c-3.602,3.359-8.136,5.039-13.603,5.039c-5.287,0-9.706-1.705-13.257-5.115
			s-5.325-7.668-5.325-12.777c0-5.16,1.794-9.459,5.383-12.895C172.418,76.045,176.921,74.328,182.336,74.328z M181.953,80.611
			c-3.347,0-6.093,1.1-8.238,3.295c-2.146,2.197-3.218,4.994-3.218,8.393c0,3.371,1.098,6.125,3.295,8.256
			c2.197,2.135,5.02,3.201,8.468,3.201c3.423,0,6.227-1.08,8.41-3.238c2.185-2.158,3.276-4.924,3.276-8.295
			c0-3.348-1.137-6.117-3.41-8.314C188.262,81.711,185.401,80.611,181.953,80.611z"/>
		<path fill="#FFFFFF" d="M215.747,74.404v4.482c3.117-3.447,6.654-5.172,10.613-5.172c2.197,0,4.24,0.568,6.131,1.705
			s3.327,2.695,4.311,4.674c0.983,1.98,1.476,5.115,1.476,9.406v20.154h-6.974V89.576c0-3.602-0.55-6.174-1.647-7.721
			c-1.099-1.545-2.938-2.318-5.518-2.318c-3.296,0-6.093,1.648-8.392,4.943v25.174h-7.126v-35.25H215.747L215.747,74.404z"/>
		<path fill="#FFFFFF" d="M243.066,79.998l13.104-12.873v7.279h11.149v6.283h-11.149v17.252c0,4.029,1.672,6.045,5.02,6.045
			c2.503,0,5.147-0.83,7.932-2.492v6.516c-2.683,1.506-5.608,2.26-8.774,2.26c-3.194,0-5.85-0.932-7.97-2.797
			c-0.665-0.563-1.214-1.193-1.648-1.896s-0.798-1.621-1.092-2.76c-0.293-1.137-0.44-3.301-0.44-6.494V80.688h-6.131V79.998z"/>
	</g>
</g>
</svg>
