<?xml version="1.0" encoding="utf-8"?>
<!-- Generator: Adobe Illustrator 16.0.3, SVG Export Plug-In . SVG Version: 6.00 Build 0)  -->
<!DOCTYPE svg PUBLIC "-//W3C//DTD SVG 1.1//EN" "http://www.w3.org/Graphics/SVG/1.1/DTD/svg11.dtd">
<svg version="1.1" id="Layer_1" xmlns="http://www.w3.org/2000/svg" xmlns:xlink="http://www.w3.org/1999/xlink" x="0px" y="0px"
	 width="100px" height="100px" viewBox="0 0 100 100" enable-background="new 0 0 100 100" xml:space="preserve">
<g fill="#343642">
	<path d="M59.164,37.114c3.875,2.963,6.375,7.631,6.376,12.886c0,3.053-0.845,5.906-2.31,8.344l-14.6,27.563
		c0.206,0.004,0.411,0.016,0.617,0.016c19.881-0.001,35.998-16.117,35.998-35.999c0-4.857-0.967-9.486-2.711-13.714L59.164,37.114z"
		/>
	<path d="M49.326,37.509C42.428,37.521,36.847,43.102,36.834,50c0.012,6.899,5.593,12.479,12.491,12.49
		c4.637-0.008,8.67-2.538,10.825-6.288l0.254-0.478l0.007,0.003c0.89-1.716,1.401-3.659,1.405-5.728
		C61.804,43.102,56.223,37.521,49.326,37.509z"/>
	<path d="M49.326,66.215c-6.162,0-11.52-3.437-14.264-8.497L18.957,30.47c-3.61,5.609-5.709,12.29-5.708,19.454
		c0,18.295,13.654,33.393,31.326,35.686l10.917-20.611C53.591,65.78,51.51,66.215,49.326,66.215z"/>
	<path d="M48.865,33.796v-0.009l31.915-1.235C74.65,21.447,62.83,13.923,49.248,13.922
		c-11.256,0-21.304,5.178-27.901,13.27l11.966,20.249C34.518,39.85,40.987,34.019,48.865,33.796z"/>
</g>
</svg>
