<?xml version="1.0" encoding="utf-8"?>
<!-- Generator: Adobe Illustrator 28.0.0, SVG Export Plug-In . SVG Version: 6.00 Build 0)  -->
<svg version="1.1" id="Layer_1" xmlns="http://www.w3.org/2000/svg" xmlns:xlink="http://www.w3.org/1999/xlink" x="0px" y="0px"
	 viewBox="0 0 32 32" style="enable-background:new 0 0 32 32;" xml:space="preserve">
<style type="text/css">
	.st0{fill:#6244B0;}
	.st1{fill:#FFFFFF;}
</style>
<rect class="st0" width="32" height="32"/>
<g>
	<path class="st1" d="M15.1,17.5l-1.4,3.1l1.1,3.1l0.5,2.9h1.6l0.5-2.8l1.1-3.2l-1.4-3.1L15.1,17.5L15.1,17.5z M16.4,18.3l1,2.3
		L16,22.1l-1.5-1.5l1.1-2.3H16.4z M15.9,25.8l-0.3-2l0.5-0.5l0.5,0.5l-0.3,2H15.9z M15.5,22.7l-0.2,0.2l-0.2-0.6L15.5,22.7z
		 M17,22.3l-0.2,0.7l-0.2-0.2L17,22.3z"/>
	<path class="st1" d="M11.6,14l-0.1-1.9l1.9-4.9l-3.3,4.5l-0.2,1.7l-2.5-0.7l-1.7-2.6L5.4,8l3-4L4.1,7.5l-0.3,3L5.6,13
		c-1.1,0.3-1.2,0.3-1.2,0.3c-0.1,0-0.1,0-1.9,1.9l-1.2,1.3l3.6-2.1l2.3-0.1l3.3,1.4c1,1.5,2.5,3.5,2.5,3.6l0.2,0.5l1.3-2.8L11.6,14z
		 M10.1,14.8l-2.7-1.1l-0.2-0.2l0,0l2.7,0.7L10.1,14.8z M5.1,10.7l1.4,2.1l-0.1,0L5,10.7L5.1,10.7z M4.7,10l0.1-0.8L4.9,10L4.7,10z
		 M11,14.5l2.5,2.8l-0.4,0.9c-0.4-0.6-1.1-1.6-2.1-2.9l-0.2-0.8L11,14.5z M10.8,13.7l-0.1,0l0.1-0.8L10.8,13.7z"/>
	<path class="st1" d="M29.5,15.3c-1.9-1.9-1.9-1.9-1.9-1.9c0,0,0,0-1.2-0.3l1.7-2.5l-0.3-3L23.6,4l3,4l-0.3,2.1l-1.7,2.6l-2.5,0.7
		l-0.2-1.7l-3.3-4.5l1.9,4.9L20.4,14l-2.8,3.1l1,2.2l0.2,0.6l0.2-0.5c0.1-0.1,1.4-1.9,2.6-3.6l3.3-1.4l2.3,0.1l3.6,2.1L29.5,15.3z
		 M21.2,12.9l0.1,0.8l-0.1,0L21.2,12.9z M21.2,14.5L21,15.3c-1,1.4-1.7,2.3-2.1,2.9l-0.4-0.9l2.5-2.8L21.2,14.5z M27,10.7l-1.4,2.1
		l-0.1,0l1.4-2.1L27,10.7z M27.1,10l0.1-0.8l0.1,0.8L27.1,10z M24.9,13.5l-0.2,0.2l-2.7,1.1l0.2-0.6L24.9,13.5L24.9,13.5z"/>
</g>
</svg>
