<?xml version="1.0" encoding="utf-8"?>
<!-- Generator: Adobe Illustrator 16.0.3, SVG Export Plug-In . SVG Version: 6.00 Build 0)  -->
<!DOCTYPE svg PUBLIC "-//W3C//DTD SVG 1.1//EN" "http://www.w3.org/Graphics/SVG/1.1/DTD/svg11.dtd">
<svg version="1.1" id="Layer_1" xmlns="http://www.w3.org/2000/svg" xmlns:xlink="http://www.w3.org/1999/xlink" x="0px" y="0px"
	 width="100px" height="100px" viewBox="0 0 100 100" enable-background="new 0 0 100 100" xml:space="preserve">
<g>
	<path fill="none" d="M64.944,27.24c1.612,0,4.249,1.318,6.154,2.49c-1.612-2.49-5.422-6.301-9.817-9.671
		c3.673,0.896,6.632,2.505,9.182,4.188c-5.549-4.743-12.737-7.61-20.611-7.61c-8.772,0-16.701,3.552-22.451,9.3
		c-0.803,0.803-1.557,1.651-2.27,2.535c0.034,0.028,0.068,0.058,0.104,0.086c1.465-0.586,5.128-0.293,8.205-0.146
		c2.198-2.638,5.275-3.371,9.818-3.811c-3.371,1.759-4.689,6.447-4.689,6.447s-0.843,4.141,6.594,3.518
		c1.468-0.123,3.224,0.146,3.224,1.465s-1.172,2.345-1.759,3.225c-0.586,0.879-5.861,3.516-5.861,3.516s0.11,1.686,0.146,3.225
		c0.021,0.854-0.146,2.271-0.146,2.271s-1.275-1.053-2.49-1.539c-2.198-0.879-2.931,2.638-2.345,3.957
		c0.586,1.318,4.835,6.154,8.792,4.541c3.956-1.611,6.74-2.051,9.378-1.318s4.103,3.811,1.319,4.104
		c-2.785,0.293-2.198,0.293-6.008,2.637c-3.811,2.346-6.74,2.052-9.525,1.906c1.759,3.076,7.767,3.223,7.767,3.223
		s-0.733,0.879-1.612,0.733c10.258,4.103,15.973-2.784,15.973-2.784s0.146,1.172,0.293,1.758c6.008-3.663,5.715-12.309,5.715-12.309
		s0.879,1.318,1.611,1.905c1.026-3.81,0-13.628,0-13.628s0.879,0.732,2.492,2.198C72.271,35.738,69.193,31.342,64.944,27.24z"/>
	<path fill="#343642" d="M84.287,40.574c-0.142,0.377-0.297,0.67-0.444,0.904c-0.196-0.971-0.44-1.924-0.716-2.864
		c-0.409-3.874-1.883-9.888-6.934-12.772c-6.361-7.424-15.799-12.135-26.342-12.136c-10.785,0.001-20.418,4.923-26.779,12.642
		c-1.031-1.391-1.703-3.035-1.795-4.969c0,0-3.517,3.516-3.664,12.748c-3.809,7.033-4.542,8.645-4.688,13.188
		c0.586-1.318,1.026-2.051,1.026-2.051s-0.732,6.594-0.293,10.989c0.439-1.759,0.586-2.345,0.586-2.345s2.637,23.885,30.039,31.505
		c-0.879-0.732-1.025-1.318-1.025-1.318s4.688,1.611,9.377,1.611c-1.172-0.586-2.051-1.318-2.051-1.318s15.826,0.879,20.661-7.327
		c2.491-1.758,5.421-3.37,8.792-8.205c2.242-3.217,2.277-6.102,2.051-7.678c0.699-1.759,1.26-3.586,1.666-5.472
		C85.252,51.77,86.691,45.74,84.287,40.574z M69.633,41.453c0,0,1.026,9.818,0,13.628c-0.732-0.587-1.611-1.905-1.611-1.905
		s0.293,8.646-5.715,12.309c-0.146-0.586-0.293-1.758-0.293-1.758s-5.715,6.887-15.973,2.784c0.879,0.146,1.612-0.733,1.612-0.733
		s-6.008-0.146-7.767-3.223c2.785,0.146,5.715,0.439,9.525-1.906c3.81-2.344,3.223-2.344,6.008-2.637
		c2.783-0.293,1.318-3.371-1.319-4.104s-5.422-0.293-9.378,1.318c-3.957,1.613-8.206-3.223-8.792-4.541
		c-0.586-1.319,0.146-4.836,2.345-3.957c1.215,0.486,2.49,1.539,2.49,1.539s0.168-1.418,0.146-2.271
		c-0.036-1.539-0.146-3.225-0.146-3.225s5.275-2.637,5.861-3.516c0.587-0.88,1.759-1.906,1.759-3.225s-1.756-1.588-3.224-1.465
		c-7.437,0.623-6.594-3.518-6.594-3.518s1.318-4.688,4.689-6.447c-4.543,0.439-7.62,1.173-9.818,3.811
		c-3.077-0.146-6.74-0.439-8.205,0.146c-0.035-0.028-0.069-0.058-0.104-0.086c0.713-0.884,1.467-1.732,2.27-2.535
		c5.75-5.748,13.679-9.3,22.451-9.3c7.874,0,15.063,2.867,20.611,7.61c-2.55-1.684-5.509-3.293-9.182-4.188
		c4.396,3.37,8.205,7.181,9.817,9.671c-1.905-1.172-4.542-2.49-6.154-2.49c4.249,4.102,7.327,8.498,7.181,16.411
		C70.512,42.186,69.633,41.453,69.633,41.453z"/>
</g>
</svg>
