<?xml version="1.0" encoding="utf-8"?>
<!-- Generator: Adobe Illustrator 16.0.3, SVG Export Plug-In . SVG Version: 6.00 Build 0)  -->
<!DOCTYPE svg PUBLIC "-//W3C//DTD SVG 1.1//EN" "http://www.w3.org/Graphics/SVG/1.1/DTD/svg11.dtd">
<svg version="1.1" id="Layer_1" xmlns="http://www.w3.org/2000/svg" xmlns:xlink="http://www.w3.org/1999/xlink" x="0px" y="0px"
	 width="100px" height="100px" viewBox="0 0 100 100" enable-background="new 0 0 100 100" xml:space="preserve">
<g>
	<path fill="none" d="M24.968,66.102c-5.676,13.31-0.238,19.392,7.947,16.663c3.862-1.287,6.915-2.727,9.142-3.948
		C34.875,76.682,28.82,72.106,24.968,66.102z"/>
	<path fill="none" d="M50.708,35.092c-8.331-0.122-9.411,10.954-9.411,10.954h19.902C61.199,46.046,61.199,35.246,50.708,35.092z"/>
	<path fill="#343642" d="M60.61,22.943c6.305-3.842,13.904-6.905,18.382-4.667c5.143,2.571,2.365,14.604,2.365,14.604
		s5.335-12.438,0.206-16.045c-5.291-3.721-16.365-1.256-26.489,4.929c-1.279-0.157-2.58-0.248-3.903-0.25
		c-16.945,0.029-30.7,13.113-30.702,29.313c0,0.131,0.008,0.26,0.01,0.391C28.82,38.65,40.396,31.638,45.608,28.941
		c-11.111,9.939-19.916,21.605-24.728,31.71c-2.067,4.342-3.259,8.011-3.818,11.156c-0.832,4.678-0.25,8.19,1.042,10.957
		c2.16,4.628,9.667,5.45,15.839,2.88c3.62-1.509,7.935-4.152,10.548-6.217c2.152,0.458,4.384,0.709,6.679,0.713
		c13.617-0.023,25.169-8.48,29.184-20.209H60.736c0,0-1.389,6.479-9.874,6.479s-9.874-8.022-9.719-12.188h40.518
		c0.135-1.114,0.211-2.245,0.211-3.395C81.87,37.776,72.94,26.754,60.61,22.943z M42.057,78.816
		c-2.228,1.222-5.28,2.661-9.142,3.948c-8.185,2.729-13.624-3.354-7.947-16.663C28.82,72.106,34.875,76.682,42.057,78.816z
		 M41.297,46.046c0,0,1.081-11.076,9.411-10.954c10.491,0.154,10.491,10.954,10.491,10.954H41.297z"/>
</g>
</svg>
