<?xml version="1.0" encoding="utf-8"?>
<!-- Generator: Adobe Illustrator 16.0.3, SVG Export Plug-In . SVG Version: 6.00 Build 0)  -->
<!DOCTYPE svg PUBLIC "-//W3C//DTD SVG 1.1//EN" "http://www.w3.org/Graphics/SVG/1.1/DTD/svg11.dtd">
<svg version="1.1" id="Layer_1" xmlns="http://www.w3.org/2000/svg" xmlns:xlink="http://www.w3.org/1999/xlink" x="0px" y="0px"
	 width="100px" height="100px" viewBox="0 0 100 100" enable-background="new 0 0 100 100" xml:space="preserve">
<g>
	<path fill="#343642" d="M74.288,24.441c-5.719-6.527-14.18-10.562-25.04-10.56c-11.162-0.002-19.624,4.031-25.27,10.561
		c-5.648,6.528-8.479,15.526-8.479,25.44c0.034,19.866,15.093,35.997,33.749,35.999c18.654-0.002,33.713-16.133,33.748-35.999
		C82.996,39.966,80.01,30.968,74.288,24.441z M60.249,63.223c-1.991,11.868-6.93,13.688-11.261,13.688
		c-4.332,0-9.355-3.552-11.002-13.167c-1.512-8.836-1.213-23.303,0.087-29.367c1.3-6.063,2.858-12.474,11.088-12.561
		c5.978-0.063,9.208,5.142,10.31,9.443C60.423,34.983,62.277,51.142,60.249,63.223z"/>
</g> 
</svg>
