<?xml version="1.0" encoding="utf-8"?>
<!-- Generator: Adobe Illustrator 16.0.3, SVG Export Plug-In . SVG Version: 6.00 Build 0)  -->
<!DOCTYPE svg PUBLIC "-//W3C//DTD SVG 1.1//EN" "http://www.w3.org/Graphics/SVG/1.1/DTD/svg11.dtd">
<svg version="1.1" id="Layer_1" xmlns="http://www.w3.org/2000/svg" xmlns:xlink="http://www.w3.org/1999/xlink" x="0px" y="0px"
	 width="100px" height="100px" viewBox="0 0 100 100" enable-background="new 0 0 100 100" xml:space="preserve">
<g>
	<path fill="none" d="M47.25,50.479l-0.036-0.036l5.177-4.359c-0.906-0.443-1.918-0.699-2.994-0.7
		c-3.781,0.007-6.839,3.065-6.846,6.847c0.002,1.261,0.35,2.438,0.945,3.452l3.723-5.226L47.25,50.479z"/>
	<path fill="none" d="M51.578,54.66l-0.005-0.005l-4.655,3.946c0.769,0.301,1.603,0.471,2.479,0.473
		c3.781-0.006,6.839-3.065,6.846-6.844c-0.002-1.152-0.291-2.236-0.794-3.188L51.578,54.66z"/>
	<path fill="none" d="M49.099,28.271c-13.479,0-24.405,10.794-24.405,24.108s10.926,24.107,24.405,24.107
		s24.406-10.793,24.406-24.107S62.578,28.271,49.099,28.271z M44.96,31.736l2.62,3.236l0.068-0.01l-0.389-2.859l-0.691,0.094
		l-0.09-0.668l2.031-0.276l0.092,0.668l-0.66,0.089l0.605,4.447l-1.258,0.172l-2.901-3.588l-0.069,0.009l0.433,3.175l0.69-0.094
		l0.09,0.668L43.5,37.074l-0.09-0.666l0.658-0.09l-0.505-3.711l-0.659,0.089l-0.092-0.668L44.96,31.736z M29.952,59.596l0.109,0.633
		l-0.664,0.114L28.95,57.75l0.655-0.114l0.105,0.61l3.037-1.434l-0.012-0.062l-2.698-0.485l-0.616,0.303l0.098,0.564l-0.656,0.113
		l-0.436-2.532l0.656-0.112l0.111,0.647l3.022-1.416l-0.011-0.062l-3.324-0.338l0.107,0.626l-0.656,0.112L28,52.228l0.663-0.114
		l0.099,0.58l4.62,0.602L33.59,54.5l-2.657,1.306l2.974,0.532l0.205,1.189L29.952,59.596z M68.787,50.188
		c0.926-0.343,1.09-0.486,0.988-1.129l-0.197-1.237l-1.521,0.241l0.066,0.413c0.068,0.428,0.158,0.453,0.795,0.461l0.095,0.596
		l-2.041,0.325l-0.095-0.596c0.612-0.191,0.694-0.268,0.627-0.688l-0.064-0.412l-1.591,0.252l0.192,1.208
		c0.123,0.772,0.412,0.819,1.504,0.834l0.105,0.665l-1.986,0.316l-0.378-2.373l-8.253,4.36c-0.086,0.558-0.23,1.094-0.429,1.604
		l3.373,4.078l-4.866-1.674c-0.541,0.594-1.172,1.104-1.874,1.508l-0.615,8.729c0.532-0.028,1.02,0.124,1.314,0.389l0.086-0.625
		l0.665-0.108l0.303,1.864l-0.672,0.109c-0.469-0.803-0.951-1.125-1.761-0.992c-0.542,0.087-0.805,0.404-0.74,0.802
		c0.075,0.466,0.606,0.497,1.401,0.564c0.857,0.064,1.834,0.195,2.018,1.318c0.151,0.932-0.527,1.724-1.506,1.884
		c-0.55,0.089-1.057-0.041-1.373-0.35l-0.072,0.568l-0.673,0.109l-0.29-1.787l0.672-0.109c0.457,0.779,0.885,1.055,1.534,0.949
		c0.511-0.082,0.738-0.425,0.683-0.77c-0.082-0.504-0.658-0.527-1.444-0.588c-0.849-0.066-1.794-0.188-1.972-1.279
		c-0.155-0.954,0.49-1.758,1.583-1.936c0.009-0.001,0.018,0,0.026-0.001l-3.969-7.78c-0.805-0.101-1.564-0.335-2.272-0.661
		l-11.308,9.585l-0.436-0.4l8.517-11.957c-0.114-0.173-0.231-0.345-0.331-0.527l-8.695-0.289l-0.123-0.565l7.888-3.868l0.061-0.03
		c0.088-0.651,0.253-1.277,0.491-1.867l-3.443-4.478l5.486,1.594l0.006,0.001c0.385-0.341,0.803-0.644,1.25-0.902l0.672-10.043
		l4.507,9.013l0.056,0.112c0.846,0.15,1.643,0.442,2.369,0.843l11.396-9.602l-8.518,12.37c0.057,0.095,0.121,0.185,0.176,0.281
		l9.064,0.317l-0.357-2.244l0.666-0.105l0.109,0.688l3.699-0.588l-0.109-0.688l0.664-0.105l0.762,4.784l-1.788,0.284L68.787,50.188z
		"/>
	<path fill="none" d="M41.994,17.289c0.156-0.029,0.313-0.045,0.468-0.045c0.573,0.002,1.11,0.203,1.567,0.536
		c0.317-0.353,0.489-0.728,0.467-1.039c-0.001-0.054-0.004-0.106-0.011-0.156l0,0c-0.052-0.719-1.071-1.532-2.622-1.533
		c-0.197,0-0.4,0.015-0.609,0.044c-1.716,0.221-2.782,1.375-2.726,2.142c0,0.052,0.004,0.104,0.011,0.157
		c0.039,0.537,0.622,1.13,1.566,1.393C40.473,18.027,41.139,17.45,41.994,17.289z"/>
	<path fill="#343642" d="M49.248,19.49c-1.352,0-2.682,0.09-3.991,0.245c-0.034-0.173-0.079-0.342-0.139-0.502
		c0.694-0.66,1.138-1.509,1.164-2.492c0-0.13-0.009-0.263-0.028-0.397v-0.001c-0.318-1.998-2.305-3.077-4.391-3.075
		c-0.281,0-0.566,0.02-0.854,0.059c-2.286,0.322-4.211,1.816-4.268,3.911c0,0.134,0.01,0.268,0.027,0.401
		c0.248,1.56,1.519,2.556,3.058,2.919c0.009,0.075,0.007,0.149,0.021,0.225c0.004,0.018,0.011,0.033,0.014,0.051
		c-13.756,4.014-23.8,16.613-23.8,31.546c0,18.164,14.858,32.889,33.187,32.889s33.186-14.725,33.186-32.889
		S67.576,19.49,49.248,19.49z M38.539,17.395c-0.007-0.053-0.011-0.105-0.011-0.157c-0.057-0.767,1.01-1.921,2.726-2.142
		c0.209-0.029,0.412-0.044,0.609-0.044c1.551,0.001,2.57,0.814,2.622,1.533l0,0c0.007,0.05,0.01,0.103,0.011,0.156
		c0.022,0.312-0.149,0.687-0.467,1.039c-0.457-0.333-0.994-0.534-1.567-0.536c-0.155,0-0.312,0.016-0.468,0.045
		c-0.855,0.161-1.521,0.738-1.889,1.498C39.161,18.524,38.578,17.932,38.539,17.395z M49.099,76.486
		c-13.479,0-24.405-10.793-24.405-24.107s10.926-24.108,24.405-24.108s24.406,10.794,24.406,24.108S62.578,76.486,49.099,76.486z"/>
	<polygon fill="#343642" points="43.563,32.607 44.068,36.318 43.41,36.408 43.5,37.074 45.531,36.799 45.441,36.131 44.751,36.225 
		44.318,33.05 44.388,33.041 47.289,36.629 48.547,36.457 47.941,32.01 48.602,31.921 48.51,31.253 46.479,31.529 46.568,32.197 
		47.26,32.104 47.648,34.963 47.58,34.973 44.96,31.736 42.813,32.028 42.904,32.696 	"/>
	<polygon fill="#343642" points="30.933,55.806 33.59,54.5 33.382,53.295 28.762,52.693 28.663,52.113 28,52.228 28.334,54.172 
		28.99,54.06 28.883,53.434 32.207,53.771 32.218,53.833 29.195,55.249 29.084,54.602 28.428,54.714 28.863,57.246 29.52,57.133 
		29.422,56.568 30.038,56.266 32.736,56.751 32.748,56.813 29.711,58.246 29.605,57.636 28.95,57.75 29.397,60.343 30.062,60.229 
		29.952,59.596 34.111,57.527 33.906,56.338 	"/>
	<path fill="#343642" d="M69.92,45.784l-0.664,0.105l0.109,0.688l-3.699,0.588l-0.109-0.688l-0.666,0.105l0.357,2.244l-9.064-0.317
		c-0.055-0.097-0.119-0.187-0.176-0.281l8.518-12.37l-11.396,9.602c-0.727-0.4-1.523-0.692-2.369-0.843l-0.056-0.112l-4.507-9.013
		l-0.672,10.043c-0.447,0.259-0.865,0.562-1.25,0.902l-0.006-0.001l-5.486-1.594l3.443,4.478c-0.238,0.59-0.403,1.216-0.491,1.867
		l-8.24,4.26l9.11,0.493c0.1,0.183,0.217,0.354,0.331,0.527L34.42,68.426l0.436,0.4l11.308-9.585
		c0.708,0.326,1.468,0.561,2.272,0.661l3.969,7.78c-0.009,0.001-0.018,0-0.026,0.001c-1.093,0.178-1.738,0.981-1.583,1.936
		c0.178,1.092,1.123,1.213,1.972,1.279c0.786,0.061,1.362,0.084,1.444,0.588c0.056,0.345-0.172,0.688-0.683,0.77
		c-0.649,0.105-1.077-0.17-1.534-0.949l-0.672,0.109l0.29,1.787l0.673-0.109l0.072-0.568c0.316,0.309,0.823,0.438,1.373,0.35
		c0.979-0.16,1.657-0.952,1.506-1.884c-0.184-1.123-1.16-1.254-2.018-1.318c-0.795-0.067-1.326-0.099-1.401-0.564
		c-0.064-0.397,0.198-0.715,0.74-0.802c0.81-0.133,1.292,0.189,1.761,0.992l0.672-0.109l-0.303-1.864l-0.665,0.108l-0.086,0.625
		c-0.295-0.265-0.782-0.417-1.314-0.389l0.615-8.729c0.702-0.403,1.333-0.914,1.874-1.508l4.866,1.674l-3.373-4.078
		c0.198-0.511,0.343-1.047,0.429-1.604l8.253-4.36l0.378,2.373l1.986-0.316l-0.105-0.665c-1.092-0.015-1.381-0.062-1.504-0.834
		l-0.192-1.208l1.591-0.252l0.064,0.412c0.067,0.42-0.015,0.496-0.627,0.688l0.095,0.596l2.041-0.325l-0.095-0.596
		c-0.637-0.008-0.727-0.033-0.795-0.461l-0.066-0.413l1.521-0.241l0.197,1.237c0.102,0.643-0.063,0.786-0.988,1.129l0.106,0.665
		l1.788-0.284L69.92,45.784z M42.551,52.23c0.007-3.781,3.064-6.84,6.846-6.847c1.076,0.001,2.088,0.257,2.994,0.7l-5.177,4.359
		l0.036,0.036l-0.031-0.022l-3.723,5.226C42.9,54.668,42.553,53.491,42.551,52.23z M47.678,50.839l0.254,0.246
		c-0.342,0.37-0.556,0.861-0.556,1.405c0,1.146,0.93,2.074,2.075,2.074c0.57,0,1.084-0.229,1.459-0.6l0.262,0.252L36.285,66.832
		L47.678,50.839z M49.451,53.672c-0.652,0-1.181-0.529-1.182-1.182c0.001-0.653,0.529-1.182,1.182-1.184
		c0.654,0.002,1.182,0.53,1.184,1.184C50.633,53.143,50.105,53.672,49.451,53.672z M49.396,59.074
		c-0.876-0.002-1.71-0.172-2.479-0.473l4.655-3.946l0.005,0.005l3.87-5.618c0.503,0.952,0.792,2.036,0.794,3.188
		C56.235,56.009,53.178,59.068,49.396,59.074z"/>
</g>
</svg>
