<?xml version="1.0" encoding="utf-8"?>
<!-- Generator: Adobe Illustrator 16.0.0, SVG Export Plug-In . SVG Version: 6.00 Build 0)  -->
<!DOCTYPE svg PUBLIC "-//W3C//DTD SVG 1.1//EN" "http://www.w3.org/Graphics/SVG/1.1/DTD/svg11.dtd">
<svg version="1.1" id="Layer_1" xmlns="http://www.w3.org/2000/svg" xmlns:xlink="http://www.w3.org/1999/xlink" x="0px" y="0px"
	 width="400px" height="133px" viewBox="0 0 400 133" enable-background="new 0 0 400 133" xml:space="preserve">
<g id="Layer_1_1_">
	<rect y="-0.5" width="400" height="134"/>
</g>
<g id="Layer_2">
	<g>
		<path fill="#FFFFFF" d="M227.639,72.229h-8.89l-2.138,6.496h-4.744l8.922-25.337h4.813l8.928,25.337h-4.754L227.639,72.229z
			 M223.175,57.778c0,0-0.571,2.498-1.067,3.923l-2.248,6.777h6.635l-2.249-6.777c-0.466-1.43-0.997-3.923-0.997-3.923H223.175z"/>
	</g>
	<g>
		<path fill="#FFFFFF" d="M241.342,53.39h8.172c2.747,0,3.997,0.213,5.101,0.718c2.534,1.137,4.142,3.568,4.142,6.92
			c0,3.035-1.605,5.848-4.281,6.929v0.072c0,0,0.354,0.354,0.857,1.25l5.21,9.453h-5.137l-5.033-9.455h-4.429v9.453h-4.604V53.39
			H241.342z M250.082,65.272c2.462,0,3.996-1.462,3.996-3.996c0-2.427-1.031-3.924-4.639-3.924h-3.498v7.924L250.082,65.272
			L250.082,65.272z"/>
	</g>
	<g>
		<path fill="#FFFFFF" d="M268.395,53.39h8.639c7.814,0,12.914,4.64,12.914,12.63c0,8-5.1,12.703-12.914,12.703h-8.639V53.39z
			 M276.783,74.764c5.14,0,8.417-3.031,8.417-8.744c0-5.634-3.358-8.669-8.417-8.669h-3.786v17.413H276.783z"/>
	</g>
	<g>
		<path fill="#FFFFFF" d="M298.195,72.229c0,0,2.75,2.678,6.316,2.678c1.926,0,3.676-0.996,3.676-3.065
			c0-4.538-11.955-3.753-11.955-11.528c0-4.212,3.639-7.35,8.492-7.35c4.998,0,7.564,2.71,7.564,2.71l-1.998,3.749
			c0,0-2.436-2.21-5.607-2.21c-2.138,0-3.818,1.25-3.818,3.033c0,4.5,11.915,3.391,11.915,11.495c0,4.031-3.065,7.419-8.349,7.419
			c-5.638,0-8.742-3.457-8.742-3.457L298.195,72.229z"/>
	</g>
	<g>
		<path fill="#666666" d="M175.704,53.39l-4.175,17.527c-0.319,1.427-0.426,2.673-0.426,2.673h-0.073
			c-0.038,0-0.073-1.213-0.465-2.673L166.07,53.39h-3.997l-4.566,17.527c-0.395,1.457-0.429,2.673-0.465,2.673h-0.071
			c0,0-0.112-1.249-0.427-2.673l-2.99-13.124l-2.248,9.568l2.845,11.363h5.318l3.889-14.988c0.427-1.642,0.644-3.317,0.644-3.317
			h0.068c0,0,0.213,1.676,0.645,3.317l3.895,14.988h5.314l6.535-25.339L175.704,53.39L175.704,53.39z"/>
	</g>
	<g>
		<path fill="#666666" d="M204.292,53.39l-4.178,17.527c-0.318,1.427-0.425,2.673-0.425,2.673h-0.075
			c-0.032,0-0.067-1.213-0.459-2.673l-4.5-17.527h-3.993l-4.569,17.527c-0.396,1.457-0.427,2.673-0.463,2.673h-0.073
			c0,0-0.107-1.249-0.427-2.673l-3.008-13.183l-2.248,9.568l2.866,11.425h5.315l3.888-14.986c0.427-1.643,0.646-3.319,0.646-3.319
			h0.07c0,0,0.215,1.676,0.643,3.319l3.893,14.986h5.317l6.533-25.336H204.292L204.292,53.39z"/>
	</g>
	<g>
		<path fill="#FFFFFF" d="M109.966,72.229h-8.887l-2.141,6.496H94.19l8.922-25.333h4.819l8.92,25.333h-4.746L109.966,72.229z
			 M105.505,57.778c0,0-0.573,2.498-1.07,3.923l-2.249,6.777h6.638l-2.252-6.774c-0.462-1.428-0.999-3.926-0.999-3.926H105.505z"/>
	</g>
	<g>
		<path fill="#FFFFFF" d="M141.978,70.914c0.392,1.46,0.426,2.674,0.461,2.674h0.072c0,0,0.11-1.252,0.428-2.674l4.174-17.528h4.747
			l-6.533,25.339h-5.315l-3.888-14.989c-0.427-1.642-0.646-3.318-0.646-3.318h-0.071c0,0-0.211,1.676-0.642,3.318l-3.891,14.987
			h-5.316l-6.35-25.333h4.746l3.999,17.527c0.322,1.427,0.428,2.673,0.428,2.673h0.072c0.038,0,0.068-1.213,0.464-2.673
			l4.568-17.527h3.992L141.978,70.914z"/>
	</g>
	<g>
		<path fill="#FFFFFF" d="M322.732,53.322c2.427,0,4.356,1.96,4.356,4.429c0,2.483-1.933,4.431-4.356,4.431
			c-2.381,0-4.303-1.947-4.303-4.431C318.43,55.285,320.354,53.322,322.732,53.322z M322.732,61.667
			c2.152,0,3.805-1.701,3.805-3.912c0-2.203-1.654-3.912-3.805-3.912c-2.114,0-3.756,1.714-3.756,3.912
			C318.977,59.969,320.621,61.667,322.732,61.667z M321.318,55.309h1.623c0.828,0,1.422,0.565,1.422,1.42
			c0,0.721-0.437,1.184-0.942,1.308v0.023c0,0,0.043,0.064,0.162,0.271l0.965,1.872h-0.601l-1.038-2.044h-1.056v2.044h-0.529
			L321.318,55.309L321.318,55.309z M322.883,57.691c0.563,0,0.93-0.361,0.93-0.963c0-0.585-0.365-0.935-0.93-0.935h-1.027v1.897
			L322.883,57.691L322.883,57.691z"/>
	</g>
</g>
</svg>
