<?xml version="1.0" encoding="utf-8"?>
<!-- Generator: Adobe Illustrator 16.0.0, SVG Export Plug-In . SVG Version: 6.00 Build 0)  -->
<!DOCTYPE svg PUBLIC "-//W3C//DTD SVG 1.1//EN" "http://www.w3.org/Graphics/SVG/1.1/DTD/svg11.dtd">
<svg version="1.1" id="Layer_1" xmlns="http://www.w3.org/2000/svg" xmlns:xlink="http://www.w3.org/1999/xlink" x="0px" y="0px"
	 width="400px" height="133px" viewBox="0 0 400 133" enable-background="new 0 0 400 133" xml:space="preserve">
<g id="Layer_1_1_">
	<rect y="-0.5" width="400" height="134"/>
</g>
<g id="Layer_2">
	<g>
		<circle fill="#666666" cx="142.141" cy="66.125" r="28.788"/>
		<path fill="#FFFFFF" d="M272.986,74.098c-2.532,4.269-6.438,5.223-11.182,4.482c-0.838,3.722-0.066,7.5-0.498,11.218
			c-1.537,0.542-2.867,0.468-4.509,0.048c0-7.361,0-14.729,0-22.076c-1.698-0.49-2.553,0.455-3.471,1.146
			c-1.683,7.2-4.504,9.967-10.038,9.881c-4.842-0.075-8.204-2.996-9.13-7.93c-0.974-5.181,1.239-10.194,5.313-12.055
			c5.049-2.305,9.162-0.636,13.697,5.554c2.561-1.925,2.561-1.925,4.131-5.462c5.762,0.245,12.114-1.363,16.079,5.133
			c3.345-1.369,4.458-4.55,5.696-7.484c1.311-0.726,2.518-0.597,3.744-0.247c0.725,1.348-0.887,2.314-0.487,3.576
			c0.31,1.121,1.373,1.643,2.065,2.476c2.938,3.527,3.359,7.435,1.457,11.493c-1.838,3.918-5.246,5.193-9.388,4.883
			c-0.47-0.035-0.942-0.03-1.413-0.043c-1.453-1.105-0.791-2.424-0.457-3.674c6.717-3.357,6.92-3.672,5.264-8.117
			C274.971,66.812,275.677,72.088,272.986,74.098z"/>
		<path fill="#FFFFFF" d="M208.471,57.316c0-1.837,0-3.572,0-5.711c-0.27-1.313-3.396-2.06-0.914-4.93
			c1.184-0.626,3.172,0.167,5.536-0.158c0,7.949-0.016,15.488,0.015,23.027c0.006,1.661-0.489,3.593,2.039,4.488
			c2.549-0.515,3.658-2.274,3.636-4.987c-0.026-3.297-0.007-6.596-0.007-9.92c1.633-0.616,2.957-0.421,4.276,0.094
			c0.243,0.742,0.478,1.46,0.771,2.352c2.543-2.215,5.301-3.588,8.855-2.819c0.514,2.427,0.449,4.895,0.025,7.502
			c-1.192-0.192-2.251-0.362-2.938-0.472c-1.109-0.869-0.272-2.234-1.74-2.752c-6.691,2.974-3.676,9.388-4.777,14.735
			c-2.961,0.066-5.973-0.097-8.92,0.926c-2.117,0.733-3.754-1.1-5.206-2.602c-1.651,1.528-3.265,2.643-5.445,2.791
			c-4.04,0.277-6.645-1.369-7.921-5.211c-2.522-7.592,1.776-14.551,9.65-15.667C206.313,57.873,207.305,58.24,208.471,57.316z"/>
		<path fill="#FFFFFF" d="M173.186,65.045c-1.394,0.374-2.29,0.69-3.247,0.331c-1.382-0.548-0.289-2.547-1.779-3.036
			c-3.917,0.821-5.543,2.231-6.005,5.391c-0.376,2.576,0.434,4.787,2.807,5.978c3.313,1.66,6.388,1.089,8.918-1.413
			c0.515-1.266,0.349-2.367,0.377-3.463c0.191-7.235,4.4-11.476,10.725-10.85c5.874,0.581,9.281,5.796,8.212,12.569
			c-1.069,6.774-7.708,10.221-13.906,7.186c-0.979-0.479-1.855-1.17-3.044-1.932c-3.427,2.229-7.306,3.795-11.74,2.942
			c-2.059-0.396-3.875-1.265-5.283-2.892c-2.642-3.053-3.01-8.965-0.779-12.938c2.494-4.441,7.255-5.92,14.409-4.318
			C173.75,60.554,173.164,62.704,173.186,65.045z"/>
		<path fill="#FFFFFF" d="M138.181,57.383c1.339-2.094,2.68-4.188,4.364-6.821c3.961,6.424,7.75,12.58,9.322,19.766
			c0.816,3.732-1.37,7.621-4.739,9.462c-3.42,1.869-8.142,1.351-10.989-1.278c-1.033-0.955-2.013-1.998-2.324-3.464
			c0.486-0.687,1.262-0.876,1.977-1.2c4.606-2.094,5.382-4.22,3.578-9.033C138.483,62.445,136.207,60.234,138.181,57.383z"/>
		<path fill="#999999" d="M139.985,63.477c3.518,10.823-1.874,11.794-6.17,11.571c-4.454-1.883-5.219-3.799-4.17-8.114
			c1.065-4.383,3.436-7.976,5.547-11.485C137.284,58.543,139.317,61.423,139.985,63.477z"/>
		<path d="M272.986,74.098c0.39-1.82,0.779-3.641,1.184-5.524c1.646-1.593,3.844-2.531,5.264-4.395
			c2.818,2.669,3.506,4.958,2.45,7.53c-1.299,3.164-3.94,3.64-6.802,3.147c-0.857,1.494-0.488,2.664-0.025,3.832
			c-1.313-0.121-1.291-1.099-1.324-2.052C273.701,75.729,273.965,74.729,272.986,74.098z"/>
		<path d="M247.367,64.564c-1.045,0.908-1.856,2.646-1.973,4.047c0.453,1.266,2.183,0.119,2.709,1.664
			c-0.269,0.675-0.469,1.629-0.974,2.379c-2.116,3.135-5.802,2.896-7.46-0.467c-0.929-1.888-1.118-3.912-0.602-5.953
			c0.524-2.072,1.5-3.872,3.828-4.267C245.053,61.603,246.381,62.827,247.367,64.564z"/>
		<path d="M261.581,62.828c2.702-0.331,4.735,0.104,6.707,2.222c-2.521,0.572-2.402,2.125-1.863,3.873
			c0.587,0.834,1.871-0.048,2.447,0.914c-1.593,5.218-2.524,5.742-7.291,3.952C261.581,70.277,261.581,66.704,261.581,62.828z"/>
		<path d="M208.361,62.092c0,2.443,0.084,4.606-0.02,6.76c-0.201,4.244-1.813,5.438-6.521,4.894
			c-2.441-2.416-2.304-5.274-1.012-8.165C202.135,62.612,204.622,61.622,208.361,62.092z"/>
		<path d="M188.518,68.598c-0.127,0.793-0.165,1.744-0.44,2.623c-0.66,2.102-1.975,3.611-4.336,3.586
			c-2.131-0.021-3.336-1.356-4.044-3.302c-0.667-1.83-0.771-3.653-0.251-5.505c0.635-2.257,1.813-4.119,4.44-4.054
			c2.587,0.063,3.756,1.941,4.37,4.19C188.459,66.875,188.428,67.68,188.518,68.598z"/>
	</g>
</g>
</svg>
