<?xml version="1.0" encoding="utf-8"?>
<!-- Generator: Adobe Illustrator 16.0.0, SVG Export Plug-In . SVG Version: 6.00 Build 0)  -->
<!DOCTYPE svg PUBLIC "-//W3C//DTD SVG 1.1//EN" "http://www.w3.org/Graphics/SVG/1.1/DTD/svg11.dtd">
<svg version="1.1" id="Layer_1" xmlns="http://www.w3.org/2000/svg" xmlns:xlink="http://www.w3.org/1999/xlink" x="0px" y="0px"
	 width="400px" height="133px" viewBox="0 0 400 133" enable-background="new 0 0 400 133" xml:space="preserve">
<g id="Layer_1_1_">
	<rect y="-0.5" width="400" height="134"/>
</g>
<g id="Layer_2">
	<g>
		<path fill="#FEFDFD" d="M203.314,66.506c0-3.332,0.025-6.664-0.008-9.996c-0.022-2.174,0.914-3.213,3.164-3.161
			c3.329,0.077,6.662-0.007,9.994,0.033c4.014,0.048,7.503,2.08,8.194,5.284c0.87,4.038,0.782,7.753-3.521,10.218
			c-1.432,0.819-1.135,1.593-0.354,2.572c1.14,1.433,2.304,2.845,3.408,4.302c0.891,1.172,1.226,2.477-0.024,3.564
			c-1.331,1.158-2.729,0.683-3.743-0.479c-1.585-1.813-2.97-3.799-4.505-5.657c-0.778-0.941-1.346-2.16-2.653-2.543
			c-3.47-1.012-4.832,0.006-4.836,3.572c0,0.833-0.015,1.666-0.005,2.498c0.021,1.699-0.602,3.145-2.405,3.206
			c-1.918,0.065-2.713-1.323-2.709-3.17C203.32,73.336,203.314,69.921,203.314,66.506z"/>
		<path fill="#FEFEFD" d="M275.919,65.39c3.142-3.186,6.282-6.372,9.427-9.555c0.645-0.651,1.237-1.374,1.967-1.912
			c1.203-0.89,2.498-1.426,3.722,0.033c1.132,1.348,0.551,2.461-0.509,3.479c-2.156,2.071-4.284,4.175-6.512,6.168
			c-1.091,0.977-1.182,1.608-0.148,2.791c2.554,2.928,4.959,5.991,7.318,9.079c1.564,2.045,0.969,4.002-1.172,4.428
			c-1.313,0.261-2.021-0.635-2.687-1.449c-2.421-2.958-4.863-5.904-7.121-8.985c-0.813-1.11-1.242-0.903-2.07-0.19
			c-1.881,1.623-3.517,3.311-2.956,6.115c0.112,0.56,0.016,1.161,0,1.743c-0.043,1.661-0.886,2.804-2.537,2.788
			c-1.65-0.016-2.508-1.191-2.521-2.831c-0.033-3.909-0.02-7.821-0.02-11.732c-0.002-3.079,0.006-6.157,0.004-9.236
			c-0.002-1.741,0.774-3.055,2.552-3.062c1.786-0.008,2.545,1.301,2.536,3.049c-0.016,2.97-0.004,5.939-0.004,8.909
			C275.432,65.142,275.675,65.266,275.919,65.39z"/>
		<path fill="#FEFEFD" d="M315.646,69.872c1.313,4.155-0.66,8.172-4.729,9.593c-4.979,1.74-9.48,0.48-13.741-2.224
			c-1.247-0.791-2.065-1.865-1.214-3.325c0.918-1.573,2.432-1.338,3.719-0.609c1.666,0.943,3.293,1.824,5.19,2.303
			c1.5,0.377,2.791,0.127,4.122-0.361c1.154-0.425,2.154-1.201,2.162-2.467c0.008-1.412-0.776-2.521-2.225-2.979
			c-2.527-0.796-5.13-1.402-7.57-2.402c-3.625-1.488-5.305-4.144-4.979-7.24c0.377-3.552,2.456-5.837,6.244-6.86
			c2.206-0.277,4.145-0.68,6.568-0.015c1.582,0.237,3.035,0.852,4.383,1.673c1.291,0.788,1.845,2.024,1.16,3.42
			c-0.711,1.448-2.155,1.181-3.297,0.748c-1.392-0.526-2.728-1.183-4.146-1.674c-1.486-0.514-2.777-0.262-4.077,0.389
			c-1.026,0.514-1.702,1.293-1.743,2.521c-0.043,1.306,0.768,2.033,1.814,2.413c2.561,0.93,5.15,1.781,7.754,2.589
			c1.494,0.463,2.666,1.307,3.605,2.522C315.23,68.424,315.293,69.221,315.646,69.872z"/>
		<path fill="#FEFEFD" d="M251.707,57.962c-7.27,3.438-6.639,14.188-0.053,16.91c2.343,0.739,4.689,0.646,7.039,0.043
			c0.828-0.541,1.644-1.104,2.488-1.616c1.252-0.761,2.516-0.943,3.558,0.319c1.045,1.268,0.397,2.478-0.579,3.28
			c-4.424,3.641-9.441,4.477-14.695,2.271c-4.902-2.059-7.611-5.88-8.005-11.316c-0.423-5.855,1.581-10.529,6.746-13.385
			c4.772-2.638,9.704-2.393,14.476,0.344c1.545,0.886,2.98,2,1.993,3.897c-1.099,2.109-2.85,1.485-4.442,0.391
			c-0.545-0.375-1.068-0.78-1.603-1.172C256.316,57.011,254.009,56.741,251.707,57.962z"/>
		<path fill="#666666" d="M130.125,55.421c0.672,0.955,1.515,1.879,0.438,3.09c-1.067,1.198-2.207,0.868-3.365,0.184
			c-1.834-1.085-3.786-1.699-5.942-1.521c-1.788,0.147-3.323,0.726-3.661,2.724c-0.329,1.947,0.934,2.907,2.557,3.443
			c2.206,0.729,4.473,1.282,6.656,2.069c3.818,1.377,5.434,3.688,5.252,7.234c-0.172,3.353-2.548,6.138-6.161,6.91
			c-4.542,0.971-8.748,0.004-12.583-2.606c-1.274-0.867-1.486-2.048-0.674-3.229c0.822-1.195,1.874-0.943,3.022-0.187
			c2.474,1.634,5.161,2.672,8.222,2.293c1.807-0.224,3.247-0.957,3.504-2.933c0.25-1.918-0.983-2.916-2.607-3.449
			c-2.052-0.672-4.167-1.153-6.205-1.858c-4.448-1.538-6.04-3.977-5.503-8.22c0.43-3.407,3.262-5.785,7.396-6.171
			c2.256-0.21,4.482-0.033,6.643,0.704C128.166,54.312,129.275,54.61,130.125,55.421z"/>
		<path fill="#666666" d="M145.142,68.42c-1.177-0.408-2.384-0.749-3.527-1.236c-3.615-1.546-4.887-3.641-4.577-7.384
			c0.261-3.153,2.373-5.624,5.778-6.354c3.599-0.771,7.134-0.417,10.376,1.482c1.155,0.677,2.437,1.559,1.637,3.147
			c-0.821,1.629-2.218,1.472-3.615,0.627c-1.981-1.199-4.115-1.795-6.436-1.481c-1.598,0.216-2.903,0.91-3.182,2.663
			c-0.286,1.795,0.747,2.827,2.322,3.35c2.284,0.757,4.623,1.356,6.884,2.171c3.821,1.376,5.438,3.678,5.262,7.228
			c-0.169,3.428-2.436,6.108-6.131,6.912c-4.539,0.988-8.745,0.023-12.587-2.578c-1.273-0.861-1.499-2.02-0.717-3.229
			c0.808-1.247,2.007-1.031,3.062-0.301c2.321,1.607,4.792,2.614,7.686,2.433c1.594-0.101,2.933-0.544,3.775-1.998
			c0.747-1.802,0.076-3.073-1.501-4.003l0,0C148.229,69.134,146.626,68.961,145.142,68.42z"/>
		<path fill="#666666" d="M94.202,53.418c4.011-0.551,7.976-0.777,11.592,1.581c1.361,0.887,2.952,1.842,1.813,3.715
			c-1.121,1.845-2.651,1.029-4.094,0.11c-3.305-2.106-6.721-2.392-10.081-0.178c-3.285,2.164-4.265,5.455-3.852,9.152
			c0.413,3.688,2.383,6.365,5.984,7.58c3.075,1.037,5.905,0.321,8.488-1.542c0.965-0.695,1.94-1.418,3.165-0.605
			c1.294,0.856,1.108,2.401-0.382,3.768c-5.259,4.82-18.275,4.607-21.499-6.355c-1.889-6.418,0.25-11.587,5.362-15.677
			C91.812,54.326,92.98,53.813,94.202,53.418z"/>
		<path fill="#FEFDFC" d="M188.196,53.372c2.83-0.002,5.661,0.018,8.491-0.011c1.448-0.015,2.529,0.497,2.585,2.042
			c0.058,1.625-0.964,2.379-2.541,2.423c-0.083,0.002-0.166,0-0.249,0.005c-5.524,0.315-5.524,0.315-5.524,6.009
			c0,3.829,0,7.659,0,11.489c-0.001,0.499-0.013,0.999-0.005,1.498c0.028,1.926-1.002,3.11-2.832,3.067
			c-1.73-0.041-2.19-1.41-2.176-3.033c0.047-5.161,0.017-10.323,0.015-15.485c-0.001-3.538-0.002-3.535-3.431-3.542
			c-0.999-0.002-2.012,0.079-2.993-0.062c-1.285-0.184-2.208-1.029-2.133-2.337c0.071-1.247,0.809-2.107,2.3-2.078
			C182.534,53.414,185.365,53.375,188.196,53.372z"/>
		<path fill="#FDFCFA" d="M235.48,66.579c0.002,3.323-0.053,6.649,0.024,9.972c0.041,1.784-0.321,3.372-2.342,3.389
			c-1.933,0.016-2.591-1.594-2.638-3.301c-0.076-2.74-0.037-5.484-0.039-8.228c-0.004-3.739,0.011-7.479-0.006-11.219
			c-0.004-1.19,0.088-2.394,0.873-3.298c0.584-0.671,1.422-1.104,2.451-0.739c1.186,0.42,1.688,1.215,1.68,2.455
			C235.462,59.266,235.479,62.923,235.48,66.579z"/>
		<path fill="#FDFCFA" d="M168.843,70.534c-1.165,0.002-2.331,0.028-3.495-0.005c-1.523-0.043-2.333-1.082-2.427-2.379
			c-0.094-1.289,0.908-2.297,2.135-2.383c2.481-0.173,4.991-0.169,7.471,0.007c1.174,0.083,2.18,0.819,2.131,2.317
			c-0.05,1.527-0.903,2.298-2.321,2.42C171.181,70.611,170.008,70.532,168.843,70.534z"/>
		<path d="M213.188,57.831c0.916,0,1.836-0.054,2.746,0.01c2.674,0.188,3.938,1.391,4.035,3.765c0.1,2.433-1.225,4.194-3.734,4.46
			c-2.142,0.227-4.322,0.067-6.486,0.085c-0.957,0.008-1.327-0.501-1.311-1.406c0.017-0.749-0.008-1.499-0.008-2.248
			C208.428,57.745,208.428,57.745,213.188,57.831z"/>
	</g>
</g>
</svg>
