<?xml version="1.0" encoding="utf-8"?>
<!-- Generator: Adobe Illustrator 16.0.0, SVG Export Plug-In . SVG Version: 6.00 Build 0)  -->
<!DOCTYPE svg PUBLIC "-//W3C//DTD SVG 1.1//EN" "http://www.w3.org/Graphics/SVG/1.1/DTD/svg11.dtd">
<svg version="1.1" id="Layer_1" xmlns="http://www.w3.org/2000/svg" xmlns:xlink="http://www.w3.org/1999/xlink" x="0px" y="0px"
	 width="400px" height="133px" viewBox="0 0 400 133" enable-background="new 0 0 400 133" xml:space="preserve">
<g id="Layer_1_1_">
	<rect y="-0.5" width="400" height="134"/>
</g>
<g id="Layer_2">
	<g>
		<path fill="#FCFCFC" d="M272.218,55.996c-7.752-10.452-15.643-20.799-23.467-31.196c-4.914-6.597-21.565-3.222-24.481-2.889
			c-24.896,2.834-49.803,5.583-74.707,8.344c-2.793,0.312-4.981,1.559-6.497,3.939c-5.2,8.173-10.419,16.333-15.585,24.527
			c-0.983,1.561-1.497,3.124-1.499,4.668c-0.001,0.043-0.001,0.086-0.002,0.128c0.001,0.042,0,0.085,0.002,0.129
			c0.002,1.545,0.516,3.107,1.499,4.668c5.166,8.194,10.385,16.354,15.585,24.527c1.516,2.382,3.704,3.629,6.497,3.939
			c24.904,2.762,49.81,5.51,74.707,8.345c2.916,0.332,19.567,3.708,24.481-2.89c7.824-10.397,15.715-20.745,23.467-31.196
			c1.728-2.328,2.757-4.979,2.757-7.522C274.975,60.822,273.943,58.324,272.218,55.996z"/>
		<g>
			<path d="M241.678,43.815c2.631,0,5.26-0.011,7.889,0.003c1.4,0.008,3.092-0.026,3.014,1.9c-0.078,1.898-1.799,1.732-3.176,1.736
				c-4.012,0.011-8.029,0.128-12.035-0.04c-2.439-0.102-2.989,0.707-3.559,3.199c-0.154,0.672-0.252,1.539-0.311,1.998
				c-0.484,3.807-0.874,5.378,4.313,4.1c5.535-1.364,11.58,2.787,13.881,8.296c2.375,5.688,0.687,12.348-4.082,16.089
				c-4.842,3.801-11.851,4.018-16.592,0.457c-1.17-0.879-3.008-1.81-1.914-3.563c1.156-1.854,2.547-0.476,3.842,0.354
				c4.882,3.129,10.087,2.605,13.515-1.271c3.248-3.676,3.319-9.629,0.158-13.353c-3.377-3.973-8.89-4.477-13.858-1.261
				c-0.886,0.573-1.597,1.741-2.878,1.065c-1.382-0.729-1.145-2.063-0.997-3.302c0.534-4.529,1.11-9.055,1.612-13.587
				c0.226-2.027,1.263-2.896,3.291-2.84C236.419,43.871,239.05,43.816,241.678,43.815z"/>
			<path d="M180.513,67.525c-0.001-0.276-0.037-0.559,0.003-0.829c0.45-2.933-0.836-8.466,0.817-8.373
				c4.365,0.246,9.403-3.152,13.28,1.264c1.347,1.535,2.121,0.66,3.352-0.208c5.988-4.229,12.889-1.133,13.652,6.198
				c0.355,3.423,0.156,6.908,0.134,10.365c-0.007,0.968-0.231,2.07-1.547,2.028c-1.302-0.044-1.399-1.102-1.403-2.109
				c-0.009-2.906,0.025-5.813-0.018-8.721c-0.065-4.438-1.939-6.609-5.637-6.613c-3.62-0.004-5.383,2.145-5.459,6.735
				c-0.048,2.906,0.002,5.814-0.055,8.721c-0.02,0.987-0.244,2.064-1.551,2.013c-1.285-0.05-1.417-1.093-1.419-2.108
				c-0.009-3.044,0.051-6.092-0.027-9.134c-0.106-4.12-2.053-6.226-5.606-6.227c-3.497,0-5.367,2.105-5.473,6.313
				c-0.073,2.906,0.007,5.814-0.042,8.72c-0.018,1.079,0.036,2.49-1.55,2.396c-1.463-0.09-1.442-1.42-1.446-2.541
				C180.509,72.786,180.515,70.155,180.513,67.525z"/>
			<path d="M148.27,58.991c9.786-3.521,14.697-0.034,14.705,9.763c0.002,2.076,0.027,4.152-0.011,6.229
				c-0.023,1.191,0.296,2.88-1.425,2.932c-2.097,0.065-1.625-1.824-1.654-3.107c-0.063-2.767,0.026-5.535-0.032-8.303
				c-0.087-4.175-1.859-6.01-5.676-5.998c-3.729,0.011-5.724,1.957-5.871,5.964c-0.116,3.18-0.014,6.366-0.053,9.549
				c-0.011,0.965-0.045,2.089-1.463,1.98c-1.038-0.078-1.289-0.962-1.291-1.813c-0.021-8.44-0.02-16.883,0-25.325
				c0.002-0.883,0.38-1.789,1.352-1.778c1.271,0.015,1.404,1.12,1.412,2.122C148.284,53.679,148.27,56.154,148.27,58.991z"/>
			<path d="M220.146,63.932c0,3.861,0.024,7.722-0.017,11.58c-0.012,1.07,0.06,2.456-1.487,2.472
				c-1.527,0.015-1.527-1.313-1.529-2.42c-0.014-7.996-0.012-15.992-0.002-23.989c0-1.114-0.002-2.446,1.477-2.479
				c1.518-0.035,1.536,1.335,1.545,2.43C220.164,55.659,220.145,59.795,220.146,63.932z"/>
			<path d="M171.994,63.932c0,3.861,0.024,6.89-0.016,10.748c-0.006,0.536,2.326,0.885,2.326,2.463c0,0.539-1.377,0.833-2.151,0.841
				c-1.527,0.015-3.19-1.313-3.192-2.42c-0.014-7.996-0.011-15.992-0.003-23.989c0.001-1.114-0.002-2.446,1.479-2.479
				c1.516-0.035,1.535,1.335,1.543,2.43C172.012,55.659,171.993,59.795,171.994,63.932z"/>
			<path d="M170.084,60.065c-3.862,0,0.597,0.023-3.263-0.017c-1.071-0.011-2.457,0.06-2.471-1.488
				c-0.015-1.526,1.314-1.526,2.42-1.527c7.995-0.016-0.644-0.012,7.354-0.003c1.114,0.001,2.445-0.001,2.479,1.479
				c0.034,1.517-1.335,1.535-2.43,1.543C170.038,60.083,174.22,60.064,170.084,60.065z"/>
		</g>
	</g>
</g>
</svg>
