<?xml version="1.0" encoding="utf-8"?>
<!-- Generator: Adobe Illustrator 16.0.0, SVG Export Plug-In . SVG Version: 6.00 Build 0)  -->
<!DOCTYPE svg PUBLIC "-//W3C//DTD SVG 1.1//EN" "http://www.w3.org/Graphics/SVG/1.1/DTD/svg11.dtd">
<svg version="1.1" id="Layer_1" xmlns="http://www.w3.org/2000/svg" xmlns:xlink="http://www.w3.org/1999/xlink" x="0px" y="0px"
	 width="400px" height="133px" viewBox="0 0 400 133" enable-background="new 0 0 400 133" xml:space="preserve">
<g id="Layer_1_1_">
	<rect y="0.5" width="400" height="133"/>
</g>
<g id="Layer_2">
	<g>
		<rect x="144" y="39.5" fill="#FFFFFF" width="4" height="50"/>
		<polygon fill="#FFFFFF" points="158,89.5 158,39.5 164.386,39.5 182,81.938 182,39.5 186,39.5 186,89.5 181.386,89.5 162,45.688 
			162,89.5 		"/>
		<polygon fill="#FFFFFF" points="219,85.5 200,85.5 200,64.5 217,64.5 217,60.5 200,60.5 200,43.5 218,43.5 218,39.5 196,39.5 
			196,89.5 219,89.5 		"/>
		<path fill="#FFFFFF" d="M250,89.5h-26.613c0,0-0.332-3.658,0-8.333c1.416-8.667,19.082-20.834,19.082-28.667
			c0-6.083-3.75-6.5-4.833-6.5s-5.333,0.333-5.333,9.75c-4.667,0-8.334-0.25-8.334-0.25s-2.248-16.834,13.834-16.834
			c13.94,0,13.833,11.751,13.833,14.001s-1.583,9.375-10.833,18.625S233.386,82.5,233.386,82.5H250V89.5z"/>
		<path fill="#FFFFFF" d="M265.596,57.667c4.831-3.25,15.103-2.667,17.52,2.417s2.396,21.292-0.697,26
			c-2.751,4.188-5.309,4.583-10.475,4.583s-14.986-0.5-14.986-16.75c6.417,0,6.507-0.083,9.09-0.083c0,3-0.348,9.833,4.953,9.833
			s5.135-6.603,5.135-10.51s-0.248-10.49-5.582-10.49c-4.166,0-4.582,3.833-4.582,3.833h-8.584l1.668-26.167
			c0,0,23.79,0.375,24.165,0s0,7.167,0,7.167h-16.833L265.596,57.667z"/>
		<polyline fill="#FFFFFF" points="114,39.5 118.386,39.5 119.386,85.5 137,85.5 137,89.5 114,89.5 114,40.5 		"/>
	</g>
</g>
</svg>
