<?xml version="1.0" encoding="utf-8"?>
<!-- Generator: Adobe Illustrator 16.0.0, SVG Export Plug-In . SVG Version: 6.00 Build 0)  -->
<!DOCTYPE svg PUBLIC "-//W3C//DTD SVG 1.1//EN" "http://www.w3.org/Graphics/SVG/1.1/DTD/svg11.dtd">
<svg version="1.1" id="Layer_1" xmlns="http://www.w3.org/2000/svg" xmlns:xlink="http://www.w3.org/1999/xlink" x="0px" y="0px"
	 width="400px" height="133px" viewBox="0 0 400 133" enable-background="new 0 0 400 133" xml:space="preserve">
<g id="Layer_1_1_">
	<rect y="-0.5" width="400" height="134"/>
</g>
<g id="Layer_2">
	<g>
		<path fill="#FFFFFF" d="M64.428,58.52c0.408-0.503,0.702-0.926,1.056-1.29c1.44-1.478,3.148-2.37,5.242-1.82
			c2.203,0.579,3.838,1.869,4.435,4.214c0.713,2.804,0.025,5.391-1.28,7.836c-1.953,3.66-5.013,6.147-8.707,7.922
			c-0.436,0.21-0.817,0.337-1.299,0.099c-5.5-2.73-9.661-6.56-10.47-13.024c-0.271-2.166,0.218-4.208,1.976-5.707
			c2.563-2.186,5.611-1.98,7.936,0.488C63.663,57.604,63.98,58.001,64.428,58.52z"/>
		<path fill="#868789" d="M253.73,64.717c0,3.493-0.053,6.516,0.026,9.533c0.031,1.162-0.313,1.564-1.47,1.453
			c-0.967-0.094-1.952-0.078-2.922-0.003c-0.979,0.075-1.2-0.337-1.196-1.244c0.033-6.003,0.037-12.005-0.003-18.008
			c-0.007-0.978,0.374-1.095,1.244-1.214c2.818-0.384,4.79,0.467,6.326,3.019c1.55,2.574,3.582,4.857,5.693,7.652
			c0-3.046,0-5.667,0-8.288c0-2.345,0-2.345,2.369-2.345c3.176,0,3.176,0,3.176,3.24c0,5.285-0.02,10.57,0.018,15.854
			c0.006,0.956-0.236,1.235-1.26,1.368c-2.688,0.349-4.463-0.545-5.928-2.889C258.105,70.125,255.973,67.674,253.73,64.717z"/>
		<path fill="#FFFFFF" d="M105.413,76.109c-6.098-0.027-10.616-4.642-10.566-10.792c0.047-5.905,4.815-10.586,10.76-10.564
			c5.98,0.022,10.625,4.661,10.654,10.639C116.29,71.516,111.608,76.139,105.413,76.109z M110.555,65.55
			c0.013-3.087-2.163-5.519-4.979-5.564c-2.811-0.045-5.043,2.394-5.023,5.489c0.019,3.057,2.292,5.521,5.066,5.493
			C108.395,70.941,110.542,68.584,110.555,65.55z"/>
		<path fill="#FFFFFF" d="M295.751,76.109c-6.099-0.028-10.612-4.644-10.563-10.793c0.049-5.904,4.819-10.586,10.763-10.562
			c5.974,0.024,10.626,4.672,10.651,10.642C306.629,71.518,301.947,76.141,295.751,76.109z M300.896,65.513
			c0-3.079-2.203-5.506-5.018-5.527c-2.811-0.021-5.031,2.44-4.986,5.527c0.045,3.07,2.328,5.51,5.104,5.456
			C298.775,70.913,300.896,68.553,300.896,65.513z"/>
		<path fill="#87888A" d="M161.724,65.409c0-2.975-0.006-5.949,0.005-8.923c0.001-0.53-0.178-1.232,0.731-1.204
			c3.376,0.103,6.787-0.398,10.124,0.275c5.292,1.067,8.503,5.24,8.138,10.324c-0.397,5.538-4.146,9.402-9.633,9.733
			c-2.76,0.165-5.537,0.024-8.305,0.088c-0.953,0.021-1.08-0.427-1.072-1.216C161.741,71.461,161.724,68.436,161.724,65.409z
			 M167.436,65.515c0,1.38-0.008,2.76,0.004,4.141c0.004,0.39-0.063,0.793,0.481,0.988c2.013,0.729,5.568-0.713,6.516-2.681
			c0.909-1.886,0.643-4.505-0.635-5.927c-1.575-1.753-3.673-1.82-5.799-1.719c-0.675,0.032-0.56,0.619-0.563,1.056
			C167.426,62.754,167.435,64.135,167.436,65.515z"/>
		<path fill="#FFFFFF" d="M160.196,65.465c-0.009,6.111-4.579,10.653-10.711,10.645c-6.13-0.008-10.699-4.606-10.646-10.715
			c0.05-5.941,4.726-10.6,10.678-10.64C155.575,54.712,160.205,59.356,160.196,65.465z M154.569,65.516
			c0.002-3.053-2.237-5.513-5.034-5.53c-2.788-0.017-5.082,2.5-5.03,5.521c0.052,3.026,2.386,5.511,5.133,5.461
			C152.395,70.92,154.567,68.518,154.569,65.516z"/>
		<path fill="#FFFFFF" d="M137.206,68.43c0,0.82-0.127,1.666,0.025,2.457c0.364,1.887-0.688,2.772-2.138,3.576
			c-4.905,2.721-11.018,2.096-14.521-1.549c-2.964-3.082-3.698-8.081-1.787-12.172c1.809-3.873,5.916-6.209,10.267-5.931
			c2.468,0.158,4.72,0.811,6.706,2.333c0.607,0.465,0.847,0.841,0.196,1.433c-0.225,0.204-0.388,0.476-0.582,0.715
			c-0.614,0.757-1.088,1.762-1.878,2.207c-0.953,0.537-1.574-0.735-2.427-1.062c-2.441-0.935-4.851-0.502-6.309,1.297
			c-1.592,1.965-1.731,5.101-0.321,7.202c1.294,1.926,3.911,2.684,6.307,1.991c1.369-0.396,1.123-1.372,1.101-2.311
			c-0.028-1.22-0.986-0.626-1.491-0.644c-2.3-0.074-2.182-0.043-2.341-2.365c-0.114-1.66,0.454-2.073,2.018-1.965
			c1.993,0.137,4.003,0.088,6.001,0.009c0.994-0.039,1.236,0.327,1.187,1.235C137.157,66.066,137.206,67.248,137.206,68.43z"/>
		<path fill="#87888A" d="M245.975,68.425c0,0.821-0.107,1.658,0.021,2.458c0.299,1.852-0.646,2.811-2.161,3.586
			c-3.938,2.021-7.933,2.411-11.935,0.368c-4.471-2.28-6.471-7.599-4.912-12.661c1.488-4.833,6.215-7.911,11.281-7.369
			c2.287,0.245,4.389,0.915,6.248,2.331c0.668,0.509,0.703,0.904,0.172,1.472c-0.244,0.262-0.465,0.546-0.691,0.825
			c-0.582,0.715-1.027,1.682-1.775,2.084c-0.916,0.493-1.522-0.712-2.336-1.046c-2.406-0.988-4.812-0.577-6.302,1.234
			c-1.704,2.069-1.845,5.159-0.334,7.307c1.336,1.901,4.052,2.643,6.353,1.862c1.252-0.425,1.041-1.351,1.008-2.247
			c-0.038-1.039-0.87-0.654-1.394-0.67c-2.436-0.064-2.362-0.049-2.458-2.592c-0.05-1.313,0.254-1.819,1.672-1.731
			c2.094,0.13,4.205,0.071,6.305,0.017c0.937-0.024,1.294,0.298,1.25,1.234C245.934,66.064,245.975,67.246,245.975,68.425z"/>
		<path fill="#88898B" d="M182.108,65.458c0-2.922,0.033-5.845-0.019-8.766c-0.018-0.998,0.163-1.467,1.325-1.45
			c4.51,0.064,9.022,0.056,13.532,0.003c1.024-0.012,1.302,0.313,1.313,1.308c0.039,3.591,0.073,3.591-3.507,3.591
			c-1.948,0-3.898,0.055-5.843-0.019c-1.193-0.045-1.159,0.649-1.152,1.47c0.007,0.796-0.101,1.519,1.127,1.478
			c2.304-0.078,4.614,0.032,6.918-0.045c1.1-0.037,1.374,0.349,1.37,1.399c-0.012,3.209,0.03,3.209-3.206,3.209
			c-1.692,0-3.388,0.079-5.074-0.024c-1.257-0.077-1.159,0.673-1.124,1.459c0.037,0.804-0.333,1.801,1.159,1.76
			c2.715-0.072,5.434,0.021,8.149-0.04c1.027-0.022,1.282,0.327,1.284,1.321c0.009,3.576,0.047,3.576-3.454,3.576
			c-3.793,0-7.588-0.049-11.379,0.027c-1.194,0.024-1.471-0.378-1.444-1.492C182.154,71.303,182.108,68.379,182.108,65.458z"/>
		<path fill="#FFFFFF" d="M328.254,65.4c0-2.974,0.027-5.947-0.018-8.92c-0.012-0.862,0.102-1.262,1.136-1.248
			c4.612,0.062,9.228,0.04,13.842,0.014c0.754-0.004,1.056,0.156,1.087,1.005c0.143,3.845,0.174,3.844-3.635,3.844
			c-1.948,0-3.898,0.065-5.844-0.02c-1.498-0.065-0.94,0.979-1.004,1.663c-0.064,0.695-0.207,1.402,1,1.353
			c2.404-0.099,4.818,0.012,7.227-0.05c0.93-0.024,1.223,0.227,1.234,1.189c0.043,3.406,0.082,3.406-3.277,3.406
			c-1.641,0-3.284,0.05-4.921-0.02c-0.944-0.039-1.345,0.151-1.308,1.226c0.07,2.016-0.002,2.018,2.057,2.018
			c2.461,0,4.922,0.045,7.382-0.022c0.978-0.026,1.185,0.302,1.19,1.226c0.022,3.635,0.058,3.635-3.496,3.635
			c-3.742,0-7.485-0.043-11.227,0.025c-1.106,0.021-1.498-0.199-1.459-1.402C328.32,71.35,328.254,68.374,328.254,65.4z"/>
		<path fill="#878889" d="M209.02,76.113c-3.313-0.096-6.195-0.821-8.719-2.705c-0.655-0.488-0.928-0.938-0.201-1.561
			c0.039-0.033,0.068-0.076,0.102-0.117c0.709-0.875,1.254-2.074,2.171-2.541c0.996-0.508,1.73,0.914,2.719,1.256
			c1.465,0.508,2.908,1.018,4.481,0.822c0.731-0.093,1.479-0.341,1.602-1.189c0.128-0.885-0.565-1.279-1.266-1.502
			c-1.656-0.525-3.354-0.93-4.998-1.488c-3.365-1.144-4.585-2.861-4.458-6.104c0.109-2.824,1.859-4.99,4.902-5.742
			c3.533-0.873,6.896-0.328,10.006,1.629c0.744,0.468,1.062,0.938,0.33,1.66c-0.034,0.035-0.055,0.086-0.084,0.128
			c-0.614,0.881-1.055,2.04-1.893,2.573c-1.027,0.654-1.8-0.782-2.82-1.007c-1.045-0.231-2.052-0.658-3.147-0.577
			c-0.75,0.056-1.479,0.281-1.658,1.11c-0.192,0.904,0.522,1.282,1.204,1.532c0.813,0.299,1.667,0.485,2.504,0.72
			c0.787,0.221,1.59,0.398,2.36,0.667c3.532,1.229,4.907,3.156,4.653,6.472c-0.221,2.895-2.483,5.178-5.733,5.744
			C210.32,76.025,209.551,76.059,209.02,76.113z"/>
		<path fill="#FFFFFF" d="M316.245,68.018c1.336-3.827,2.629-7.21,3.68-10.668c0.495-1.631,1.175-2.387,2.955-2.122
			c1.203,0.179,2.453,0.034,3.8,0.034c-0.173,1.191-0.72,2.159-1.109,3.17c-2.088,5.393-4.211,10.772-6.271,16.174
			c-0.354,0.93-0.755,1.348-1.851,1.328c-3.819-0.064-3.816-0.013-5.204-3.58c-2.042-5.244-4.069-10.497-6.155-15.725
			c-0.395-0.992-0.488-1.483,0.85-1.388c1.58,0.112,3.479-0.443,4.67,0.257c1.207,0.709,1.216,2.793,1.762,4.269
			C314.327,62.358,315.193,64.982,316.245,68.018z"/>
		<path fill="#FFFFFF" d="M269.932,65.485c0-2.977,0.03-5.955-0.019-8.931c-0.015-0.945,0.155-1.418,1.25-1.32
			c1.373,0.124,3.167-0.426,4.03,0.259c0.914,0.726,0.272,2.593,0.291,3.959c0.045,3.387,0.045,6.776-0.006,10.163
			c-0.013,0.877,0.237,1.134,1.113,1.113c2.463-0.058,4.93,0.026,7.391-0.043c0.974-0.027,1.183,0.282,1.187,1.215
			c0.015,3.799,0.048,3.799-3.674,3.799c-3.44,0-6.88-0.045-10.317,0.027c-1.061,0.021-1.283-0.338-1.267-1.312
			C269.965,71.439,269.932,68.463,269.932,65.485z"/>
		<path fill="#FFFFFF" d="M79.705,65.479c0-2.926,0.046-5.852-0.025-8.776c-0.026-1.081,0.151-1.598,1.389-1.465
			c1.318,0.141,3.094-0.424,3.872,0.247c0.907,0.78,0.275,2.6,0.293,3.965c0.046,3.387,0.042,6.775-0.004,10.161
			c-0.011,0.854,0.199,1.146,1.093,1.123c2.411-0.061,4.825,0.015,7.236-0.039c0.917-0.02,1.329,0.104,1.322,1.207
			c-0.024,3.791,0.028,3.791-3.805,3.791c-3.233,0-6.471-0.092-9.699,0.041c-1.49,0.062-1.746-0.463-1.702-1.789
			C79.77,71.127,79.705,68.301,79.705,65.479z"/>
		<path fill="#8B8C8E" d="M224.422,65.484c0,2.976-0.035,5.952,0.02,8.927c0.019,1.013-0.313,1.294-1.319,1.304
			c-4.367,0.045-4.367,0.078-4.367-4.24c0-4.926,0.036-9.852-0.024-14.776c-0.017-1.167,0.336-1.588,1.481-1.44
			c1.351,0.173,3.097-0.604,3.97,0.347c0.789,0.861,0.209,2.553,0.231,3.877C224.447,61.482,224.422,63.483,224.422,65.484z"/>
		<path d="M110.555,65.55c-0.012,3.034-2.16,5.392-4.937,5.418c-2.774,0.027-5.047-2.437-5.066-5.493
			c-0.02-3.095,2.212-5.534,5.023-5.489C108.392,60.031,110.568,62.463,110.555,65.55z"/>
		<path d="M300.896,65.513c0,3.04-2.121,5.4-4.899,5.456c-2.774,0.057-5.06-2.386-5.104-5.456c-0.045-3.086,2.176-5.547,4.986-5.527
			C298.693,60.007,300.896,62.435,300.896,65.513z"/>
		<path d="M167.436,65.515c-0.001-1.38-0.009-2.761,0.004-4.141c0.004-0.437-0.112-1.024,0.563-1.056
			c2.126-0.101,4.225-0.034,5.799,1.719c1.278,1.422,1.544,4.041,0.635,5.927c-0.947,1.968-4.502,3.408-6.516,2.681
			c-0.544-0.195-0.477-0.6-0.481-0.988C167.428,68.275,167.436,66.896,167.436,65.515z"/>
		<path d="M154.569,65.516c-0.002,3.001-2.175,5.404-4.931,5.453c-2.747,0.049-5.081-2.436-5.133-5.461
			c-0.052-3.021,2.242-5.538,5.03-5.521C152.333,60.003,154.571,62.463,154.569,65.516z"/>
	</g>
</g>
</svg>
