<?xml version="1.0" encoding="utf-8"?>
<!-- Generator: Adobe Illustrator 16.0.0, SVG Export Plug-In . SVG Version: 6.00 Build 0)  -->
<!DOCTYPE svg PUBLIC "-//W3C//DTD SVG 1.1//EN" "http://www.w3.org/Graphics/SVG/1.1/DTD/svg11.dtd">
<svg version="1.1" id="Layer_1" xmlns="http://www.w3.org/2000/svg" xmlns:xlink="http://www.w3.org/1999/xlink" x="0px" y="0px"
	 width="400px" height="133px" viewBox="0 0 400 133" enable-background="new 0 0 400 133" xml:space="preserve">
<g id="Layer_1_1_">
	<rect y="-0.5" width="400" height="134"/>
</g>
<g id="Layer_2">
	<path display="none" fill="#C9A689" d="M222.16,73.253c0.066-0.003,0.131-0.006,0.197-0.01
		C222.291,73.247,222.227,73.25,222.16,73.253z"/>
	
		<linearGradient id="SVGID_1_" gradientUnits="userSpaceOnUse" x1="-408.4404" y1="1018.2148" x2="-408.4399" y2="1018.2148" gradientTransform="matrix(-20.3811 19.6711 19.6711 20.3811 -28178.4941 -12654.0488)">
		<stop  offset="0" style="stop-color:#644E42"/>
		<stop  offset="1" style="stop-color:#46352A"/>
	</linearGradient>
	<polygon display="none" fill="url(#SVGID_1_)" points="175.372,63.806 175.374,63.806 175.374,63.806 	"/>
	
		<linearGradient id="SVGID_2_" gradientUnits="userSpaceOnUse" x1="-408.4404" y1="1018.2148" x2="-408.4404" y2="1018.2148" gradientTransform="matrix(-20.3811 19.6711 19.6711 20.3811 -28178.4941 -12654.0488)">
		<stop  offset="0" style="stop-color:#644E42"/>
		<stop  offset="1" style="stop-color:#46352A"/>
	</linearGradient>
	<path display="none" fill="url(#SVGID_2_)" d="M175.374,63.806L175.374,63.806c0.002,0,0.004-0.001,0.007-0.001l0,0
		C175.379,63.805,175.376,63.805,175.374,63.806z"/>
	
		<linearGradient id="SVGID_3_" gradientUnits="userSpaceOnUse" x1="-27953.5605" y1="28191.1875" x2="-27953.5605" y2="28191.1875" gradientTransform="matrix(-0.0235 -0.0083 -0.0083 0.0235 -190.3188 -813.1619)">
		<stop  offset="0" style="stop-color:#C48E5F"/>
		<stop  offset="0.5" style="stop-color:#925424"/>
		<stop  offset="1" style="stop-color:#592911"/>
	</linearGradient>
	<path display="none" fill="url(#SVGID_3_)" d="M232.604,81.346L232.604,81.346L232.604,81.346z"/>
	<g>
		
			<linearGradient id="SVGID_4_" gradientUnits="userSpaceOnUse" x1="-27953.8379" y1="28175.8125" x2="-27952.1953" y2="28175.8125" gradientTransform="matrix(-0.0235 -0.0083 -0.0083 0.0235 -190.3188 -813.1619)">
			<stop  offset="0" style="stop-color:#C48E5F"/>
			<stop  offset="0.5" style="stop-color:#925424"/>
			<stop  offset="1" style="stop-color:#592911"/>
		</linearGradient>
		<path fill="url(#SVGID_4_)" d="M232.977,81.066L232.977,81.066C233.049,81.111,232.99,81.074,232.977,81.066z"/>
		
			<linearGradient id="SVGID_5_" gradientUnits="userSpaceOnUse" x1="-27963.9668" y1="28175.6406" x2="-27963.9668" y2="28175.6406" gradientTransform="matrix(-0.0235 -0.0083 -0.0083 0.0235 -190.3188 -813.1619)">
			<stop  offset="0" style="stop-color:#C48E5F"/>
			<stop  offset="0.5" style="stop-color:#925424"/>
			<stop  offset="1" style="stop-color:#592911"/>
		</linearGradient>
		<polygon fill="url(#SVGID_5_)" points="232.977,81.066 232.977,81.066 232.977,81.066 		"/>
		<g>
			<path fill="#808080" d="M199.435,63.63c-1.168,1.982-0.986,4.254-0.986,4.254c0.967-1.911,2.08-3.257,3.177-4.209
				c0.392-0.34,0.778-0.629,1.159-0.876c-0.898,0.012-1.838,0.033-2.813,0.068C199.768,63.114,199.589,63.369,199.435,63.63z"/>
			<path fill="#808080" d="M223.161,61.253c-0.14,0.036-0.277,0.072-0.415,0.107c-0.014,0.004-0.025,0.006-0.039,0.01
				c0.014,0.013,0.025,0.026,0.038,0.039c0.187,0.188,0.372,0.396,0.555,0.631C223.3,62.04,223.284,61.7,223.161,61.253z"/>
		</g>
		<g>
			<path fill="#B3B3B3" d="M191.462,88.17c0,0,0.457-2.18,2.171-3.516c0,0-1.714,3.481-1.151,6.322c0,0,0.002-1.914,1-3.111
				c0,0-0.201,1.367-0.135,2.725c0.47-4.445,3.031-7.721,5.13-9.707c0.03-0.027,0.062-0.057,0.092-0.084
				c1.278-1.193,2.369-1.902,2.683-2.098C199.102,79.152,191.263,81.264,191.462,88.17z"/>
			<polygon fill="#B3B3B3" points="207.404,69.494 207.352,69.49 207.402,69.496 			"/>
			<path fill="#B3B3B3" d="M199.209,77.736c0.68,0.334,1.395,0.639,2.137,0.91l0.018,0.03v0.003c0.002,0,0.004-0.003,0.006-0.003
				c0.011-0.008,0.021-0.016,0.033-0.022c0.109-0.076,0.22-0.152,0.332-0.229c0.025-0.018,0.053-0.034,0.078-0.053
				c0.114-0.076,0.23-0.154,0.352-0.229c0.025-0.019,0.053-0.033,0.08-0.052c0.119-0.075,0.242-0.151,0.367-0.229
				c0.027-0.018,0.057-0.032,0.084-0.051c0.127-0.074,0.255-0.149,0.385-0.225c0.029-0.018,0.061-0.035,0.09-0.053
				c0.13-0.072,0.262-0.146,0.396-0.219c0.033-0.019,0.066-0.037,0.101-0.056c0.134-0.071,0.271-0.143,0.406-0.213
				c0.038-0.021,0.077-0.039,0.114-0.06c0.136-0.067,0.273-0.137,0.414-0.204c0.043-0.021,0.086-0.041,0.129-0.063
				c0.139-0.064,0.278-0.131,0.422-0.195c0.05-0.021,0.099-0.043,0.146-0.065c0.141-0.063,0.282-0.125,0.426-0.188
				c0.055-0.021,0.111-0.047,0.168-0.069c0.142-0.06,0.281-0.117,0.428-0.177c0.063-0.024,0.127-0.051,0.19-0.075
				c0.142-0.056,0.282-0.111,0.427-0.166c0.072-0.027,0.146-0.054,0.221-0.082c0.139-0.052,0.279-0.103,0.422-0.152
				c0.082-0.028,0.166-0.06,0.248-0.086c0.139-0.049,0.277-0.096,0.419-0.144c0.093-0.03,0.187-0.061,0.28-0.09
				c0.137-0.045,0.272-0.088,0.412-0.133c0.104-0.031,0.209-0.061,0.314-0.094c0.135-0.039,0.266-0.08,0.4-0.119
				c0.117-0.033,0.236-0.064,0.355-0.098c0.129-0.037,0.258-0.072,0.389-0.107s0.263-0.068,0.395-0.102
				c0.125-0.031,0.251-0.064,0.378-0.096c0.144-0.033,0.288-0.068,0.435-0.103c0.084-0.021,0.164-0.041,0.248-0.06
				c0.039-0.01,0.078-0.02,0.117-0.026c0.156-0.035,0.315-0.069,0.477-0.104c0.117-0.024,0.23-0.051,0.35-0.073
				c0.174-0.037,0.35-0.07,0.525-0.105c0.109-0.021,0.218-0.043,0.33-0.063c0.188-0.035,0.381-0.068,0.572-0.104
				c0.104-0.018,0.205-0.036,0.313-0.055c0.205-0.035,0.413-0.065,0.623-0.101c0.033-0.006,0.064-0.012,0.098-0.018
				c-0.152-0.273-0.188-0.561-0.056-0.768c0.03-0.049,0.071-0.09,0.118-0.127c0.275-0.217,0.783-0.168,1.234,0.145
				c0.207,0.145,0.368,0.32,0.477,0.504l0,0c0.166,0.283,0.203,0.58,0.068,0.795c-0.029,0.045-0.064,0.086-0.104,0.119l0,0
				c0,0,2.364,1.023,3.464-0.576c-0.171-0.096-0.256-0.352-0.245-0.654l0,0c0.007-0.145,0.031-0.299,0.085-0.451
				c0.165-0.471,0.502-0.737,0.754-0.6c0.229,0.127,0.307,0.551,0.194,0.98c0.048-0.002,0.095-0.006,0.144-0.008
				c0.067-0.006,0.135-0.01,0.203-0.014c0.018,0,0.033-0.002,0.051-0.002c0.271-0.017,0.547-0.029,0.822-0.041
				c0.021-0.003,0.043-0.005,0.066-0.005c0.066-0.004,0.131-0.008,0.197-0.01c0.037,0,0.074-0.002,0.11-0.004
				c0.274-0.013,0.554-0.021,0.835-0.029c0.076-0.002,0.15-0.006,0.229-0.008c0.283-0.008,0.572-0.015,0.861-0.019
				c0.115-0.002,0.229-0.006,0.348-0.008c0.164-0.002,0.334-0.002,0.5-0.004c0.242-0.002,0.482-0.006,0.729-0.006
				c-0.423-0.338-0.693-0.496-0.693-0.496c-1.949-1.301-2.226-1.719-1.902-5.019c0.117-1.19,0.313-2.752,0.533-4.869
				c0.001-0.011,0.001-0.021,0.002-0.031c0.027-0.262,0.046-0.513,0.063-0.759c0.004-0.064,0.008-0.129,0.01-0.193
				c0.011-0.203,0.016-0.398,0.018-0.59c-0.41,0.112-0.813,0.22-1.208,0.323c0.123,0.447,0.14,0.787,0.14,0.787
				c-0.183-0.235-0.369-0.443-0.556-0.631c-0.013-0.013-0.024-0.026-0.037-0.039c-0.18,0.046-0.356,0.091-0.532,0.135
				c-4.539,1.132-7.836,1.602-7.88,1.383c-0.01-0.046,0.109-0.116,0.339-0.208c-0.531,0.126-0.871,0.207-0.972,0.23
				c0.013,0.027,0.015,0.054,0.008,0.079c-0.059,0.173-4.386-0.271-10.886-0.189c-0.38,0.248-0.768,0.536-1.159,0.876
				c-1.097,0.952-2.21,2.298-3.175,4.209c0,0-0.184-2.272,0.984-4.255c0.154-0.261,0.333-0.517,0.538-0.762
				c-1.475,0.053-3.029,0.135-4.648,0.258c-0.135,0.186-0.265,0.374-0.39,0.565c-1.328,2.04-2.061,4.321-2.125,6.54
				c-0.053-0.225-0.102-0.453-0.138-0.69c-0.096-0.603-0.137-1.207-0.13-1.813c-0.008,0.605,0.034,1.213,0.13,1.814
				C193.375,74.008,196.875,76.527,199.209,77.736z M219.721,65.341c0.543-0.022,0.941,0.786,1.002,1.065
				c0.186,0.493,0.303,1.117,0.316,1.805c0.012,0.629-0.071,1.207-0.211,1.684c-0.016,0.054-0.028,0.111-0.046,0.16
				c-0.554-0.176-1.218-0.32-2.097-0.414c-0.059-0.219-0.104-0.459-0.134-0.711c-0.026-0.217-0.043-0.443-0.049-0.676
				C218.479,66.658,219.02,65.353,219.721,65.341z M206.667,67.021c0.931-0.098,1.853,1.545,2.06,3.668
				c0.09,0.904,0.035,1.748-0.131,2.431c-0.882,0.18-1.705,0.379-2.467,0.598c-0.378-0.663-0.664-1.612-0.771-2.682
				C205.152,68.912,205.736,67.116,206.667,67.021z"/>
			<path fill="#B3B3B3" d="M221.816,99.852c-2.801,0.56-4.756,0.48-4.756,0.48c1.479,0.9,3.399,0.99,4.723,0.912
				c0.91-0.053,1.537-0.186,1.537-0.186c-0.053,0.557-0.143,1.065-0.262,1.539c-0.132,0.524-0.303,0.998-0.5,1.43
				c-0.007,0.014-0.013,0.027-0.019,0.039c0,0.002,0,0.002-0.001,0.002c-0.248,0.533-0.539,1-0.859,1.406
				c-0.035,0.047-0.07,0.096-0.106,0.139c0.034-0.016,0.069-0.035,0.104-0.053c0.494-0.242,0.985-0.5,1.472-0.779
				c0.004-0.002,0.008-0.004,0.012-0.006c0.361-0.209,0.722-0.428,1.078-0.656c0.576-0.369,1.146-0.768,1.707-1.193
				c0.023-0.02,0.049-0.037,0.07-0.057c0.002,0,0.004-0.002,0.004-0.004c0.035-0.025,0.068-0.053,0.103-0.078
				c0.58-0.465,1.124-0.945,1.631-1.438c0.668-0.646,1.271-1.312,1.82-1.98c0.013-0.014,0.024-0.029,0.036-0.043
				c0.135-0.164,0.267-0.33,0.395-0.494c0.014-0.016,0.023-0.031,0.036-0.047c0.224-0.289,0.435-0.576,0.638-0.863
				c0.041-0.059,0.084-0.119,0.125-0.178c0.086-0.123,0.168-0.244,0.249-0.365c0.065-0.1,0.132-0.197,0.195-0.297
				c0.065-0.102,0.131-0.201,0.194-0.303c0.119-0.189,0.234-0.379,0.347-0.566c0.041-0.068,0.08-0.137,0.119-0.205
				c0.087-0.148,0.171-0.297,0.252-0.443c0.034-0.063,0.069-0.127,0.104-0.19c0.109-0.199,0.217-0.397,0.315-0.595
				c-1.451,1.23-2.972,2.187-4.468,2.933C225.857,98.838,223.654,99.484,221.816,99.852z"/>
			<path fill="#B3B3B3" d="M232.984,80.732c0-0.027,0.002-0.053,0-0.08c0-0.027-0.002-0.055-0.002-0.08
				c-0.002-0.025-0.002-0.053-0.006-0.08c-0.002-0.031-0.006-0.063-0.009-0.096c-0.003-0.023-0.004-0.047-0.007-0.072
				c-0.006-0.041-0.013-0.084-0.02-0.127c-0.004-0.016-0.004-0.031-0.008-0.047c-0.01-0.051-0.021-0.103-0.033-0.156
				c-0.002-0.008-0.002-0.014-0.006-0.023c-0.014-0.059-0.029-0.117-0.05-0.178c0-0.002,0-0.002,0-0.004
				c-0.09-0.281-0.233-0.568-0.45-0.83c-0.162-0.195-0.361-0.379-0.617-0.535c-0.219-0.135-0.406-0.268-0.57-0.398
				c-0.045-0.08-0.094-0.153-0.139-0.229c-0.436,0.584-0.942,1.136-1.506,1.654c-1.929,1.776-4.539,3.186-7.358,4.297
				c-6.22,2.451-13.438,3.457-16.511,3.797c3.067,0.476,7.201,0.834,11.652,0.283c1.698-0.238,3.299-0.601,4.783-1.037
				c2.332-0.687,4.374-1.556,6.045-2.418c1.282-0.664,2.344-1.322,3.146-1.894c0.395-0.276,0.725-0.533,0.988-0.758
				c0.004-0.004,0.01-0.008,0.014-0.012c0.316-0.27,0.535-0.492,0.648-0.648l0,0c0.002-0.004,0.002-0.006,0.002-0.01
				c0-0.018,0.002-0.039,0.004-0.057c0-0.02,0.002-0.037,0.004-0.055c0.002-0.021,0.002-0.043,0.002-0.063
				c0-0.024,0.002-0.049,0.002-0.074C232.986,80.779,232.984,80.754,232.984,80.732z"/>
			<path fill="#B3B3B3" d="M173.211,71.359c-0.057,0.002-0.112,0.01-0.169,0.016c-0.088,0.01-0.176,0.023-0.264,0.035
				c-0.035,0.006-0.071,0.008-0.105,0.014c-0.062,0.012-0.124,0.021-0.186,0.033c-0.12,0.025-0.239,0.055-0.356,0.086
				c-0.054,0.014-0.109,0.027-0.163,0.043c-0.159,0.047-0.315,0.102-0.469,0.162c-0.061,0.023-0.119,0.053-0.179,0.08
				c-0.094,0.039-0.188,0.082-0.28,0.129c-0.076,0.037-0.151,0.078-0.226,0.119c-0.069,0.039-0.138,0.08-0.205,0.121
				c-0.081,0.049-0.162,0.1-0.24,0.152c-0.048,0.03-0.094,0.065-0.141,0.102c-0.309,0.223-0.596,0.475-0.855,0.754
				c-0.016,0.018-0.032,0.033-0.047,0.053c-0.09,0.098-0.177,0.201-0.261,0.307c-0.009,0.011-0.017,0.021-0.025,0.031
				c-0.358,0.459-0.65,0.973-0.86,1.525c0.557,2.234,1.666,3.496,1.666,3.496c-0.163-0.861-0.165-1.703-0.068-2.492
				c0.543,2.328,1.702,3.652,1.702,3.652c-0.166-0.877-0.166-1.732-0.064-2.533c0.34,1.564,0.962,2.689,1.362,3.293
				c0.219,0.332,0.371,0.508,0.371,0.508c-0.191-1.018-0.161-2.004-0.007-2.914c0.56,2.221,1.66,3.475,1.66,3.475l-0.005-0.039l0,0
				l0.045,0.066c0.39-2.426,1.138-5.098,1.229-5.418c0.001-0.002,0.001-0.002,0.001-0.004c0.005-0.018,0.009-0.029,0.009-0.029
				c-0.089,0.063-0.174,0.137-0.256,0.217c-0.021,0.021-0.042,0.041-0.063,0.063c-0.068,0.07-0.134,0.146-0.197,0.224
				c-0.01,0.012-0.021,0.024-0.031,0.037c-0.157,0.2-0.298,0.424-0.423,0.649c-0.413,0.752-0.643,1.547-0.695,1.739
				c0,0.003,0,0.005,0,0.007c-0.004,0.012-0.006,0.021-0.008,0.026c-0.001,0.004-0.003,0.013-0.003,0.013
				c0.027-0.3,0.065-0.593,0.11-0.886c0.025-0.16,0.056-0.317,0.085-0.477c0.022-0.119,0.042-0.24,0.068-0.357
				c0.044-0.217,0.095-0.428,0.148-0.641c0.011-0.047,0.023-0.094,0.035-0.141c0.064-0.246,0.132-0.488,0.205-0.729
				c0,0,0,0,0.001-0.003l0,0c0.164-0.538,0.347-1.063,0.549-1.569c0.004-0.01,0.009-0.021,0.013-0.033
				c0.095-0.236,0.192-0.473,0.293-0.701c0.043-0.102,0.09-0.199,0.136-0.299c0.067-0.145,0.131-0.291,0.199-0.434h0.001
				l0.001-0.002c0,0,0.042-0.091,0.122-0.242c0.081-0.164,0.162-0.33,0.244-0.488c-0.841-0.498-1.813-0.797-2.858-0.816
				C173.572,71.338,173.391,71.344,173.211,71.359z"/>
		</g>
		<g>
			<path fill="#808080" d="M201.21,104.992c0.015,0.033,0.022,0.053,0.022,0.053l0.983,1.797c-0.791-0.34-3.19-3.59-3.19-3.59
				c-0.194,0.318,0.52,1.852,0.52,1.852c-0.913-1.104-1.726-2.678-2.132-3.521c-0.088-0.172-0.183-0.371-0.274-0.592
				c-0.219,1.639,0.702,2.942,0.702,2.942c-2.466-2.774-2.914-6.594-2.998-7.865c-0.111-0.764-0.18-1.459-0.219-1.946
				c-0.064-0.151-0.126-0.306-0.184-0.457c-0.775,1.606-0.353,3.265-0.353,3.265c-0.765-2.322-0.944-4.438-0.741-6.339
				c-0.066-1.356,0.135-2.725,0.135-2.725c-0.998,1.196-1,3.11-1,3.11c-0.563-2.84,1.151-6.322,1.151-6.322
				c-1.714,1.337-2.171,3.517-2.171,3.517c-0.2-6.905,7.639-9.019,9.791-9.469c0.06-0.037,0.093-0.056,0.093-0.056
				c-0.742-0.271-1.457-0.573-2.137-0.907c-2.333-1.212-5.834-3.729-6.537-8.197c-0.096-0.603-0.138-1.209-0.13-1.813
				c0.008-0.606,0.066-1.209,0.17-1.807c0.129-0.735,0.328-1.458,0.592-2.16c0.062-0.161,0.125-0.321,0.193-0.479
				c-0.963,0.089-1.943,0.191-2.94,0.313c-1.505,0.139-3.467,0.502-5.213,0.81c-0.104,0.019-0.208,0.037-0.313,0.055
				c-0.798,2.826-1.016,6.182-0.417,10.174c0,0-0.197-2.025,0.884-3.781c0.022,0.152,0.044,0.306,0.069,0.459
				c-0.068,1.189-0.164,3.804,0.179,5.859c0,0,0.146-2.299,0.545-2.543c0,0,0.643,5.471,1.291,6.41l0.009-2.795
				c0,0,0.01-0.086,0.025-0.242c0.551,1.264,1.207,2.576,1.98,3.938c-4.311,3.484-7.737,12.414-0.24,20.834
				c0,0-1.077-1.684-0.922-3.746c0.1,0.148,0.204,0.291,0.307,0.438c0.494,1.119,1.564,3.396,2.764,5.007
				c0,0-0.831-1.929-0.687-2.449c0.085,0.096,0.17,0.19,0.255,0.285c0.732,1.065,2.969,4.27,3.8,4.7l-0.982-1.944
				c2.318,2.051,12.111,4.975,21.978,2.59c1.265-0.305,2.529-0.699,3.781-1.191c-1.23,0.451-2.418,0.805-3.563,1.074
				C209.777,109.01,204.773,107.811,201.21,104.992z"/>
			<path fill="#808080" d="M176.248,72.887l-0.001,0.002c0.004-0.008,0.008-0.016,0.012-0.022c0.042-0.089,0.087-0.173,0.13-0.259
				c-0.007,0.015-0.013,0.023-0.019,0.037C176.292,72.797,176.248,72.887,176.248,72.887z"/>
		</g>
		<g>
			<path fill="#FFFFFF" d="M234.128,91.75c-0.001-0.002-0.001-0.002-0.001-0.002l-0.004,0.002l-0.001-0.002
				c0-0.004-0.001-0.008-0.001-0.012c-0.014-0.15-0.038-0.287-0.074-0.404c-0.025-0.086-0.059-0.162-0.095-0.232
				c-0.104-0.201-0.249-0.344-0.414-0.447c-0.004-0.002-0.007-0.004-0.009-0.006c-0.006-0.004-0.01-0.008-0.016-0.01
				c-0.252-0.146-0.55-0.199-0.834-0.207c-0.138-0.002-0.267,0.008-0.39,0.021c-0.188,0.021-0.356,0.053-0.472,0.079l0.02,0.06
				c0.064,0.226-0.199,0.683-0.148,0.938c0.002,0.016-0.348,0.326-0.345,0.344c-0.009,0.047-1.536,1.395-1.538,1.396
				c-0.58,0.477-1.164,0.709-2.062,1.244c-1.603,0.979-3.615,1.768-6.077,2.401c-1.686,0.438-3.218,1.041-5.145,1.203
				c-4.742,0.344-8.722-0.084-11.734-1.373c-1.924-1.037-3.064-1.99-3.285-2.884c-0.422-0.877-0.622-1.86-0.49-2.895
				c0.016-0.123,0.035-0.24,0.057-0.355c0.009-0.041,0.017-0.077,0.023-0.116c0.014-0.07,0.029-0.142,0.045-0.209
				c0.012-0.045,0.022-0.089,0.033-0.132c0.008-0.026,0.014-0.055,0.021-0.082c-0.032-0.198,0.531-0.272,0.815-0.963
				c0.267-1.008,1.449-2.295,3.021-1.67c0.216,0.035,0.438,0.07,0.664,0.105c3.072-0.34,10.291-1.346,16.511-3.797
				c2.819-1.111,5.432-2.52,7.358-4.297c0.563-0.52,1.07-1.07,1.506-1.656c-1.577-2.617-3.83-4.189-4.729-4.908
				c-0.246,0.002-0.486,0.006-0.729,0.008c-0.168,0.002-0.336,0.002-0.5,0.004c-0.117,0.002-0.231,0.006-0.348,0.009
				c-0.289,0.004-0.58,0.01-0.861,0.018c-0.078,0.002-0.151,0.007-0.229,0.009c-0.281,0.01-0.561,0.018-0.835,0.028
				c-0.037,0.002-0.073,0.004-0.11,0.004c-0.065,0.002-0.131,0.007-0.197,0.011c-0.022,0-0.045,0.002-0.066,0.004
				c-0.275,0.012-0.552,0.024-0.822,0.039c0.067-0.904-0.006-2.226-0.814-3.121c-0.471-0.521-1.192-0.896-2.275-0.967
				c-0.334-0.021-0.697-0.017-1.105,0.022c-3.027,0.28-4.939,3.905-5.594,5.371v0.002c-0.084,0.018-0.166,0.036-0.248,0.057
				c-0.146,0.033-0.291,0.068-0.435,0.104c-0.127,0.031-0.253,0.063-0.378,0.096c-0.132,0.033-0.264,0.066-0.395,0.102
				c-0.129,0.033-0.26,0.07-0.389,0.105c-0.119,0.035-0.238,0.066-0.355,0.1c-0.135,0.039-0.268,0.078-0.399,0.117
				c-0.106,0.033-0.212,0.064-0.315,0.096c-0.14,0.043-0.275,0.088-0.412,0.131c-0.094,0.031-0.188,0.062-0.28,0.091
				c-0.142,0.049-0.28,0.096-0.419,0.143c-0.082,0.029-0.166,0.058-0.248,0.086c-0.143,0.052-0.283,0.104-0.422,0.154
				c-0.074,0.026-0.147,0.056-0.221,0.082c-0.145,0.055-0.285,0.108-0.427,0.166c-0.063,0.024-0.128,0.049-0.19,0.073
				c-0.146,0.06-0.286,0.117-0.428,0.179c-0.057,0.022-0.113,0.047-0.168,0.069c-0.144,0.063-0.285,0.125-0.426,0.188
				c-0.049,0.021-0.098,0.045-0.146,0.066c-0.144,0.063-0.283,0.129-0.422,0.194c-0.043,0.021-0.086,0.041-0.129,0.063
				c-0.141,0.067-0.279,0.135-0.414,0.205c-0.037,0.021-0.076,0.039-0.113,0.057c-0.139,0.072-0.273,0.144-0.407,0.216
				c-0.033,0.018-0.067,0.034-0.101,0.053c-0.135,0.074-0.268,0.146-0.396,0.221c-0.029,0.018-0.061,0.035-0.09,0.051
				c-0.13,0.074-0.258,0.152-0.385,0.227c-0.027,0.017-0.057,0.033-0.084,0.05c-0.125,0.075-0.248,0.151-0.367,0.229
				c-0.027,0.016-0.055,0.033-0.079,0.049c-0.12,0.078-0.235,0.154-0.353,0.232c-0.025,0.016-0.053,0.033-0.078,0.051
				c-0.112,0.076-0.223,0.152-0.332,0.23c-0.01,0.008-0.022,0.016-0.033,0.023c-0.002,0-0.004,0-0.006,0.002v-0.002l-0.018-0.033
				c0,0-0.033,0.02-0.093,0.057c-0.313,0.195-1.404,0.904-2.683,2.096c-0.03,0.029-0.061,0.057-0.091,0.086
				c-2.1,1.984-4.66,5.26-5.131,9.705c-0.202,1.902-0.022,4.018,0.741,6.338c0,0-0.423-1.656,0.353-3.262
				c0.058,0.152,0.12,0.303,0.184,0.457c0.039,0.488,0.107,1.182,0.219,1.947c0.083,1.27,0.532,5.09,2.998,7.865
				c0,0-0.921-1.306-0.702-2.943c0.092,0.221,0.186,0.42,0.274,0.59c0.407,0.846,1.219,2.418,2.132,3.521
				c0,0-0.714-1.533-0.52-1.851c0,0,2.399,3.25,3.191,3.591l-0.983-1.798c0,0-0.01-0.021-0.023-0.053
				c3.564,2.817,8.566,4.017,14.877,2.539c1.146-0.269,2.333-0.623,3.564-1.074c0.645-0.254,1.285-0.535,1.922-0.844
				c0.035-0.045,0.07-0.095,0.107-0.142c0.319-0.406,0.61-0.871,0.858-1.403c0.001,0,0.001-0.003,0.001-0.003
				c0.006-0.014,0.012-0.024,0.02-0.038c0.196-0.433,0.367-0.904,0.5-1.431c0.118-0.473,0.209-0.981,0.262-1.539
				c0,0-0.627,0.133-1.538,0.187c-1.322,0.076-3.243-0.015-4.722-0.914c0,0,1.955,0.08,4.754-0.479
				c1.84-0.365,4.043-1.013,6.297-2.14c1.498-0.746,3.017-1.7,4.468-2.934l0.019-0.035c0.086-0.074,0.168-0.147,0.244-0.222
				c0.258-0.241,0.465-0.473,0.635-0.696c0.493-0.652,0.65-1.236,0.66-1.761C234.141,91.959,234.136,91.852,234.128,91.75z
				 M215.201,72.906c0.031-0.049,0.072-0.09,0.117-0.127l-0.057-0.051c0,0,0.607-2.414,3.165-2.556
				c2.558-0.139,2.623,1.89,2.623,1.89c0.229,0.125,0.308,0.549,0.195,0.979h-0.001c-0.012,0.041-0.021,0.084-0.034,0.125
				c-0.166,0.471-0.501,0.74-0.753,0.6c-1.1,1.601-3.464,0.576-3.464,0.576h-0.001c-0.273,0.227-0.793,0.18-1.248-0.135
				c-0.217-0.15-0.383-0.34-0.489-0.531v-0.002C215.104,73.4,215.07,73.113,215.201,72.906z"/>
			<path fill="#FFFFFF" d="M195.324,63.126c-0.601,0.045-1.211,0.098-1.828,0.155c-0.067,0.159-0.131,0.319-0.193,0.479
				c-0.264,0.701-0.462,1.424-0.592,2.16c-0.104,0.597-0.162,1.2-0.17,1.807c-0.008,0.604,0.034,1.211,0.129,1.813
				c0.037,0.238,0.086,0.467,0.139,0.691c0.063-2.22,0.796-4.5,2.125-6.54C195.06,63.5,195.189,63.312,195.324,63.126z"/>
			<path fill="#FFFFFF" d="M174.716,82.516c0.035-0.287,0.078-0.584,0.126-0.883l-0.045-0.066l0,0l0.005,0.039
				c0,0-1.1-1.254-1.66-3.475c-0.154,0.91-0.185,1.896,0.007,2.914c0,0-0.152-0.176-0.371-0.508
				c-0.399-0.604-1.022-1.729-1.362-3.293c-0.102,0.801-0.102,1.656,0.064,2.533c0,0-1.158-1.324-1.702-3.652
				c-0.097,0.789-0.095,1.631,0.068,2.492c0,0-1.108-1.262-1.666-3.496c-0.056,0.15-0.106,0.301-0.151,0.455
				c-0.005,0.018-0.011,0.035-0.015,0.053c-0.039,0.139-0.074,0.279-0.103,0.422c-0.012,0.061-0.021,0.123-0.031,0.182
				c-0.019,0.107-0.037,0.218-0.05,0.326c-0.021,0.183-0.035,0.363-0.037,0.549c-0.053,2.98,2.121,5.482,4.983,5.916
				c0.253,0.037,0.509,0.066,0.772,0.07c0.114,0.004,0.227,0.002,0.341-0.002c0.787-0.031,1.533-0.223,2.214-0.537l0.008-0.002
				c-0.095-0.678-0.16-1.373-0.192-2.082C175.471,80.59,174.716,82.516,174.716,82.516z"/>
		</g>
		<path fill="#808080" d="M176.105,82.555L176.105,82.555c-0.681,0.314-1.426,0.506-2.214,0.537
			c-0.114,0.002-0.227,0.004-0.341,0.002c-0.263-0.004-0.52-0.033-0.772-0.07c-2.863-0.436-5.037-2.936-4.984-5.916
			c0.003-0.186,0.017-0.366,0.037-0.549c0.013-0.108,0.032-0.217,0.05-0.326c0.011-0.059,0.02-0.121,0.031-0.182
			c0.028-0.143,0.064-0.283,0.103-0.422c0.005-0.018,0.01-0.035,0.015-0.053c0.21-0.73,0.557-1.398,1.011-1.98
			c0.009-0.01,0.017-0.021,0.025-0.033c0.084-0.104,0.17-0.207,0.261-0.305c0.015-0.02,0.032-0.035,0.048-0.053
			c0.259-0.279,0.545-0.531,0.854-0.754c0.047-0.035,0.093-0.07,0.142-0.104c0.078-0.052,0.158-0.103,0.239-0.15
			c0.067-0.043,0.137-0.082,0.206-0.121c0.074-0.041,0.148-0.082,0.225-0.119c0.092-0.047,0.186-0.09,0.281-0.129
			c0.06-0.027,0.117-0.057,0.178-0.08c0.153-0.061,0.31-0.115,0.47-0.162c0.053-0.016,0.108-0.029,0.162-0.043
			c0.118-0.031,0.236-0.061,0.357-0.086c0.061-0.012,0.123-0.021,0.185-0.033c0.036-0.006,0.07-0.008,0.105-0.014
			c0.088-0.012,0.176-0.025,0.265-0.035c0.056-0.006,0.112-0.014,0.168-0.016c0.18-0.017,0.361-0.021,0.545-0.021
			c1.045,0.021,2.017,0.318,2.857,0.815l1.888-3.092c-0.186-0.16-0.378-0.313-0.575-0.461c-0.017-0.014-0.033-0.024-0.05-0.037
			c-0.192-0.143-0.39-0.278-0.592-0.407c-0.021-0.015-0.042-0.025-0.062-0.039c-0.208-0.132-0.419-0.254-0.637-0.371
			c-0.008-0.004-0.016-0.008-0.024-0.013c-0.443-0.235-0.906-0.44-1.384-0.61c-0.547-0.194-1.115-0.343-1.7-0.443
			c-0.106-0.018-0.214-0.035-0.321-0.05c-0.115-0.016-0.23-0.032-0.345-0.044c-0.011-0.001-0.021-0.001-0.032-0.002
			c-0.001,0-0.004,0-0.007,0h-0.001l0,0c-0.002,0-0.003,0-0.004-0.001c-0.278-0.028-0.56-0.046-0.845-0.052
			c-1.253-0.023-2.458,0.176-3.576,0.563c-0.586,0.203-1.148,0.461-1.682,0.76c-0.048,0.028-0.098,0.055-0.146,0.08
			c-0.144,0.086-0.286,0.174-0.425,0.264c-0.174,0.113-0.346,0.232-0.513,0.357c-2.505,1.854-4.151,4.815-4.21,8.182l0,0
			c-0.003,0.178-0.002,0.354,0.004,0.529c0.002,0.057,0.007,0.11,0.01,0.168c0.005,0.119,0.011,0.235,0.021,0.354
			c0.005,0.067,0.014,0.135,0.021,0.203c0.01,0.104,0.021,0.209,0.034,0.313c0.01,0.073,0.023,0.146,0.034,0.221
			c0.015,0.096,0.029,0.19,0.046,0.287c0.014,0.078,0.032,0.156,0.048,0.231c0.019,0.091,0.036,0.181,0.057,0.269
			c0.019,0.08,0.041,0.16,0.062,0.237c0.021,0.085,0.042,0.169,0.066,0.253c0.023,0.082,0.05,0.161,0.075,0.243
			c0.025,0.078,0.049,0.158,0.076,0.236c0.028,0.082,0.06,0.164,0.089,0.246c0.028,0.073,0.054,0.149,0.083,0.223
			c0.033,0.086,0.07,0.168,0.105,0.252c0.029,0.068,0.058,0.14,0.088,0.207c0.039,0.086,0.08,0.17,0.122,0.254
			c0.03,0.064,0.061,0.13,0.093,0.191c0.044,0.088,0.091,0.172,0.137,0.258c0.032,0.062,0.064,0.119,0.098,0.178
			c0.05,0.089,0.103,0.175,0.155,0.261c0.033,0.053,0.065,0.104,0.099,0.16c0.055,0.088,0.113,0.174,0.173,0.26
			c0.033,0.051,0.066,0.1,0.1,0.147c0.062,0.088,0.126,0.175,0.191,0.261c0.034,0.045,0.066,0.088,0.1,0.133
			c0.068,0.088,0.139,0.174,0.21,0.26c0.033,0.039,0.065,0.078,0.098,0.117c0.075,0.088,0.151,0.174,0.229,0.258
			c0.032,0.035,0.063,0.072,0.096,0.105c0.081,0.086,0.164,0.172,0.249,0.254c0.031,0.03,0.062,0.063,0.093,0.094
			c0.088,0.084,0.177,0.168,0.268,0.25c0.029,0.027,0.059,0.055,0.088,0.08c0.095,0.084,0.191,0.166,0.289,0.244
			c0.028,0.022,0.054,0.047,0.083,0.067c0.102,0.082,0.205,0.16,0.31,0.238c0.025,0.021,0.05,0.039,0.076,0.059
			c0.108,0.078,0.218,0.154,0.329,0.229c0.023,0.018,0.047,0.033,0.071,0.049c0.114,0.076,0.23,0.148,0.347,0.221
			c0.021,0.012,0.044,0.025,0.065,0.037c0.121,0.072,0.243,0.143,0.366,0.209c0.02,0.01,0.04,0.021,0.06,0.031
			c0.126,0.068,0.255,0.133,0.384,0.195c0.018,0.01,0.035,0.018,0.052,0.024c0.133,0.063,0.268,0.123,0.403,0.181
			c0.015,0.008,0.031,0.014,0.047,0.02c0.139,0.059,0.278,0.113,0.42,0.166c0.013,0.004,0.026,0.008,0.039,0.014
			c0.145,0.051,0.29,0.102,0.438,0.146c0.011,0.004,0.022,0.006,0.034,0.01c0.141,0.045,0.283,0.084,0.427,0.123
			c0.008,0.002,0.017,0.004,0.024,0.006c0.011,0.002,0.021,0.004,0.03,0.008c0.153,0.039,0.308,0.074,0.464,0.105
			c0.009,0.002,0.018,0.006,0.027,0.006c0.157,0.031,0.316,0.061,0.477,0.086c0.007,0.002,0.014,0.002,0.021,0.004
			c0.162,0.025,0.325,0.045,0.489,0.063c0.006,0.002,0.012,0.002,0.02,0.002c0.165,0.019,0.331,0.031,0.498,0.041
			c0.125,0.007,0.25,0.015,0.376,0.017c0.414,0.008,0.82-0.012,1.222-0.053c0.214-0.021,0.426-0.05,0.637-0.084
			c1.159-0.189,2.254-0.57,3.252-1.111c0.004,0.019,0.006,0.031,0.01,0.05C176.743,86.488,176.248,83.629,176.105,82.555z"/>
		<g>
			<path fill="#F1F1F2" d="M210.719,48.826c-0.006-0.018-0.011-0.036-0.018-0.054c-0.024-0.087-0.049-0.173-0.075-0.261
				c-0.089-0.298-0.185-0.602-0.282-0.911c-0.087-0.273-0.179-0.549-0.273-0.83c-0.043-0.128-0.086-0.255-0.131-0.385
				c-0.017-0.046-0.033-0.093-0.051-0.14c-0.054-0.155-0.106-0.31-0.164-0.467c-0.045-0.124-0.093-0.248-0.139-0.372
				c-0.068-0.184-0.138-0.367-0.209-0.553c-0.109-0.284-0.225-0.57-0.341-0.858c-0.113-0.272-0.228-0.547-0.347-0.821
				c-0.045-0.105-0.09-0.21-0.139-0.316c0-0.002-0.001-0.003-0.002-0.004c-0.132-0.301-0.271-0.603-0.412-0.905
				c-0.103-0.217-0.205-0.434-0.313-0.651c0-0.001,0-0.001,0-0.002c-0.22-0.445-0.45-0.889-0.69-1.333
				c-0.188-0.347-0.382-0.691-0.582-1.035l-0.001-0.001c-0.088-0.15-0.178-0.3-0.269-0.451c-0.364-0.601-0.749-1.195-1.157-1.78
				c-4.793-6.867-12.674-12.246-25.504-9.125c0,0-17.735,5.938-11.761,29.051c0.062,0.24,0.129,0.483,0.197,0.727
				c0.139,0.507,0.289,1.02,0.451,1.542c0.169,0.543,0.35,1.095,0.544,1.656c1.104-0.078,3.045-0.229,5.608-0.488l-0.279-2.072
				h0.001l-0.11-0.82l-0.13-0.972l7.209-0.968l0.767-0.104l2.516-0.338l0.138,1.028l0,0v0.004l0,0l0.102,0.757l0,0l0.039,0.28
				l0.195,1.453l0.06,0.446c0.57-0.084,1.149-0.171,1.736-0.262c0.435-0.067,0.875-0.136,1.318-0.207
				c3.218-0.517,6.663-1.142,10.211-1.893l-0.1-0.517l-0.231-1.188h0.001l-0.345-1.775l10.394-2.018l0.58,2.995
				c1.011-0.281,2.021-0.574,3.027-0.877c-0.229-1.119-0.558-2.521-1.013-4.09C210.736,48.891,210.729,48.858,210.719,48.826z"/>
			<path fill="#F1F1F2" d="M224.311,46.699l-7.844-16.889l-2.359,0.628l-6.012,1.602l1.393,4.727l0.639,2.174l0.301,1.017
				l0.657,2.239l0.378,1.282l0.001,0.004l0.048,0.16l0.258,0.879l0.194,0.66l0.278,0.947l0.104,0.358l0.229,0.778l0.007,0.025
				l0.061,0.201l0.039,0.136l0.164,0.559l0.103,0.343l1.625,5.522l0.364,1.238c1.938-0.514,3.666-1.004,5.17-1.454
				c0.754-0.225,1.449-0.439,2.092-0.64v-0.001c0.773-0.243,1.464-0.468,2.068-0.671c0.397-0.132,0.758-0.255,1.08-0.367
				c0.526-0.182,0.955-0.336,1.28-0.455l0.004-0.002L224.311,46.699z"/>
			<path fill="#E2E3E4" d="M237.886,55.013c-0.043-0.042-1.159,0.493-3.024,1.263c-2.043,0.844-4.985,1.97-8.402,2.931
				c-0.074,0.021-0.146,0.043-0.223,0.063c-0.004,0.001-0.006,0.002-0.012,0.003c-0.643,0.193-1.272,0.379-1.891,0.56h-0.001
				c-0.526,0.154-1.041,0.303-1.542,0.447c-0.007,0.002-0.014,0.004-0.02,0.005c-0.006,0.002-0.014,0.004-0.019,0.005
				c-0.19,0.055-0.38,0.109-0.565,0.163c-0.16,0.045-0.315,0.09-0.472,0.135c-3.489,0.994-6.171,1.722-7.082,2.091
				c-0.229,0.093-0.349,0.163-0.339,0.209c0.044,0.218,3.34-0.251,7.879-1.384c0.176-0.044,0.354-0.088,0.532-0.135
				c0.013-0.003,0.024-0.006,0.039-0.01c0.138-0.035,0.274-0.071,0.415-0.107c0.396-0.104,0.798-0.211,1.208-0.324h0.001
				c0.706-0.193,1.43-0.4,2.167-0.621c0.004,0,0.008-0.002,0.011-0.003c3.92-1.083,7.229-2.576,9.247-3.708
				c0.45-0.253,0.838-0.488,1.151-0.696c0.354-0.234,0.611-0.433,0.771-0.588c0.041-0.04,0.077-0.077,0.104-0.11
				C237.891,55.116,237.915,55.051,237.886,55.013z"/>
		</g>
		<g>
			<path fill="#E2E3E4" d="M216.467,29.81c0,0-0.005-0.008-0.013-0.018c-0.002-0.001-0.004-0.003-0.004-0.005
				c-0.333-0.411-5.901-7.127-16.473-9.007h-0.001c-0.013-0.002-0.026-0.005-0.04-0.007c0,0,0,0-0.001,0
				c3.995,1.443,6.543,3.722,7.234,4.665c0.174,0.237,0.229,0.391,0.161,0.424c-0.104,0.175-1.262-0.701-3.256-1.746
				c-2.27-1.189-5.624-2.597-9.745-2.921c-1.464-0.119-2.863-0.099-4.17,0.008c1.029,0.108,2.018,0.278,2.955,0.494
				c2.254,0.517,4.223,1.285,5.766,2.042c3.335,1.638,5.076,3.139,4.94,3.356c-0.266,0.892-8.217-4.954-18.923-3.661
				c-0.379,0.058-0.75,0.127-1.116,0.203c-6.966,1.425-11.495,5.659-13.738,7.912c0,0.001,0,0.001-0.001,0.001
				c-0.174,0.175-0.336,0.338-0.482,0.487c-0.344,0.35-0.614,0.62-0.808,0.783c-0.018,0.016-0.034,0.027-0.05,0.04
				c-0.158,0.126-0.262,0.171-0.306,0.105l0,0c-0.408,0.601-0.79,1.217-1.146,1.848c-0.014,0.027-0.029,0.054-0.044,0.081
				c0,0,0,0.001,0,0.002c-0.123,0.218-0.241,0.438-0.356,0.661c0,0.001-0.001,0.003-0.002,0.005
				c-0.115,0.221-0.227,0.444-0.335,0.668c-0.001,0.002-0.001,0.004-0.003,0.006c-0.107,0.225-0.213,0.45-0.314,0.678
				c0,0.002-0.001,0.003-0.002,0.005c-0.102,0.229-0.201,0.458-0.296,0.69l-0.001,0.001c-2.148,5.224-2.578,11.206-0.93,17.331
				c0.041,0.147,0.083,0.295,0.125,0.442c0,0,0,0,0,0.001c0.077,0.271,0.159,0.542,0.244,0.814c0.001,0.003,0.002,0.007,0.003,0.011
				c0.084,0.268,0.173,0.537,0.267,0.806c0.001,0.002,0.001,0.005,0.002,0.008v0.001l-0.105,0.019l-0.025,0.027l-1.991,2.124
				l0.682,3.11c0,0,0.118,0.023,0.347,0.056c0.044,0.006,0.093,0.013,0.146,0.02c0.054,0.007,0.113,0.015,0.177,0.022
				c0.353,0.042,0.846,0.09,1.493,0.125c0.33,0.019,0.699,0.034,1.11,0.044c0.69,0.017,1.491,0.02,2.416-0.003
				c1.137-0.029,2.461-0.098,3.973-0.225c0.364-0.03,0.74-0.065,1.125-0.102l-0.104-0.776l-0.011-0.078l-0.066-0.498l-0.112-0.833
				c-2.563,0.259-4.504,0.411-5.608,0.488c-0.194-0.562-0.375-1.113-0.544-1.656c-0.162-0.523-0.312-1.036-0.451-1.542
				c-0.068-0.244-0.135-0.487-0.197-0.727c-5.975-23.113,11.761-29.051,11.761-29.051c12.83-3.121,20.711,2.258,25.504,9.125
				c0.408,0.584,0.793,1.179,1.158,1.78c0.09,0.15,0.18,0.3,0.269,0.451v0.001c0.2,0.344,0.396,0.688,0.582,1.035
				c0.24,0.443,0.473,0.888,0.69,1.333c0,0.001,0,0.001,0,0.002c0.108,0.217,0.212,0.434,0.313,0.651
				c0.143,0.302,0.28,0.604,0.412,0.905c0.002,0.001,0.002,0.003,0.004,0.004c0.047,0.105,0.092,0.21,0.137,0.316
				c0.119,0.274,0.233,0.549,0.347,0.821c0.116,0.288,0.231,0.574,0.342,0.858c0.07,0.186,0.14,0.37,0.208,0.553
				c0.049,0.124,0.094,0.248,0.139,0.372c0.058,0.157,0.11,0.312,0.164,0.467c0.018,0.046,0.034,0.093,0.051,0.14
				c0.045,0.129,0.088,0.257,0.132,0.385c0.095,0.281,0.187,0.557,0.272,0.83c0.1,0.309,0.193,0.613,0.282,0.911
				c0.026,0.088,0.052,0.174,0.076,0.261c0.006,0.018,0.011,0.036,0.017,0.054c0.01,0.033,0.02,0.065,0.027,0.097
				c0.455,1.57,0.784,2.972,1.014,4.09c-1.008,0.304-2.018,0.596-3.027,0.877l-0.582-2.995l-10.392,2.018l0.345,1.774l10.392-2.018
				l0.237,1.221l0.156,0.799l0.287,1.487l0.102,0.52c1.55-0.362,3.008-0.721,4.369-1.071c0.44-0.113,0.871-0.226,1.291-0.336
				l-0.363-1.238l-1.626-5.522l-0.103-0.343l-0.162-0.558l-0.041-0.136l-0.061-0.201l-0.007-0.025l-0.229-0.778l-0.104-0.358
				l-0.278-0.947l-0.194-0.66l-0.258-0.879l-0.048-0.159l-0.001-0.004l-0.378-1.282l-0.657-2.239l-0.301-1.017l-0.639-2.174
				l-1.391-4.727l6.01-1.602L216.467,29.81z"/>
			<path fill="#E2E3E4" d="M163.47,64.053c-0.101-0.075-0.198-0.154-0.289-0.241C163.181,63.812,163.249,63.917,163.47,64.053z"/>
			<path fill="#E2E3E4" d="M227.395,51.414l-0.901-4.08l-2.183-0.634l2.321,5.001l-0.004,0.001
				C227.133,51.516,227.393,51.414,227.395,51.414z"/>
			<path fill="#E2E3E4" d="M175.39,63.584c0.003-0.003,0.008-0.006,0.011-0.009c-0.548,0.086-1.109,0.186-1.673,0.29
				C174.251,63.775,174.806,63.681,175.39,63.584z"/>
			<path fill="#E2E3E4" d="M198.643,57.475l-0.21-1.082c-3.549,0.751-6.993,1.375-10.211,1.892c-0.444,0.071-0.883,0.14-1.318,0.208
				c-0.587,0.091-1.166,0.178-1.736,0.262l0.094,0.699l0.077,0.57l0.123,0.913c0.046-0.006,0.092-0.012,0.138-0.018
				c0.311-0.039,0.619-0.079,0.927-0.12c3.402-0.446,6.619-0.938,9.642-1.458c0.092-0.016,0.186-0.032,0.278-0.047
				c0.837-0.145,1.659-0.292,2.466-0.439l-0.24-1.238L198.643,57.475z"/>
			<polygon fill="#E2E3E4" points="184.771,55.818 184.771,55.814 184.771,55.814 184.634,54.786 182.117,55.124 181.35,55.227 
				174.141,56.195 174.271,57.167 174.382,57.987 179.44,57.307 181.382,57.046 182.208,56.934 183.564,56.752 183.565,56.752 
				183.573,56.751 183.573,56.751 184.874,56.576 184.771,55.819 			"/>
		</g>
		<g>
			<path fill="#666666" d="M238.593,52.954l-9.338-3.203l-0.639-2.887c-0.173-0.78-0.75-1.397-1.517-1.621l-1.232-0.358
				l-7.426-15.992c-0.066-0.143-0.168-0.307-0.266-0.431c-0.092-0.115-1.615-2.028-4.584-4.195c-2.933-2.14-7.3-4.53-13.049-5.587
				c-1.734-0.614-3.707-1.087-5.897-1.269l-0.016-0.001c-0.657-0.05-1.3-0.073-1.928-0.073c-2.197,0-4.196,0.284-5.94,0.702
				c-1.645,0.395-3.061,0.908-4.214,1.422c-2.76,0.604-5.2,1.667-7.262,2.905c-2.124,1.276-3.851,2.729-5.155,4.091
				c-0.001,0.001-0.001,0.002-0.002,0.002c-1.266,1.313-2.187,2.521-2.819,3.521c-0.316,0.502-0.56,0.95-0.747,1.367
				c-0.093,0.21-0.173,0.411-0.242,0.633c-0.027,0.092-0.052,0.191-0.076,0.299c-2.888,4.463-4.463,9.698-4.462,15.219
				c0,2.914,0.437,5.906,1.335,8.905l-1.223,1.305c-0.487,0.521-0.69,1.257-0.538,1.954l0.486,2.216l-0.485,0.74
				c-0.472,0.72-0.475,1.647-0.01,2.371c0.126,0.198,0.329,0.436,0.61,0.66c0.424,0.338,1.014,0.642,1.808,0.856
				c0.222,0.06,0.462,0.113,0.72,0.159c-0.549,0.391-1.066,0.82-1.544,1.289c-2.261,2.225-3.69,5.322-3.75,8.746
				c-0.001,0.076-0.001,0.15-0.001,0.227c-0.001,3.338,1.311,6.4,3.445,8.654c1.79,1.895,4.179,3.234,6.863,3.723
				c0.013,0.039,0.024,0.076,0.035,0.107l0.003,0.008c1.776,5.561,4.91,10.949,9.353,15.578c2.37,2.467,5.597,5.109,9.57,7.162
				c3.969,2.051,8.702,3.506,13.987,3.506c3.406,0,7.033-0.607,10.787-2.02c3.756-1.41,7.637-3.621,11.589-6.799l0.046-0.039
				c0.031-0.025,0.046-0.039,0.074-0.064c0.102-0.088,0.302-0.266,0.557-0.49c0.381-0.338,0.876-0.777,1.286-1.141
				c0.205-0.182,0.39-0.346,0.526-0.467c0.069-0.063,0.127-0.111,0.17-0.15c0.041-0.037,0.072-0.064,0.074-0.066
				c0.021-0.018,0.037-0.037,0.057-0.055c3.232-2.629,5.367-5.688,6.742-8.295c0.608-0.578,1.086-1.182,1.416-1.828
				c0.193-0.381,0.332-0.773,0.42-1.156c0.089-0.381,0.121-0.752,0.121-1.086c0-0.154-0.006-0.301-0.019-0.439
				c-0.007-0.094-0.021-0.186-0.041-0.274c-0.028-0.205-0.069-0.407-0.128-0.601l-0.002-0.004c-0.123-0.403-0.324-0.799-0.591-1.133
				c-0.265-0.336-0.591-0.604-0.916-0.797l-0.015-0.008c-0.35-0.199-0.692-0.318-1.008-0.393c-0.111-0.025-0.216-0.039-0.32-0.055
				c-0.016-0.029-0.029-0.063-0.045-0.093c-0.049-0.094-0.095-0.178-0.142-0.262c0.04-0.353,0.06-0.697,0.06-1.025
				c0-0.264-0.012-0.518-0.033-0.764V86.16c-0.047-0.529-0.135-0.994-0.235-1.406c0.086-0.072,0.172-0.145,0.253-0.219
				c0.451-0.4,0.837-0.785,1.163-1.176l0.062-0.076c0.266-0.348,0.444-0.707,0.563-1.039c0.119-0.334,0.181-0.641,0.215-0.908
				h-0.006c0.004-0.027,0.006-0.055,0.008-0.08h0.003c0.002-0.021,0.004-0.047,0.006-0.068c0.002-0.043,0.006-0.086,0.008-0.131
				c0.006-0.098,0.01-0.203,0.01-0.313c-0.002-0.539-0.069-1.242-0.393-2.019c-0.162-0.385-0.389-0.783-0.699-1.156
				c-0.309-0.375-0.698-0.719-1.152-0.998l0.003,0.003c-0.032-0.021-0.06-0.037-0.088-0.06c-0.906-1.459-1.961-2.604-2.901-3.479
				c-0.488-0.453-0.947-0.834-1.336-1.146c-0.389-0.31-0.713-0.554-0.896-0.701l0.001,0.002c-0.412-0.33-0.722-0.533-0.873-0.627
				c-0.343-0.229-0.599-0.41-0.753-0.537c-0.119-0.099-0.178-0.16-0.197-0.187l-0.013-0.016c0-0.003-0.015-0.029-0.029-0.128
				c-0.015-0.096-0.028-0.258-0.028-0.491c0-0.369,0.033-0.908,0.104-1.619c0.11-1.142,0.308-2.717,0.53-4.854
				c0.031-0.3,0.053-0.589,0.07-0.874c2.922-0.822,5.836-1.708,8.146-2.565c0.601-0.223,1.161-0.444,1.678-0.667
				c0.388-0.167,0.749-0.333,1.087-0.504c0.508-0.26,0.954-0.516,1.387-0.854c0.217-0.172,0.434-0.366,0.65-0.64
				c0.109-0.138,0.219-0.298,0.318-0.493c0.101-0.196,0.191-0.429,0.244-0.703C240.23,54.366,239.618,53.306,238.593,52.954z
				 M174.408,79.145c0.002-0.006,0.004-0.016,0.007-0.026c0.001-0.002,0.001-0.004,0.001-0.007c0.053-0.19,0.282-0.981,0.692-1.733
				c0.003-0.004,0.004-0.008,0.007-0.012c0.06-0.109,0.124-0.22,0.191-0.324c0.004-0.004,0.007-0.01,0.01-0.015
				c0.069-0.106,0.142-0.209,0.218-0.307c0.011-0.014,0.021-0.025,0.031-0.039c0.063-0.078,0.129-0.149,0.197-0.221
				c0.021-0.021,0.042-0.043,0.063-0.063c0.082-0.08,0.167-0.154,0.256-0.219c0,0-0.003,0.014-0.009,0.03
				c0,0.002,0,0.002-0.001,0.004c-0.091,0.32-0.84,2.99-1.229,5.418c-0.048,0.3-0.092,0.597-0.126,0.882
				c0,0,0.755-1.925,1.205-2.046c0.033,0.712,0.098,1.406,0.192,2.084l-0.008,0.003l0,0c0.143,1.071,0.566,3.547,0.563,3.528
				c-0.998,0.541-2.094,0.922-3.252,1.11c-0.21,0.035-0.422,0.063-0.637,0.084c-0.401,0.041-0.809,0.062-1.222,0.054
				c-0.125-0.002-0.248-0.011-0.372-0.017l0,0c-0.002,0-0.003,0-0.004,0c-0.168-0.01-0.334-0.022-0.498-0.039
				c-0.007-0.002-0.014-0.002-0.02-0.004c-0.165-0.016-0.328-0.037-0.489-0.063c-0.007,0-0.014-0.002-0.021-0.002
				c-0.161-0.027-0.32-0.055-0.478-0.086c-0.009-0.002-0.017-0.006-0.026-0.006c-0.156-0.033-0.311-0.068-0.464-0.107
				c-0.01-0.004-0.021-0.004-0.03-0.008c-0.008-0.002-0.016-0.004-0.025-0.006c-0.143-0.039-0.285-0.078-0.426-0.123
				c-0.011-0.004-0.023-0.006-0.034-0.01c-0.147-0.045-0.293-0.094-0.438-0.146c-0.013-0.004-0.026-0.01-0.039-0.014
				c-0.141-0.053-0.282-0.107-0.42-0.166c-0.015-0.006-0.031-0.012-0.046-0.02c-0.136-0.058-0.27-0.117-0.403-0.181
				c-0.018-0.008-0.035-0.017-0.052-0.024c-0.129-0.062-0.258-0.127-0.385-0.195c-0.019-0.01-0.039-0.021-0.059-0.031
				c-0.124-0.066-0.245-0.137-0.367-0.207c-0.021-0.014-0.043-0.027-0.065-0.039c-0.117-0.072-0.233-0.145-0.348-0.221
				c-0.023-0.016-0.047-0.031-0.07-0.047c-0.112-0.076-0.221-0.152-0.329-0.23c-0.026-0.02-0.051-0.039-0.077-0.059
				c-0.104-0.078-0.208-0.156-0.309-0.238c-0.029-0.021-0.055-0.045-0.083-0.066c-0.098-0.08-0.194-0.162-0.289-0.246
				c-0.03-0.024-0.059-0.055-0.088-0.08c-0.091-0.082-0.181-0.164-0.269-0.25c-0.031-0.03-0.061-0.063-0.092-0.092
				c-0.084-0.084-0.167-0.17-0.249-0.256c-0.033-0.033-0.064-0.07-0.096-0.104c-0.078-0.086-0.155-0.172-0.229-0.26
				c-0.034-0.039-0.066-0.078-0.099-0.117c-0.07-0.086-0.141-0.172-0.209-0.26c-0.035-0.045-0.067-0.088-0.1-0.133
				c-0.065-0.087-0.13-0.173-0.191-0.261c-0.035-0.049-0.067-0.099-0.101-0.146c-0.059-0.088-0.117-0.172-0.172-0.263
				c-0.035-0.053-0.067-0.106-0.1-0.159c-0.053-0.086-0.105-0.173-0.155-0.261c-0.034-0.059-0.065-0.116-0.098-0.176
				c-0.046-0.086-0.093-0.172-0.138-0.261c-0.033-0.063-0.063-0.125-0.093-0.188c-0.042-0.086-0.083-0.17-0.122-0.256
				c-0.031-0.067-0.059-0.14-0.089-0.207c-0.035-0.084-0.072-0.166-0.105-0.252c-0.029-0.072-0.055-0.147-0.083-0.224
				c-0.03-0.082-0.062-0.161-0.09-0.246c-0.027-0.077-0.05-0.157-0.075-0.235c-0.026-0.082-0.052-0.162-0.076-0.244
				c-0.023-0.084-0.044-0.168-0.066-0.25c-0.021-0.079-0.043-0.159-0.062-0.239c-0.021-0.088-0.039-0.179-0.057-0.267
				c-0.016-0.078-0.034-0.155-0.048-0.231c-0.017-0.097-0.031-0.193-0.046-0.289c-0.011-0.074-0.024-0.146-0.035-0.222
				c-0.013-0.104-0.023-0.209-0.034-0.313c-0.007-0.068-0.016-0.136-0.021-0.203c-0.009-0.117-0.015-0.236-0.021-0.354
				c-0.003-0.056-0.008-0.111-0.01-0.168c-0.006-0.175-0.007-0.353-0.004-0.529l0,0c0.063-3.59,1.932-6.721,4.723-8.539
				c0.139-0.09,0.281-0.178,0.425-0.262c0.048-0.027,0.098-0.054,0.146-0.082c0.534-0.3,1.096-0.556,1.682-0.759
				c1.119-0.388,2.323-0.587,3.576-0.564c0.285,0.005,0.566,0.024,0.845,0.052c0.001,0,0.002,0,0.004,0l0,0h0.001
				c0.002,0,0.004,0,0.007,0c0.011,0.001,0.021,0.002,0.032,0.003c0.115,0.012,0.23,0.028,0.345,0.044
				c0.107,0.015,0.214,0.031,0.32,0.049c0.585,0.101,1.154,0.25,1.7,0.444c0.479,0.17,0.941,0.376,1.385,0.609
				c0.008,0.004,0.016,0.008,0.023,0.015c0.218,0.114,0.43,0.237,0.637,0.368c0.021,0.015,0.042,0.027,0.063,0.039
				c0.202,0.13,0.4,0.267,0.592,0.408c0.017,0.013,0.033,0.025,0.049,0.037c0.197,0.148,0.39,0.301,0.576,0.461
				c0,0.002,0.001,0.002,0.001,0.002s-1.722,2.775-2.114,3.541c-0.043,0.086-0.087,0.17-0.13,0.258
				c-0.003,0.011-0.007,0.019-0.012,0.023v0.002c-0.067,0.141-0.132,0.287-0.199,0.432c-0.045,0.101-0.092,0.197-0.137,0.3
				c-0.1,0.229-0.198,0.465-0.292,0.702c-0.004,0.011-0.01,0.021-0.013,0.031c-0.202,0.506-0.385,1.031-0.55,1.57v0.002l0,0
				c-0.073,0.24-0.141,0.482-0.205,0.729c-0.013,0.05-0.024,0.095-0.036,0.144c-0.052,0.211-0.103,0.424-0.148,0.64
				c-0.025,0.116-0.045,0.237-0.067,0.356c-0.029,0.16-0.061,0.315-0.085,0.478c-0.045,0.293-0.083,0.588-0.11,0.885
				C174.405,79.156,174.407,79.152,174.408,79.145z M237.82,55.203c-0.025,0.033-0.063,0.071-0.104,0.11
				c-0.158,0.184-0.419,0.38-0.771,0.587c-0.313,0.208-0.7,0.443-1.15,0.696c-2.018,1.132-5.328,2.625-9.247,3.708
				c-0.003,0.001-0.007,0.002-0.011,0.003c-0.737,0.221-1.461,0.428-2.167,0.621c0,0-0.001,0-0.002,0
				c-0.001,0.192-0.007,0.387-0.017,0.59c-0.002,0.064-0.006,0.128-0.011,0.193c-0.016,0.246-0.034,0.497-0.062,0.759
				c-0.002,0.011-0.002,0.021-0.002,0.031c-0.223,2.117-0.416,3.679-0.533,4.869c-0.322,3.302-0.047,3.718,1.902,5.019
				c0,0,0.271,0.158,0.693,0.496l0,0c0.896,0.717,3.15,2.291,4.729,4.908c0.045,0.076,0.094,0.15,0.14,0.23
				c0.163,0.131,0.353,0.264,0.569,0.397c0.063,0.039,0.123,0.08,0.182,0.123c0.172,0.127,0.314,0.267,0.436,0.412
				c0.217,0.262,0.361,0.549,0.451,0.83c0,0.002,0,0.002,0,0.004c0.021,0.062,0.036,0.119,0.051,0.178
				c0.002,0.011,0.004,0.019,0.006,0.023c0.013,0.055,0.022,0.104,0.031,0.155c0.004,0.017,0.006,0.031,0.008,0.047
				c0.008,0.043,0.015,0.086,0.021,0.127c0.003,0.025,0.004,0.05,0.007,0.072c0.004,0.033,0.008,0.064,0.01,0.097
				c0.002,0.026,0.004,0.055,0.004,0.079c0.002,0.027,0.002,0.054,0.004,0.08c0,0.027,0,0.054,0,0.08c0,0.021,0,0.047,0,0.07
				c0,0.025-0.002,0.049-0.002,0.074c0,0.02-0.002,0.043-0.002,0.063c-0.002,0.021-0.004,0.035-0.006,0.056
				c0,0.018-0.002,0.038-0.002,0.057c0,0.004,0,0.007-0.002,0.011l0,0c-0.113,0.155-0.332,0.379-0.647,0.647
				c-0.005,0.004-0.011,0.008-0.015,0.012c-0.265,0.226-0.596,0.48-0.988,0.761c-0.396,0.278-0.854,0.582-1.372,0.896
				c-0.067,0.344-0.146,0.687-0.228,1.026c0.205-0.139,0.402-0.272,0.59-0.405l0,0c0.006,0.012,0.015,0.026,0.023,0.047
				c0.006,0.015,0.012,0.022,0.02,0.041c0.014,0.024,0.026,0.056,0.043,0.092c0.011,0.021,0.021,0.043,0.031,0.068
				c0.018,0.041,0.035,0.086,0.057,0.135c0.012,0.029,0.021,0.058,0.033,0.088c0.022,0.06,0.045,0.121,0.067,0.188
				c0.013,0.031,0.021,0.061,0.032,0.094c0.025,0.078,0.052,0.158,0.076,0.246c0.008,0.029,0.017,0.057,0.023,0.086
				c0.027,0.1,0.055,0.203,0.079,0.314c0.004,0.021,0.009,0.043,0.013,0.063c0.028,0.123,0.053,0.254,0.074,0.392
				c0.002,0.01,0.004,0.021,0.004,0.03c0.022,0.147,0.043,0.306,0.059,0.468c0.012,0.137,0.019,0.276,0.021,0.422
				c0,0.018,0.003,0.033,0.003,0.053c0.006,0.49-0.037,1.025-0.158,1.592c0.027,0.039,0.062,0.086,0.097,0.137
				c0.248,0.363,0.635,1.041,0.913,1.986c0.005,0.016,0.011,0.031,0.017,0.049l-0.021-0.059c0.115-0.029,0.283-0.062,0.473-0.08
				c0.123-0.014,0.252-0.021,0.389-0.02c0.284,0.006,0.582,0.061,0.834,0.206c0.006,0.003,0.01,0.007,0.016,0.011
				c0.003,0.002,0.006,0.004,0.009,0.006c0.165,0.102,0.312,0.246,0.415,0.447c0.035,0.069,0.068,0.146,0.095,0.231
				c0.036,0.117,0.062,0.254,0.073,0.403c0.001,0.004,0.002,0.007,0.002,0.013c0,0,0,0,0,0.002l0.005-0.002c0,0,0,0,0,0.002
				c0.009,0.103,0.013,0.207,0.011,0.313c-0.011,0.523-0.168,1.107-0.66,1.761c-0.17,0.225-0.377,0.456-0.635,0.696
				c-0.076,0.074-0.158,0.146-0.244,0.222l-0.019,0.036c-0.101,0.195-0.206,0.396-0.315,0.595c-0.035,0.063-0.07,0.127-0.104,0.19
				c-0.081,0.146-0.165,0.295-0.252,0.443c-0.039,0.068-0.078,0.135-0.119,0.205c-0.11,0.188-0.228,0.377-0.347,0.566
				c-0.063,0.102-0.129,0.201-0.194,0.303c-0.063,0.1-0.129,0.197-0.194,0.297c-0.082,0.121-0.164,0.242-0.25,0.365
				c-0.041,0.059-0.082,0.119-0.125,0.178c-0.201,0.287-0.414,0.574-0.638,0.863c-0.013,0.016-0.022,0.031-0.036,0.047
				c-0.127,0.164-0.26,0.328-0.395,0.494c-0.012,0.014-0.023,0.029-0.036,0.043c-0.55,0.67-1.152,1.334-1.82,1.98
				c-0.506,0.491-1.051,0.973-1.631,1.438c-0.033,0.025-0.067,0.053-0.103,0.078c0,0.002-0.002,0.004-0.004,0.004
				c-0.021,0.02-0.047,0.037-0.068,0.057c-0.561,0.426-1.133,0.824-1.709,1.193c-0.356,0.229-0.717,0.447-1.078,0.656
				c-0.003,0.002-0.008,0.004-0.012,0.006c-0.485,0.279-0.978,0.537-1.471,0.779c-0.035,0.018-0.07,0.037-0.104,0.053
				c-0.636,0.309-1.277,0.592-1.923,0.846c-1.252,0.492-2.518,0.885-3.781,1.191c-9.867,2.385-19.66-0.539-21.978-2.59l0.982,1.942
				c-0.831-0.431-3.068-3.633-3.8-4.699c-0.085-0.096-0.169-0.188-0.255-0.284c-0.145,0.52,0.687,2.448,0.687,2.448
				c-1.2-1.61-2.271-3.887-2.764-5.006c-0.103-0.146-0.207-0.289-0.307-0.438c-0.155,2.063,0.922,3.746,0.922,3.746
				c-7.497-8.422-4.071-17.35,0.24-20.836c-0.773-1.361-1.429-2.672-1.98-3.936c-0.015,0.154-0.025,0.242-0.025,0.242l-0.009,2.795
				c-0.648-0.939-1.291-6.41-1.291-6.41c-0.399,0.244-0.545,2.543-0.545,2.543c-0.343-2.057-0.248-4.672-0.179-5.861
				c-0.025-0.154-0.047-0.305-0.069-0.459c-1.082,1.758-0.884,3.783-0.884,3.783c-0.599-3.992-0.381-7.348,0.417-10.175
				c0.104-0.018,0.208-0.037,0.313-0.055c1.746-0.308,3.708-0.67,5.213-0.81c0.997-0.121,1.977-0.223,2.94-0.313
				c0.617-0.057,1.227-0.11,1.828-0.155c1.62-0.124,3.173-0.206,4.647-0.258c0.976-0.035,1.915-0.057,2.813-0.068
				c6.5-0.083,10.826,0.362,10.885,0.188c0.008-0.025,0.004-0.052-0.008-0.079c-0.005-0.012-0.016-0.024-0.025-0.037
				c-0.009-0.012-0.017-0.024-0.029-0.037c-0.416-0.439-2.934-1.093-6.775-1.498c-1.2-0.126-2.529-0.228-3.964-0.291
				c-1.749-0.078-3.651-0.099-5.669-0.036c-0.822,0.025-1.665,0.066-2.522,0.12c-1.234,0.079-2.501,0.19-3.792,0.339l0.178,0.008
				c0,0-2.287,0.296-5.205,0.68c-0.001,0-0.001,0-0.002,0c-0.323,0.042-0.655,0.086-0.992,0.13
				c-1.095,0.144-2.246,0.297-3.379,0.448c-0.196,0.027-0.393,0.053-0.588,0.079c-0.465,0.062-0.923,0.125-1.371,0.184
				c-1.36,0.185-2.617,0.357-3.618,0.5c-0.003,0-0.005,0.001-0.008,0.001l-0.145,0.023h-0.001l0,0c0,0,0,0-0.001,0
				c-0.002,0-0.004,0-0.006,0.001c0,0-0.001,0-0.002,0c-0.117,0.019-0.239,0.039-0.354,0.058c-0.412,0.068-0.805,0.135-1.188,0.2
				c-0.16,0.027-0.324,0.055-0.479,0.082c-0.591,0.11-1.186,0.225-1.778,0.337c-0.313,0.059-0.625,0.118-0.934,0.173
				c-0.82,0.148-1.626,0.28-2.397,0.37c-0.556,0.065-1.094,0.109-1.607,0.123c-0.66,0.017-1.277-0.018-1.835-0.122
				c-0.375-0.07-0.723-0.173-1.041-0.313c-0.238-0.104-0.459-0.231-0.661-0.382c-0.221-0.136-0.289-0.241-0.289-0.241l0.985-1.505
				l-0.681-3.109l1.99-2.125l0.025-0.026l0.106-0.019l0,0c-0.002-0.003-0.002-0.006-0.003-0.009
				c-0.093-0.269-0.181-0.537-0.267-0.805c-0.001-0.004-0.002-0.008-0.003-0.011c-0.085-0.271-0.167-0.543-0.244-0.814l0,0
				c-0.042-0.147-0.084-0.295-0.125-0.443c-1.649-6.125-1.22-12.107,0.93-17.331l0,0c0.096-0.231,0.195-0.461,0.297-0.69
				c0-0.001,0.001-0.003,0.001-0.005c0.102-0.227,0.207-0.453,0.315-0.677c0.001-0.003,0.001-0.004,0.002-0.007
				c0.108-0.224,0.22-0.447,0.335-0.668c0.002-0.002,0.002-0.004,0.002-0.005c0.117-0.222,0.235-0.442,0.356-0.661
				c0-0.001,0-0.002,0-0.002c0.016-0.027,0.03-0.054,0.045-0.081c0.354-0.631,0.736-1.247,1.145-1.849
				c-0.046-0.026-0.05-0.124-0.01-0.282c0.175-0.688,1.198-2.527,3.314-4.717c0.154-0.162,0.317-0.326,0.486-0.491
				c0.042-0.041,0.088-0.083,0.131-0.125c0.126-0.121,0.252-0.242,0.385-0.364c0.076-0.068,0.155-0.138,0.233-0.207
				c0.106-0.094,0.21-0.187,0.32-0.281c0.1-0.085,0.203-0.169,0.306-0.254c0.094-0.078,0.187-0.154,0.283-0.231
				c0.12-0.096,0.243-0.191,0.367-0.286c0.084-0.065,0.167-0.129,0.255-0.193c0.139-0.104,0.282-0.208,0.428-0.311
				c0.074-0.053,0.147-0.105,0.223-0.157c0.161-0.112,0.324-0.222,0.491-0.332c0.063-0.041,0.125-0.082,0.188-0.122
				c0.183-0.118,0.369-0.234,0.558-0.349c0.048-0.028,0.095-0.057,0.142-0.085c0.209-0.124,0.421-0.247,0.638-0.367
				c0.022-0.012,0.045-0.024,0.068-0.037c1.764-0.968,3.786-1.776,6.028-2.24c0.005-0.001,0.01-0.002,0.016-0.003
				c0.004-0.002,0.009-0.005,0.014-0.007c0.143-0.065,0.291-0.131,0.444-0.196l0.024-0.01c0.486-0.208,1.022-0.413,1.605-0.609
				c0.028-0.009,0.059-0.019,0.089-0.029c0.156-0.052,0.316-0.103,0.48-0.153c0.054-0.017,0.109-0.033,0.165-0.049
				c0.142-0.042,0.286-0.084,0.433-0.125c0.068-0.019,0.137-0.037,0.205-0.056c0.14-0.037,0.282-0.073,0.424-0.108
				c0.076-0.018,0.15-0.037,0.226-0.054c0.146-0.035,0.296-0.068,0.446-0.1c0.074-0.017,0.146-0.033,0.221-0.048
				c0.177-0.037,0.355-0.07,0.536-0.102c0.051-0.01,0.102-0.02,0.153-0.029c0.229-0.04,0.463-0.078,0.7-0.111
				c0.076-0.011,0.154-0.02,0.231-0.03c0.164-0.021,0.329-0.043,0.496-0.061c0.102-0.012,0.205-0.021,0.307-0.031
				c0.146-0.014,0.294-0.028,0.443-0.04c0.112-0.009,0.225-0.017,0.338-0.023c0.144-0.009,0.289-0.017,0.435-0.023
				c0.117-0.005,0.235-0.01,0.354-0.014c0.147-0.004,0.295-0.006,0.446-0.008c0.119-0.001,0.238-0.003,0.358-0.002
				c0.157,0.001,0.317,0.005,0.476,0.009c0.116,0.003,0.23,0.005,0.346,0.009c0.205,0.008,0.414,0.021,0.622,0.035
				c0.068,0.004,0.135,0.006,0.203,0.012c0.262,0.022,0.521,0.048,0.776,0.079c0.029,0.004,0.058,0.008,0.086,0.013
				c0.22,0.026,0.439,0.056,0.654,0.089c0.132,0.021,0.261,0.045,0.392,0.068c0.109,0.019,0.22,0.036,0.329,0.057
				c0.167,0.031,0.331,0.067,0.495,0.103c0.067,0.015,0.137,0.027,0.203,0.043c0.182,0.041,0.361,0.085,0.538,0.13
				c0.046,0.012,0.093,0.022,0.14,0.035c0.186,0.048,0.369,0.1,0.55,0.152c0.035,0.011,0.072,0.021,0.107,0.031
				c0.187,0.055,0.37,0.112,0.551,0.172c0.028,0.009,0.057,0.017,0.085,0.027c0.18,0.059,0.358,0.122,0.534,0.185
				c0.01,0.003,0.02,0.006,0.029,0.01c0.001,0,0.001,0,0.001,0c0.014,0.002,0.027,0.004,0.04,0.007h0.001
				c10.572,1.88,16.139,8.596,16.473,9.007c0,0.003,0.002,0.003,0.004,0.004c0.008,0.01,0.013,0.018,0.013,0.018l7.843,16.89
				l2.184,0.634l0.9,4.081l0,0l8.127,2.788l0.313,0.107l1.071,0.368h0.002l0.078,0.027l0.899,0.309
				C237.915,55.051,237.891,55.116,237.82,55.203z"/>
			<path fill="#666666" d="M168.031,75.576c0.048-0.168,0.105-0.334,0.168-0.496c-0.005,0.016-0.012,0.027-0.018,0.041
				C168.126,75.271,168.076,75.422,168.031,75.576z"/>
			<path fill="#666666" d="M206.667,67.021c-0.931,0.095-1.515,1.892-1.31,4.015c0.106,1.067,0.394,2.019,0.771,2.682
				c0.762-0.219,1.585-0.418,2.467-0.598c0.165-0.683,0.221-1.524,0.131-2.433C208.52,68.566,207.598,66.924,206.667,67.021z
				 M207.402,69.496l-0.051-0.006l0.053,0.004L207.402,69.496z"/>
			<path fill="#666666" d="M217.029,73.428c-0.106-0.184-0.27-0.359-0.475-0.504c-0.451-0.313-0.961-0.361-1.236-0.145
				c-0.045,0.037-0.086,0.078-0.117,0.127c-0.131,0.207-0.098,0.494,0.056,0.768v0.002c0.106,0.191,0.272,0.381,0.488,0.531
				c0.455,0.314,0.976,0.361,1.249,0.135c0.04-0.035,0.076-0.074,0.105-0.119C217.234,74.008,217.195,73.711,217.029,73.428
				L217.029,73.428L217.029,73.428z"/>
			<path fill="#666666" d="M221.051,72.061c-0.251-0.139-0.588,0.129-0.753,0.601c-0.054,0.151-0.079,0.307-0.085,0.45l0,0
				c-0.011,0.304,0.074,0.56,0.245,0.654c0.252,0.142,0.587-0.129,0.753-0.6c0.014-0.041,0.023-0.084,0.035-0.125l0,0
				C221.357,72.611,221.279,72.188,221.051,72.061z"/>
			<path fill="#666666" d="M176.37,72.645c0.007-0.014,0.012-0.022,0.019-0.037c0.075-0.151,0.15-0.307,0.226-0.45
				C176.531,72.314,176.452,72.48,176.37,72.645z"/>
			<path fill="#666666" d="M221.039,68.211c-0.014-0.688-0.132-1.312-0.316-1.805c-0.061-0.28-0.459-1.088-1.002-1.065
				c-0.701,0.012-1.242,1.317-1.217,2.913c0.006,0.232,0.021,0.459,0.049,0.676c1.084,0.068,1.807,0.443,2.275,0.965
				C220.968,69.418,221.051,68.84,221.039,68.211z"/>
		</g>
		<g>
			<path fill="#FFFFFF" d="M237.718,55.313c-0.157,0.155-0.418,0.354-0.771,0.587C237.299,55.694,237.561,55.497,237.718,55.313z"/>
			<path fill="#FFFFFF" d="M236.984,54.704l-0.077-0.027h-0.001l-1.072-0.368l-0.313-0.107l-8.127-2.788l0,0
				c-0.002,0-0.262,0.103-0.768,0.288c-0.325,0.119-0.753,0.273-1.279,0.455c-0.322,0.112-0.684,0.235-1.08,0.367
				c-0.604,0.203-1.295,0.428-2.068,0.671h-0.002c-0.641,0.202-1.338,0.416-2.09,0.641c-1.506,0.449-3.23,0.94-5.17,1.454
				c-0.42,0.111-0.851,0.224-1.291,0.336c-1.361,0.351-2.819,0.709-4.369,1.071l-0.103-0.52l-0.288-1.487l-0.156-0.799l-0.235-1.221
				l-10.393,2.018h-0.001l0.231,1.188l0.101,0.518l0.21,1.082l0.027,0.142l0.241,1.238c-0.807,0.147-1.628,0.294-2.466,0.439
				c-0.092,0.016-0.185,0.032-0.278,0.047c-3.022,0.52-6.24,1.012-9.642,1.458c-0.307,0.041-0.616,0.081-0.926,0.12
				c-0.046,0.006-0.092,0.012-0.138,0.018l-0.123-0.913l-0.077-0.57l-0.094-0.699l-0.061-0.446l-0.195-1.454l-0.038-0.279l0,0
				l-1.301,0.175l0,0l-0.008,0.001h-0.001l-1.357,0.182l-0.825,0.112l-1.942,0.261l-5.06,0.681l0,0l0.279,2.072l0.112,0.833
				l0.066,0.498l0.011,0.078l0.104,0.776c-0.385,0.037-0.762,0.072-1.125,0.102c-1.511,0.127-2.835,0.196-3.974,0.225
				c-0.924,0.023-1.725,0.021-2.415,0.003c-0.411-0.01-0.781-0.025-1.11-0.044c-0.646-0.036-1.141-0.083-1.493-0.125
				c-0.064-0.008-0.123-0.015-0.177-0.022c-0.053-0.007-0.102-0.014-0.146-0.02c-0.23-0.033-0.347-0.056-0.347-0.056l-0.986,1.505
				c0.091,0.088,0.188,0.166,0.289,0.241c0.202,0.15,0.423,0.277,0.662,0.382c0.317,0.139,0.665,0.242,1.04,0.312
				c0.559,0.104,1.176,0.139,1.835,0.122c0.513-0.013,1.051-0.057,1.608-0.122c0.771-0.09,1.577-0.222,2.396-0.37
				c0.31-0.056,0.622-0.113,0.934-0.173c0.589-0.111,1.182-0.226,1.771-0.335c0.003,0,0.008-0.002,0.013-0.002
				c0.564-0.104,1.124-0.204,1.673-0.29c-0.003,0.002-0.009,0.005-0.011,0.008c0.115-0.019,0.237-0.039,0.354-0.058h0.001
				c0.003,0,0.005,0,0.007-0.001c0.001,0,0.001,0,0.001,0c0.048-0.008,0.097-0.016,0.145-0.023c0.002,0,0.005-0.001,0.008-0.001
				c1.001-0.144,2.258-0.316,3.618-0.5c0.448-0.06,0.907-0.123,1.371-0.185c0.195-0.026,0.392-0.052,0.588-0.079
				c1.133-0.151,2.283-0.304,3.378-0.448c0.336-0.044,0.668-0.088,0.992-0.13c0.001,0,0.002,0,0.002,0
				c2.918-0.384,5.206-0.68,5.206-0.68l-0.179-0.008c1.292-0.148,2.559-0.26,3.792-0.338c0.858-0.055,1.7-0.095,2.523-0.121
				c2.018-0.062,3.92-0.042,5.669,0.036c1.434,0.063,2.764,0.165,3.963,0.291c3.844,0.405,6.36,1.059,6.776,1.498
				c0.013,0.013,0.021,0.025,0.029,0.037c0.01,0.013,0.021,0.025,0.025,0.037c0.102-0.023,0.441-0.104,0.973-0.23
				c0.911-0.369,3.592-1.097,7.081-2.091c0.156-0.045,0.312-0.089,0.472-0.134c0.188-0.053,0.375-0.108,0.565-0.163
				c0.006-0.002,0.013-0.003,0.021-0.005c0.004-0.002,0.012-0.003,0.018-0.005c0.502-0.144,1.016-0.293,1.542-0.447
				c0.001,0,0.001,0,0.002,0c0.616-0.181,1.248-0.367,1.892-0.56c0.004,0,0.006-0.002,0.01-0.003
				c0.074-0.021,0.148-0.042,0.223-0.063c3.417-0.961,6.359-2.087,8.402-2.931c1.865-0.771,2.981-1.306,3.025-1.263L236.984,54.704z
				"/>
			<path fill="#FFFFFF" d="M168.395,32.967c0.043,0.066,0.147,0.021,0.306-0.104c0.017-0.014,0.033-0.025,0.051-0.04
				c0.194-0.164,0.463-0.434,0.807-0.783c0.147-0.149,0.308-0.312,0.483-0.487c0,0,0-0.001,0.001-0.002
				c2.243-2.253,6.771-6.487,13.737-7.912c0.367-0.075,0.738-0.145,1.116-0.203c10.707-1.293,18.659,4.553,18.924,3.661
				c0.135-0.216-1.604-1.718-4.94-3.356c-1.542-0.757-3.512-1.525-5.766-2.042c-0.938-0.215-1.926-0.386-2.956-0.494
				c1.307-0.107,2.706-0.127,4.17-0.009c4.121,0.324,7.477,1.732,9.746,2.921c1.994,1.045,3.15,1.921,3.256,1.746
				c0.068-0.033,0.012-0.187-0.162-0.424c-0.688-0.942-3.24-3.221-7.234-4.665c-0.01-0.004-0.02-0.007-0.029-0.01
				c-0.175-0.063-0.353-0.126-0.534-0.185c-0.027-0.009-0.057-0.018-0.085-0.027c-0.181-0.06-0.364-0.117-0.551-0.172
				c-0.035-0.01-0.072-0.02-0.106-0.03c-0.182-0.052-0.365-0.104-0.551-0.152c-0.046-0.012-0.093-0.023-0.14-0.035
				c-0.177-0.045-0.356-0.089-0.538-0.13c-0.066-0.016-0.136-0.028-0.203-0.042c-0.164-0.036-0.328-0.072-0.495-0.103
				c-0.107-0.021-0.219-0.038-0.328-0.057c-0.131-0.023-0.26-0.048-0.392-0.068c-0.216-0.034-0.435-0.063-0.654-0.089
				c-0.029-0.004-0.058-0.009-0.087-0.013c-0.255-0.03-0.514-0.056-0.775-0.078c-0.068-0.005-0.134-0.007-0.202-0.012
				c-0.209-0.013-0.417-0.027-0.624-0.035c-0.116-0.005-0.23-0.006-0.346-0.009c-0.159-0.004-0.319-0.008-0.476-0.009
				c-0.121-0.001-0.24,0.001-0.358,0.002c-0.149,0.001-0.298,0.003-0.446,0.008c-0.118,0.004-0.237,0.009-0.354,0.014
				c-0.146,0.006-0.291,0.015-0.435,0.023c-0.114,0.007-0.227,0.015-0.338,0.023c-0.149,0.012-0.296,0.026-0.443,0.04
				c-0.102,0.01-0.205,0.02-0.306,0.031c-0.167,0.019-0.332,0.04-0.496,0.061c-0.077,0.01-0.156,0.019-0.231,0.03
				c-0.238,0.034-0.472,0.071-0.701,0.111c-0.051,0.009-0.101,0.02-0.153,0.029c-0.18,0.032-0.359,0.066-0.535,0.102
				c-0.075,0.015-0.148,0.032-0.222,0.048c-0.149,0.032-0.299,0.065-0.445,0.1c-0.076,0.018-0.151,0.036-0.226,0.055
				c-0.143,0.035-0.285,0.071-0.423,0.108c-0.07,0.019-0.139,0.037-0.206,0.057c-0.147,0.041-0.292,0.082-0.434,0.124
				c-0.054,0.016-0.11,0.032-0.164,0.049c-0.165,0.05-0.324,0.101-0.481,0.153c-0.03,0.01-0.06,0.019-0.089,0.029
				c-0.583,0.195-1.118,0.401-1.604,0.608c-0.009,0.003-0.016,0.007-0.024,0.01c-0.153,0.065-0.302,0.131-0.444,0.196
				c-0.005,0.002-0.011,0.004-0.015,0.007c-0.005,0.001-0.011,0.002-0.016,0.003c-2.241,0.464-4.264,1.272-6.028,2.24
				c-0.023,0.013-0.045,0.025-0.068,0.037c-0.216,0.12-0.429,0.243-0.637,0.367c-0.047,0.028-0.095,0.056-0.142,0.084
				c-0.19,0.114-0.376,0.231-0.559,0.349c-0.062,0.041-0.126,0.081-0.188,0.123c-0.167,0.109-0.329,0.22-0.49,0.331
				c-0.076,0.052-0.15,0.105-0.224,0.157c-0.146,0.104-0.288,0.207-0.428,0.311c-0.086,0.064-0.17,0.129-0.255,0.193
				c-0.124,0.095-0.247,0.191-0.367,0.286c-0.096,0.077-0.189,0.154-0.283,0.231c-0.103,0.085-0.207,0.169-0.306,0.254
				c-0.109,0.094-0.214,0.188-0.32,0.281c-0.077,0.069-0.157,0.138-0.232,0.207c-0.133,0.122-0.26,0.243-0.386,0.364
				c-0.042,0.042-0.089,0.084-0.131,0.125c-0.168,0.165-0.331,0.329-0.485,0.491c-2.117,2.19-3.14,4.03-3.315,4.717
				C168.345,32.843,168.349,32.941,168.395,32.967L168.395,32.967z"/>
		</g>
		<path fill="#FFFFFF" d="M231.975,90.568c-0.007-0.029-0.013-0.06-0.019-0.086c-0.015-0.068-0.024-0.121-0.034-0.158
			c-0.15-0.584-0.355-1.047-0.54-1.377c-0.237-0.428-0.44-0.641-0.44-0.641c0.051-0.146,0.093-0.285,0.127-0.425
			c0.049-0.184,0.087-0.36,0.115-0.532c0.217-1.31-0.088-2.351-0.343-2.939c-0.04-0.094-0.079-0.176-0.114-0.248
			c-0.211,0.137-0.422,0.27-0.634,0.398c-4.021,2.457-8.487,3.946-13.272,4.45c-3.297,0.351-6.743,0.236-10.305-0.366l0.063,0.021
			c0,0-2.172,0.194-2.854,2.237l0.034,0.021l-0.241,1.381c-0.024,1.883,0.779,3.1,1.729,3.766c1,0.437,2.213,0.787,3.568,1.021
			c2.358,0.406,5.086,0.455,7.888,0.143l0.016-0.002h0.015c3.724-0.323,9.035-2.055,12.885-4.43c0.878-0.543,1.68-1.115,2.369-1.715
			l0.025-0.021l0.047-0.041C232.027,90.85,231.999,90.693,231.975,90.568z"/>
		<path fill="#B3B3B3" d="M219.273,93.141c0.521-0.154,0.974-0.274,1.326-0.41c0.707-0.264,1.088-0.444,1.068-0.52
			c-0.021-0.076-0.441-0.039-1.186,0.092c-0.373,0.07-0.823,0.125-1.342,0.215c-0.26,0.051-0.543,0.072-0.838,0.115
			c-0.296,0.037-0.607,0.086-0.938,0.107c-0.649,0.061-1.391,0.109-2.178,0.164c-0.389,0.014-0.787,0.029-1.199,0.043
			c-0.414,0-0.842,0.002-1.278,0.004c-1.745-0.031-3.665-0.199-5.606-0.65c-1.022-0.23-2.381-0.764-3.346-1.373l-0.035-0.023
			c0.682-2.043,2.854-2.237,2.854-2.237l-0.063-0.021c-0.035-0.004-0.07-0.011-0.107-0.017c-0.313-0.055-0.588-0.104-0.821-0.147
			c-0.168-0.029-0.315-0.058-0.44-0.078c-0.119-0.021-0.203-0.033-0.254-0.039c-1.297-0.15-2.061,0.916-2.328,1.383
			c-0.039,0.068-0.072,0.137-0.11,0.207c-0.206,0.42-0.354,0.906-0.411,1.428c-0.109,0.969,0.091,2.051,0.793,2.994
			c0.471,0.637,1.311,1.219,2.411,1.697c-0.95-0.664-1.755-1.881-1.729-3.766c1.086,0.528,2.363,0.881,3.325,1.1
			c2.062,0.479,4.063,0.617,5.87,0.592c0.453-0.018,0.893-0.029,1.32-0.053c0.428-0.035,0.845-0.07,1.248-0.104
			c0.785-0.094,1.511-0.188,2.193-0.307c0.34-0.047,0.655-0.125,0.957-0.188C218.729,93.271,219.014,93.221,219.273,93.141z"/>
		<g>
			<path fill="#666666" d="M233.043,81.037L233.043,81.037v-0.01l-0.032,0.041c0.005-0.004,0.011-0.006,0.015-0.01L233.043,81.037z"
				/>
			<path fill="#666666" d="M232.011,91.07l-0.024,0.021c-0.689,0.601-1.492,1.175-2.369,1.716c-3.852,2.375-9.162,4.104-12.885,4.43
				l-0.016,0.002l-0.016,0.002c-2.801,0.311-5.529,0.262-7.889-0.145c-1.354-0.232-2.569-0.587-3.567-1.021
				c-1.101-0.48-1.942-1.061-2.41-1.697c-0.704-0.943-0.905-2.023-0.795-2.996c0.06-0.518,0.206-1.006,0.412-1.426
				c0.037-0.07,0.073-0.141,0.11-0.207c0.271-0.465,1.033-1.533,2.328-1.385c0.049,0.008,0.137,0.02,0.254,0.041
				c0.127,0.021,0.273,0.049,0.44,0.078c0.233,0.043,0.511,0.094,0.822,0.146c0.036,0.008,0.071,0.013,0.106,0.019
				c3.563,0.604,7.008,0.717,10.305,0.367c4.785-0.507,9.252-1.994,13.271-4.451c0.213-0.129,0.424-0.263,0.635-0.398l2.284-3.096
				c-6.757,5.539-13.977,6.912-19.418,6.99c-2.991,0.043-5.448-0.308-6.989-0.57c-0.054-0.01-0.102-0.018-0.153-0.027
				c-0.462-0.08-0.839-0.152-1.107-0.199c-0.135-0.021-0.243-0.039-0.325-0.049c-0.404-0.047-0.793-0.014-1.16,0.082
				c-0.75,0.197-1.403,0.666-1.907,1.305c-0.624,0.787-1.019,1.832-1.087,2.938c-0.053,0.912,0.115,1.864,0.563,2.75
				c0.017,0.037,0.034,0.071,0.054,0.106c0.053,0.099,0.107,0.195,0.17,0.289c0.078,0.131,0.162,0.258,0.256,0.383
				c1.072,1.455,3.469,2.611,6.712,3.17c2.194,0.378,4.778,0.476,7.599,0.212c8.326-1.107,12.376-3.593,14.276-5.384
				c0.14-0.129,0.268-0.258,0.384-0.379c0.686-0.719,1.003-1.281,1.122-1.526l0.019-0.033c0.028-0.063,0.043-0.099,0.043-0.099
				L232.011,91.07z"/>
		</g>
	</g>
</g>
</svg>
