<?xml version="1.0" encoding="utf-8"?>
<!-- Generator: Adobe Illustrator 16.0.0, SVG Export Plug-In . SVG Version: 6.00 Build 0)  -->
<!DOCTYPE svg PUBLIC "-//W3C//DTD SVG 1.1//EN" "http://www.w3.org/Graphics/SVG/1.1/DTD/svg11.dtd">
<svg version="1.1" id="Layer_1" xmlns="http://www.w3.org/2000/svg" xmlns:xlink="http://www.w3.org/1999/xlink" x="0px" y="0px"
	 width="400px" height="133px" viewBox="0 0 400 133" enable-background="new 0 0 400 133" xml:space="preserve">
<g id="Layer_1_1_">
	<rect y="-0.5" width="400" height="134"/>
</g>
<g id="Layer_2">
	<g>
		<path fill="#FFFFFF" d="M192.104,58.557c-0.716,0.055-0.723,0.454-0.852,0.767c-2.935,7.108-5.896,14.205-8.789,21.33
			c-0.548,1.351-1.344,1.843-2.798,1.816c-3.789-0.072-3.172,0.209-4.475-2.96c-2.725-6.626-5.331-13.302-7.993-19.955
			c-0.123-0.309-0.229-0.661-0.725-0.835c-0.328,0.644-0.202,1.343-0.203,2.002c-0.011,6.724-0.6,13.425-0.75,20.144
			c-0.027,1.214-0.381,1.557-1.639,1.553c-2.965-0.009-3.408,0.424-3.246-3.084c0.398-8.654,0.841-17.309,1.013-25.973
			c0.034-1.711,0.386-2.017,2.12-2.032c1.12-0.009,2.241-0.002,3.362,0c1.984,0.004,2.091,0.059,2.853,1.936
			c1.327,3.263,2.637,6.532,3.942,9.804c1.633,4.09,3.254,8.186,4.89,12.277c0.061,0.151,0.216,0.267,0.365,0.443
			c0.747-0.367,0.745-1.172,0.992-1.762c2.96-7.035,5.887-14.086,8.782-21.15c0.431-1.053,1.005-1.629,2.214-1.568
			c1.471,0.075,2.948,0.033,4.423,0.017c0.946-0.011,1.404,0.439,1.466,1.369c0.07,1.059,0.233,2.114,0.249,3.173
			c0.125,8.135,0.687,16.254,0.917,24.386c0.059,2.084-0.039,2.18-2.154,2.186c-0.413,0-0.826,0.01-1.239-0.002
			c-1.479-0.041-1.724-0.24-1.798-1.75c-0.219-4.474-0.45-8.946-0.587-13.422C192.355,64.38,191.892,61.514,192.104,58.557z"/>
		<path fill="#FFFFFF" d="M137.221,82.675c-1.883,2.308-3.742,4.402-5.958,6.187c-3.793-1.559-7.016-3.92-10.378-6.019
			c-0.752-0.471-1.419-0.696-2.263-0.694c-2.708,0.006-5.426,0.104-8.123-0.076c-4.329-0.29-3.992-0.061-4.785-4.594
			c-0.251-1.438-0.401-2.894-0.585-4.244c0.243-0.558,0.661-0.59,1.071-0.664c4.379-0.788,8.717-1.771,13.218-1.797
			c2.774-0.017,5.21,0.802,7.435,2.262c3.637,2.387,6.715,5.447,9.756,8.533C136.896,81.859,137.117,82.208,137.221,82.675z"/>
		<path fill="#FFFFFF" d="M128.632,46.56c-0.029,1.196-0.617,2.242-0.989,3.336c-1.214,3.564-2.552,7.079-4.585,10.285
			c-1.027,1.62-2.263,2.985-3.987,3.892c-4.669,2.454-9.686,3.799-14.901,4.883c-1.063-2.424-1.88-4.791-2.361-7.266
			c-0.19-0.975,0.196-1.6,1.118-2.124c2.654-1.51,5.329-2.988,8.1-4.259c1.637-0.751,2.788-1.785,3.608-3.396
			c1.301-2.557,2.881-4.962,4.583-7.276c0.917-1.248,1.442-1.493,2.836-0.804c1.63,0.806,3.474,0.939,5.06,1.83
			C127.615,45.941,128.206,46.064,128.632,46.56z"/>
		<path fill="#FFFFFF" d="M132.789,47.539c2.123,0.4,4.273,0.679,6.362,1.29c2.25,0.658,2.36,0.756,2.38,2.982
			c0.028,3.185-0.098,6.369-0.408,9.535c-0.079,0.812,0.053,1.401,0.44,2.059c1.668,2.834,3.407,5.63,4.814,8.613
			c0.79,1.676,0.744,2.123-0.544,3.422c-1.477,1.49-3.282,2.557-4.939,3.813c-0.472,0.357-0.999,0.173-1.412-0.27
			c-3.492-3.758-6.96-7.539-9.119-12.275c-0.871-1.911-0.934-3.916-0.727-6.03c0.404-4.125,1.474-8.074,2.623-12.021
			C132.376,48.262,132.491,47.877,132.789,47.539z"/>
		<path fill="#FFFFFF" d="M278.529,94.768c-0.408-1.053,0.119-1.92,0.463-2.748c1.145-2.763,2.351-5.5,3.607-8.211
			c0.402-0.867,0.447-1.547,0.019-2.453c-2.765-5.834-5.461-11.697-8.147-17.568c-1.106-2.416-1.363-3.074,1.891-2.895
			c0.353,0.019,0.715,0.054,1.059-0.005c1.08-0.185,1.602,0.39,2.007,1.288c1.952,4.329,3.935,8.646,5.908,12.966
			c0.115,0.25,0.165,0.586,0.754,0.594c0.972-2.144,1.99-4.354,2.979-6.578c1.023-2.306,2.033-4.619,3.02-6.941
			c0.385-0.902,0.907-1.429,1.988-1.341c1.102,0.089,2.215,0.02,3.297,0.02c0.57,0.97,0.199,1.719-0.128,2.463
			c-2.843,6.443-5.694,12.881-8.532,19.327c-1.559,3.543-3.298,7.012-4.578,10.67c-0.443,1.271-1.16,1.771-2.479,1.599
			C280.623,94.813,279.551,95.111,278.529,94.768z"/>
		<path fill="#FFFFFF" d="M266.119,60.894c1.507,0,2.854-0.025,4.197,0.007c1.317,0.032,1.504,0.257,1.494,1.592
			c-0.015,1.68-0.328,2.142-1.582,2.175c-1.336,0.034-2.674,0.008-4.146,0.008c0,1.475,0,2.76,0,4.042
			c0,3.89,0.01,7.778-0.005,11.667c-0.006,1.801-0.266,2.04-2.006,2.055c-2.947,0.022-2.949,0.022-2.95-2.86
			c-0.002-4.886-0.001-9.771-0.001-14.682c-0.712-0.441-1.637,0.07-2.188-0.587c-0.414-0.496-0.285-1.125-0.271-1.704
			c0.029-1.35,0.271-1.529,2.314-1.784c0.348-1.412,0.188-2.891,0.318-4.338c0.617-6.793,5.794-8.702,11.283-8.227
			c0.291,0.025,0.576,0.12,0.865,0.173c1.459,0.272,1.631,0.499,1.496,1.992c-0.166,1.837-0.414,2.007-2.308,1.755
			c-1.11-0.147-2.214-0.14-3.317,0.198c-1.547,0.474-2.496,1.428-2.887,3.009C266,57.128,266.082,58.882,266.119,60.894z"/>
		<path fill="#FFFFFF" d="M255.557,72.02c0,2.889,0.014,5.775-0.006,8.662c-0.012,1.586-0.162,1.717-1.701,1.756
			c-3.256,0.084-3.267,0.076-3.268-3.133c-0.001-5.187-0.004-10.371,0.005-15.556c0.003-1.943,0.159-2.046,2.104-2.168
			c3.076-0.192,2.871-0.561,2.865,2.839C255.553,66.952,255.557,69.486,255.557,72.02z"/>
		<path fill="#FFFFFF" d="M256.236,52.911c-0.016,1.732-1.354,3.017-3.162,3.037c-1.809,0.019-3.081-1.272-3.076-3.119
			c0.005-1.852,1.197-2.959,3.172-2.946C255.146,49.896,256.255,50.991,256.236,52.911z"/>
		<path fill="#FFFFFF" d="M246.309,65.134c-1.74-4.011-5.725-5.87-10.019-5.031c-1.789,0.351-3.213,1.3-4.899,2.667
			c0-0.985,0-1.563,0-2.139c0-3.48,0.014-6.96-0.004-10.44c-0.008-1.538-0.218-1.711-1.761-1.652
			c-0.235,0.009-0.47,0.029-0.706,0.047c-2.498,0.191-2.496,0.193-2.5,2.729c-0.018,9.556-0.036,19.112-0.061,28.667
			c-0.004,1.498,0.029,1.646,1.602,2.025c3.574,0.86,7.193,1.292,10.831,0.453c3.313-0.766,5.979-2.525,7.403-5.699
			C247.912,72.938,247.979,68.98,246.309,65.134z M242.294,73.119c-0.841,5.025-4.366,6.509-9.33,5.723
			c-0.457-0.072-0.899-0.24-1.573-0.426c0-3.891,0.008-7.706-0.01-11.522c-0.003-0.554,0.321-0.834,0.676-1.152
			c3.145-2.813,8.793-2.57,10.047,3.181C242.409,70.326,242.525,71.729,242.294,73.119z"/>
		<path fill="#FFFFFF" d="M219.593,62.106c-4.461-3.464-12.022-2.822-15.782,1.383c-2.883,3.224-3.186,7.136-2.361,11.124
			c0.941,4.574,4.363,7.576,9.252,8.173c3.988,0.483,8.645-0.894,11.113-5.294c1.125-2.002,1.504-4.189,1.521-6.458
			C223.35,67.529,222.498,64.362,219.593,62.106z M217.641,75.346c-0.979,2.152-2.545,3.459-4.966,3.603
			c-2.585,0.157-4.475-1.054-5.571-3.265c-1.362-2.746-1.49-5.646-0.261-8.521c0.956-2.237,2.738-3.314,5.103-3.395
			c2.459-0.083,4.295,1.036,5.451,3.2c0.734,1.374,1.021,2.863,0.896,4.227C218.335,72.75,218.217,74.075,217.641,75.346z"/>
	</g>
</g>
</svg>
