<?xml version="1.0" encoding="utf-8"?>
<!-- Generator: Adobe Illustrator 16.0.0, SVG Export Plug-In . SVG Version: 6.00 Build 0)  -->
<!DOCTYPE svg PUBLIC "-//W3C//DTD SVG 1.1//EN" "http://www.w3.org/Graphics/SVG/1.1/DTD/svg11.dtd">
<svg version="1.1" id="Layer_1" xmlns="http://www.w3.org/2000/svg" xmlns:xlink="http://www.w3.org/1999/xlink" x="0px" y="0px"
	 width="400px" height="133px" viewBox="0 0 400 133" enable-background="new 0 0 400 133" xml:space="preserve">
<g id="Layer_1_1_">
	<rect y="-0.5" width="400" height="134"/>
</g>
<g id="Layer_2">
	<g>
		<path d="M196.755,116.23c0-0.133,0-0.268,0-0.4c2.806-1.018,5.612-1.018,8.417,0c0,0.134,0,0.27,0,0.4
			C202.367,116.23,199.561,116.23,196.755,116.23z"/>
		<path fill="#FFFFFF" d="M153.476,106.613c-0.689-0.219-1.241,0.252-1.827,0.429c-3.315,1.001-6.669,1.871-9.939,3.043
			c-1.026,0.368-2.141,0.632-3.22,0.927c-0.166,0.045-0.398,0.098-0.644-0.255c0-4.434,0-9.022,0-13.612
			c0-0.668-0.038-1.338,0.014-2c0.031-0.399-0.296-0.551-0.422-0.84c0.028-0.507,0.518-0.822,0.437-1.435
			c-0.21-1.603,0.287-3.271-0.43-4.833c0-2.602,0.013-5.203-0.015-7.805c-0.004-0.394,0.438-0.481,0.417-0.834
			c0.099-0.437-0.517-0.516-0.43-1.039c0.234-1.396-0.319-2.863,0.404-4.244c0.165-0.314,0.024-0.788,0.024-1.188
			c0-3.534,0-7.068,0-10.594c0.195-0.196,0.384-0.385,0.573-0.573c1.947,0.072,3.632-0.878,5.41-1.438
			c1.061-0.334,2.04-0.856,3.179-1.045c0.816-0.135,1.622-0.58,2.402-0.933c1.281-0.58,2.659-0.729,3.991-0.961
			c1.075-0.188,1.981-0.434,2.687-1.301c1.071,0.248,2.033-0.169,2.963-0.55c1.962-0.804,3.853-1.813,6.052-1.815
			c0.83-0.613,1.902-0.452,2.816-0.944c1.015-0.546,2.214-0.801,3.365-1.022c0.506-0.098,0.857-0.633,1.428-0.438
			c1.126-1.051,2.687-1.036,3.998-1.632c8.768-2.374,17.321-5.451,26.053-7.949c2.93-0.549,5.709-1.628,8.547-2.49
			c2.332-0.708,4.66-1.33,7.088-1.553c0.377-0.074,0.744,0.037,1.149-0.121c2.087-0.809,4.269-1.32,6.41-1.944
			c1.237-0.361,2.499-0.711,3.733-1.114c1.949-0.637,4.006-0.957,5.918-1.675c1.484-0.558,3.039-0.7,4.521-1.167
			c1.424-0.448,2.857-0.847,4.297-1.243c1.43-0.394,2.865-0.796,4.29-1.227c2.673-0.809,5.315-1.71,8.038-2.353
			c1.563-0.368,3.077-0.94,4.592-1.478c0.338-0.12,0.637-0.05,0.952-0.093c0.364,0.412,0.166,0.897,0.167,1.338
			c0.02,4.004-0.012,8.009,0.025,12.013c0.011,1.017-0.219,2.044,0.354,3.056c0.446,0.791-0.357,1.586-0.367,2.419
			c0.317,0.681,0.338,1.284-0.274,1.756c0.989,1.888,0.194,3.988,0.464,5.674c-0.839,1.367-2.002,0.492-2.864,1.12
			c-0.028,1.42,0.841,2.216,2.075,2.733c0.866,2.009,1.164,3.957-0.041,5.9c-0.479,0.772-0.283,1.515-0.004,2.294
			c0.381,1.055,0.302,1.966-0.869,2.34c-0.791-0.095-1.02-0.789-1.624-1.068c-0.567-0.199-1.108,0.027-1.639,0.351
			c-0.593,0.588,0.214,1.47-0.42,2.048c-2.034-0.39-2.929-1.356-2.886-3.271c0.027-1.194,0.24-2.387-0.146-3.566
			c0.069-2.986-1.752-5.156-3.188-7.058c-0.043-0.695-0.01-0.991,0.154-1.185c2.948-3.5,2.885-7.676,2.702-11.884
			c-0.017-0.397-0.011-0.796-0.004-1.191c-0.005-0.912,0.138-1.832-0.136-2.76c-0.633-0.647-1.405-0.544-2.187-0.373
			c-0.161,0.065-0.325,0.125-0.481,0.196c-0.61,0.304-0.491,0.872-0.496,1.396c0.044,2.271,0.048,4.537,0.014,6.803
			c-0.029,2.147-1.047,3.747-2.898,5.221c-1.748-3.85-0.648-7.809-1.268-11.494c-1.24-0.438-2.051,0.121-2.977,0.694
			c-0.185,2.428-0.135,4.819-0.118,7.208c0.049,7.461,0.227,14.923-0.091,22.382c-0.545,1.063,0.129,2.823-1.676,3.146
			c-1.072-0.39-0.596-1.672-1.435-2.111c-1.502-0.482-2.972,1.031-4.524,0.021c-0.554-0.507-0.543-1.255-0.576-1.985
			c-0.172-3.645-0.002-7.279-0.426-10.945c-0.261-2.258,0.403-4.719,0.438-7.116c0.037-2.531-0.354-5.028-0.322-7.583
			c-1.047-0.58-1.804-0.037-2.678,0.449c-0.894,3.137-0.497,6.365-0.614,9.522c-0.148,4.032,0.212,8.082,0.135,12.128
			c-0.015,0.749-0.084,1.456-0.44,2.117c-0.527,0.702-1.079,1.364-2.228,1.081c-1.178-1.45-0.504-3.076-0.277-4.665
			c-0.139-0.587-0.422-1.112-0.699-1.641c-0.219-3.247-0.098-6.501-0.032-9.749c0.043-2.114-0.659-3.698-2.198-5.093
			c-1.979-1.795-4.822-1.593-6.324,0.67c-1.026,1.55-1.993,3.155-2.648,4.918c-0.406,1.708-0.154,3.437-0.188,5.152
			c-0.103,5.366,0.145,10.734-0.127,16.097c-0.164,0.625-0.584,0.979-1.196,1.125c-0.212,0.039-0.423,0.022-0.628-0.041
			c-3.161-0.979-4.409-3.865-3.209-7.479c-0.372-1.905-1.217-3.717-1.551-5.668c-0.068-1.729,0.037-3.458-0.232-5.183
			c-0.236-1.503,0.467-2.515,1.824-3.201c2.07-1.044,2.281-1.779,1.201-4.233c-3.592,0.588-7.035,1.918-10.398,2.856
			c-0.648,1.364-0.688,2.435-0.216,3.514c1.181,0.46,2.259-0.563,3.78,0.1c0.662,5.823,0.739,11.885,0.713,17.955
			c0.002,0.758,0.021,1.517-0.065,2.269c-0.017,0.211-0.058,0.418-0.106,0.623c-0.47,2.021-0.197,4.065-0.197,6.103
			c0.001,0.752,0.386,1.239,1.174,1.332c1.387,0.246,2.773,0.473,4.352,0.168c-1.734-1.548-0.686-3.983,2.646-6.646
			c1.531,0.297,1.318,1.729,1.738,2.611c-0.106,0.791-0.809,1.037-1,1.729c0.527,1.135,2.192,1.146,2.728,2.502
			c-0.317,0.776-1.03,1.445-1.026,2.333c-1.502,0.757-2.773,1.809-4.492,1.612c-0.182-0.024-0.34-0.103-0.473-0.228
			c-0.893,0.047-1.068,0.231-0.729,0.9c0.25,0.495,0.941,0.809,0.57,1.536c-2.65,1.493-5.643,1.989-8.496,2.853
			c-9.959,3.006-19.941,5.936-29.915,8.895c-5.683,1.688-11.363,3.392-17.041,5.101
			C155.285,106.486,154.344,106.254,153.476,106.613z"/>
		<path fill="#FFFFFF" d="M171.509,50.511c-0.782-0.063-1.661-0.083-2.195,0.456c-0.69,0.696-1.498,0.124-2.218,0.503
			c-1.417,0.748-3.132,0.746-4.5,1.714c-0.62,0.438-1.581-0.201-2.179,0.532c-2.126,0.24-4.12,1.005-6.137,1.635
			c-1.778,0.554-3.592,0.97-5.359,1.561c-2.759,0.922-5.523,1.84-8.325,2.623c-0.856,0.239-1.732,0.743-2.721,0.559
			c-0.152-0.797,1.145-1.513-0.062-2.123c0.166-0.182,0.293-0.322,0.412-0.453c-0.125-0.149-0.241-0.286-0.443-0.527
			c2.402-1.238,5.017-1.648,7.435-2.562c2.421-0.914,4.938-1.276,7.472-2.122c0.404-0.338,0.583-0.946,0.788-1.542
			c1.01-2.936,2.162-5.784,3.875-8.423c0.875-1.349,1.649-2.788,2.482-4.178c0.427-0.712,1.335-1.082,1.393-2.018
			c2.1-2.648,4.463-5.069,6.979-7.297c1.691-1.5,3.396-3.079,5.53-4.009c1.174-1.643,3.391-1.708,4.719-3.116
			c2.805-0.776,5.281-2.473,8.222-2.896c0.844-0.122,1.501-0.977,2.477-0.778c0.743-0.756,1.936-0.022,2.672-0.802
			c1.452,0.272,2.782-0.503,4.243-0.437c2.732,0.125,5.474,0.036,8.212,0.036c0.935,0,1.938-0.213,2.785,0.059
			c0.898,0.289,1.979-0.002,2.604,0.421c0.838,0.567,1.846-0.125,2.566,0.687c0.205,0.232,0.951-0.105,1.352,0.06
			c1.771,0.734,3.697,0.99,5.412,1.936c1.452,0.8,3.105,1.2,4.561,2.044c2.437,1.415,4.97,2.66,7.178,4.466
			c0.59,0.482,1.229,0.918,1.867,1.524c0.433-0.829,1.467,0.045,1.973-0.729c1.184,0.093,2.166-0.579,3.251-0.862
			c1.858-0.489,3.719-1.001,5.546-1.603c3.186-1.05,6.428-1.901,9.661-2.787c2.584-0.708,5.119-1.597,7.78-2.019
			c0.486-0.078,0.859-0.613,1.515-0.355c0.121,0.139,0.296,0.338,0.476,0.542c-0.664,0.84-0.16,1.856-0.389,2.913
			c-1.232,0.656-2.734,0.84-4.141,1.279c-2.553,0.799-5.168,1.402-7.766,2.067c-1.551,0.397-3.021,1.094-4.554,1.566
			c-2.313,0.712-4.694,1.228-6.969,2.045c-2.862,1.03-5.802,1.814-8.714,2.635c-3.529,0.996-6.994,2.246-10.606,2.951
			c-0.731,0.143-1.257,0.855-2.075,0.796c-0.212,0.243-0.592,0.151-0.801,0.401c-1.335,1.345-3.174,1.512-4.852,2.026
			c-2.768,0.849-5.592,1.505-8.362,2.343c-8.944,2.498-17.866,5.066-26.654,8.075C175.154,49.878,173.342,50.24,171.509,50.511z"/>
		<path fill="#FFFFFF" d="M205.172,115.83c-2.805,0-5.611,0-8.417,0c-0.913-0.064-1.938,0.3-2.714-0.182
			c-0.771-0.479-1.76,0.235-2.354-0.619c-1.494,0.117-2.854-0.516-4.277-0.742c-1.136-0.18-2.09-0.917-3.258-0.861
			c-2.68-1.291-5.392-2.515-7.859-4.212c-1.174-0.81-2.584-1.187-3.757-2.073c-0.559-0.423-1.073-0.904-1.691-1.357
			c-2.446,0.917-4.966,1.77-7.545,2.425c-1.568,0.397-3.16,0.794-4.67,1.298c-1.515,0.506-3.192,0.59-4.565,1.518
			c-0.964-0.17-1.667,0.561-2.483,0.729c-0.865,0.181-1.677,0.503-2.53,0.687c-2.675,0.572-5.173,1.766-7.889,2.215
			c-0.903,0.15-1.758,0.591-2.836,0.968c0.051-1.054-0.333-1.847-0.521-2.677c0.83-0.854,1.981-0.728,2.944-1.09
			c2.37-0.893,4.843-1.482,7.249-2.287c1.574-0.526,3.207-0.998,4.853-1.313c0.417-0.079,0.623-0.458,1.027-0.439
			c5.508-2.791,11.598-3.813,17.408-5.68c16.116-5.179,32.43-9.703,48.611-14.674c4.947-1.52,9.877-3.1,14.852-4.538
			c3.396-0.721,6.695-1.809,10.037-2.735c3.602-1.063,7.208-2.102,10.779-3.26c1.912-0.35,3.754-1.045,5.713-1.172
			c0.563,0.209,0.871-0.546,1.514-0.352c0,0.945,0,1.924,0,3.033c-4.91,1.482-9.939,3-15.054,4.545
			c-0.646,2.373-1.789,4.563-2.87,6.785c-0.666,1.369-1.6,2.545-2.432,3.789c-1.02,1.528-2.297,2.871-3.26,4.455
			c-0.404,0.666-1.049,1.23-1.688,1.691c-0.56,0.4-0.543,1.222-1.359,1.466c-0.506,0.149-0.866,0.797-1.289,1.224
			c-2.403,2.428-5.215,4.328-8.03,6.225c-1.295,0.872-2.58,1.742-4.002,2.418c-2.408,1.146-4.912,2.021-7.457,2.775
			c-1.737,0.517-3.494,0.965-5.289,1.291c-0.959,0.174-1.894,0.33-2.852,0.313C206.486,115.402,205.918,116.04,205.172,115.83z"/>
		<path fill="#FFFFFF" d="M210.382,60.93c0,0.332,0,0.665,0,1.005c0.231,0.229,0.47,0.461,0.806,0.79
			c-0.137,1.349,0.25,2.647,1.199,3.752c-0.078,0.725-0.677,0.855-1.373,0.984c0.834,1.086,0.487,2.221,0.588,3.275
			c0.558,0.856,1.104,1.699,1.654,2.543c0.482-0.122,0.876-0.551,1.475-0.207c0.186,0.146,0.008,0.436,0.06,0.681
			c-0.074,0.069-0.146,0.142-0.217,0.218c0.075-0.068,0.147-0.143,0.217-0.218c0.427-0.058,0.69-0.599,1.202-0.401
			c0.919,1.896,0.761,3.979,1.031,5.979c2.242,0.252,3.129-0.438,3.193-2.579c0.051-1.725,0.063-3.453-0.012-5.184
			c0.098-1.767-0.271-3.561,0.32-5.293c0.86-0.979,1.871-1.47,3.184-0.969c0.88,1.502,0.825,3.174,0.877,4.831
			c0.07,2.307-0.182,4.627,0.15,6.743c0.623,0.687,1.298,0.438,1.842,0.649c0.355,0.16,0.454,0.432,0.261,0.988
			c0.206-0.507,0.155-0.853,0.271-1.166c0.597-0.856,0.733-1.813,0.724-2.836c-0.036-3.783-0.026-7.565-0.004-11.349
			c0.006-0.911-0.146-1.88,0.586-2.639c0.853,0.268,0.146,1.029,0.468,1.467c0.282,0.372,0.78-0.096,1.069,0.265
			c-0.121,0.608-0.724,0.574-1.104,0.838c0,1.234,0,2.469,0,3.676c0.307,0.303,0.655,0.096,0.985,0.172
			c0.123-0.27,0.248-0.544,0.368-0.808c0.225,0,0.421,0,0.619,0c1.113,0.789,0.894,1.994,0.953,3.101
			c0.103,1.844-0.193,3.715,0.237,5.508c1.314,0.51,2.335-0.315,3.441-0.347c0.295-0.064,0.589-0.131,0.878-0.219
			c0.563-0.16,1.118-0.457,1.719-0.136c0.537,0.97-0.238,1.265-0.845,1.657c-0.769,0.497-1.644,0.872-2.081,1.754
			c0.1,0.659,0.682,0.77,1.24,1.167c0.01-3.433,3.152-2.703,4.936-3.894c0.405-0.984-0.697-1.449-0.872-2.258
			c-0.175-1.346-0.472-2.701,0.411-3.933c0.385-0.029,0.4,0.233,0.4,0.506c0,0.769,0,1.534,0,2.229
			c0.697,0.218,0.837-0.28,1.201-0.469c0-0.658-0.014-1.308,0.008-1.957c0.009-0.203,0.146-0.355,0.395-0.311
			c0.946,1.021,0.184,2.477,0.91,3.551c0.18,0.251,0.273,0.546,0.419,0.822c0.173-0.213,0.067-0.501,0.21-0.723
			c0.568-0.582,1.215-0.861,2.023-0.563c0.42,0.422-0.102,1.032,0.354,1.559c1.598,0.192,1.434-1.235,1.885-2.168
			c-0.635,0.131-1.215,0.178-1.406-0.604c-0.254-2.503-0.371-5,0.063-7.493c0.619-0.947,0.93-0.235,1.207,0.261
			c0.637,1.139,1.124,2.353,1.727,3.508c0.634,0.998-0.297,2.635,1.328,3.227c0.207,0.099,0.336,0.321,0.578,0.381
			c0.211-0.221,0.213-0.565,0.455-0.772c0.436-0.394,1.016-0.64,1.271-1.439c0.148-1.779-0.039-3.751,0.078-5.713
			c0.043-0.707-0.199-1.641,0.92-1.847c0.021,0.509-0.164,1.075,0.402,1.429c-0.654,1.155-0.316,2.406-0.414,3.608
			c1.059,0.229,1.45,1.258,2.271,1.73c0.53-0.903-0.282-1.29-0.69-1.838c0.187-0.521,0.407-0.984,1.063-0.918
			c0.807,0.081,1.378-0.447,2.041-0.743c0.634,0.492,0.696,1.32,1.129,1.93c0.512,0.16,0.651-0.348,0.989-0.517
			c0-0.419,0-0.812,0-1.332c-0.229-0.178-0.541-0.422-0.777-0.607c0-0.666,0-1.198,0-1.762c0.677-0.31,0.629-1.374,1.536-1.502
			c-0.396-0.758-0.693-1.514,0.063-2.106c0.012-0.688-0.629-0.765-0.804-1.421c0-0.169,0-0.568,0-0.971
			c-0.519-0.391-0.967-0.281-1.374,0.188c-0.223-0.215-0.443-0.431-0.604-0.585c-0.086-0.414,0.154-0.565,0.422-0.837
			c-0.455-0.356-0.912-0.713-1.234-0.964c0-0.493,0-0.756,0-1.019c0.659-0.059,0.957-0.618,1.4-0.97
			c0.234,0.236,0.472,0.472,0.707,0.707c0.559,0.233,1.009,0.084,1.425-0.483c0-1.555,0-3.204,0-4.911
			c-0.522-0.58-1.668-0.801-1.476-2.09c0.973-0.265,0.68,1.108,1.437,1.095c0.239-0.493,0.03-1.029,0.103-1.541
			c0.549,0.004,0.394,0.425,0.396,0.714c0.01,1.995,0.005,3.99,0.005,5.986c0,6.983,0,13.966,0,20.95
			c-0.107,0.09-0.143,0.178-0.107,0.268c0.037,0.09,0.071,0.135,0.107,0.135c0,0.498,0,0.996,0,1.351
			c-0.536,0.845-1.468,0.533-2.004,1.054c-1.284,1.389-3.148,1.432-4.762,2.059c-0.803,0.074-1.574,0.47-2.406,0.262
			c-0.173-0.021-0.205-0.284-0.416-0.249c-0.109,0.149,0.016,0.371-0.157,0.506c-1.498,0.884-3.121,1.271-4.847,1.252
			c-0.778-1.259-1.776,0.05-2.641-0.222c-1.022-0.335-1.158-1.165-1.127-2.158c-0.645,0.221-0.822,0.877-1.391,1.156
			c0.707,0.713,1.594,0.837,2.477,0.971c0.293,0.229,0.813,0.102,0.938,0.598c-0.282,0.824-1.02,0.959-1.725,1.144
			c-4.088,0.795-7.803,2.864-11.94,3.479c-4.544,1.225-8.963,2.885-13.565,3.897c-0.179-0.036-0.345-0.104-0.479-0.236
			c-0.146,0.106-0.288,0.222-0.434,0.332c-1.066,0.593-2.156,1.117-3.424,1.056c-0.175-0.069-0.313-0.186-0.412-0.344
			c-0.023,0.189-0.113,0.348-0.242,0.489c-0.851,0.541-1.688,1.147-2.737,0.437c0.021-0.4-0.394-0.481-0.562-0.791
			c-0.146,0.125-0.278,0.235-0.5,0.42c-0.264-0.762-0.078-1.516-0.162-2.299c0.813,0.182,0.692-0.893,1.388-1.002
			c0.433,0.533,0.147,1.133,0.237,1.668c0.793-0.646,1.742-0.317,2.625-0.422c0.375-0.287,0.033-0.762,0.213-1.044
			c0.588-0.331,1.008-0.044,1.429,0.204c0.147-0.146,0.289-0.288,0.472-0.472c-0.063-0.378-0.465-0.519-0.666-0.808
			c0.332-0.334,0.666-0.668,0.995-0.998c0.154,0.067,0.185,0.342,0.437,0.244c0.387-0.608-0.271-0.764-0.487-1.109
			c-0.265,0-0.531,0-0.776,0c-0.31-0.146-0.17-0.471-0.373-0.789c-0.882,0.257-1.311-0.487-1.882-1.037
			c0.691-0.479,1.027-1.395,2.122-1.469c-0.535-0.557-1.04-0.947-0.927-1.723c0.065-0.445-0.054-0.464-0.946-1.013
			c-0.56,0.386,0.229,1.499-0.932,1.517c-0.003-0.002-0.098-0.097-0.189-0.19c-0.049-0.025-0.123-0.084-0.139-0.071
			c-0.146,0.133-0.287,0.277-0.49,0.48c0.44,0.664,0.582,1.352-0.303,1.843c-0.105-0.097-0.248-0.224-0.389-0.351
			c-0.188,0.188-0.377,0.377-0.577,0.578c0.122,0.139,0.247,0.276,0.438,0.488c-0.277,0.262-0.563,0.53-0.859,0.813
			c-0.082,0.476,0.382,0.617,0.604,0.91c0.146-0.136,0.291-0.269,0.422-0.39c0.523-0.104,0.653,0.397,0.995,0.56
			c-0.291,0.455-0.771,0.082-1.103,0.321c-0.131,0.421-0.272,0.851-0.698,1.099c-0.093-0.078-0.187-0.16-0.304-0.26
			c-0.371-0.203-0.512,0.617-0.973,0.229c-0.318-0.375,0.658-0.663-0.015-1.19c-0.183,0.308-0.376,0.634-0.408,0.687
			c-0.868,0.365-1.263-0.068-1.726-0.244c0.021-1.316,1.525-1.09,2.178-2.251c0.162-3.097,0.098-6.521,0.025-9.944
			c-0.057-0.189-0.094-0.386-0.118-0.579c-0.015-0.184,0.005-0.37,0.046-0.548c0.229-0.217,0.398-0.443,0.076-0.727
			c-0.069-0.15-0.111-0.311-0.131-0.476c-0.008-0.247,0.041-0.481,0.172-0.694c0.092-0.08,0.178-0.166,0.271-0.274
			c-0.296-0.181-0.479-0.438-0.546-0.784c-0.199-1.155-0.057-2.321-0.154-3.479C209.561,62.658,208.984,61.429,210.382,60.93z"/>
		<path d="M214.789,88.18c1.24-0.285,2.434-0.714,3.607-1.201c0.133-0.14,0.267-0.14,0.399,0c2.017-0.334,3.864-1.248,5.854-1.707
			c0.943-0.219,1.938-0.401,2.838-0.795c0.931-0.406,1.839-0.75,2.886-0.734c0.388,0.007,0.853-0.242,1.153-0.518
			c0.416-0.377,0.863-0.193,1.295-0.254c0.725-0.154,1.52-0.654,2.004,0.399c-1.446,0.534-2.875,1.118-4.346,1.573
			c-0.438,0.136-1.07,0.236-1.437-0.338c-0.323,0.102-0.18,0.416-0.253,0.563c-1.253,0.48-2.441,1.001-3.673,1.396
			c-1.89,0.604-3.849,0.971-5.733,1.605c-2.341,0.791-4.67,1.661-7.066,2.23c-2.666,0.634-5.231,1.574-7.887,2.238
			c-1.306,0.326-2.607,0.771-3.916,1.137c-2.684,0.754-5.307,1.699-7.995,2.435c-1.965,0.537-3.91,1.169-5.823,1.87
			c-0.548,0.199-1.167-0.157-1.651,0.376c-0.335,0.369-1.082-0.095-1.365,0.543c-0.519-0.479-0.967,0.745-1.493,0.062
			c-1.062,0.633-2.262,0.896-3.409,1.305c-1.292,0.462-2.637,0.707-3.934,1.123c-1.238,0.396-2.466,0.818-3.714,1.188
			c-2.248,0.668-4.493,1.368-6.745,2.038c-1.722,0.513-3.497,0.884-5.164,1.535c-1.438,0.562-3.073,0.55-4.366,1.544
			c-0.209,0.161-0.649,0.021-0.982,0.021c-0.044-0.229,0.098-0.336,0.279-0.396c0.163-0.055,0.334-0.082,0.518-0.125
			c-0.292-0.49-0.635-0.788-1.198-0.68c0.117-0.859,1.197-0.002,1.367-0.766c1.966-0.13,3.682-1.102,5.527-1.634
			c0.921-0.266,1.838-0.637,2.897-0.294c0.206-0.304,0.391-0.577,0.622-0.917c1.212,0.153,2.231-0.364,3.248-0.815
			c1.386-0.613,2.905-0.68,4.317-1.172c0.355-0.123,0.938,0.069,1.122-0.142c0.439-0.503,1.263,0.04,1.543-0.673
			c1.302-0.401,2.58-0.961,3.912-1.155c1.203-0.176,2.282-0.671,3.391-1.038c0.56-0.186,1.114-0.115,1.659-0.326
			c2.188-0.847,4.443-1.562,6.685-2.195c1.605-0.452,3.233-0.938,4.866-1.346c1.605-0.401,3.194-0.985,4.776-1.474
			c2.25-0.692,4.512-1.38,6.78-1.989c1.799-0.482,3.539-1.215,5.395-1.506c0.01-0.002,0.001-0.126,0.001-0.191
			c1.03,0.066,1.894-0.453,2.806-0.801C214.521,88.041,214.654,88.041,214.789,88.18z"/>
		<path d="M203.568,40.893c0.509-0.614,1.268-0.662,1.953-0.783c1.299-0.231,2.51-0.874,3.863-0.826
			c1.008-1.105,2.508-0.655,3.715-1.177c1.127-0.489,2.325-0.821,3.493-1.219c0.06-0.021,0.134-0.002,0.199-0.002
			c0,0.238,0,0.477,0,0.802c0.61,0,1.106,0,1.604,0c-0.282,0.96-1.436-0.09-1.765,0.762c-1.946,0.165-3.711,0.996-5.563,1.501
			c-1.795,0.489-3.531,1.138-5.303,1.646c-0.923,0.265-1.94,0.727-3,0.499C202.535,41.361,203.455,41.396,203.568,40.893z"/>
		<path d="M256.064,76.157c0.526,0.132,0.812-0.22,1.148-0.531c0.503-0.464,1.016-0.392,1.503,0.161
			c0.082-0.254,0.157-0.48,0.234-0.717c0.638-0.172,1.28-0.344,1.923-0.516c0.029,0.379,0.006,0.738-0.369,0.967
			c0.162,0.394,0.508,0.181,0.771,0.234c0.043,0.252-0.118,0.411-0.316,0.389c-0.893-0.098-1.582,0.342-2.414,0.817
			c-0.925-0.315-1.84,0.505-2.881,0.396c-0.178-0.493,0.216-0.469,0.416-0.676C256.035,76.607,255.883,76.407,256.064,76.157z"/>
		<path d="M171.509,50.511c-0.045-0.253,0.119-0.414,0.314-0.39c0.897,0.11,1.572-0.37,2.434-0.811
			c0.772,0.245,1.582-0.296,2.462-0.404c0.24,0.401-0.092,0.802,0,1.203c0,0.064,0.007,0.184-0.001,0.185
			c-1.377,0.177-2.576,1.058-4.006,1.017c0-0.237,0-0.474,0-0.801C172.238,50.511,171.874,50.511,171.509,50.511z"/>
		<path d="M216.793,36.885c0.035-0.599,0.498-0.34,0.801-0.401C217.561,37.084,217.098,36.824,216.793,36.885z"/>
		<path fill="#FFFFFF" d="M262.878,72.15c-0.194,0.013-0.371-0.026-0.317-0.268c0.017-0.064,0.207-0.091,0.317-0.135
			C262.878,71.882,262.878,72.018,262.878,72.15z"/>
		<path d="M246.448,71.749c-0.56,0.083-1.744,0.558-2.005,0.801c-0.267,0.242-0.534,0.229-0.801,0c-0.195,0-0.392,0-0.688,0
			c-0.256-0.653-0.067-1.366-0.104-2.053c-0.037-0.647-0.008-1.304-0.008-1.954c0-7.258,0.002-14.516-0.004-21.775
			c0-0.634,0.139-1.309-0.396-1.832c0.498-1.016,0.73-2.034,0.017-3.058c0.728-1.027,0.431-2.049-0.043-3.119
			c1.181-1.61,3.086-1.354,4.835-1.985c0,2.376,0.111,4.565-0.032,6.738c-0.131,1.977,0.746,3.808,0.372,5.835
			c0.438-0.145,0.393-0.366,0.477-0.498c0.643-1.004,1.601-1.905,1.914-2.997c0.336-1.168,0.076-2.508,0.076-3.774
			c0-1.731,0-3.463,0-5.194c0.277-0.394,0.264-0.981,0.801-1.202c0.135,0,0.267,0,0.399,0c1.021-0.083,1.707,0.992,2.657,0.623
			c0.675,0.893,0.016,1.848,0.55,2.583c0,2.387-0.005,4.773,0.002,7.16c0.005,1.232-0.327,2.278-1.014,3.373
			c-0.722,1.152-1.463,2.302-2.281,3.578c1.263,1.066,1.976,2.643,3.293,3.699c0,0.683,0.115,1.372-0.03,2.001
			c-0.166,0.732,0.625,1.15,0.432,1.83c-0.252-0.045-0.393,0.11-0.393,0.315c-0.014,2.393,0.008,4.787-0.025,7.18
			c-0.006,0.362,0.347,0.486,0.352,0.658c-0.5,1.088-1.766,0.668-2.337,1.465c-0.269,0.213-0.536,0.242-0.802,0
			c-0.404-0.049-0.756,0.031-1.006,0.41c-0.178-0.189-0.35-0.375-0.598-0.642c0-0.931,0-1.952,0-2.974
			c-0.721-1.35-0.52-2.82-0.539-4.255c-0.016-1.279-0.141-2.501-1.178-3.526c-0.415,1.122,0.225,2.421-0.688,3.372
			c0,2.805,0,5.608,0,8.415C247.667,71.84,247.135,71.911,246.448,71.749z"/>
		<path d="M220.801,66.139c0,1.87,0,3.74,0,5.61c-0.537,1.082-0.637,2.292-1.003,3.426c-0.274,0.854-0.601,1.728-1.69,1.636
			c-1.06-0.092-1.532-0.947-1.86-1.847c-0.112-0.307-0.048-0.659-0.048-0.989c-0.002-7.371-0.002-14.741,0-22.109
			c0.001-0.332-0.02-0.666,0.193-0.953c0.965-1.795,1.93-3.589,2.963-5.507c1.256-0.736,2.785-1.211,4.645-1.541
			c1.539,0.736,2.688,2.333,3.98,3.733c0.314,0.341,0.476,0.969,0.463,1.6c-0.063,3.127-0.03,6.256-0.026,9.385
			c0.001,0.518,0.022,1.011-0.381,1.451c-0.134,0.146-0.017,0.527,0.379,0.496c0.026,5.303,0.052,10.605,0.091,15.909
			c0.001,0.094,0.178,0.188,0.23,0.242c-0.026,1.068-1.303,0.283-1.523,1.08c-0.134,0.195-0.268,0.195-0.4,0
			c-0.871,0.109-1.679,0.649-2.685,0.324c-0.299-0.384-0.101-0.927-0.108-1.427c-0.028-1.782-0.012-3.564-0.012-5.347
			c0-0.66,0.059-1.326-0.016-1.979c-0.077-0.688,0.252-1.39-0.235-2.083c-0.379-0.54-0.091-1.269-0.149-1.911
			c-0.521-0.518-1.148,0.227-1.502-0.053c-1.01-0.472-1.056-1.332-1.371-2.052C220.434,64.221,221.259,65.167,220.801,66.139z"/>
		<path d="M163.962,95.923c-1.211,1.272-2.776,0.698-4.074,1.788c0-1.959,0.24-3.646-0.055-5.236
			c-0.485-2.623-0.289-5.233-0.336-7.851c-0.046-2.603-0.01-5.203-0.01-7.806c0-0.533-0.218-1.252,0.046-1.563
			c0.525-0.621-0.218-0.995-0.071-1.516c0.134-0.471-0.106-1.043,0.399-1.417c-0.68-0.581-0.246-1.365-0.378-2.048
			c-0.077-0.393,0.301-0.541,0.415-0.805c-0.625-1.521-0.606-3.01-0.036-4.58c-0.367-0.477-0.485-1.092-0.246-2.031
			c0.182-0.572,1.112-0.262,1.706-0.647c0.486-0.316,1.365-0.044,2.172-0.855c0,1.481-0.044,2.594,0.013,3.704
			c0.053,1.018-0.031,2.011,0.3,3.064c0.274,0.875,0.38,2.022-0.259,3.04c-0.271,0.432-0.254,1.273-0.012,1.749
			c0.579,1.14,0.224,2.312,0.384,3.478c0.414,0.395,0.485-0.518,0.956-0.26c0.439,0.24,0.672-0.277,1.028-0.564
			c0-4.805,0-9.658,0-14.581c1.383,0.008,2.457-1.108,4.002-0.788c0,0.557,0,1.142,0,1.727c0,9.939-0.001,19.88,0.003,29.82
			c0,0.701-0.152,1.438,0.51,2.13c-1.115,1.08-2.622,1.053-4.12,1.701c0-1.293-0.067-2.409,0.013-3.516
			c0.246-3.424-0.71-6.781-0.392-10.117c-0.837-0.549-1.281,0.268-1.958,0.259C163.962,86.818,163.962,91.404,163.962,95.923z"/>
		<path d="M173.112,90.184c-0.786-8.929-0.216-17.877-0.437-26.813c-0.023-0.948,0.203-1.841,0.505-2.606
			c0.451-1.146,1.063-2.216,2.538-2.735c2.12-0.744,4.144-1.569,5.367-1.506c1.024,0.053,1.805,0.414,2.157,1.494
			c0.229,0.703,0.726,1.354,0.675,2.11c-0.28,4.224,0.534,8.406,0.432,12.626c-0.08,3.329-0.016,6.661-0.016,9.992
			c0,0.601-0.073,1.211,0.02,1.796c0.102,0.639-0.61,1.014-0.42,1.636c-0.435,0.724-0.188,1.538-0.298,2.3
			c-0.868,1.227-1.987,1.449-3.296,0.91c-0.477-0.47-0.64-1.029-0.674-1.648c0.004-0.225,0.029-0.441,0.069-0.661
			c0.071-4.654,0.03-9.306,0.015-13.953c-0.266-3.636,0.554-7.357-0.587-11.078c-1.667,0.577-1.682,1.798-1.779,2.87
			c-0.191,2.123-0.118,4.259-0.068,6.387c0.133,5.59-0.329,11.182,0.088,16.764c0.083,1.324-1.987,1.389-1.54,2.799
			c-0.859,0.535-1.598,0.539-2.349,0.121C173.28,90.768,173.364,90.391,173.112,90.184z"/>
		<path d="M147.865,66.54c0.133,0,0.267,0,0.401,0c1.084-0.052,2.249,0.083,2.805-1.202c0.803-0.557,1.791-0.505,2.682-0.762
			c0.768-0.222,1.462,0.287,2.127,0.958c-0.275,1.347,0.916,2.468,0.82,3.925c-0.09,1.385-0.019,2.781-0.019,4.271
			c-1.327,0.381-2.403,1.401-3.965,1.188c0-1.567,0-3.083,0-4.478c-0.411-0.438-0.729-0.777-1.1-1.172
			c-0.559,0.276-1.163,0.459-1.679,1.006c0,1.846,0,3.763,0,5.779c0.758,1.133,1.667,2.228,2.997,3.028
			c1.41,0.851,2.193,2.403,3.228,3.659c0.266,0.322,0.452,1.013,0.507,1.566c0.063,0.633,0.035,1.232,0.368,1.857
			c0.246,0.46,0.091,1.145-0.368,1.563c0.099,0.478,0.453,0.772,0.435,1.285c-0.059,1.666,0.077,3.344-0.056,5.002
			c-0.093,1.17-0.36,2.373-0.809,3.457c-0.426,1.029-1.547,1.436-2.508,1.928c-0.844,0.435-1.818,0.572-2.686,0.709
			c-0.991,0.156-1.916,1.045-2.794,0.451c-1.997-0.588-2.167-2.222-2.344-3.666c-0.2-1.635-0.046-3.313-0.046-4.92
			c1.237-1.24,2.939-0.682,4.349-1.535c0,1.86,0,3.513,0,5.184c0.681,0.318,1.324,0.074,1.854,0.177
			c0.242-0.241,0.384-0.383,0.61-0.608c0-2.373,0.102-4.834-0.033-7.284c-0.105-1.931-1.092-3.45-2.751-4.556
			c-1.119-0.746-2.288-1.459-2.986-2.342c-1.244-2.986-0.966-5.921-1.084-8.828c-0.042-1.019,0.599-1.853,0.442-2.839
			C146.565,68.275,147.833,67.762,147.865,66.54z"/>
		<path d="M187.138,85.374c0-1.666,0.281-3.396-0.072-4.981c-0.424-1.903-0.169-3.774-0.349-5.647
			c-0.056-0.58,0.23-0.974,0.449-1.472c-0.138-0.192-0.283-0.396-0.446-0.621c0.688-0.987,0.602-2.185,0.366-3.197
			c-0.516-2.217-0.29-4.43-0.337-6.645c-0.049-2.264-0.011-4.531-0.011-6.797c0-0.323,0-0.646,0-0.858
			c0.422-0.612,1.032-0.917,1.499-0.991c2.501-0.397,4.824-1.905,7.739-1.036c0.931,0.873,1.364,2.207,1.663,3.8
			c0.396,2.102,0.246,4.168,0.307,6.249c0.06,2.064,0.026,4.132,0.009,6.197c-0.017,2.021-1.375,3.706-3.332,4.401
			c-0.946,0.338-2.011,0.188-2.95,1.012c-0.408,1.249-0.654,2.762-0.52,4.318c0.048,0.561-0.185,1.136,0.336,1.679
			c0.218,0.229,0.248,0.938-0.078,1.291c-0.502,0.54-0.141,1.142-0.265,1.698c-0.697,1.006-0.439,2.494-1.669,3.324
			C188.52,86.758,187.84,86.051,187.138,85.374z"/>
		<path d="M238.032,74.152c-0.317,0-0.646-0.067-0.876,0.268c-0.184,0.27-0.484,0.084-0.729,0.135c-0.121,0.145-0.283,0.25-0.4,0.4
			c-0.877-0.275-1.676,0.191-2.413,0.459c-0.767,0.275-1.468,0.375-2.396,0.292c0-2.037,0-4.085,0-6.132
			c0-0.6-0.072-1.213,0.021-1.799c0.102-0.635-0.61-1.011-0.421-1.636c0.074-0.377-0.193-0.831,0.148-1.132
			c0.379-0.332,0.375-0.822,0.204-1.076c-0.755-1.113-0.491-2.396-0.256-3.44c0.22-0.971,0.485-1.979,0.25-2.842
			c-0.584-2.151-0.233-4.304-0.329-6.45c-0.023-0.552-0.271-1.208,0.344-1.651c-0.435-0.431-0.477-0.786,0.006-1.284
			c0.199-0.205,0.063-0.77,0.02-1.165c-0.041-0.363-0.053-2.43-0.039-2.758c0.032-0.848,0.011-1.696,0.011-2.425
			c1.275-1.229,2.943-0.686,4.308-1.596c0.144,0.826,0.375,1.517-0.058,2.149c-0.347,0.506-0.325,1.119-0.159,1.504
			c0.609,1.401,0.283,2.837,0.35,4.253c0.058,1.264-0.008,2.534,0.017,3.8c0.028,1.483,0.134,2.972-0.974,4.274
			c1.215,1.345,0.961,2.931,0.966,4.464c0.011,2.799,0.003,5.597,0.003,8.517c0.829,0.105,1.581,0.105,2.389-0.313
			c0.856-0.444,1.844-0.526,2.821-0.427c0,1.47,0,2.938,0,4.408C240.172,73.98,239.337,74.615,238.032,74.152z"/>
		<path d="M209.98,68.943c0,0.135,0,0.268,0,0.4c0.1,0.09,0.133,0.178,0.1,0.268c-0.032,0.09-0.066,0.134-0.1,0.134
			c0,0.134,0,0.269,0,0.401c-0.234,0.619-0.998,0.588-1.361,1.09c0.229,1.302,1.502,2.147,1.558,3.527
			c-0.081,2.426,0.399,4.926-1.046,7.245c-0.974,0.513-2.007,0.765-3.264-0.096c-0.077-2.119-0.279-4.334,0.105-6.56
			c0-0.133,0-0.267,0-0.399c0.309-0.329,0.729-0.574,0.809-1.045c-0.092-0.589-0.436-0.982-0.809-1.36
			c0-2.531,0.02-5.064-0.014-7.597c-0.009-0.619,0.221-1.271-0.348-1.871c-0.188-0.2-0.227-0.905,0.119-1.29
			c0.197-0.221,0.328-0.453,0.231-0.701c-0.806-2.097-0.157-4.289-0.474-6.589c-1.271,0.359-2.538,0.716-3.85,1.085
			c-0.18-0.204-0.511-0.396-0.492-0.892c0.047-1.33,0.016-2.663,0.016-4.041c4.063-1.126,8.055-2.51,12.396-3.445
			c-0.313,1.235,1.049,2.263,0.08,3.499c0.116,0.166,0.254,0.361,0.41,0.582c-0.701,1.331-1.992,1.479-3.242,1.687
			c-0.459,0.983-1.345,1.714-0.49,2.996c0.369,0.554,0.063,1.558,0.063,2.358c0,0.866,0,1.732,0,2.599
			c-0.366-0.028-0.401,0.216-0.401,0.488c0,0.772,0,1.545,0,2.317c-0.465,0.791-0.041,1.669-0.194,2.258
			c-0.175,1.055-1.709,1.044-1.14,2.451C208.837,68.839,209.764,68.188,209.98,68.943z"/>
		<path d="M176.719,50.11c-0.233,0-0.466,0-0.763,0c0.101-0.59,0.743-0.699,0.763-1.203c1.42-0.694,2.818-1.474,4.77-1.092
			c0.158-0.228,0.435-0.858,0.599-0.831c1.249,0.213,2.071-1.005,3.255-0.891c0.562-0.6,1.38-0.605,2.079-0.747
			c0.747-0.152,1.393-0.547,2.134-0.663c0.738-0.114,1.369-0.636,2.154-0.585c0.476-0.817,1.496-0.069,2.113-0.759
			c0.236-0.264,1.014-0.043,1.531-0.043c0.249-0.25,0.484-0.486,0.812-0.813c1.945,0.325,3.676-0.798,5.57-1.191
			c0.494-0.671,1.213-0.313,1.832-0.401c0.48,0.012,0.416,0.331,0.367,0.628c-0.258,0.483-1.086-0.247-1.168,0.574
			c-0.613,0.363-2.854,1.24-3.368,1.18c-0.569-0.067-1.024,0.135-1.42,0.436c-0.603,0.457-1.323,0.337-1.978,0.525
			c-2.784,0.796-5.445,1.946-8.243,2.727c-1.647,0.46-3.308,0.963-4.947,1.496c-1.582,0.515-3.16,1.165-4.865,1.252
			C177.505,49.733,177.239,50.317,176.719,50.11z"/>
		<path d="M216.393,50.912c0,8.096,0,16.191,0,24.232c0.271,0.353,0.328-0.004,0.478-0.06c0.438-0.158,0.274,0.213,0.323,0.394
			c0.342,1.256,0.65,1.356,2.015,0.525c-0.169-1.602,0.368-3.064,1.594-4.255c0,2.337,0,4.674,0,7.015
			c-1.157,1.201-2.768,1.325-4.403,1.676c0.317-2.33-0.613-4.664-0.405-7.088c0-7.108-0.007-14.218,0.021-21.329
			C216.012,51.658,215.613,51.049,216.393,50.912z"/>
		<path d="M173.513,90.984c0.412,0.062,0.753-0.057,1.006-0.389c0.143,0.133,0.285,0.264,0.416,0.385
			c0.5,0.086,0.667-0.348,0.961-0.576c-0.56-0.51-0.448-1.119-0.266-1.743c0.507,0.123,1.044,0.854,1.489-0.081
			c0.955-0.196,1.765-0.9,2.805-0.803c0.394,0.439,0.371,1.023,0.507,1.572c0.232-0.139,0.428-0.254,0.618-0.365
			c0.404-0.129,0.476,0.408,1.032,0.395c0.402-0.263,0.782-0.893,1.421-0.929c0.076-0.441-0.072-0.638-0.312-0.777
			c0.008-0.327,0.414-0.437,0.355-0.804c-0.043-0.275-0.148-0.689,0.385-0.693c0,0.199-0.021,0.401,0.004,0.598
			c0.224,1.771-0.357,3.185-1.925,4.22c-0.305,0-0.701,0-1.091,0c-0.242,0.241-0.477,0.478-0.728,0.728
			c-0.626,0.236-1.455-0.281-1.86,0.598c-0.28-0.232-0.428-0.354-0.655-0.543c-0.177,0.324-0.366,0.668-0.625,1.144
			C175.927,91.747,174.234,92.396,173.513,90.984z"/>
		<path d="M205.975,75.355c0,2.065,0,4.133,0,5.904c0.301,0.444,0.481,0.715,0.576,0.854c0.566,0.188,0.625-0.4,1-0.349
			c0.4-0.133,0.432,0.514,0.834,0.401c0.823,0,1.004-0.944,0.407-2.19c0.261-0.437,0.737-0.06,1.188-0.375c0-1.75,0-3.601,0-5.449
			c-0.545-0.848-0.64-1.853-0.979-2.678c0.058-0.695,0.556-0.768,0.979-0.929c0.668,0.07,0.386,0.595,0.388,0.915
			c0.021,3.327,0.014,6.654,0.014,10.021c-0.444,0.617-0.92,1.226-1.842,1.123c-0.104,0.529-0.961,0.107-0.964,0.765
			c-0.465,0-0.93,0-1.395,0c-0.551-0.759-0.652-1.608-0.625-2.527c0.051-1.655,0.014-3.315,0.017-4.975
			C205.573,75.598,205.581,75.325,205.975,75.355z"/>
		<path d="M187.138,85.374c0.325-0.065,0.387,0.299,0.625,0.375c0.195-0.149,0.309-0.444,0.861-0.313
			c0.331,0.308-0.096,1.233,0.701,1.467c1.047-0.438,0.433-1.438,0.666-2.186c0.158-0.283,0.693,0.024,0.748-0.433
			c0.032-0.269,0.013-0.543,0.406-0.513c-0.136,0.873,0.324,1.832-0.467,2.721c0.271,0.271,0.548,0.547,0.854,0.854
			c-0.008,0.047,0.008,0.196-0.058,0.289c-0.112,0.161-0.263,0.396-0.418,0.412c-1.297,0.146-2.339,1.406-3.919,0.786
			C187.138,87.736,187.138,86.557,187.138,85.374z"/>
		<path d="M254.463,38.889c-0.246,0.045-0.385-0.106-0.393-0.304c-0.023-0.647-0.01-1.296-0.01-1.931
			c-0.42-0.32-0.445,0.342-0.797,0.248c-0.305-0.081-0.648-0.017-0.902-0.017c-0.717-0.144-0.446-1.072-1.105-1.202
			c-0.044-0.25,0.109-0.388,0.313-0.393c0.785-0.02,1.57-0.008,2.293-0.008c0.203,0.202,0.344,0.342,0.603,0.601
			C254.463,36.803,254.463,37.846,254.463,38.889z"/>
		<path d="M151.071,65.337c-0.069,0.414,0.067,0.751,0.397,1.023c-0.879,0.291-1.75,0.58-2.777,0.919
			c-0.228-0.049,0.218-0.821-0.425-0.74C149.062,65.816,149.935,65.269,151.071,65.337z"/>
		<path d="M205.975,72.55c0.893-0.136,1.15,0.632,1.604,1.06c-0.01,0.443,0.023,0.789-0.332,1.107
			c-0.412,0.369-0.85,0.174-1.271,0.238C205.975,74.152,205.975,73.352,205.975,72.55z"/>
		<path d="M147.865,66.54c-0.305,0.825,0.802,1.489,0.175,2.483c-0.22-0.35-0.419-0.664-0.542-0.858
			c-0.858,0.127-0.585,1.06-1.236,1.181C146.212,68.076,146.753,67.145,147.865,66.54z"/>
		<path d="M250.855,35.683c-0.412,0.304-0.121,1.077-0.801,1.202c0-0.367,0-0.734,0-1.202
			C250.383,35.683,250.62,35.683,250.855,35.683z"/>
		<path d="M173.112,90.184c0.6,0.033,0.34,0.498,0.401,0.801C172.913,90.951,173.172,90.486,173.112,90.184z"/>
		<path d="M211.184,22.859c-0.81,0.213-1.435-0.499-2.24-0.417c-0.793,0.079-1.646,0.188-2.395-0.014
			c-2.804-0.759-5.645-0.172-8.458-0.371c-1.921,0.66-4.063,0.15-5.934,1.159c-0.545,0.295-1.243,0.108-1.889,0.236
			c-1.608,0.323-3.03,1.112-4.593,1.538c-1.529,0.417-2.907,1.359-4.409,1.911c-3.189,1.169-5.829,3.313-8.797,4.872
			c-0.79,0.415-1.305,1.328-2.01,1.938c-1.854,1.604-3.196,3.672-4.939,5.378c-0.767,0.751-1.228,1.765-1.817,2.656
			c-1.163,1.758-2.132,3.646-3.142,5.503c-0.292,0.537-0.583,1.058-0.721,1.712c-0.259,1.23-0.587,1.382-2.413,1.953
			c0.376-1.006,0.674-1.919,1.056-2.794c0.52-1.19,0.971-2.402,1.429-3.617c0.373-0.992,1.152-1.782,1.715-2.687
			c0.728-1.17,1.666-2.228,2.24-3.488c0.282-0.62,1.32-0.368,1.241-1.254c1.898-2.199,3.978-4.17,6.282-5.98
			c2.75-2.16,5.816-3.651,8.893-5.185c0.774-0.386,1.667-0.46,2.355-1.112c0.627-0.596,1.599-0.576,2.352-1.093
			c0.792-0.543,1.905-0.537,2.814-1.247c1.103,0.047,2.272-0.062,3.413-0.625c0.771-0.381,1.717-0.321,2.577-0.513
			c0.729-0.162,1.4-0.621,2.229-0.486c0.717,0.115,1.466,0.024,2.2,0.024c1.469,0,2.938,0,4.408,0c1.002,0,2.104-0.262,2.979,0.069
			c0.984,0.371,2.072-0.033,2.826,0.402c0.897,0.519,1.904,0.019,2.754,0.68c0.348,0.271,1.117,0.045,1.597,0.452
			C212.482,23.522,211.79,23.021,211.184,22.859z"/>
		<path d="M191.947,34.881c-2.066,0.802-4.139,1.591-6.199,2.411c-0.719,0.286-1.396,0.449-1.883,1.329
			c-0.692,1.252-1.908,2.108-3.556,1.88c-0.457-0.063-0.929-0.01-1.395-0.01c-0.175-0.278-0.561-0.381-0.598-0.75
			c0.042-0.13,0.043-0.303,0.124-0.357c0.675-0.444,1.605-0.333,2.185-0.997c0.414-1.068-0.275-1.802-0.663-2.601
			c-1.041,0.096-1.816,1.017-2.89,0.556c0.752-2.661,2.717-2.878,5.009-2.611c0.392,0.213,0.881,0.48,1.233,0.672
			c4.103-0.915,7.836-2.659,11.839-3.531c0.204,0.418,0.034,0.772-0.187,1.118c-2.196,1.551-4.915,1.642-7.063,2.512
			c1.727-0.012,3.541-1.59,5.782-0.835C193.241,34.588,192.46,34.515,191.947,34.881z"/>
		<path d="M211.184,22.859c0.377,0,0.754-0.001,1.131,0c0.274,0.001,0.496-0.053,0.472-0.401c0.657,0.586,1.468,0.354,2.209,0.408
			c0.524,0.545,1.155,0.904,1.882,0.769c0.555-0.103,0.922,0.276,1.206,0.473c0.837,0.576,1.881,0.615,2.692,1.274
			c0.703,0.572,1.633,0.857,2.442,1.305c0.88,0.487,1.698,1.074,2.527,1.643c0.42,0.287,0.871,0.721,1.567,0.586
			c-0.23,0.938-0.961,0.889-1.328,1.157c-0.754,0.039-1.193-0.388-1.637-0.694c-0.722-0.5-1.402-1.078-2.23-1.377
			c-0.821-0.297-1.271-1.335-2.324-1.141c-1.376-1.474-3.454-1.678-5.04-2.787c-0.835-0.583-1.767-0.997-2.856-0.828
			C211.621,23.29,211.188,23.409,211.184,22.859z"/>
		<path d="M194.751,31.676c0.134-0.268,0.268-0.535,0.401-0.802c0.421-0.602,1.152-0.691,1.731-0.76
			c1.48-0.174,2.703-0.82,3.879-1.646c0.437,0.174,0.733,0.493,0.95,0.899c-0.093,0.804,0.457,1.512,0.354,2.319
			c-0.435,0.551-1.021,0.771-1.705,0.79c-0.913,0.349-1.775,0.869-2.806,0.802c-0.211,0.246-0.597,0.143-0.802,0.401
			c-0.58-0.049-1.13,0.021-1.603,0.4c-0.203-0.264-0.626-0.137-0.842-0.535c-0.007-0.802,0.712-1.033,1.252-1.402
			c0.281,0.121,0.075-0.402,0.04-0.138c-0.005,0.026-0.062,0.003-0.182-0.009C195.157,31.968,194.928,31.88,194.751,31.676z"/>
		<path d="M201.564,29.271c-0.233,0-0.469,0-0.801,0c0-0.334,0-0.568,0-0.802c0.143-0.124,0.276-0.258,0.4-0.401
			c0.134,0,0.268,0,0.4,0c0.123-0.145,0.285-0.25,0.399-0.401c0.431-0.069,0.704-0.458,1.228-0.431
			c0.869,0.045,1.425,0.734,2.221,0.912c0.219,0.049,0.416,0.433,0.593,0.711c0.46,0.723,0.362,1.47,0.356,2.225
			c-1.756,2.802-2.861,3.182-5.197,1.793c-0.213-0.239-0.582-0.175-0.801-0.401c0.405-0.524,0.919-0.833,1.602-0.801
			c0.555-0.165,1.186-0.036,1.758-0.524c0.694-0.86,0.476-1.565-0.576-2.073c-0.209-0.061-0.422-0.114-0.643-0.106
			c-0.128,0.027-0.259,0.059-0.382,0.108c-0.115,0.065-0.235,0.118-0.358,0.165C201.764,29.248,201.564,29.271,201.564,29.271z"/>
		<path fill="#FFFFFF" d="M194.751,31.676c0.815,0.222,1.51-0.626,2.323-0.371c0.04,0.23,0.062,0.353,0.081,0.47
			c-0.819,0.753-2.051,0.819-2.791,1.689c0.102,0.414,0.864-0.028,0.788,0.615c-0.674-0.196-1.309,0.165-1.765,0.456
			c-0.501,0.323-0.94,0.324-1.441,0.346c0.271-0.722,1.166-0.51,1.591-1.076c-0.972-0.404-1.672,0.225-2.481,0.521
			c-0.809,0.296-1.721,0.374-2.57,0.491c-0.83,0.114-1.623,1-2.54,0.277c0.755-0.974,1.946-1.054,2.984-1.396
			c1.873-0.62,3.787-1.124,5.679-1.693C194.682,31.982,194.706,31.79,194.751,31.676z"/>
		<path d="M200.363,32.477c0.304,0.061,0.766-0.198,0.801,0.401C200.859,32.817,200.397,33.077,200.363,32.477z"/>
		<path d="M201.164,28.069c0.01,0.277-0.124,0.411-0.4,0.401C200.752,28.193,200.887,28.059,201.164,28.069z"/>
		<path d="M201.965,27.668c0.012,0.277-0.123,0.412-0.398,0.401C201.555,27.792,201.688,27.658,201.965,27.668z"/>
		<path d="M197.958,111.823c-0.134,0-0.267,0-0.4,0c-0.134,0.125-0.267,0.125-0.4,0c-0.475-0.724,0.133-0.828,0.579-1.089
			c0.698-0.409,1.539-0.111,2.225-0.514c1.847,0.29,3.616-0.387,5.44-0.479c1.75-0.089,3.554-0.388,5.267-0.788
			c1.916-0.446,3.897-0.782,5.7-1.692c1.045-0.528,2.188-0.899,3.289-1.227c1.566-0.464,2.835-1.507,4.445-1.892
			c0.975-0.233,1.85-1.052,2.674-1.726c2.43-1.985,4.851-3.992,6.648-6.617c0.149-0.217,0.381-0.375,0.563-0.571
			c0.683-0.744,1.361-1.494,2.042-2.24c0.127-0.141,0.274-0.26,0.399-0.4c0.139-0.13,0.271-0.264,0.401-0.4
			c0.657-0.123,0.929,0.141,0.802,0.802c-0.141,0.126-0.261,0.274-0.4,0.401c-0.055,0.243,0.117,0.521-0.137,0.74
			c-2,1.721-3.33,4.073-5.367,5.746c-2.397,1.969-4.506,4.337-7.476,5.534c-1.396,1.298-3.159,2.007-4.851,2.735
			c-2.426,1.049-4.938,1.899-7.535,2.531c-1.693,0.412-3.451,0.525-5.108,1.118c-0.471,0.169-1.055,0.026-1.586,0.026
			c-2.137,0.316-4.274,0.316-6.413,0c-0.134,0-0.267,0-0.4,0C198.225,111.961,198.091,111.961,197.958,111.823z"/>
		<path d="M194.352,111.422c-4.047-0.207-7.923-1.063-11.692-2.615c-2.655-1.095-4.991-2.718-7.609-3.961
			c0.25-0.22,0.446-0.392,0.699-0.611c0.578,0,1.236,0,1.889,0c1.558,1.265,3.454,1.912,5.229,2.787
			c1.905,0.938,4.078,1.012,5.997,1.908c0.712,0.331,1.526-0.104,2.289,0.26c0.526,0.252,1.106,0.754,1.774,0.25
			c0.367,0.528,0.92,0.359,1.424,0.381c0.545,0.359,1.51,0.313,1.333,1.42C195.325,111.764,194.855,111.695,194.352,111.422z"/>
		<path d="M221.602,95.393c0-0.134,0-0.268,0-0.399c0.269-0.24,0.535-0.214,0.803,0c0,0.133,0,0.267,0,0.399
			c-0.387,0.316-0.036,0.879-0.4,1.203c0,0.779,0,1.559,0,2.459c-1.085-0.19-1.473-0.88-1.807-1.685
			c-0.178,0.212-0.342,0.412-0.611,0.737c0,0.416,0,0.996,0,1.545c-0.496,0.263-0.955,0.113-1.388,0.136
			c-0.47-1.666-0.937-3.329-1.405-5.001c0.186-0.18,0.375-0.364,0.566-0.551c0.714,0.457,1.185,1.08,1.115,1.951
			c0.275,0,0.405,0,0.56,0c0.383-0.588-0.009-1.281,0.25-1.887c0.258-0.171,0.366-0.57,0.901-0.498
			c0.242,0.465,0.66,0.922,0.615,1.59C221.066,95.636,221.335,95.643,221.602,95.393z"/>
		<path d="M213.188,95.794c0.047-0.114,0.072-0.31,0.145-0.328c0.249-0.063,0.514-0.065,0.82-0.099
			c1.591,1.377,0.861,3.253,1.056,4.898c-0.754,1.327-2.146,1.504-3.372,1.918c-0.497,0.168-1.066,0.068-1.453-0.658
			c0-1.366-0.001-2.892,0-4.414c0-0.271,0.004-0.547,0.399-0.518c0.413-0.324,0.735-0.179,1.018,0.188
			c0.595,1.007-0.122,2.368,0.845,3.435c1.268-1.042,0.771-2.205,0.545-3.322C213.09,96.527,212.96,96.16,213.188,95.794z"/>
		<path d="M256.064,76.157c-0.067,0.332,0.31,0.374,0.375,0.663c-0.104,0.326-0.84-0.103-0.774,0.539
			c-1.606,0.629-3.229,1.199-4.905,1.627c-1.066,0.271-2.148,0.481-3.184,0.971c-0.805,0.378-1.76,0.686-2.73,0.607
			c-0.951-0.399-0.273-0.801,0-1.201c0.684,0.031,1.196-0.278,1.604-0.803c0.443-0.496,0.988-0.582,1.603-0.399
			c1.65-0.322,3.273-0.757,4.896-1.202c0.205-0.057,0.361-0.148,0.313-0.4C254.258,76.859,255.087,75.986,256.064,76.157z"/>
		<path d="M203.635,98.633c0.379,0,0.692,0,1.143,0c0,0.655,0,1.294,0,1.846c0.843,0.386,1.291-0.305,1.963-0.385
			c0-0.836,0-1.681,0-2.473c0.41-0.344,0.775-0.258,1.154-0.114c0,1.955,0,3.911,0,5.829c-0.59,0.239-0.756-0.229-1.111-0.505
			c0-0.396,0-0.842,0-1.166c-0.201-0.347-0.426-0.272-0.606-0.255c-0.649,0.066-1.143,0.463-1.725,0.839c0,0.565,0,1.144,0,1.394
			c-0.312,0.512-0.468,0.77-0.815,1.346C203.635,102.579,203.635,100.623,203.635,98.633z"/>
		<path d="M197.26,100.293c1.093-0.275,2.041-0.516,3.028-0.766c0.085,0.084,0.228,0.227,0.369,0.367
			c0.116,0.095,0.024,0.147-0.062,0.291c-0.387,0.648-1.167,0.364-1.718,0.752c-0.363,0.258-0.624,0.561-0.896,0.664
			c-0.077,0.521,0.249,0.606,0.413,0.865c0.916-0.188,1.907-0.729,2.738,0.322c0,0.617,0,1.277,0,2.098
			c-0.268,0.19-0.649,0.459-1.213,0.857c-0.725-0.237-1.598,0.813-2.678,0.365c-0.129-0.315-0.203-0.571,0.276-0.713
			c0.479-0.139,0.871-0.574,1.436-0.383c0.334-0.336,0.664-0.666,0.989-0.99c-0.662-1.105-1.818-0.356-2.683-0.711
			c-0.376-0.539,0.354-1.392-0.566-1.705C196.908,101.116,197.077,100.721,197.26,100.293z"/>
		<path d="M244.846,79.363c-0.017,0.291,0.059,0.578-0.216,0.835c-0.313,0.292-0.03,0.343,0.216,0.366
			c0,0.066,0.012,0.188-0.002,0.19c-2.826,0.64-5.521,1.759-8.394,2.252c-0.528,0.091-1.036,0.423-1.623,0.362
			c0.024-0.355-0.206-0.4-0.479-0.4c-0.508,0-1.018,0-1.523,0c0-0.064-0.006-0.188,0-0.189c1.246-0.122,2.412-0.738,3.52-0.614
			c1.584-0.589,2.915-1.312,4.441-1.66c0.977-0.224,1.965-0.64,2.922-1.03C244.104,79.313,244.471,79.432,244.846,79.363z"/>
		<path d="M238.434,89.782c0-0.197-0.084-0.479,0.015-0.578c0.464-0.466,0.77-0.925,0.87-1.64c0.065-0.457,0.692-0.821,0.938-1.373
			c0.485-1.096,0.545-1.068,2.026-1.584c0.263,0.348,0.234,0.73,0.043,1.072c-0.723,1.281-1.467,2.555-2.221,3.819
			c-0.088,0.149-0.222,0.347-0.471,0.282c-0.24,0.214-0.172,0.58-0.4,0.802C238.582,90.702,238.318,90.432,238.434,89.782z"/>
		<path d="M194.352,111.422c0.366,0,0.731,0,1.075,0c0.483-1.203-0.956-0.92-1.075-1.604c1.002-0.301,1.829,0.517,2.823,0.421
			c0.92-0.091,1.857-0.019,2.785-0.019c-0.264,0.854-1.007,0.151-1.483,0.48c-0.19,0.189-0.419,0.42-0.655,0.654
			c-0.175-0.09-0.354-0.184-0.529-0.272c-0.248,0.224-0.091,0.498-0.136,0.739c-0.772,0-1.544,0-2.317,0
			C194.567,111.823,194.323,111.788,194.352,111.422z"/>
		<path d="M238.434,89.782c0.098,0.438,0.364,0.704,0.801,0.802c0,0.199,0.084,0.465-0.014,0.587
			c-0.504,0.625-1.055,1.215-1.589,1.817c-0.098-0.438-0.364-0.704-0.802-0.803c0-0.236,0-0.476,0-0.715
			c0.281-0.054,0.458-0.086,0.693-0.131C237.727,90.793,237.551,89.962,238.434,89.782z"/>
		<path d="M222.402,94.992c-0.266,0-0.533,0-0.801,0c0-0.582,0-1.165,0-1.756c0.293-0.291,0.463-0.793,1.135-0.584
			c0,0.713,0.006,1.459-0.014,2.205C222.721,94.906,222.514,94.947,222.402,94.992z"/>
		<path d="M198.759,111.823c2.138,0,4.276,0,6.413,0c0.045,0.252-0.109,0.392-0.314,0.394c-1.928,0.014-3.854,0.014-5.783,0
			C198.869,112.215,198.714,112.075,198.759,111.823z"/>
		<path d="M211.583,96.996c-0.034-0.6-0.498-0.342-0.802-0.4c0.171-0.662,0.636-0.849,1.265-0.808
			c0.379,0.024,0.761,0.006,1.142,0.006c0.133,0.267,0.267,0.534,0.399,0.802C213.001,97.136,212.38,97.507,211.583,96.996z"/>
		<path d="M222.003,96.596c0.151-0.396-0.371-1.016,0.399-1.203C222.252,95.788,222.773,96.407,222.003,96.596z"/>
		<path d="M239.234,90.584c0.061-0.305-0.198-0.768,0.399-0.802C239.575,90.086,239.834,90.55,239.234,90.584z"/>
		<path d="M221.602,95.393c0.029,0.377-0.229,0.424-0.496,0.395c-0.201-0.021-0.351-0.148-0.305-0.395
			C221.066,95.393,221.335,95.393,221.602,95.393z"/>
		<path d="M236.83,92.188c0.011,0.276-0.124,0.41-0.4,0.4C236.419,92.311,236.553,92.177,236.83,92.188z"/>
		<path d="M237.23,93.391c-0.01-0.279,0.123-0.412,0.4-0.401C237.643,93.266,237.508,93.398,237.23,93.391z"/>
		<path d="M197.157,111.823c0.134,0,0.267,0,0.4,0c0.015,0.194-0.024,0.372-0.266,0.317
			C197.226,112.126,197.2,111.934,197.157,111.823z"/>
		<path d="M197.958,111.823c0.134,0,0.268,0,0.401,0c0.014,0.194-0.025,0.372-0.266,0.317
			C198.027,112.126,198.001,111.934,197.958,111.823z"/>
		<path d="M236.43,92.588c0.01,0.277-0.123,0.41-0.4,0.4C236.018,92.711,236.152,92.578,236.43,92.588z"/>
		<path fill="#FFFFFF" d="M238.032,74.152c1.106,0.002,1.834-0.885,2.806-1.201c0.555-0.156,0.854,0.215,1.162,0.563
			c0.211,0.803-0.141,1.481-0.563,2.141c-0.301-0.147-0.662-0.393-1.121-0.297c-0.418,0.295-0.877,0.565-0.721,1.153
			c-0.748,0.175-1.115-0.687-1.826-0.304c-0.748,0.832-1.295,1.766-0.652,3.034c-0.199,0.136-0.333,0.624-0.885,0.501
			c-0.457-0.213-0.037-0.707-0.351-1.112c-0.592,0.013-1.173-0.364-1.801-0.612c0.353-1.635,2.146-1.865,2.926-3.084
			c0.134,0.133,0.228,0.228,0.38,0.379C237.848,75.068,238.122,74.727,238.032,74.152z"/>
		<path fill="#FFFFFF" d="M247.65,62.532c0-1.584,0-3.168,0-4.829c1.224,0.638,1.572,1.847,2.404,2.677c0,2.154,0,4.356,0,6.561
			c-0.466-0.131-0.785-0.394-0.802-0.912c-0.028-0.887-0.567-1.481-1.121-2.014C247.803,63.542,248.506,62.798,247.65,62.532z"/>
		<path fill="#FFFFFF" d="M246.448,71.749c0.304-0.413,1.075-0.121,1.202-0.802c0.197,0,0.396,0,0.595,0
			c0.418-0.272,0.062-0.745,0.264-1.064c0.601-0.424,0.775,0.204,1.187,0.479c-0.27,0.199-0.524,0.39-0.613,0.455
			c-0.423,0.75-0.07,1.356-0.33,2.037c-0.363,0.355-0.834,0.818-1.332,1.308c-0.773,0.075-0.922-1.068-1.723-0.929
			C245.958,72.718,246.202,72.232,246.448,71.749z"/>
		<path fill="#FFFFFF" d="M244.629,78.947c-0.408-0.408-0.785-0.785-1.23-1.231c-0.377,0-0.825,0-1.314,0c0-0.384,0-0.696,0-0.999
			c0.479-0.525,0.674,0.066,0.925,0.197c0.91-0.278,0.328-1.377,1.017-1.75c0.4-0.409,0.467,0.277,0.779,0.203
			c0.237-0.057,0.5-0.012,0.762-0.012c-0.035,0.689-1.058,0.776-0.789,1.279c0.101,0.379,0.106,0.514,0.17,0.615
			c0.199,0.327,0.847,0.566,0.645,0.873C245.43,78.366,245.047,78.639,244.629,78.947z"/>
		<path d="M209.98,68.943c-0.334,0.078-0.371-0.325-0.66-0.354c-0.36,0.255,0.041,0.742-0.137,0.943
			c-0.345-0.313-0.701-0.64-1.229-1.121c-0.005-0.073,0.15-0.501-0.318-0.793c0.172-0.356,0.35-0.718,0.525-1.077
			c0.408,0,0.809,0,1.197,0c0.189-0.121,0.225-0.298,0.223-0.504c-0.008-0.663-0.016-1.326,0.005-1.989
			c0.006-0.205,0.142-0.358,0.394-0.313c0,1.335,0,2.672,0,4.007c0.146,0.089,0.194,0.178,0.146,0.267
			c-0.048,0.091-0.1,0.134-0.146,0.134C209.98,68.41,209.98,68.677,209.98,68.943z"/>
		<path d="M220.801,66.139c0-0.199,0-0.397,0-0.586c-0.146-0.294-0.472-0.151-0.721-0.319c0.051-0.385,0.447-0.693,0.327-1.15
			c-0.097-0.362-0.615-0.551-0.459-1.052c0.214-0.432,0.429-0.865,0.639-1.288c0.631,0.361,0.519,0.975,0.655,1.538
			c0.128,0.523,0.374,1.037,0.461,1.655c0.547,0,1.068-0.016,1.589,0.008c0.206,0.009,0.358,0.142,0.313,0.393
			C222.67,65.605,221.734,65.872,220.801,66.139z"/>
		<path d="M209.98,70.547c0.071,0.646-0.697,0.201-0.799,0.623c0.102,0.248,0.442,0.581,0.799,0.701c0,0.73,0,1.507,0,2.281
			c-0.623-0.348-1.197-0.694-1.219-1.557c-0.017-0.701-0.642-0.861-1.174-0.928c-0.1-1.116,0.962-0.971,1.357-1.491
			c0.361,0.556,0.688-0.014,1.033-0.03C209.98,70.279,209.98,70.413,209.98,70.547z"/>
		<path fill="#FFFFFF" d="M211.279,79.486c-0.815-1.053-0.359-2.135-0.522-3.146c0.509-0.309,1.013-0.188,1.621-0.11
			C212.434,77.467,212.143,78.529,211.279,79.486z"/>
		<path fill="#FFFFFF" d="M223.173,84.846c-0.315-0.72-0.55-1.129-1.135-1.209c0-0.31,0-0.623,0-0.92
			c0.922-0.477,1.601,0.157,2.379,0.381C224.423,83.95,223.695,84.148,223.173,84.846z"/>
		<path fill="#FFFFFF" d="M248.051,78.161c-0.474,0.38-1.023,0.448-1.603,0.399c-0.304-0.061-0.769,0.198-0.802-0.399
			c0.526,0.037,0.318-0.438,0.481-0.69c0.498-0.234,0.954-0.195,1.401,0.389c0.412-0.412,0.813-0.813,1.221-1.221
			C249.221,77.43,248.023,77.541,248.051,78.161z"/>
		<path fill="#FFFFFF" d="M230.713,74.205c0.188,0.734,0.293,1.418-0.479,1.918c-0.407,0-0.85,0-1.26,0
			c-0.32-0.309-0.045-0.66-0.199-0.947C229.438,74.843,230.064,74.529,230.713,74.205z"/>
		<path fill="#FFFFFF" d="M256.066,71.35c-0.627-0.137-1.012,0.41-1.539,0.534c-0.203,0.33,0.142,0.791-0.28,1.068
			c-0.216-0.438-0.431-0.874-0.659-1.339c0.68-0.354,1.307-0.682,1.932-1.01C255.678,70.859,256.072,70.958,256.066,71.35z"/>
		<path fill="#FFFFFF" d="M223.255,75.409c-1.146,0.381-0.659,1.088-0.993,1.513c-0.291,0-0.599,0-0.951,0
			c-0.189-0.484-0.123-0.971-0.035-1.513C221.797,75.409,222.3,75.409,223.255,75.409z"/>
		<path fill="#FFFFFF" d="M232.75,79.705c-0.566,0-1.008,0-1.443,0c-0.338-0.727,0.58-0.96,0.485-1.584
			C232.715,78.273,232.95,78.813,232.75,79.705z"/>
		<path fill="#FFFFFF" d="M229.631,69.38c0.438,0,0.748,0,1.053,0c0.284,0.521,0.047,1.009,0.18,1.585
			C229.734,70.911,229.568,70.313,229.631,69.38z"/>
		<path fill="#FFFFFF" d="M219.227,82.564c-0.108-0.756,0.512-1.029,0.519-1.556c0.896,0.476,0.668,1.214,0.603,1.868
			C219.719,83.24,219.607,82.508,219.227,82.564z"/>
		<path fill="#FFFFFF" d="M219.686,84.422c-0.981,0.352-1.453,0.018-1.748-0.749C218.975,83.337,218.975,83.337,219.686,84.422z"/>
		<path fill="#FFFFFF" d="M221.296,74.953c0-0.747,0-1.496,0-2.303c0.448-0.223,0.466,0.906,1.159,0.285
			C221.811,73.598,221.471,74.206,221.296,74.953z"/>
		<path fill="#FFFFFF" d="M229.65,68.415c-0.107-0.56,0.25-0.699,0.434-0.944c0.15-0.201,0.354-0.104,0.535-0.131
			C230.841,68.516,230.841,68.516,229.65,68.415z"/>
		<path fill="#FFFFFF" d="M223.195,67.512c0.055,0.702-0.371,0.956-0.969,1.061c-0.367-0.366-0.219-0.74-0.152-1.104
			C222.436,67.279,222.791,67.261,223.195,67.512z"/>
		<path fill="#FFFFFF" d="M222.734,75.377c0.226-0.693,0.438-1.348,0.684-2.105c0.375,0.727,0.048,1.354,0.26,2.028
			C223.292,75.331,223.05,75.352,222.734,75.377z"/>
		<path fill="#FFFFFF" d="M251.658,70.146c0.266,0,0.533,0,0.802,0c0.25-0.047,0.345,0.108,0.396,0.299
			c0.074,0.427-0.326,0.541-0.517,0.877C251.84,71.063,251.568,70.718,251.658,70.146z"/>
		<path fill="#FFFFFF" d="M257.456,68.941c0.317,0.064,0.657-0.123,0.938,0.125c0.024,0.121,0.051,0.24,0.078,0.373
			c-0.145,0.494-0.845,0.225-1.008,0.721C257.152,69.745,257.152,69.346,257.456,68.941z"/>
		<path fill="#FFFFFF" d="M254.883,75.188c0.239-0.269,0.405-0.455,0.575-0.646c0.256,0.348,0.789,0.525,0.565,1.068
			C255.434,76.027,255.247,75.448,254.883,75.188z"/>
		<path fill="#FFFFFF" d="M243.645,72.55c0.266,0,0.533,0,0.801,0c0.113,0.048,0.227,0.095,0.34,0.142
			c-0.534,0.328-0.211,0.935-0.526,1.529C243.956,73.624,244.07,72.961,243.645,72.55z"/>
		<path fill="#FFFFFF" d="M212.773,74.775c-0.334,0.285-0.517,0.685-1.139,0.545c0.176-0.397,0.346-0.785,0.528-1.2
			C212.361,74.333,212.535,74.52,212.773,74.775z"/>
		<path fill="#FFFFFF" d="M229.359,71.406c0.076-0.077-0.104,0.104-0.364,0.363c-0.229-0.4-0.267-0.759,0.043-1.332
			C229.158,70.8,229.257,71.102,229.359,71.406z"/>
		<path fill="#FFFFFF" d="M250.094,72.708c0.276,0.129,0.551,0.257,1.086,0.504c-0.572,0.099-0.746,0.13-0.908,0.158
			C249.96,73.08,249.997,72.814,250.094,72.708z"/>
		<path fill="#FFFFFF" d="M221.492,78.882c-0.371-0.333-0.352-0.688-0.112-1.151C221.748,78.133,221.496,78.525,221.492,78.882z"/>
		<path fill="#FFFFFF" d="M247.618,74.898c0,0.367,0,0.543,0,0.916c-0.373-0.226-0.601-0.396-0.712-0.785
			C247.092,74.996,247.27,74.964,247.618,74.898z"/>
		<path fill="#FFFFFF" d="M226.813,77.76c0.133,0,0.267,0,0.399,0c0,0.245,0,0.49,0,0.781
			C226.602,78.393,226.896,78.006,226.813,77.76z"/>
		<path fill="#FFFFFF" d="M209.98,68.143c0-0.134,0-0.268,0-0.399c0.244,0,0.49,0,0.781,0
			C210.611,68.352,210.227,68.059,209.98,68.143z"/>
		<path fill="#FFFFFF" d="M251.857,75.76c-0.291-0.271-0.291-0.537,0-0.809C252.148,75.223,252.148,75.489,251.857,75.76z"/>
		<path fill="#FFFFFF" d="M240.038,79.766c0.192-0.033,0.313,0.055,0.354,0.237c0.008,0.03-0.088,0.125-0.117,0.118
			C240.092,80.079,240.004,79.958,240.038,79.766z"/>
		<path fill="#FFFFFF" d="M228.814,80.165c0.015,0.194-0.025,0.372-0.266,0.317c-0.066-0.016-0.091-0.207-0.136-0.317
			C228.548,80.165,228.682,80.165,228.814,80.165z"/>
		<path fill="#FFFFFF" d="M259.473,73.352c-0.188-0.133-0.188-0.267,0-0.397C259.658,73.085,259.658,73.219,259.473,73.352z"/>
		<path fill="#FFFFFF" d="M230.816,81.167c-0.131,0.187-0.266,0.187-0.396,0C230.552,80.979,230.686,80.979,230.816,81.167z"/>
		<path fill="#FFFFFF" d="M227.014,81.369c0.186,0.132,0.186,0.266,0,0.396C226.825,81.635,226.825,81.501,227.014,81.369z"/>
		<path fill="#FFFFFF" d="M217.395,82.167c-0.187-0.133-0.187-0.267,0-0.397C217.581,81.9,217.581,82.034,217.395,82.167z"/>
		<path fill="#FFFFFF" d="M210.581,82.968c-0.187-0.132-0.187-0.266,0-0.396C210.77,82.702,210.77,82.836,210.581,82.968z"/>
		<path fill="#FFFFFF" d="M219.195,82.57c0.033,0.191-0.055,0.313-0.236,0.354c-0.031,0.007-0.125-0.087-0.118-0.116
			C218.882,82.625,219.003,82.536,219.195,82.57z"/>
		<path fill="#FFFFFF" d="M225.409,82.973c0.188,0.131,0.188,0.266,0,0.396C225.223,83.236,225.223,83.104,225.409,82.973z"/>
		<path fill="#FFFFFF" d="M256.066,71.352c0.192-0.035,0.313,0.053,0.354,0.236c0.009,0.03-0.087,0.125-0.116,0.117
			C256.122,71.663,256.033,71.542,256.066,71.352z"/>
		<path fill="#FFFFFF" d="M223.404,70.949c0.188,0.132,0.188,0.266,0,0.396C223.219,71.215,223.219,71.081,223.404,70.949z"/>
		<path fill="#FFFFFF" d="M217.795,86.174c-0.188-0.131-0.188-0.266,0-0.396C217.98,85.908,217.98,86.043,217.795,86.174z"/>
		<path fill="#FFFFFF" d="M214.589,75.357c0.188,0.132,0.188,0.266,0,0.396C214.402,75.623,214.402,75.489,214.589,75.357z"/>
		<path fill="#FFFFFF" d="M217.395,86.578c0.188,0.132,0.188,0.266,0,0.396C217.208,86.844,217.208,86.71,217.395,86.578z"/>
		<path fill="#FFFFFF" d="M218.797,86.979c-0.134,0-0.268,0-0.4,0c-0.015-0.195,0.024-0.373,0.266-0.318
			C218.729,86.674,218.753,86.867,218.797,86.979z"/>
		<path fill="#FFFFFF" d="M211.982,86.979c0.035,0.191-0.056,0.313-0.236,0.354c-0.032,0.007-0.125-0.087-0.118-0.118
			C211.669,87.033,211.79,86.943,211.982,86.979z"/>
		<path fill="#FFFFFF" d="M210.982,87.38c0.187,0.132,0.187,0.267,0,0.396C210.796,87.646,210.796,87.512,210.982,87.38z"/>
		<path fill="#FFFFFF" d="M214.789,88.18c-0.135,0-0.268,0-0.4,0c-0.015-0.195,0.025-0.373,0.266-0.318
			C214.719,87.877,214.746,88.068,214.789,88.18z"/>
		<path fill="#FFFFFF" d="M246.049,76.154c-0.033-0.191,0.055-0.313,0.237-0.354c0.03-0.007,0.125,0.087,0.118,0.118
			C246.363,76.102,246.241,76.189,246.049,76.154z"/>
		<path d="M209.98,69.745c0-0.134,0-0.269,0-0.399c0.194-0.016,0.371,0.024,0.317,0.266
			C210.283,69.676,210.091,69.702,209.98,69.745z"/>
		<path fill="#FFFFFF" d="M236.027,74.955c-0.01-0.277,0.125-0.411,0.4-0.4C236.439,74.831,236.307,74.966,236.027,74.955z"/>
		<path fill="#FFFFFF" d="M246.045,76.159c0.034,0.192-0.054,0.313-0.236,0.354c-0.031,0.006-0.125-0.088-0.119-0.117
			C245.73,76.213,245.854,76.124,246.045,76.159z"/>
		<path fill="#FFFFFF" d="M253.26,76.557c-0.193,0.034-0.314-0.055-0.355-0.236c-0.006-0.031,0.087-0.125,0.119-0.118
			C253.204,76.242,253.294,76.363,253.26,76.557z"/>
		<path fill="#FFFFFF" d="M214.387,74.154c0.034,0.193-0.054,0.313-0.236,0.354c-0.03,0.009-0.125-0.086-0.118-0.116
			C214.072,74.209,214.193,74.121,214.387,74.154z"/>
		<path fill="#FFFFFF" d="M250.456,76.957c-0.034-0.191,0.056-0.313,0.237-0.354c0.031-0.008,0.125,0.086,0.117,0.117
			C250.771,76.902,250.648,76.991,250.456,76.957z"/>
		<path fill="#FFFFFF" d="M240.439,77.159c0.131-0.188,0.265-0.188,0.395,0C240.704,77.346,240.57,77.346,240.439,77.159z"/>
		<path fill="#FFFFFF" d="M250.454,76.961c0.034,0.191-0.056,0.313-0.237,0.354c-0.031,0.008-0.125-0.086-0.117-0.117
			C250.141,77.016,250.262,76.926,250.454,76.961z"/>
		<path fill="#FFFFFF" d="M229.416,78.561c-0.186-0.133-0.186-0.267,0-0.396C229.604,78.294,229.604,78.428,229.416,78.561z"/>
		<path fill="#FFFFFF" d="M214.389,74.152c-0.011-0.276,0.123-0.41,0.4-0.399C214.8,74.029,214.665,74.164,214.389,74.152z"/>
		<path fill="#FFFFFF" d="M239.436,78.96c-0.188-0.131-0.188-0.265,0-0.396C239.622,78.695,239.622,78.829,239.436,78.96z"/>
		<path fill="#FFFFFF" d="M211.182,79.364c0.034,0.192-0.056,0.313-0.236,0.354c-0.031,0.008-0.125-0.086-0.118-0.117
			C210.867,79.419,210.988,79.331,211.182,79.364z"/>
		<path fill="#FFFFFF" d="M240.034,79.762c-0.192,0.034-0.313-0.054-0.354-0.236c-0.008-0.03,0.088-0.125,0.117-0.118
			C239.98,79.448,240.068,79.57,240.034,79.762z"/>
		<path fill="#FFFFFF" d="M228.412,80.163c-0.191,0.034-0.313-0.056-0.355-0.237c-0.007-0.031,0.088-0.125,0.119-0.117
			C228.357,79.85,228.445,79.971,228.412,80.163z"/>
		<path fill="#FFFFFF" d="M228.816,80.163c-0.033-0.192,0.055-0.313,0.236-0.354c0.032-0.008,0.127,0.086,0.118,0.117
			C229.13,80.107,229.009,80.197,228.816,80.163z"/>
		<path fill="#FFFFFF" d="M220.871,51.377c0.984,0.029,1.668-0.631,2.431-0.922c0.121,0.095,0.181,0.127,0.22,0.175
			c0.037,0.046,0.08,0.108,0.08,0.163c0.006,3.062,0.004,6.123,0.004,9.127c-0.738,0.851-1.806,0.89-2.733,1.762
			C220.871,58.024,220.871,54.775,220.871,51.377z"/>
		<path fill="#FFFFFF" d="M179.924,87.777c-0.672,0.396-1.242,0.964-2.045,1.216c-0.237-0.129-0.499-0.271-0.759-0.413
			c-0.37-0.809-0.47-1.818-0.417-2.708c0.042-0.692,0.214-1.449-0.458-2.106c0.504-0.478,0.485-1.109,0.483-1.767
			c-0.017-4.741-0.017-9.481-0.005-14.224c0.004-1.821-0.214-3.664,0.518-5.4c0.314-0.99,1.369-0.951,2.12-1.409
			c0.117,0.118,0.358,0.243,0.384,0.404c0.153,0.932,0.599,1.792,0.59,2.768c-0.026,2.938-0.01,5.875-0.01,8.813
			c-0.462,3.025-0.066,6.068-0.211,9.102C180.022,83.96,180.363,85.883,179.924,87.777z"/>
		<path d="M179.924,87.777c0-4.639-0.006-9.277,0.013-13.916c0.001-0.319-0.278-0.842,0.388-0.91c0,4.64,0.006,9.277-0.013,13.918
			C180.312,87.188,180.59,87.71,179.924,87.777z"/>
		<path fill="#FFFFFF" d="M193.95,67.838c-0.49,0.95-1.375,1.184-2.423,1.286c0.029,0.03-0.159-0.158-0.343-0.343
			c0-3.646,0-7.29,0-10.928c0.587-0.109,0.985-0.67,1.819-0.485c0.209,0.27,0.526,0.68,0.946,1.225
			C193.95,61.549,193.95,64.744,193.95,67.838z"/>
		<path fill="#FFFFFF" d="M202.768,28.47c0.769-0.067,1.236,0.523,1.896,0.74c0.275,1.163-0.016,2.057-0.928,2.884
			c-0.516-0.251-1.273,0.389-1.771-0.418c-0.246-0.479-0.492-0.958-0.742-1.444c0.311-0.204,0.394-0.556,0.344-0.96
			c0.146-0.121,0.267-0.268,0.398-0.401C202.184,28.638,202.561,28.722,202.768,28.47z"/>
		<path d="M202.768,28.47c-0.035,0.6-0.498,0.34-0.803,0.401C202.001,28.271,202.463,28.53,202.768,28.47z"/>
		<path d="M201.965,28.871c0.012,0.277-0.123,0.411-0.398,0.401C201.555,28.994,201.688,28.86,201.965,28.871z"/>
		<path fill="#FFFFFF" d="M211.583,96.996c0.708,0.066,1.269-0.605,2.004-0.4c0.063,0.428,0.497,0.688,0.425,1.215
			c-0.097,0.711-0.023,1.442-0.023,2.002c-0.463,0.424-0.842,0.769-1.311,1.193c-0.289,0.004-0.773,0.059-1.095-0.502
			C211.583,99.334,211.583,98.165,211.583,96.996z"/>
	</g>
</g>
</svg>
