<?xml version="1.0" encoding="utf-8"?>
<!-- Generator: Adobe Illustrator 16.0.0, SVG Export Plug-In . SVG Version: 6.00 Build 0)  -->
<!DOCTYPE svg PUBLIC "-//W3C//DTD SVG 1.1//EN" "http://www.w3.org/Graphics/SVG/1.1/DTD/svg11.dtd">
<svg version="1.1" id="Layer_1" xmlns="http://www.w3.org/2000/svg" xmlns:xlink="http://www.w3.org/1999/xlink" x="0px" y="0px"
	 width="600px" height="200px" viewBox="0 0 600 200" enable-background="new 0 0 600 200" xml:space="preserve">
<rect width="600" height="200"/>
<g>
	<path fill="#FFFFFF" d="M245.831,84.179c-1.934-1.019-4.919-2.004-8.956-2.958c-4.037-0.954-6.579-1.869-7.625-2.747
		c-0.822-0.691-1.233-1.523-1.233-2.495c0-1.065,0.439-1.915,1.317-2.551c1.364-0.991,3.252-1.485,5.663-1.485
		c2.336,0,4.088,0.462,5.256,1.388c1.167,0.924,1.929,2.443,2.284,4.555l8.298-0.365c-0.131-3.775-1.5-6.793-4.107-9.054
		c-2.607-2.261-6.49-3.392-11.647-3.392c-3.159,0-5.854,0.477-8.087,1.43c-2.234,0.953-3.944,2.34-5.13,4.163
		c-1.188,1.822-1.78,3.78-1.78,5.873c0,3.252,1.261,6.009,3.784,8.27c1.794,1.607,4.915,2.961,9.363,4.064
		c3.457,0.859,5.672,1.458,6.644,1.794c1.42,0.504,2.415,1.098,2.985,1.78c0.57,0.683,0.855,1.509,0.855,2.48
		c0,1.514-0.678,2.836-2.032,3.966c-1.355,1.132-3.369,1.696-6.042,1.696c-2.522,0-4.527-0.634-6.013-1.906
		c-1.486-1.271-2.472-3.262-2.957-5.971l-8.074,0.785c0.542,4.598,2.205,8.099,4.99,10.499s6.774,3.602,11.97,3.602
		c3.569,0,6.55-0.5,8.942-1.5c2.392-0.998,4.242-2.524,5.55-4.582c1.308-2.056,1.962-4.262,1.962-6.616
		c0-2.598-0.546-4.78-1.64-6.545C249.278,86.59,247.765,85.198,245.831,84.179z M361.736,84.179
		c-1.932-1.019-4.918-2.004-8.955-2.958c-4.036-0.953-6.578-1.869-7.624-2.747c-0.823-0.691-1.233-1.523-1.233-2.495
		c0-1.065,0.438-1.915,1.318-2.551c1.363-0.991,3.251-1.485,5.66-1.485c2.337,0,4.089,0.462,5.257,1.388
		c1.168,0.924,1.93,2.443,2.284,4.555l8.298-0.365c-0.132-3.775-1.499-6.793-4.106-9.054c-2.605-2.261-6.488-3.392-11.646-3.392
		c-3.159,0-5.854,0.477-8.088,1.43c-2.232,0.953-3.943,2.34-5.129,4.163c-1.188,1.822-1.78,3.78-1.78,5.873
		c0,3.252,1.262,6.009,3.784,8.27c1.793,1.607,4.914,2.961,9.363,4.064c3.457,0.859,5.67,1.458,6.644,1.794
		c1.42,0.504,2.415,1.098,2.985,1.78c0.568,0.683,0.854,1.509,0.854,2.48c0,1.514-0.679,2.836-2.032,3.966
		c-1.355,1.132-3.369,1.696-6.042,1.696c-2.522,0-4.526-0.634-6.013-1.906c-1.485-1.271-2.473-3.262-2.958-5.971l-8.072,0.785
		c0.541,4.598,2.204,8.099,4.99,10.499c2.782,2.4,6.772,3.602,11.969,3.602c3.569,0,6.55-0.5,8.942-1.5
		c2.392-0.998,4.242-2.524,5.55-4.582c1.31-2.056,1.963-4.262,1.963-6.616c0-2.598-0.547-4.78-1.64-6.545
		C365.188,86.59,363.672,85.198,361.736,84.179z M408.532,106.77h8.687V65.673h-8.687V106.77z M447.379,93.116l-17.461-27.443
		h-8.381v41.097h8.002V79.969l17.2,26.799h8.643V65.673h-8.003V93.116L447.379,93.116z M395.631,81.848H379.04V65.673h-8.468v41.097
		h8.468V88.8h16.591v17.97h8.467V65.673h-8.467V81.848z M313.061,65.673l-15.125,41.097h8.318l3.204-9.335h15.522l3.392,9.335h8.528
		l-15.549-41.097H313.061z M311.869,90.509l5.244-15.25l5.352,15.25H311.869z M275.731,94.046l-8.889-28.373H253.65v41.595h8.565
		V78.744l9.032,28.521h8.876l9.063-28.521v28.521h8.565V65.673h-13.223L275.731,94.046z M479.104,89.833l0.176,0.144l5.384,5.385
		l4.451-0.5c-2.333,2.537-5.671,4.134-9.381,4.134c-7.042,0-12.773-5.732-12.773-12.775s5.731-12.774,12.773-12.774
		c4.522,0,8.494,2.37,10.766,5.926l7.496-2.569c-3.416-6.609-10.31-11.131-18.262-11.131c-11.349,0-20.549,9.2-20.549,20.548
		c0,11.349,9.2,20.548,20.549,20.548c5.643,0,10.753-2.273,14.465-5.957l-0.146,3.938l5.147,5.146l4.191-23.938L479.104,89.833z"/>
	<path fill="#FFFFFF" d="M312.666,132.492h7.034v4.431c-0.771,0.671-1.812,1.249-3.118,1.737c-1.309,0.486-2.589,0.73-3.837,0.73
		c-2.617,0-4.743-0.793-6.377-2.382c-1.636-1.587-2.451-3.972-2.451-7.155c0-2.09,0.381-3.86,1.146-5.313
		c0.765-1.452,1.774-2.521,3.029-3.208c1.256-0.688,2.754-1.032,4.494-1.032c1.195,0,2.271,0.189,3.229,0.567
		c0.957,0.38,1.727,0.9,2.313,1.566c0.584,0.666,1.068,1.67,1.455,3.012l2.85-0.779c-0.426-1.698-1.063-3.035-1.914-4.01
		c-0.85-0.975-1.933-1.727-3.246-2.258c-1.316-0.528-2.852-0.795-4.604-0.795c-2.379,0-4.438,0.459-6.179,1.373
		c-1.741,0.916-3.148,2.338-4.226,4.266c-1.075,1.927-1.614,4.189-1.614,6.787c0,2.568,0.535,4.767,1.604,6.597
		c1.069,1.829,2.521,3.222,4.354,4.175c1.832,0.952,3.918,1.43,6.258,1.43c1.752,0,3.459-0.313,5.121-0.934
		c0.578-0.218,1.147-0.484,1.713-0.775v1.455h3.098v-3.455c0.004-0.002,0.008-0.006,0.012-0.008v-8.848l-10.143,0.018V132.492
		L312.666,132.492z M236.674,134.585c-0.572,1.666-0.998,2.938-1.277,3.813l-1.137-3.521l-5.686-16.85h-4.764v23.798h3.049V121.58
		l6.944,20.245h2.848l6.986-19.902v19.902h3.048v-23.798h-4.266L236.674,134.585z M272.722,118.027l-8.635,23.798h3.125l2.434-7.208
		h9.42l2.604,7.208h3.39l-9.169-23.798H272.722z M270.512,132.053l2.49-6.979c0.528-1.504,0.937-3.02,1.227-4.545
		c0.334,1.267,0.862,2.91,1.583,4.934l2.327,6.592h-7.627V132.053z M347.891,118.027l-8.636,23.798h3.125l2.435-7.208h9.418
		l2.605,7.208h3.391l-9.17-23.798H347.891z M345.68,132.053l2.49-6.979c0.529-1.504,0.938-3.02,1.227-4.545
		c0.336,1.267,0.863,2.91,1.584,4.934l2.328,6.592h-7.629V132.053z M450.098,136.749l-11.771-18.722h-3.035v23.798h2.85V123.1
		l11.753,18.726h3.037v-23.798h-2.832L450.098,136.749L450.098,136.749z M476.234,139.018v-8.101h12.386v-2.81h-12.386v-7.271
		h13.224v-2.81h-16.186v23.798h16.706v-2.81h-13.744V139.018z M411.986,141.825h2.96v-23.798h-2.96V141.825z M381.184,137.346
		l12.553-16.509v-2.81H377.7v2.81h12.495c-0.756,0.822-1.53,1.763-2.324,2.824l-11.457,15.241v2.923h17.695v-2.81h-14.287
		L381.184,137.346z"/>
	<path fill="#FFFFFF" d="M144.384,102.521c-14.301-5.403-26.313-15.051-27.11-27.609c-0.509-8.011,1.509-15.01,6.721-20.902
		l-21.277,5.088c-4.275,1.022-6.913,5.316-5.89,9.592l17.701,74.024c1.022,4.275,5.316,6.912,9.592,5.89l9.11-2.179
		c-3.537-1.172-9.649-3.403-15.508-6.526l8.493-19.269c0,0,9.996,8.901,24.348,8.901
		C164.917,129.531,171.295,112.688,144.384,102.521z M204.035,121.311l-17.701-74.023c-1.022-4.276-5.316-6.913-9.592-5.89
		l-15.247,3.646c3.886,0.613,11.586,2.296,20.066,6.746l-6.639,18.399c0,0-5.525-6.172-20.341-6.922
		c-14.083-0.713-21.918,14.523,5.551,23.507c21.031,6.877,27.758,20.133,27.41,32.393c-0.182,6.375-2.412,11.561-4.997,15.467
		l15.601-3.729C202.421,129.881,205.058,125.586,204.035,121.311z"/>
</g>
</svg>
