<?xml version="1.0" encoding="utf-8"?>
<!-- Generator: Adobe Illustrator 16.0.0, SVG Export Plug-In . SVG Version: 6.00 Build 0)  -->
<!DOCTYPE svg PUBLIC "-//W3C//DTD SVG 1.1//EN" "http://www.w3.org/Graphics/SVG/1.1/DTD/svg11.dtd">
<svg version="1.1" id="Layer_1" xmlns="http://www.w3.org/2000/svg" xmlns:xlink="http://www.w3.org/1999/xlink" x="0px" y="0px"
	 width="400px" height="133px" viewBox="0 0 400 133" enable-background="new 0 0 400 133" xml:space="preserve">
<g id="Layer_1_1_">
	<rect y="-0.5" width="400" height="134"/>
</g>
<g id="Layer_2">
	<g>
		<path fill="#FFFFFF" d="M149.865,56.844c2.519,1.9,5.64,2.74,8.12,4.763c2.525,2.06,4.002,4.475,3.891,7.797
			c-0.067,1.986,0.005,3.979-0.019,5.968c-0.063,5.344-2.102,8.253-6.6,9.459c-4.972,1.334-9.873-0.364-12.375-4.278
			c-0.244-0.382-0.528-0.736-0.793-1.104c0-2.591,0-5.181,0-7.771c4.179-1.881,6.234-1.009,7.263,3.143
			c0.371,1.498,0.527,3.275,2.619,3.045c2.044-0.227,2.383-1.944,2.515-3.672c0.363-4.768-0.961-7.02-5.424-9.105
			c-1.483-0.693-3.1-1.213-3.518-3.109C145.576,57.178,146.27,56.354,149.865,56.844z"/>
		<path fill="#FFFFFF" d="M250.178,58.966c-0.013-2.511-0.076-5.022-0.021-7.532c0.044-2.001,0.017-3.879-1.431-5.552
			c-0.754-0.872-0.994-2.278-0.344-3.3c0.86-1.351,2.078-0.276,3.127-0.03c2.141,0.502,4.27,1.053,6.401,1.583
			c0,0.235,0,0.471,0,0.706c-0.847,1.108,0.067,2.518-0.626,3.651c-1.604,2.902-0.404,6.061-0.835,9.07
			c-1.413,3.488-1.396,3.46-4.479,1.446C251.508,58.707,250.777,59.695,250.178,58.966z"/>
		<path d="M165.38,117.518c0.005,0.258,0.01,0.516,0.015,0.772c-1.177,0-2.354,0-3.531,0c-0.141-0.157-0.204-0.341-0.187-0.552
			c0.225-0.702,1.195-0.692,1.372-1.447c0.387-0.71,0.876-1.221,1.781-0.932C165.463,115.966,165.734,116.662,165.38,117.518z"/>
		<path d="M257.285,48.493c0.042-1.246-0.549-2.6,0.626-3.651c0,1.177,0,2.354,0,3.531l-0.302,0.126L257.285,48.493z"/>
		<path fill="#FFFFFF" d="M228.96,82.986c-1.647,1.479-3.651,2.029-5.789,2.091c-2.479,0.071-5.5,0.604-3.369-3.714
			c0.476-0.961,0.364-2.412-0.935-3.066c-1.131-0.57-2.262-0.413-3.239,0.485c-0.498,0.459-1.03,0.877-2.331,1.97
			c-1.043-10.063-0.513-19.438-0.398-28.799c0.392-3.139,0.056-6.31,0.401-9.451c1.06-4.632,3.859-6.686,8.872-6.508
			c4.633,0.164,9.155,3.743,9.744,7.667c1.148,7.652,0.348,15.348,0.542,23.021c0.071,2.807,0.031,5.615,0.013,8.423
			c-0.019,2.369-0.306,4.664-2.172,6.416C229.195,81.409,229.489,82.574,228.96,82.986z"/>
		<path fill="#FFFFFF" d="M250.178,58.966c0.62-0.243,1.756-0.752,1.785-0.692c2.264,4.404,3.092,0.004,4.487-0.71
			c0.017,8.036,0.048,16.071,0.032,24.106c-0.004,1.201,0.425,2.93-1.476,2.993c-1.725,0.06-3.848,0.585-4.69-1.894
			c-1.721-5.068-3.444-10.14-5.276-15.17c-0.542-1.487-0.573-3.23-1.913-4.379c-0.747,0.546-0.766,1.323-0.674,2.135
			c0.699,2.542,0.623,5.141,0.6,7.743c-0.025,2.696-0.379,5.295,1.379,7.891c1.543,2.277,0.42,3.693-2.328,3.781
			c-1.407,0.043-2.815,0.016-4.225,0.012c-3.355-0.008-4.552-1.733-2.639-4.455c1.295-1.842,1.379-3.619,1.386-5.598
			c0.028-7.741,0.034-15.484,0.134-23.227c0.014-1.042-0.701-2.354,0.678-3.14c0.267,0.088,0.51,0.51,0.791,0.213
			c0.258-0.272,0.025-0.582-0.213-0.813c-1.994-0.235-1.164-2.263-2.045-3.313c-1.273-1.518-1.99-3.758-0.467-5.456
			c1.124-1.251,6.178,1.195,6.876,3.253c2.147,6.329,4.202,12.688,6.292,19.037c0.314,0.956,0.614,1.917,1.506,2.775
			C250.178,62.359,250.178,60.663,250.178,58.966z"/>
		<path fill="#FFFFFF" d="M208.348,57.572c0.492,6.328,0.357,12.669,0.116,18.993c-0.187,4.877-3.731,8.099-8.688,8.453
			c-5.823,0.42-9.267-1.924-10.521-7.037c-0.569-2.323-0.417-4.662-0.422-7c-0.019-7.264-0.007-14.526-0.007-21.753
			c1.118-0.626,1.653,0.985,2.637,0.507c0.303-0.889,0.401-1.771-0.085-2.635c-1.4-1.465-2.946-2.699-2.176-5.256
			c1.134-3.759,3.519-6.154,7.217-6.826c3.786-0.688,7.491-0.225,10.058,3.272c0.471,1.183-0.554,1.799-0.992,2.641
			c-1.035,1.498-2.289,2.512-4.264,1.896c-1.978-0.896-3.658-0.379-5.138,1.086c-1.869,0.258-0.494,1.107-0.305,1.743
			c0.549,2.963,0.513,5.92,0.053,8.877c-0.267,1.132-1.176,1.512-2.215,1.799c-0.396-0.093-0.021,0.25,0.068,0.206
			c1.061-0.525,1.624,0.139,2.057,1.017c0.803,4.642,0.168,9.322,0.414,13.977c0.115,2.148-0.308,5.337,2.477,5.398
			c3.08,0.066,2.245-3.199,2.384-5.263c0.248-3.719-0.326-7.469,0.365-11.171c0.118-0.322,0.299-0.617,0.521-0.876
			c1.207-1.147,2.738,1.535,3.893-0.329C206.387,58.325,206.93,57.291,208.348,57.572z"/>
		<path fill="#FFFFFF" d="M181.636,38.515c3.143,2.668,2.98,6.437,3.152,10c0.141,2.904-0.019,5.84-0.274,8.742
			c-0.475,5.378-3.18,8.13-8.533,8.354c-2.659,0.111-3.788,0.821-3.463,3.651c0.251,2.188-0.066,4.437-0.009,6.653
			c0.035,1.354-0.109,1.537-1.76,1.849c-4.741,0.891-4.834-1.35-4.706-4.975c0.232-6.588,0.06-13.194-0.085-19.79
			c-0.078-3.54,0.59-7.102-1.185-10.591c-0.858-1.687-1.134-4.017,2.45-4.177c3.103-0.139,6.186-1.113,9.347-1.238
			C178.46,36.828,179.414,39.783,181.636,38.515z"/>
		<path fill="#FFFFFF" d="M184.714,13.904c7.92,0.013,15.841,0.027,23.761,0.041c1.713,0.838,2.805,2.107,2.855,4.104
			c-0.107,1.262-0.449,2.392-1.723,2.978c-1.336,0.004-2.016-1.512-3.375-1.454c-0.459-0.078-0.901-0.203-1.33-0.377
			c-1.037-0.601-2.102-1.116-3.354-0.983c-0.973,0.067-2.027-0.066-2.526,1.099c-0.097,0.289-0.219,0.56-0.35,0.831
			c-0.705,1.002-0.604,2.484-1.863,3.15c-0.822,0.247-0.769,1.34-1.554,1.629c-2.706,0.684-4.575,0.184-4.436-3.144
			c0.022,1.03-0.104,2.074,0.252,3.078c0.341,1.152,1.348,1.088,2.247,1.251c0.942,0.17,1.966,0.44,1.749,1.669
			c-0.204,1.165-1.271,1.155-2.221,1.166c-0.908,0.01-1.846-0.338-2.716,0.202c-1.172,0.007-2.346,0.016-3.519,0.023
			c-0.513-0.923-0.813-1.92-1.042-2.945c0.483-1.452,0.66-2.889-0.202-4.282c0.096-4.576-3.292-2.603-5.463-2.904
			c-0.033,0.712-2.468-1.043-1.128,1.129c0.747,1.212,0.903,2.653,1.231,4.022c0.078,0.503,0.027,0.989-0.206,1.447
			c-0.229,0.257-0.512,0.397-0.859,0.404c-0.493-0.11-0.896-0.381-1.271-0.704c-0.836-1.291-3.788-1.65-1.86-4.174
			c-0.803-0.113-1.407-0.492-1.712-1.278c-0.258-1.125,0.537-2.296-0.152-3.403c0.107-1.979,1.697-1.504,2.853-1.696
			C179.422,14.346,182.143,14.796,184.714,13.904z"/>
		<path fill="#FFFFFF" d="M142.746,57.57c-0.008-2.603-0.017-5.206-0.025-7.809c1.722-5.735,5.729-8.665,11.553-9.102
			c3.814-0.286,6.503,2.161,6.824,5.969c0.127,1.512-0.146,3.069,0.085,4.556c0.4,2.584-1.248,2.952-3.087,3.113
			c-1.978,0.174-3.03-0.863-3.288-2.804c-0.202-1.521,0.472-3.543-1.83-4.013c-1.89-0.385-3.032,0.852-3.963,2.297
			c-0.289,0.48-1.146,0.957-0.012,1.449c0.46,1.846-0.434,3.899,0.862,5.617c-3.205,0.252-3.611,2.487-3.572,5.039
			C143.532,61.743,143.456,59.396,142.746,57.57z"/>
		<path fill="#FFFFFF" d="M185.168,106.302c-1.026,0.241-1.578-0.922-2.835-0.653c-4.26,0.908-4.962,0.08-4.239-4.312
			c2.643-0.798,2.117,1.69,2.913,2.81c1.794-0.407,2.216-1.916,2.64-3.375c0.658-2.265,1.629-4.383,2.966-6.311
			c2.389-3.447,6.05-4.034,9.282-1.523c1.15,0.893,0.42,1.858,0.015,2.803c-1.038,2.41-2.583,4.65-2.742,7.857
			c2.748-2.051,4.358-4.33,5.14-7.229c0.575-2.142,1.157-4.283,1.857-6.384c0.282-0.844,0.746-1.883,1.989-1.442
			c1.078,0.381,0.719,1.312,0.564,2.099s-0.353,1.567-0.513,2.354c-0.011,0.049,0.172,0.201,0.219,0.183
			c0.179-0.067,0.336-0.185,0.502-0.282c1.009-0.063,1.117,0.688,1.272,1.399c-0.795,3.229-2.715,5.91-4.301,8.756
			c-0.979,0.586-2.091,0.886-3.092,1.433c-0.309,0.109-0.626,0.141-0.95,0.086c-2.474,2.468-4.206,1.125-5.763-1.119
			c-1.354,0.102-1.242-0.932-1.381-1.771c0.068-1.912,1.705-3.242,2.026-5.586c-2.3,2.625-3.464,5.292-4.049,8.254
			C186.542,105.273,185.889,105.814,185.168,106.302z"/>
		<path fill="#FFFFFF" d="M165.38,117.518c-0.254-0.713-0.509-1.428-0.763-2.141c-0.521-0.854,0.195-1.757-0.135-2.816
			c-1.402,1.225-2.157,2.472-1.288,4.246c0.06,0.697,0.06,0.697-1.518,0.933c-2.167-2.419-1.745-4.722,0.996-7.318
			c1.686-1.599,4.591-2.101,4.941-5.53c-3.412,1.791-6.43,2.164-7.867-2.033c-0.445-1.301-0.623-2.733-0.677-4.116
			c-0.069-1.74-0.069-3.519,0.733-5.154c0.734-0.563,0.887-1.665,1.701-2.073c1.675-0.839,2.36-0.283,1.856,1.568
			c-0.12,2.335-0.341,4.671-0.319,7.005c0.012,1.263,0.259,2.782,1.682,3.21c1.603,0.48,2.165-1.066,2.824-2.099
			c0.688-1.079,1.152-2.3,1.784-3.417c0.448-0.795,1.159-1.145,2.072-0.758c0.9,0.381,1.32,1.209,0.939,1.992
			c-0.675,1.391-0.598,2.853-0.859,4.301c1.189,0.172,1.387-1.246,2.351-1.353c0.526,0.091,0.858,0.408,1.054,0.89
			c-2.566,2.39-4.529,5.09-5.257,8.654C169.113,114.043,167.899,116.296,165.38,117.518z"/>
		<path fill="#FFFFFF" d="M210.588,17.987c0.127-1.782-1.695-2.545-2.113-4.042c1.803-0.014,3.604-0.028,5.406-0.042
			c2.893,1.001,5.922,0.453,8.877,0.774c2.369,0.258,4.035,0.811,2.906,3.733c-0.193,0.504-0.055,1.138-0.07,1.711
			c0.776,0.97,0.766,2.164,0.955,3.301c0.018,0.322-0.021,0.641-0.105,0.951c-0.93,1.231-0.756,2.58-0.401,3.95
			c0.028,0.68-0.051,1.32-0.647,1.768c-1.855-0.085-3.713-0.171-5.567-0.256c-0.601-0.519-1.241-0.943-2.082-0.924
			c-2.246-0.758-1.531-2.702-1.728-4.284c0.008-0.645,0.09-1.283,0.221-1.911c0.312-1.029,0.188-2.012-0.338-2.948
			C214.594,17.783,212.195,19.057,210.588,17.987z"/>
		<path fill="#FFFFFF" d="M216.967,24.413c0.776,1.042-1.798,3.454,1.43,3.492c0.473,0.342,1.059,0.877,0.565,1.342
			c-0.813,0.769-1.897,0.43-2.886,0.169c-2.521-0.078-5.043-0.156-7.565-0.234c-2.807-0.713-5.725,0.206-8.527-0.577
			c-3.257,0.656-6.551,0.654-9.852,0.538c0.641-1.383,1.729-0.599,2.685-0.591c0.78,0.007,1.839,0.01,1.755-1.099
			c-0.075-0.966-1.1-0.608-1.688-0.583c-1.15,0.049-2.343,0.404-2.725-1.207c1.671-1.228,3.643-0.213,5.406-0.729
			c1.01-0.336,0.477-1.377,0.9-1.982c1.194-0.882,0.287-3.042,2.141-3.524c0.727,0.557,0.764,1.4,0.931,2.199
			c0.574,2.758,2.072,3.826,4.801,2.579c2.573-1.131,0.906-3.857,2.073-5.512c1.61-0.221,2.235,0.862,2.754,2.083
			c0.17,0.153,0.356,0.297,0.479,0.486C212.363,25.497,212.363,25.498,216.967,24.413z"/>
		<path fill="#FFFFFF" d="M225.393,30.092c0.021-0.663,0.041-1.327,0.063-1.991c-0.342-1.364-0.146-2.63,0.688-3.781
			c-0.006-0.218-0.01-0.437-0.01-0.655c-0.436-1.184-0.736-2.361,0.151-3.488c0.515-0.964,1.11-1.643,2.414-1.408
			c2.271,0.41,4.571,0.672,7.606,1.104c-4.339,4.125-5.156,8.544-2.369,13.381c-2.938,0.785-5.268-0.434-7.688-0.603
			C224.613,32.538,225.555,31.007,225.393,30.092z"/>
		<path fill="#FFFFFF" d="M208.348,57.572c-0.856,0.519-1.563,1.18-1.992,2.104c-0.899,0.476-1.604,0.045-2.287-0.487
			c-0.201-0.253-0.354-0.537-0.461-0.843c-0.401-1.332,0.306-2.724-0.213-4.057c0.143-0.449,0.353-0.839,0.844-0.986
			c-0.318-0.294-0.529,0.113-0.809,0.129c-1.143,0.067-1.672-0.631-2.043-1.566c-0.289-3.268-0.891-6.528-0.109-9.802
			c1.748,0.851,2.639-0.443,3.64-1.457c3.382,0.332,1.071,2.351,1.09,3.68c0.472-1.114,1.052-1.924,2.318-0.84
			C208.782,48.154,208.645,52.863,208.348,57.572z"/>
		<path fill="#FFFFFF" d="M233.848,104.752c3.633-3.708,5.435-8.346,6.723-13.242c0.318-1.209,0.337-2.787,2.32-2.123
			c2.133,0.717,0.867,1.813,0.348,2.936c-1.238,2.671-1.07,5.459-0.446,8.256c0.306,1.369,0.785,2.736,0.831,4.117
			c0.098,2.965-1.954,4.271-4.262,2.515c-1.831-1.394-3.491-1.44-5.444-0.914C232.84,106.029,232.84,106.029,233.848,104.752z"/>
		<path fill="#FFFFFF" d="M213.436,101.992c-1.768,0.596-1.889,2.56-3.045,3.681c-0.777,0.752-1.441,1.646-2.654,1.265
			c-1.481-0.467-0.928-1.652-0.758-2.638c0.78-4.517,2.647-8.661,4.408-12.843c0.965-0.489,1.93-0.98,2.064,0.766
			c-0.612,1.752-1.262,3.493-1.831,5.26c-0.901,2.802,0.903,1.055,1.702,0.99c0.673-0.27,0.99,0.139,1.251,0.655
			C214.837,100.339,214.494,101.309,213.436,101.992z"/>
		<path fill="#FFFFFF" d="M185.328,110.62c1.246,0,2.887-0.011,4.526,0.004c0.813,0.006,1.819-0.08,1.865,1.05
			c0.043,1.09-0.973,1.235-1.769,1.299c-4.785,0.383-9.575,0.713-14.363,1.063c-0.817,0.062-1.635,0.124-2.45,0.209
			c-0.775,0.079-1.875,1.269-2.129-0.458c-0.164-1.11,0.72-1.653,1.733-1.833C176.778,111.239,180.789,110.296,185.328,110.62z"/>
		<path fill="#FFFFFF" d="M224.016,113.376c-4.688-0.048-9.377-0.097-14.066-0.144c-2.59-1.123-5.309,0.194-7.924-0.42
			c-1.933-1.185-1.301-2.267,0.455-2.263c6.408,0.017,12.844-0.442,19.222,0.61C223.693,110.622,224.336,111.496,224.016,113.376z"
			/>
		<path fill="#FFFFFF" d="M167.533,19.484c1.882-0.261,3.764-0.523,5.646-0.784c1.371,1.976,1.941,4.121,1.389,6.507
			c-0.224,0.693-0.667,1.236-1.204,1.707c-0.958,0.835-2.13,1.474-2.611,2.775c-1.698,0.556-2.52-0.421-3.127-1.776
			c1.271-2.612-0.35-5.179-0.12-7.775c-0.243-0.155-0.319-0.304-0.231-0.446C167.361,19.553,167.447,19.484,167.533,19.484z"/>
		<path fill="#FFFFFF" d="M227.497,99.15c0.139-2.465,1.489-4.399,2.797-6.346c1.155-1.723,2.702-2.632,4.801-1.873
			c2.286,0.823,2.966,2.475,2.197,4.754c-1.883,1.365-2.47-0.519-3.462-1.383c-3.045,1.352-2.792,4.69-4.227,7.014
			C228.169,101.309,227.324,100.725,227.497,99.15z"/>
		<path fill="#FFFFFF" d="M176.572,94.736c-0.152-0.656-0.264-1.325-0.466-1.967c-0.467-1.48,0.56-2.724,1.529-2.537
			c2.209,0.422,4,2.316,6.582,1.947c0.41-0.059,0.136,1.109-0.253,1.747c-0.898,1.476-1.67,3.028-2.492,4.55
			c-2.198,0.449-2.3-1.016-2.327-2.549c-0.353,0.153-0.705,0.307-1.058,0.458C176.842,96.518,176.35,95.955,176.572,94.736z"/>
		<path fill="#FFFFFF" d="M226.844,111.264c6.428-0.031,12.774,0.676,19.074,2.215c-5.896,0.469-11.773,0.979-17.664-0.026
			C227.717,112.766,226.434,112.561,226.844,111.264z"/>
		<path fill="#FFFFFF" d="M213.436,101.992c0.229-0.924,0.463-1.846,0.693-2.768c0.887-1.322,1.77-2.656,3.367-0.738
			c-0.43,1.785-1.871,3.365-1.186,5.475c1.848-0.527,2.078-2.467,3.35-3.379c1.535-0.643,1.759,1.163,2.773,1.488
			c0.105,0.678,0.213,1.354,0.318,2.029c-1.02,0.768-2.072,0.596-3.139,0.125c-0.432,0.371-0.871,0.733-1.293,1.116
			c-1.125,1.021-2.487,1.372-3.793,0.687C212.871,105.154,213.538,103.417,213.436,101.992z"/>
		<path fill="#FFFFFF" d="M171.086,88.624c-0.392-1.75-0.05-3.466,0.179-5.199c0.102-0.767,0.363-1.817-0.418-2.251
			c-1.048-0.581-1.684,0.482-2.281,1.117c-0.869,0.923-1.604,1.973-2.396,2.969c-0.273-0.191-0.46-0.445-0.576-0.757
			c-0.061-1.26-0.14-2.524,0.479-3.698c1.695-1.724,3.763-2.088,5.752-0.908c2.539,1.504,2.368,4.084,1.946,6.609
			c-0.468,0.454-0.605,1.112-0.984,1.623C172.303,88.581,171.806,88.989,171.086,88.624z"/>
		<path fill="#FFFFFF" d="M166.106,84.457c0.021,0.268,0.042,0.535,0.063,0.803c-2.03,2.213-1.175,5.463-2.81,7.82
			c-0.362-1.684-1.123-1.984-1.985-0.391c-0.413,0.765-0.544,1.451-1.572,0.896c0.49-3.187,1.35-6.258,2.983-9.058
			c0.41-0.703,0.605-1.875,1.922-1.457C165.354,83.352,165.634,84.001,166.106,84.457z"/>
		<path fill="#FFFFFF" d="M213.451,92.223c-0.475-0.83-1.284-0.76-2.064-0.766c1.289-3.251,2.547-6.516,3.883-9.747
			c0.481-1.164,1.418-2.146,2.717-1.418c1.246,0.697-0.047,1.713-0.309,2.374C216.4,85.902,214.884,89.047,213.451,92.223z"/>
		<path fill="#FFFFFF" d="M178.137,25.035c0.226,0.247,0.451,0.494,0.677,0.741c0.86,0.691,1.816,0.312,2.74,0.236
			c0.84-0.104,1.691,0.196,2.535-0.067c0.602-0.069,1.173-0.033,1.61,0.461c1.395,0.559,1.786,1.45,0.914,2.76
			c-3.253,0.948-6.631,0.323-9.92,0.798c-1.392-0.687-0.668-1.777-0.535-2.759c0.045-0.299,0.133-0.587,0.248-0.867
			c0.299-0.545,0.715-0.97,1.283-1.235C177.838,25.079,177.987,25.057,178.137,25.035z"/>
		<path fill="#FFFFFF" d="M203.559,94.348c-0.211-0.484-0.42-0.97-0.632-1.455c1.869-2.99,3.169-0.943,4.116,0.664
			c0.568,0.963,0.43,2.348,0.607,3.543c-0.793,0.666-0.188,1.605-0.469,2.373c0.166,1.021-0.084,1.894-0.932,2.545
			c-1.229,0.356-2.021-0.144-2.504-1.266c-0.255-1.044,0.138-1.979,0.497-2.918c0.351-0.836,0.586-1.682,0.185-2.573
			C204.18,94.918,203.877,94.625,203.559,94.348z"/>
		<path fill="#FFFFFF" d="M167.625,27.913c1.052,0.745,2.032,1.676,3.496,1.363c0.581-0.099,0.889,0.128,0.883,0.735
			c1.256,1.703,1.669,2.988-1.243,3.126c-1.357,0.064-2.687,0.705-4.205,0.162C166.917,31.487,167.271,29.7,167.625,27.913z"/>
		<path fill="#FFFFFF" d="M217.496,98.486c-1.359-0.84-2.27,0.382-3.367,0.738c-0.27-0.25-0.538-0.502-0.807-0.752
			c0.152-2.152,1.744-3.441,3.005-4.906c0.696-0.812,1.601-1.471,2.709-0.654c1.065,0.783,0.334,1.688-0.004,2.486
			C218.586,96.456,218.014,97.46,217.496,98.486z"/>
		<path fill="#FFFFFF" d="M197.243,110.657c-0.182,1.733-0.524,3.473-0.48,5.2c0.026,0.986,0.055,1.617-1.057,1.688
			c-1.029,0.064-1.529-0.579-1.556-1.5c-0.068-2.363,0.357-4.664,1.068-6.913C196.821,108.41,197.729,108.607,197.243,110.657z"/>
		<path fill="#FFFFFF" d="M196.446,104.061c0.618-1.142,1.65-1.39,2.832-1.313c1.094,0.479,2.333,0.303,3.434,0.771
			c0.851,0.445,1.582,0.942,0.81,2.033c-1.444,1.975-3.442-0.078-5.054,0.693C196.805,106.434,196.59,105.279,196.446,104.061z"/>
		<path fill="#FFFFFF" d="M222.434,102.07c-1.66,0.875-1.557-1.536-2.772-1.488c0.424-1.421,0.848-2.842,1.271-4.262
			c0.764-0.397,1.232-1.391,2.313-1.148c0.368,0.077,0.666,0.268,0.896,0.564C224.169,98.009,222.064,99.707,222.434,102.07z"/>
		<path fill="#FFFFFF" d="M179.146,95.93c0.505,1.098,1.018,2.187,2.327,2.549c-0.39,1.869-1.241,3.701-0.466,5.668
			c-1.007-0.899-1.306-2.535-2.913-2.81C177.867,99.422,179.021,97.775,179.146,95.93z"/>
		<path fill="#FFFFFF" d="M176.572,94.736c0.302,0.736,0.754,1.336,1.516,1.649c-0.926,2.226-1.645,4.554-3.2,6.466
			c-0.351-0.297-0.703-0.593-1.054-0.89C174.042,99.287,175.978,97.266,176.572,94.736z"/>
		<path fill="#FFFFFF" d="M219.613,104.227c1.044-0.127,2.07-0.65,3.14-0.125c1.164-0.353,1.974-1.205,2.822-2.002
			c1.071-0.228,1.454,0.416,1.647,1.301c-0.035,0.332-0.175,0.615-0.416,0.847C224.404,105.846,222.001,107.891,219.613,104.227z"/>
		<path fill="#FFFFFF" d="M226.852,103.432c-0.426-0.443-0.851-0.888-1.275-1.332c0.641-0.981,1.281-1.966,1.922-2.947
			c0.702,0.722,1.404,1.443,2.105,2.164c-0.017,1.189-0.033,2.379-0.049,3.568C227.846,105.902,227.559,104.277,226.852,103.432z"/>
		<path fill="#FFFFFF" d="M171.086,88.624c0.454-0.233,0.909-0.467,1.363-0.701c1.416,0.964-0.264,2.478,0.629,3.534
			c-0.461,2.318-2.351,1.969-3.259,1.042C168.271,90.92,169.976,89.721,171.086,88.624z"/>
		<path fill="#FFFFFF" d="M226.936,89.256c-0.09,1.223-0.859,1.983-2.147,2.171c-1.026,0.148-1.983-0.206-1.949-1.372
			c0.042-1.396,1.272-1.824,2.406-2.086C226.107,87.771,226.875,88.001,226.936,89.256z"/>
		<path d="M208.324,43.446c-1.241-0.299-1.78,0.636-2.401,1.476c-0.888-1.379,1.495-3.413-1.007-4.315
			c-0.025-1.14,1.159-1.464,1.561-2.317C207.979,39.69,208.577,41.416,208.324,43.446z"/>
		<path fill="#FFFFFF" d="M233.83,94.305c1.365-0.07,1.952,1.812,3.462,1.381c-0.126,0.43-0.19,0.889-0.39,1.28
			c-0.51,1.009-1.036,2.38-2.393,1.957c-1.383-0.433-1.016-1.787-0.761-2.932C233.871,95.449,233.811,94.867,233.83,94.305z"/>
		<path fill="#FFFFFF" d="M196.446,104.061c0.674,0.729,1.348,1.459,2.021,2.187c-0.408,1.471-0.816,2.94-1.225,4.411
			c-0.109-1.258-0.874-1.646-2.024-1.524c0.213-1.521,0.424-3.042,0.637-4.565C196.053,104.396,196.25,104.229,196.446,104.061z"/>
		<path d="M173.922,25.772c-0.248-2.357-0.496-4.715-0.744-7.072c0.815-0.547,0.535-1.474,0.771-2.222
			c0.875,1.087,0.472,2.473,0.859,3.675c0.186,1.457,0.578,2.858,1.16,4.208c0.103,1.008-0.038,1.902-1.101,2.366
			C174.245,26.715,173.75,26.574,173.922,25.772z"/>
		<path fill="#FFFFFF" d="M189.425,101.396c0.026,0.748-0.136,1.557,0.669,2.051c-1.033,2.003-2.376,3.471-4.926,2.854
			c0.245-0.732,0.49-1.466,0.735-2.199C187.111,103.246,187.383,101.17,189.425,101.396z"/>
		<path fill="#FFFFFF" d="M203.521,105.553c-0.037-0.951-0.58-1.371-1.48-1.422c-0.002-1.627,0.166-3.148,2.188-3.52
			c0.674,0.469,1.35,0.938,2.022,1.406C205.764,103.521,205.168,104.943,203.521,105.553z"/>
		<path d="M181.636,38.515c-2.82,3.262-3.567-0.383-5.066-1.521C178.826,35.609,180.089,37.537,181.636,38.515z"/>
		<path d="M213.3,42.502c1.29,1.624-0.12,3.316,0.123,4.978c0.195,1.331,0.017,2.635,0.562,4.014
			c0.72,1.818-0.646,0.411-1.086,0.459C212.923,48.798,212.391,45.62,213.3,42.502z"/>
		<path d="M199.983,28.605c2.742-0.788,5.699,0.861,8.437-0.791c0.405-0.245,0.255,0.86,0.092,1.368
			C205.671,28.955,202.752,29.897,199.983,28.605z"/>
		<path fill="#FFFFFF" d="M173.922,25.772c0.234,0.271,0.468,0.544,0.703,0.815c0.697,0.203,1.063,0.684,1.164,1.387
			c-0.037,0.485-0.115,0.957-0.502,1.309c-0.778,0.312-1.52,1.319-2.378,0.126c-0.814-0.778-0.475-1.833-0.663-2.762
			C172.805,26.356,173.363,26.064,173.922,25.772z"/>
		<path fill="#FFFFFF" d="M233.848,104.752c0.004,0.516-0.685,1.063,0.068,1.543c-1.884,1.203-3.764,1.362-5.639-0.021
			c0.302-0.625,0.908-0.719,1.488-0.86C231.256,105.988,232.514,105.131,233.848,104.752z"/>
		<path fill="#FFFFFF" d="M226.844,111.264c0.506,0.705,1.532,1.077,1.41,2.188c-1.189,0.97-2.386,0.005-3.578,0.014
			c-0.32-0.979-1.099-2.122,0.83-2.279C225.951,111.211,226.396,111.236,226.844,111.264z"/>
		<path d="M173.078,91.457c-1.995-0.861,0.08-2.443-0.629-3.534c0.034-0.853,0.437-1.358,1.322-1.417
			C174.192,88.247,173.336,89.811,173.078,91.457z"/>
		<path fill="#FFFFFF" d="M224.141,95.736c-0.276-0.016-0.556-0.031-0.834-0.047c-0.302-0.664-1.972,0.022-1.44-1.461
			c0.329-1.256,1.418-1.826,2.327-1.295C225.329,93.602,225.208,94.813,224.141,95.736z"/>
		<path d="M172.246,26.648c0.872,0.764,0.97,1.715,0.663,2.762c-0.301,0.2-0.603,0.4-0.904,0.6c-0.294-0.245-0.589-0.49-0.883-0.735
			C169.468,27.532,172.239,27.681,172.246,26.648z"/>
		<path d="M149.003,51.227c-0.798,0.216-1.157,1.549-2.453,0.848c0.27-1.375,1.097-2.102,2.465-2.297
			C149.012,50.261,149.007,50.744,149.003,51.227z"/>
		<path fill="#FFFFFF" d="M229.768,105.412c-0.278,0.662-0.854,0.813-1.488,0.859c-0.965-0.33-1.521-0.959-1.473-2.025
			c0.016-0.271,0.029-0.543,0.045-0.814c0.931,0.432,1.534,1.467,2.703,1.453C229.688,105.035,229.76,105.211,229.768,105.412z"/>
		<path d="M166.106,84.457c-0.81-0.115-1.461-0.391-1.398-1.387c-0.107-1.094,0.385-1.827,1.364-2.268
			C166.413,82.018,166.458,83.236,166.106,84.457z"/>
		<path d="M225.506,111.186c-0.887,0.537-0.768,1.441-0.83,2.279c-0.22-0.029-0.439-0.061-0.66-0.089
			c-0.494-1.024-0.881-2.167-2.313-2.215C222.973,110.646,224.241,110.572,225.506,111.186z"/>
		<path d="M216.076,29.416c0.604-0.763,2.912,1.09,2.318-1.511c1.336,0.009,1.379,0.973,1.431,1.932
			C218.548,29.938,217.262,30.14,216.076,29.416z"/>
		<path d="M175.287,29.284c0.008-0.485,0.016-0.97,0.023-1.455c0.368-0.427,0.807-0.698,1.398-0.619
			c1.552,0.928-1.364,1.829-0.016,2.755C176.051,30.097,175.613,29.804,175.287,29.284z"/>
		<path fill="#FFFFFF" d="M242.453,65.354c-1.232-1.172-0.893-1.847,0.674-2.135C243.02,63.968,243.42,64.877,242.453,65.354z"/>
		<path d="M226.285,20.178c-0.051,1.163-0.102,2.325-0.151,3.488c-1.629-0.96-0.362-2.361-0.54-3.543
			C225.825,20.133,226.057,20.151,226.285,20.178z"/>
		<path d="M221.865,94.229c0.48,0.487,0.962,0.975,1.441,1.463c-0.791,0.209-1.584,0.418-2.375,0.629
			C221.243,95.623,221.555,94.926,221.865,94.229z"/>
		<path d="M228.96,82.986c0.138-0.721-0.343-1.555,0.332-2.137c0.081-0.07,0.659,0.435,1.007,0.672
			C229.854,82.011,229.406,82.499,228.96,82.986z"/>
		<path d="M207.184,99.473c-0.238-0.867-1.523-1.943,0.467-2.373C207.764,97.941,207.713,98.755,207.184,99.473z"/>
		<path d="M163.194,116.807c-2.746-0.063-1.569-1.904-1.063-2.899c0.727-1.429,1.992-2.546,3.748-3.355
			c0.587,1.972-0.7,3.316-1.263,4.826C164.143,115.854,163.668,116.33,163.194,116.807z"/>
		<path d="M226.198,63.927c-0.062,3.283-0.048,6.57-0.204,9.851c-0.114,2.393-0.34,5.021-3.639,4.949
			c-3.131-0.065-3.196-2.502-3.179-4.842c0.071-9.027,0.103-18.055,0.228-27.082c0.027-1.896-0.348-4.279,2.806-4.195
			c2.899,0.077,3.79,1.842,3.813,4.418c0.054,5.389,0.143,10.778,0.217,16.167c0.188,0.174,0.244,0.341,0.17,0.5
			C226.336,63.849,226.266,63.927,226.198,63.927z"/>
		<path fill="#FFFFFF" d="M226.198,63.927c0.014-0.244,0.026-0.489,0.042-0.733c1.281-0.021,2.176,1.717,3.714,0.537
			C228.275,65.754,228.275,65.754,226.198,63.927z"/>
		<path d="M217.572,58.292c-0.645,1.113-1.248,1.5-2.123,1.128c-0.143-0.06-0.313-0.444-0.254-0.527
			C215.758,58.094,216.518,57.915,217.572,58.292z"/>
		<path d="M228.32,51.134c-0.407-0.917-0.783-1.628-0.155-2.534C229.209,49.351,229.111,50.105,228.32,51.134z"/>
		<path d="M215.702,73.398c-0.479-1.32-1.069-2.225-0.296-2.681c0.67-0.395,0.796,0.519,0.785,1.067
			C216.188,72.098,216.016,72.408,215.702,73.398z"/>
		<path d="M215.323,55.642c-0.15,0.181-0.308,0.555-0.558,0.634c-0.59,0.188-0.757-0.354-0.816-0.756
			c-0.031-0.203,0.246-0.618,0.441-0.658C214.854,54.767,215.27,54.948,215.323,55.642z"/>
		<path d="M214.475,61.571c-0.197-0.212-0.567-0.475-0.744-0.833c-0.186-0.378,0.1-0.679,0.496-0.52
			c0.379,0.152,0.806,0.417,0.991,0.752C215.412,61.321,215.057,61.541,214.475,61.571z"/>
		<path d="M215.968,42.307c0.046,0.512-0.11,0.857-0.495,0.762c-0.226-0.056-0.423-0.444-0.515-0.721
			c-0.043-0.132,0.188-0.355,0.296-0.538C215.516,41.992,215.777,42.174,215.968,42.307z"/>
		<path fill="#6E6159" d="M215.208,76.021c-0.461-0.569-0.929-1.498-0.384-1.756c0.688-0.328,0.639,0.633,0.658,1.149
			C215.491,75.6,215.318,75.79,215.208,76.021z"/>
		<path fill="#FFFFFF" d="M250.639,71.139c0.049-0.859-0.723-1.938,0.484-2.563c0.12-0.063,0.484,0.092,0.554,0.234
			C252.18,69.84,251.425,70.462,250.639,71.139z"/>
		<path d="M239.203,60.275c1.092,0.945,2.271,1.44,1.84,2.157c-0.591,0.984-1.105-0.031-1.436-0.596
			C239.448,61.562,239.436,61.202,239.203,60.275z"/>
		<path d="M201.277,42.063c1.687,3.392,0.289,7.067,0.967,10.552c0.277,0.63,0.559,1.259,0.609,1.958
			c0.176,0.822,0.156,1.641-0.035,2.456c-0.2,0.887-0.524,1.745-0.662,2.651c-0.049,4.927-0.073,9.854-0.152,14.78
			c-0.035,2.159-0.628,4.176-3.201,4.228c-2.732,0.056-3.467-2.019-3.57-4.307c-0.263-5.839,0.431-11.692-0.258-17.525
			c-0.333-0.523-0.346-1.002,0.195-1.404c0.521-3.537-0.07-7.066-0.057-10.6c0.066-0.503,0.31-0.946,0.485-1.411
			C196.94,40.712,199.015,41.001,201.277,42.063z"/>
		<path d="M204.02,58.923c0.778,0.251,1.558,0.501,2.336,0.752c-1.127,3.435-2.357,0.231-3.541,0.055
			C202.977,59.105,203.363,58.813,204.02,58.923z"/>
		<path d="M195.17,55.453c-0.065,0.468-0.13,0.936-0.195,1.404c-1.199-0.104-2.608,0.328-3.456-1.791
			C192.902,55.838,194.039,55.714,195.17,55.453z"/>
		<path d="M193.843,77.587c0.051,0.636-0.322,0.905-0.784,0.95c-0.67,0.064-1.146-0.327-1.087-0.992
			c0.035-0.378,0.43-0.725,0.662-1.086C193.048,76.846,193.463,77.232,193.843,77.587z"/>
		<path fill="#FFFFFF" d="M204.516,68.896c0.535-1.406,1.193-2.008,2.387-2.557C206.73,67.727,205.982,68.279,204.516,68.896z"/>
		<path d="M206.939,64.605c-0.166,0.105-0.41,0.261-0.655,0.416c-0.242-0.478-0.493-0.953-0.705-1.444
			c-0.015-0.03,0.298-0.293,0.446-0.283C206.723,63.346,207.02,63.768,206.939,64.605z"/>
		<path d="M207.671,76.266c-0.053,0.368-0.241,0.724-0.624,0.49c-0.354-0.217-0.58-0.646-0.863-0.98
			c0.236-0.157,0.479-0.457,0.703-0.442C207.396,75.361,207.643,75.754,207.671,76.266z"/>
		<path d="M195.599,43.442c-0.161,0.47-0.324,0.941-0.485,1.411c-0.517-0.046-1.032-0.092-1.963-0.175
			C194.235,44.13,194.917,43.786,195.599,43.442z"/>
		<path d="M173.211,43.486c4.419-0.268,4.972,0.212,5.022,4.441c0.025,2.102,0.061,4.205,0.002,6.305
			c-0.135,4.827-0.679,5.322-5.591,5.338c-0.296-0.038-0.435-0.143-0.418-0.317c0.021-0.208,0.068-0.312,0.145-0.312
			c-0.012-4.446-0.024-8.892-0.036-13.338C171.869,44.585,172.293,43.933,173.211,43.486z"/>
		<path d="M172.371,58.942c0.153,0.183,0.244,0.393,0.273,0.629c-1.067,0.639-2.135,1.278-3.444,2.063
			c-0.132-1.487-0.309-2.688,0.91-3.579C171.329,57.165,171.695,58.449,172.371,58.942z"/>
		<path d="M179.926,44.229c0.669,0.093,0.611,0.543,0.446,0.988c-0.144,0.388-0.361,0.749-0.546,1.122
			c-0.163-0.406-0.35-0.804-0.482-1.219C179.183,44.612,179.33,44.263,179.926,44.229z"/>
		<path d="M183.805,26.568c-0.702,0.959-1.483-0.642-2.193,0.067c-0.968,0.38-1.619,0.015-2.049-0.872
			c-0.03-0.47-0.062-0.94-0.092-1.41c-0.262-2.119-1.216-4.243,0.046-6.35c0.94-0.008,1.882-0.007,2.822-0.024
			c3.866-0.073,4.301,0.437,3.566,4.205c0.263,0.59-0.078,0.928-0.507,1.229c-0.815,0.44-1.778,0.353-2.6,0.716
			C182.21,25.328,184.573,25.314,183.805,26.568z"/>
		<path d="M216.967,24.413c-1.137,1.295-2.238,2.558-4.293,1.798c-2.57-0.949-3.402-2.935-3.51-5.433
			c0.854-0.737,1.219-1.723,1.424-2.791c2.283-0.261,4.76-1.398,6.355,1.416c-0.748,0.877-1.863,0.763-2.825,1.076
			c-1.435,0.465-1.418,0.515-1.109,2.708c2.173-2.835,2.218-2.845,4.117-0.968C217.073,22.951,217.02,23.682,216.967,24.413z"/>
		<path d="M204.93,25.001c-4.609,1.774-6.672-0.043-6.324-5.573l0.058,0.046c0.396-1.423,1.669-1.692,2.813-2.134
			c1.301,0.059,2.813-0.472,3.514,1.259c0.168,0.179,0.236,0.367,0.205,0.564c-0.032,0.203-0.072,0.304-0.121,0.306
			c-1.311,0.806-3.896-0.524-3.95,2.361c0.519,1.562,2.058,1.494,3.228,2.017C204.781,24.114,205.109,24.43,204.93,25.001z"/>
		<path d="M196.608,25.049c-2.021,1.561-4.263,0.804-6.45,0.614c0.044-2.701-0.622-5.438,0.284-8.34
			c1.574,0.81,1.138,2.115,1.046,3.08c-0.311,3.292,0.85,4.756,4.252,3.84C196.394,24.12,196.678,24.394,196.608,25.049z"/>
		<path d="M183.805,26.568c-0.63-1.255-4.595-0.528-2.146-3.612c1.217,1.354,2.421,1.526,3.604-0.04
			c0.214-0.244,0.428-0.488,0.643-0.732c2.577,1.537,1.057,2.874-0.206,4.222C185.067,26.46,184.436,26.514,183.805,26.568z"/>
		<path d="M204.93,25.001c-0.305-0.25-0.607-0.499-0.912-0.749c-0.131-0.63,0.144-1.171,0.367-1.723
			c0.512-0.935,0.022-2.045,0.514-2.982c0.031-0.315,0.06-0.631,0.09-0.947c0.475,0.031,0.949,0.063,1.423,0.094
			C207.367,21.137,207.743,23.443,204.93,25.001z"/>
		<path d="M179.517,18.004c-0.655,2.112,0.194,4.234-0.046,6.35c-1.011-0.958-0.541-2.466-1.291-3.509
			C176.904,19.07,177.901,18.4,179.517,18.004z"/>
		<path fill="#FFFFFF" d="M175.478,24.371c-0.583-1.349-0.813-2.754-0.669-4.218c1.335,1.473,1.685,3.619,3.328,4.882l-0.055,0.045
			c-0.532,0.297-1.072,0.214-1.616,0.036C176.059,24.971,175.743,24.704,175.478,24.371z"/>
		<path d="M201.475,17.341c-0.938,0.711-1.875,1.422-2.812,2.134C198.058,16.732,200.207,17.617,201.475,17.341z"/>
		<path d="M196.608,25.049c-0.288-0.269-0.578-0.537-0.868-0.806c-0.142-0.479-0.284-0.958-0.426-1.438
			c0.383,0.049,0.767,0.098,1.15,0.147C196.668,23.641,197.512,24.285,196.608,25.049z"/>
		<path d="M179.563,25.764c0.521,0.672,1.252,0.85,2.049,0.872c-1.355,1.09-2.132,0.293-2.798-0.86
			C179.063,25.771,179.313,25.768,179.563,25.764z"/>
		<path d="M204.229,100.611c-0.729,1.174-1.459,2.347-2.188,3.52c-1.293,0.282-2.291-0.021-2.763-1.383
			c1.427-2.8,2.854-5.6,4.281-8.4c0.436-0.018,0.871-0.035,1.309-0.053c0.768,1.118,0.416,2.307,0.222,3.486
			C204.775,98.717,204.025,99.52,204.229,100.611z"/>
		<path d="M189.425,101.396c-1.25,0.802-1.55,2.842-3.521,2.705c0.737-4.037,2.328-7.535,6.215-10.437
			C192.418,97.244,190.266,99.075,189.425,101.396z"/>
		<path fill="#FFFFFF" d="M217.126,22.219c-0.54-1.154-1.522-0.769-2.772-0.69c0.203,1.126,1.955,2.829-0.467,3.255
			c-1.283,0.226-2.516-0.203-2.613-1.874c-0.098-1.676-0.227-3.421,2.191-3.518c1.158-0.047,2.319,0.004,3.479,0.012
			C216.751,20.358,218.081,21.215,217.126,22.219z"/>
		<path d="M219.275,25.128c1.095-1.035,2.108-2.336,3.867-1.157c-0.641,0.841-1.279,1.682-1.918,2.522
			C220.71,25.847,219.809,25.752,219.275,25.128z"/>
		<path d="M226.143,24.321c-0.229,1.26-0.457,2.52-0.688,3.781C224.466,26.62,223.889,25.212,226.143,24.321z"/>
		<path d="M214.583,27.483c-1.163,0.717-2.063,1.478-2.522,0.509c-0.543-1.145,0.698-0.674,1.196-0.775
			C213.553,27.157,213.896,27.333,214.583,27.483z"/>
		<path fill="#FFFFFF" d="M202.23,54.738c0.004-0.708,0.008-1.415,0.014-2.123c1.074,0.865,2.277-0.451,3.461,0.245
			c-0.621,0.774-1.939,0.736-2.176,1.873c-0.137,0.093-0.272,0.187-0.408,0.28C202.777,55.068,202.48,54.977,202.23,54.738z"/>
		<path d="M204.159,58.419c-0.22-0.034-0.431-0.096-0.634-0.188c-0.689-1.17-1.558-2.341,0.011-3.504l-0.007,0.006
			C205.408,55.677,203.727,57.228,204.159,58.419z"/>
		<path d="M240.075,100.376c0.294,1.294,0.589,2.599,0.94,4.151c-1.363,0.224-3.033-0.11-3.111-0.916
			C237.797,102.477,238.18,100.805,240.075,100.376z"/>
		<path fill="#FFFFFF" d="M175.478,24.371c0.408-0.002,0.816-0.005,1.224-0.008c0.313,0.68,0.262,1.363,0.019,2.047
			c-0.004,0.266-0.007,0.533-0.011,0.799c-0.319,0.538-0.826,0.654-1.399,0.62c-0.228-0.415-0.457-0.828-0.685-1.242
			C175.575,26.104,175.057,25.057,175.478,24.371z"/>
		<path d="M176.72,26.41c-0.515-0.678-0.441-1.361-0.019-2.047c0.461,0.239,0.921,0.479,1.382,0.718
			C177.837,25.738,177.408,26.208,176.72,26.41z"/>
		<path d="M205.089,97.781c-0.073-1.162-0.147-2.324-0.221-3.486C206.084,95.384,205.879,96.564,205.089,97.781z"/>
		<path fill="#FFFFFF" d="M203.536,54.727c-0.761,1.166,0.207,2.337-0.011,3.504c-0.69,0.173-1.232,0.031-1.491-0.708
			c0.065-0.928,0.131-1.856,0.196-2.785C202.666,54.734,203.102,54.73,203.536,54.727z"/>
		<path fill="#FFFFFF" d="M185.263,22.917c0.938,2.367-0.886,2.06-2.168,2.195c-1.78,0.187-1.831-0.853-1.437-2.155
			C182.86,22.943,184.062,22.93,185.263,22.917z"/>
		<path fill="#FFFFFF" d="M181.079,20.153c0.966-1.19,2.161-0.967,3.234-0.325c0.434,0.259,0.004,0.798-0.443,1.029
			C182.713,21.524,181.89,20.86,181.079,20.153z"/>
		<path fill="#FFFFFF" d="M181.079,20.153c0.93,0.235,1.86,0.47,2.791,0.705C182.717,21.505,181.451,22.599,181.079,20.153z"/>
		<path fill="#FFFFFF" d="M204.898,19.547c0.412,1.124,1.213,2.25-0.032,3.358c-1.539-0.5-3.208-0.095-4.735-0.677
			C200.442,18.654,201.469,18.077,204.898,19.547z"/>
		<path fill="#FFFFFF" d="M200.131,22.228c1.727-0.81,3.441-1.542,4.735,0.677c-0.282,0.449-0.566,0.898-0.851,1.347
			C202.368,24.255,200.574,24.537,200.131,22.228z"/>
	</g>
</g>
</svg>
