<?xml version="1.0" encoding="utf-8"?>
<!-- Generator: Adobe Illustrator 16.0.0, SVG Export Plug-In . SVG Version: 6.00 Build 0)  -->
<!DOCTYPE svg PUBLIC "-//W3C//DTD SVG 1.1//EN" "http://www.w3.org/Graphics/SVG/1.1/DTD/svg11.dtd">
<svg version="1.1" id="Layer_1" xmlns="http://www.w3.org/2000/svg" xmlns:xlink="http://www.w3.org/1999/xlink" x="0px" y="0px"
	 width="400px" height="133px" viewBox="0 0 400 133" enable-background="new 0 0 400 133" xml:space="preserve">
<g id="Layer_1_1_">
	<rect y="-0.5" width="400" height="134"/>
</g>
<g id="Layer_2">
	<g id="Layer_2_1_">
		<g>
			<g>
				<path fill="#FFFFFF" d="M171.032,21.052c0.142,0.141,0.212,0.313,0.212,0.516c0,0.189-0.071,0.354-0.212,0.496
					c-0.142,0.142-0.307,0.212-0.495,0.212h-2.446v12.898c0,0.203-0.068,0.372-0.202,0.506c-0.135,0.134-0.304,0.202-0.505,0.202
					c-0.189,0-0.354-0.067-0.495-0.202c-0.142-0.134-0.213-0.303-0.213-0.506V22.275h-2.487c-0.203,0-0.375-0.071-0.516-0.212
					c-0.141-0.143-0.211-0.306-0.211-0.496c0-0.203,0.071-0.375,0.212-0.516c0.142-0.142,0.313-0.212,0.516-0.212h6.348
					C170.725,20.84,170.89,20.911,171.032,21.052z"/>
				<path fill="#FFFFFF" d="M179.634,20.84c0.188,0,0.354,0.071,0.495,0.212c0.142,0.141,0.213,0.306,0.213,0.495v13.626
					c0,0.188-0.071,0.353-0.213,0.495c-0.141,0.142-0.306,0.211-0.495,0.211c-0.202,0-0.375-0.07-0.516-0.211
					c-0.141-0.142-0.212-0.307-0.212-0.495v-5.256h-4.245v5.256c0,0.188-0.071,0.353-0.212,0.495
					c-0.141,0.142-0.313,0.211-0.516,0.211c-0.189,0-0.354-0.07-0.495-0.211c-0.141-0.142-0.212-0.307-0.212-0.495V21.547
					c0-0.188,0.071-0.354,0.212-0.495c0.142-0.142,0.306-0.212,0.495-0.212c0.203,0,0.375,0.071,0.516,0.212
					c0.141,0.141,0.212,0.306,0.212,0.495v6.935h4.245v-6.935c0-0.188,0.071-0.354,0.212-0.495
					C179.259,20.91,179.431,20.84,179.634,20.84z"/>
				<path fill="#FFFFFF" d="M190.013,34.657c0.142,0.142,0.212,0.313,0.212,0.517c0,0.188-0.071,0.353-0.213,0.495
					c-0.141,0.142-0.313,0.211-0.515,0.211h-5.357c-0.203,0-0.375-0.07-0.516-0.211c-0.141-0.142-0.212-0.307-0.212-0.495V21.547
					c0-0.188,0.071-0.354,0.212-0.495c0.142-0.142,0.313-0.212,0.516-0.212h5.357c0.201,0,0.374,0.071,0.515,0.212
					c0.142,0.141,0.213,0.306,0.213,0.495c0,0.203-0.071,0.374-0.213,0.517c-0.141,0.141-0.313,0.212-0.515,0.212h-4.65v6.207h3.498
					c0.203,0,0.371,0.07,0.505,0.212c0.135,0.141,0.203,0.313,0.203,0.517c0,0.188-0.068,0.353-0.203,0.495
					c-0.134,0.141-0.302,0.211-0.505,0.211h-3.498v4.528h4.65C189.7,34.445,189.872,34.515,190.013,34.657z"/>
			</g>
			<g>
				<path fill="#FFFFFF" d="M178.698,71.775c0.301,0.302,0.452,0.668,0.452,1.099c0,0.403-0.151,0.755-0.452,1.056
					c-0.302,0.303-0.668,0.452-1.099,0.452h-11.416c-0.431,0-0.797-0.149-1.098-0.452c-0.302-0.302-0.453-0.652-0.453-1.056V43.84
					c0-0.401,0.151-0.754,0.453-1.055c0.302-0.302,0.667-0.452,1.098-0.452h11.416c0.431,0,0.797,0.151,1.099,0.452
					c0.302,0.301,0.453,0.654,0.453,1.055c0,0.431-0.151,0.797-0.453,1.099c-0.302,0.303-0.668,0.452-1.099,0.452h-9.908v13.225
					h7.453c0.432,0,0.79,0.151,1.077,0.452c0.288,0.302,0.431,0.667,0.431,1.099c0,0.402-0.144,0.754-0.431,1.054
					c-0.288,0.302-0.646,0.453-1.077,0.453h-7.453v9.648h9.908C178.029,71.324,178.396,71.475,178.698,71.775z"/>
				<path fill="#FFFFFF" d="M198.32,73.046c0.086,0.403,0.014,0.771-0.215,1.101c-0.23,0.33-0.531,0.539-0.905,0.625h-0.259
					c-0.315,0-0.61-0.106-0.883-0.323c-0.273-0.216-0.438-0.48-0.495-0.798l-1.164-5.601h-6.978l-1.12,5.601
					c-0.058,0.316-0.223,0.582-0.496,0.798c-0.273,0.217-0.582,0.323-0.926,0.323h-0.258c-0.375-0.086-0.668-0.295-0.883-0.625
					c-0.216-0.328-0.281-0.694-0.194-1.101l5.988-29.766c0.028-0.115,0.057-0.187,0.086-0.215v-0.042V42.98
					c0.057-0.144,0.129-0.245,0.215-0.302v-0.086h0.043v-0.043h0.043v-0.042h0.042v-0.043h0.044
					c0.057-0.057,0.114-0.101,0.172-0.129c0.057-0.028,0.129-0.058,0.215-0.085v-0.043h0.042c0.058-0.028,0.122-0.043,0.194-0.043
					c0.072,0,0.136-0.014,0.194-0.043h0.042h0.086h0.043c0.057,0.029,0.121,0.043,0.193,0.043s0.136,0.015,0.194,0.043h0.043v0.043
					c0.114,0.03,0.201,0.058,0.258,0.085c0.058,0.029,0.115,0.073,0.172,0.129h0.043v0.043h0.043v0.042h0.043v0.043l0.043,0.086
					c0.028,0.058,0.065,0.108,0.107,0.15c0.043,0.043,0.079,0.093,0.108,0.152v0.043v0.042c0.028,0.029,0.043,0.101,0.043,0.215
					L198.32,73.046z M193.84,65.251l-2.973-14.562l-2.886,14.562H193.84z"/>
				<path fill="#FFFFFF" d="M209.607,74.557c-2.012,0-3.705-0.572-5.084-1.725c-0.547-0.458-1.084-1.154-1.614-2.089
					c-0.532-0.935-0.798-2.204-0.798-3.814c0-0.43,0.15-0.789,0.451-1.076s0.668-0.431,1.101-0.431c0.401,0,0.745,0.144,1.032,0.431
					s0.432,0.645,0.432,1.076c0,0.949,0.135,1.725,0.408,2.328s0.625,1.07,1.056,1.397c0.431,0.332,0.911,0.562,1.443,0.689
					c0.528,0.131,1.055,0.195,1.569,0.195c0.289,0,0.696-0.035,1.228-0.107c0.532-0.072,1.056-0.266,1.574-0.582
					c0.517-0.315,0.968-0.774,1.356-1.379c0.387-0.604,0.582-1.449,0.582-2.542c0-1.061-0.152-1.995-0.453-2.799
					c-0.302-0.804-0.719-1.521-1.248-2.154c-0.531-0.631-1.143-1.212-1.83-1.745c-0.689-0.531-1.422-1.07-2.196-1.616
					c-0.69-0.488-1.386-1.005-2.091-1.551c-0.704-0.544-1.344-1.148-1.916-1.809c-1.352-1.579-2.041-3.403-2.069-5.47
					c0-0.115,0.008-0.346,0.022-0.69c0.014-0.345,0.063-0.746,0.149-1.207c0.259-1.465,0.833-2.685,1.726-3.661
					c1.291-1.349,3.028-2.024,5.213-2.024c2.211,0,3.92,0.675,5.125,2.024c0.431,0.488,0.775,1.049,1.033,1.68
					c0.258,0.632,0.416,1.322,0.474,2.067c0.059,0.518,0.079,0.956,0.063,1.315c-0.015,0.359-0.035,0.568-0.063,0.624
					c-0.086,0.374-0.188,0.704-0.304,0.991c-0.144,0.231-0.315,0.431-0.517,0.604c-0.202,0.172-0.503,0.23-0.903,0.172
					c-0.403-0.057-0.691-0.208-0.863-0.452s-0.286-0.496-0.346-0.754c-0.084-0.315-0.1-0.646-0.043-0.991
					c0.06-0.401,0.06-0.788,0-1.163c-0.057-0.316-0.143-0.668-0.257-1.055c-0.114-0.389-0.302-0.739-0.561-1.055
					c-0.573-0.69-1.523-1.034-2.843-1.034c-1.32,0-2.313,0.374-2.974,1.121c-0.315,0.317-0.552,0.674-0.71,1.077
					c-0.158,0.402-0.268,0.762-0.324,1.078c-0.084,0.402-0.113,0.79-0.084,1.164v0.129c0,0.718,0.113,1.365,0.344,1.939
					c0.23,0.575,0.554,1.105,0.971,1.594c0.416,0.489,0.918,0.969,1.507,1.442c0.59,0.473,1.257,0.984,2.004,1.53
					c0.832,0.545,1.644,1.127,2.433,1.745c0.791,0.618,1.53,1.343,2.219,2.175c1.551,1.895,2.326,4.151,2.326,6.763
					c0,1.321-0.224,2.462-0.666,3.425c-0.446,0.963-1.032,1.754-1.767,2.369c-0.733,0.617-1.565,1.076-2.5,1.379
					C211.494,74.404,210.555,74.557,209.607,74.557z"/>
				<path fill="#FFFFFF" d="M236.725,42.785c0.303,0.302,0.451,0.667,0.451,1.099c0,0.402-0.15,0.754-0.451,1.055
					c-0.303,0.302-0.651,0.451-1.056,0.451h-5.213v27.483c0,0.434-0.146,0.792-0.431,1.078c-0.289,0.287-0.646,0.432-1.076,0.432
					c-0.403,0-0.756-0.145-1.057-0.432c-0.301-0.286-0.453-0.646-0.453-1.078V45.391h-5.297c-0.431,0-0.795-0.15-1.099-0.452
					c-0.302-0.301-0.453-0.652-0.453-1.055c0-0.431,0.152-0.797,0.453-1.098c0.304-0.303,0.667-0.453,1.099-0.453h13.527
					C236.072,42.333,236.422,42.483,236.725,42.785z"/>
			</g>
			<g>
				<path fill="#FFFFFF" d="M179.859,111.259v0.043c-0.113,0.113-0.213,0.188-0.301,0.216c0,0.028-0.014,0.043-0.042,0.043
					l-0.044,0.041h-0.042l-0.044,0.041h-0.044c-0.085,0.026-0.186,0.074-0.3,0.133H179h-0.043h-0.042h-0.044h-0.085H178.7h-0.085
					h-0.043h-0.042h-0.044c-0.058,0-0.101-0.018-0.129-0.045h-0.085c-0.115-0.028-0.229-0.086-0.344-0.17
					c-0.028-0.028-0.058-0.051-0.085-0.063c-0.028-0.015-0.059-0.036-0.086-0.065l-0.086-0.086h-0.043l-0.042-0.041v-0.043
					c-0.029,0-0.044-0.009-0.044-0.021c0-0.014-0.014-0.021-0.042-0.021v-0.039c0-0.029-0.009-0.047-0.023-0.047
					c-0.014,0-0.021-0.014-0.021-0.04h-0.042c0-0.061-0.016-0.089-0.044-0.089v-0.042l-0.043-0.084c0-0.028-0.008-0.053-0.022-0.065
					c-0.014-0.014-0.021-0.035-0.021-0.066l-3.65-11.035l-3.65,11.034c-0.03,0.032-0.044,0.073-0.044,0.134h-0.042
					c0,0.059-0.016,0.085-0.044,0.085v0.041l-0.042,0.089c-0.03,0.026-0.044,0.059-0.044,0.086c-0.027,0-0.043,0.012-0.043,0.041
					l-0.042,0.041l-0.044,0.043l-0.041,0.041l-0.085,0.088h-0.044c-0.058,0.061-0.115,0.101-0.171,0.131
					c-0.086,0.084-0.187,0.142-0.301,0.168h-0.085h-0.044c-0.03,0.028-0.058,0.045-0.084,0.045h-0.045h-0.042h-0.087h-0.042h-0.044
					h-0.085h-0.041h-0.044h-0.043h-0.042h-0.043c-0.086-0.029-0.186-0.071-0.301-0.131h-0.042h-0.044v-0.043h-0.042l-0.044-0.039
					c-0.029,0-0.043-0.016-0.043-0.043h-0.042c-0.057-0.027-0.129-0.088-0.215-0.176v-0.041h-0.043c0-0.027-0.015-0.043-0.042-0.043
					c0-0.027-0.015-0.042-0.043-0.042v-0.04l-0.042-0.046l-0.044-0.04l-0.129-0.26v-0.088c-0.028,0-0.042-0.014-0.042-0.042v-0.04
					v-0.042v-0.042c-0.029-0.027-0.043-0.074-0.043-0.133l-3.564-28.9c-0.058-0.398,0.043-0.763,0.3-1.09
					c0.259-0.33,0.602-0.523,1.031-0.582c0.4-0.061,0.765,0.041,1.095,0.302c0.329,0.257,0.523,0.589,0.581,0.984l2.749,22.249
					l2.962-9.021l0.044-0.045v-0.041c0-0.029,0.014-0.043,0.042-0.043v-0.04v-0.043l0.087-0.086v-0.045l0.042-0.043l0.044-0.041
					c0-0.028,0.014-0.041,0.042-0.041v-0.042h0.044v-0.046l0.042-0.042c0.03,0,0.044-0.016,0.044-0.045h0.044v-0.041l0.042-0.042
					c0.058-0.056,0.122-0.091,0.194-0.108c0.069-0.015,0.134-0.05,0.192-0.109h0.087l0.042-0.041h0.044h0.041h0.044h0.041v-0.041
					h0.044h0.044h0.042h0.043h0.042h0.044h0.042h0.044h0.044h0.042h0.044l0.042,0.041h0.044h0.085c0.027,0,0.043,0.009,0.043,0.021
					c0,0.012,0.014,0.02,0.042,0.02h0.085c0.058,0.061,0.115,0.096,0.173,0.109c0.056,0.019,0.113,0.053,0.171,0.108l0.044,0.042
					c0.027,0,0.042,0.012,0.042,0.041h0.044v0.045h0.042v0.042c0.028,0,0.043,0.019,0.043,0.046h0.042v0.042l0.044,0.041
					l0.044,0.041c0,0.028,0.014,0.043,0.042,0.043v0.045v0.041h0.044v0.045v0.043c0.028,0,0.042,0.013,0.042,0.04l0.044,0.043v0.041
					v0.045l3.006,9.021l2.748-22.249c0.058-0.397,0.25-0.729,0.581-0.984c0.328-0.258,0.693-0.358,1.095-0.302
					c0.4,0.059,0.736,0.252,1.008,0.582c0.273,0.327,0.379,0.691,0.322,1.089l-3.563,28.901c-0.03,0.031-0.043,0.072-0.043,0.133
					v0.042v0.042l-0.044,0.04v0.042c0,0.033-0.014,0.063-0.042,0.088c0,0.061-0.03,0.113-0.085,0.171
					c0,0.028-0.016,0.06-0.043,0.089v0.04h-0.042v0.046l-0.043,0.04v0.042L179.859,111.259L179.859,111.259L179.859,111.259z"/>
				<path fill="#FFFFFF" d="M192.829,111.775c-0.429,0-0.786-0.153-1.074-0.455c-0.286-0.299-0.429-0.647-0.429-1.047V81.327
					c0-0.402,0.143-0.751,0.429-1.052c0.288-0.301,0.645-0.45,1.074-0.45c0.402,0,0.751,0.149,1.052,0.45
					c0.3,0.301,0.451,0.647,0.451,1.052v28.946c0,0.398-0.15,0.748-0.451,1.047C193.58,111.622,193.231,111.775,192.829,111.775z"/>
				<path fill="#FFFFFF" d="M216.275,111.177l-0.045,0.04c-0.026,0-0.041,0.014-0.041,0.042h-0.043l-0.045,0.043
					c0,0.026-0.013,0.04-0.039,0.04l-0.043,0.045h-0.045c0,0.028-0.013,0.043-0.043,0.043h-0.041v0.045h-0.043l-0.043,0.041
					c-0.113,0.058-0.229,0.086-0.345,0.086c-0.058,0.027-0.157,0.041-0.3,0.041h-0.044h-0.041h-0.044h-0.086
					c-0.057,0-0.101-0.014-0.129-0.041h-0.086c-0.058-0.028-0.092-0.041-0.106-0.041c-0.017,0-0.052-0.015-0.108-0.043
					c-0.029-0.026-0.057-0.041-0.086-0.041s-0.058-0.015-0.085-0.045l-0.043-0.043l-0.043-0.045h-0.042
					c0-0.027-0.015-0.041-0.044-0.041l-0.041-0.043l-0.044-0.042l-0.042-0.04l-0.042-0.046c-0.029-0.028-0.042-0.057-0.042-0.088
					c-0.031,0-0.045-0.013-0.045-0.041l-0.043-0.042c-0.028-0.027-0.041-0.068-0.041-0.129c-0.03-0.027-0.045-0.05-0.045-0.066
					c0-0.014-0.011-0.035-0.041-0.063l-9.621-22.157v21.597c0,0.405-0.146,0.756-0.431,1.056c-0.287,0.301-0.646,0.448-1.071,0.448
					c-0.402,0-0.754-0.147-1.054-0.448c-0.303-0.3-0.45-0.649-0.45-1.056v-28.9v-0.085v-0.041v-0.041v-0.048v-0.039v-0.045h0.042
					v-0.086v-0.041v-0.043l0.044-0.043v-0.086c0.028,0,0.042-0.016,0.042-0.045c0-0.026,0.007-0.039,0.021-0.039
					c0.012,0,0.021-0.016,0.021-0.045v-0.039h0.042v-0.045c0-0.029,0.015-0.043,0.043-0.043v-0.046l0.042-0.042l0.043-0.041
					c0-0.027,0.016-0.042,0.044-0.042c0-0.026,0.005-0.041,0.021-0.041c0.015,0,0.021-0.014,0.021-0.046
					c0.028,0,0.044-0.013,0.044-0.04h0.041l0.044-0.048l0.041-0.04c0.032,0,0.043-0.014,0.043-0.041h0.045l0.04-0.043h0.046
					l0.041-0.041h0.045c0.058-0.062,0.112-0.087,0.17-0.087c0.06,0,0.112-0.014,0.17-0.046h0.043
					c0.06-0.028,0.172-0.042,0.348-0.042h0.084h0.042c0.03,0,0.043,0.014,0.043,0.042h0.045h0.04h0.085
					c0.029,0.032,0.06,0.046,0.085,0.046l0.044,0.042h0.085l0.043,0.045c0.03,0,0.057,0.013,0.088,0.041h0.041
					c0,0.028,0.014,0.043,0.043,0.043l0.043,0.041h0.043v0.04h0.043c0,0.032,0.013,0.048,0.041,0.048c0,0.028,0.014,0.04,0.041,0.04
					c0.029,0.032,0.045,0.061,0.045,0.087c0.027,0,0.043,0.015,0.043,0.042h0.043v0.041h0.041v0.042
					c0,0.032,0.015,0.046,0.045,0.046v0.043l0.039,0.045c0,0.027,0.009,0.039,0.022,0.039c0.015,0,0.021,0.016,0.021,0.045
					l0.045,0.084l9.619,22.205V81.198c0-0.398,0.142-0.748,0.428-1.048c0.285-0.303,0.645-0.455,1.074-0.455
					c0.399,0,0.75,0.152,1.054,0.455c0.301,0.3,0.45,0.648,0.45,1.048V110.1v0.129v0.045v0.043v0.041v0.041l-0.045,0.043v0.045
					v0.087l-0.041,0.042v0.083c-0.029,0-0.045,0.014-0.045,0.042v0.045l-0.041,0.043v0.045c-0.028,0-0.041,0.014-0.041,0.042v0.041
					h-0.045v0.042l-0.043,0.041c0,0.031-0.016,0.046-0.041,0.046c0,0.028-0.008,0.04-0.022,0.04
					C216.283,111.13,216.275,111.146,216.275,111.177z"/>
				<path fill="#FFFFFF" d="M229.586,112.16c-2.174,0-3.863-0.684-5.066-2.061c-0.973-1-1.588-2.363-1.847-4.08
					c-0.06-0.484-0.093-0.914-0.106-1.287c-0.017-0.373-0.008-0.631,0.02-0.773V87.125c0-1.314,0.208-2.461,0.624-3.436
					c0.415-0.976,0.95-1.775,1.61-2.404s1.404-1.094,2.231-1.395c0.831-0.303,1.677-0.453,2.533-0.453
					c1.833,0,3.396,0.572,4.683,1.717c0.543,0.49,1.065,1.211,1.568,2.169c0.497,0.959,0.749,2.243,0.749,3.844
					c0,0.401-0.149,0.754-0.449,1.056c-0.3,0.301-0.651,0.446-1.054,0.446c-0.428,0-0.795-0.146-1.096-0.446
					c-0.301-0.302-0.449-0.652-0.449-1.056c0-1.087-0.163-1.942-0.493-2.576c-0.331-0.628-0.709-1.102-1.142-1.416
					c-0.428-0.313-0.863-0.518-1.309-0.6c-0.443-0.089-0.779-0.134-1.01-0.134c-1.029,0-1.919,0.33-2.661,0.99
					c-0.888,0.83-1.33,2.061-1.33,3.691v16.964v0.041c0,0.026,0,0.183,0,0.449c0,0.274,0.026,0.612,0.085,1.011
					c0.057,0.402,0.164,0.832,0.322,1.285c0.158,0.462,0.408,0.859,0.751,1.202c0.63,0.69,1.575,1.034,2.834,1.034
					c1.347,0,2.334-0.359,2.966-1.077c0.314-0.343,0.557-0.726,0.73-1.16c0.171-0.425,0.294-0.829,0.365-1.2
					c0.068-0.371,0.105-0.814,0.105-1.326v-0.044v-5.456h-3.006c-0.432,0-0.795-0.148-1.096-0.449s-0.451-0.666-0.451-1.099
					c0-0.397,0.15-0.747,0.451-1.048c0.301-0.302,0.664-0.454,1.096-0.454h6.011v8.419c0.03,0.115,0.037,0.359,0.022,0.73
					c-0.018,0.371-0.064,0.8-0.149,1.285c-0.315,1.576-0.933,2.865-1.848,3.865C233.497,111.477,231.764,112.16,229.586,112.16z"/>
			</g>
		</g>
	</g>
</g>
</svg>
