<?xml version="1.0" encoding="utf-8"?>
<!-- Generator: Adobe Illustrator 16.0.0, SVG Export Plug-In . SVG Version: 6.00 Build 0)  -->
<!DOCTYPE svg PUBLIC "-//W3C//DTD SVG 1.1//EN" "http://www.w3.org/Graphics/SVG/1.1/DTD/svg11.dtd">
<svg version="1.1" id="Layer_1" xmlns="http://www.w3.org/2000/svg" xmlns:xlink="http://www.w3.org/1999/xlink" x="0px" y="0px"
	 width="400px" height="133px" viewBox="0 0 400 133" enable-background="new 0 0 400 133" xml:space="preserve">
<g id="Layer_1_1_">
	<rect y="-0.5" width="400" height="134"/>
</g>
<g id="Layer_2">
	<g>
		<path fill="#FFFFFF" d="M167.534,29.403c1.863,0,3.694,0,5.528,0c0.182,0.134,0.365,0.268,0.486,0.358
			c0.065,0.297,0.124,0.516,0.159,0.738c0.034,0.224,0.001,0.441,0.102,0.676c0.099,0.227,0.093,0.522,0.118,0.78
			c0.059,0.609,0.18,1.21,0.286,1.806c0.107,0.607,0.107,1.235,0.318,1.832c0.119,0.334,0.06,0.727,0.144,1.078
			c0.078,0.323,0.126,0.64,0.11,0.969c0.264,0.257-0.032,0.661,0.238,0.916c-0.08,0.356,0.143,0.678,0.116,1.025
			c-0.017,0.219,0.057,0.409,0.118,0.609c0.061,0.197-0.024,0.401,0.098,0.62c0.119,0.217,0.032,0.509,0.126,0.78
			c0.122,0.354,0.094,0.757,0.143,1.138c0.023,0.185,0.077,0.366,0.116,0.548c0.035,0.165-0.017,0.325,0.081,0.506
			c0.13,0.241,0.036,0.548,0.14,0.835c0.119,0.333,0.088,0.719,0.143,1.078c0.021,0.142,0.098,0.276,0.17,0.471
			c0.068-0.314,0.138-0.574,0.18-0.838c0.033-0.205-0.023-0.409,0.111-0.615c0.094-0.144-0.037-0.365,0.107-0.554
			c0.121-0.157,0.023-0.391,0.108-0.608c0.088-0.224,0.112-0.511,0.152-0.773c0.111-0.728,0.265-1.449,0.383-2.177
			c0.063-0.383,0.107-0.78,0.218-1.159c0.141-0.485,0.17-0.994,0.325-1.477c0.047-0.143,0.011-0.311,0.036-0.464
			c0.023-0.146,0.088-0.284,0.113-0.43c0.048-0.28,0.003-0.614,0.143-0.833c0.17-0.267,0.028-0.555,0.195-0.824
			c0.123-0.195,0.087-0.516,0.119-0.775c0.066-0.548,0.306-1.068,0.263-1.63c0.156-0.202,0.025-0.509,0.139-0.652
			c0.185-0.234-0.011-0.502,0.174-0.714c0.152-0.175-0.072-0.474,0.165-0.646c-0.04-0.466,0.182-0.881,0.261-1.321
			c0.087-0.087,0.172-0.172,0.266-0.266c0.047-0.003,0.104-0.011,0.161-0.011c1.673,0,3.345-0.004,5.018,0.004
			c0.24,0.001,0.481,0.059,0.69,0.086c0.185,0.451,0.238,0.47,0.032,1.073c-0.1,0.289,0.02,0.623-0.216,0.865
			c0.087,0.282-0.131,0.515-0.122,0.787c0.008,0.286-0.18,0.546-0.129,0.841c-0.245,0.196-0.043,0.504-0.203,0.757
			c-0.123,0.193-0.035,0.51-0.13,0.777c-0.1,0.28-0.018,0.641-0.153,0.89c-0.146,0.268-0.07,0.55-0.19,0.821
			c-0.103,0.232-0.071,0.555-0.142,0.835c-0.068,0.275-0.007,0.612-0.146,0.833c-0.168,0.267-0.016,0.561-0.199,0.823
			c-0.107,0.154-0.046,0.431-0.125,0.658c-0.098,0.282-0.021,0.638-0.153,0.891c-0.149,0.287,0.021,0.626-0.22,0.867
			c0.021,0.521-0.164,1.011-0.261,1.509c-0.095,0.489-0.206,0.987-0.308,1.475c-0.104,0.494-0.2,1.002-0.29,1.503
			c-0.052,0.281-0.082,0.583-0.189,0.871c-0.086,0.231-0.092,0.554,0.076,0.846c0.113,0.194,0.111,0.462,0.242,0.674
			c0.225,0.365,0.579,0.547,0.957,0.711c0,0.092,0,0.185,0,0.275c-0.447,0.155-0.901,0.235-1.304,0.5
			c-0.184,0.121-0.243,0.285-0.34,0.431c-0.256,0.388-0.465,0.783-0.52,1.283c-0.051,0.473-0.087,0.973-0.289,1.426
			c-0.022,0.05-0.053,0.112-0.041,0.16c0.074,0.32-0.084,0.609-0.14,0.904c-0.076,0.405-0.188,0.801-0.233,1.217
			c-0.044,0.407-0.204,0.8-0.228,1.216c-0.258,0.212,0.017,0.584-0.239,0.797c-0.028,0.723-0.246,1.415-0.379,2.118
			c-0.142,0.751-0.287,1.506-0.461,2.253c-0.032,0.142-0.109,0.273-0.148,0.368c-0.234,0.253-0.494,0.272-0.771,0.271
			c-1.652-0.005-3.305-0.003-4.956-0.003c-0.504-0.292-0.58-0.81-0.69-1.308c-0.13-0.585-0.155-1.188-0.348-1.766
			c-0.102-0.302-0.065-0.646-0.136-0.961c-0.111-0.493-0.185-0.993-0.31-1.483c-0.078-0.31-0.07-0.636-0.156-0.95
			c-0.074-0.273-0.005-0.618-0.147-0.831c-0.169-0.251,0.044-0.563-0.208-0.755c0.035-0.273-0.109-0.522-0.12-0.783
			c-0.014-0.347-0.119-0.664-0.213-0.989c-0.042-0.146-0.014-0.311-0.039-0.463c-0.023-0.146-0.088-0.284-0.113-0.429
			c-0.048-0.281-0.003-0.614-0.142-0.833c-0.17-0.268-0.038-0.554-0.194-0.824c-0.126-0.219-0.057-0.549-0.13-0.836
			c-0.174-0.682-0.273-1.383-0.429-2.212c-0.091,0.531-0.148,0.922-0.227,1.31c-0.075,0.369-0.13,0.746-0.215,1.109
			c-0.095,0.405-0.102,0.827-0.229,1.216c-0.158,0.482-0.214,0.986-0.318,1.474c-0.106,0.492-0.197,1.003-0.289,1.503
			c-0.09,0.49-0.185,0.987-0.313,1.475c-0.114,0.428-0.169,0.886-0.261,1.329c-0.059,0.278-0.007,0.61-0.143,0.833
			c-0.164,0.268-0.032,0.556-0.193,0.824c-0.108,0.18-0.079,0.471-0.134,0.714c-0.127,0.565-0.229,1.137-0.353,1.704
			c-0.087,0.401-0.153,0.81-0.243,1.214c-0.068,0.306-0.223,0.519-0.433,0.719c-1.791,0-3.583,0-5.139,0
			c-0.709-0.098-0.743-0.537-0.849-0.87c-0.146-0.463-0.198-0.956-0.282-1.438c-0.048-0.28-0.001-0.616-0.141-0.833
			c-0.173-0.267-0.027-0.555-0.198-0.823c-0.14-0.218-0.064-0.563-0.148-0.831c-0.151-0.483-0.093-1.008-0.333-1.475
			c-0.064-0.126,0-0.313-0.021-0.469c-0.021-0.146-0.081-0.285-0.114-0.429c-0.134-0.584-0.221-1.18-0.332-1.768
			c-0.103-0.536-0.232-1.073-0.286-1.626c-0.046-0.487-0.19-0.989-0.465-1.412c-0.289-0.446-0.744-0.682-1.255-0.811
			c-0.18-0.045-0.357-0.098-0.528-0.145c0-0.107,0-0.187,0-0.273c0.208-0.105,0.421-0.212,0.685-0.346
			c0.004-0.012,0.01-0.091,0.05-0.146c0.146-0.201,0.4-0.376,0.438-0.591c0.063-0.375,0.23-0.747,0.14-1.142
			c-0.033-0.144-0.087-0.284-0.116-0.429c-0.03-0.146,0.023-0.292-0.091-0.445c-0.078-0.103-0.012-0.306-0.035-0.46
			c-0.021-0.146-0.088-0.284-0.113-0.429c-0.048-0.28-0.008-0.606-0.141-0.835c-0.154-0.266,0.028-0.593-0.22-0.808
			c0.049-0.313-0.06-0.606-0.117-0.906c-0.051-0.26-0.034-0.544-0.135-0.781c-0.112-0.267-0.002-0.594-0.13-0.775
			c-0.177-0.25,0.056-0.57-0.216-0.754c0.034-0.312-0.046-0.606-0.114-0.907c-0.063-0.277-0.002-0.619-0.146-0.831
			c-0.17-0.251-0.03-0.517-0.188-0.769c-0.146-0.236-0.121-0.587-0.146-0.89c-0.028-0.34-0.118-0.664-0.215-0.987
			c-0.07-0.235,0.052-0.508-0.146-0.716c0.01-0.557-0.185-1.085-0.266-1.629c-0.094-0.627-0.238-1.254-0.332-1.886
			c-0.249-0.284-0.063-0.657-0.218-0.986c-0.166-0.35,0.071-0.687,0.521-0.964c1.597,0,3.209-0.005,4.82,0.005
			c0.222,0.001,0.444,0.076,0.678,0.119c0.088,0.093,0.184,0.193,0.246,0.257c0.062,0.239,0.123,0.435,0.161,0.637
			c0.039,0.203,0,0.4,0.102,0.617c0.103,0.222-0.027,0.534,0.141,0.776c-0.019,0.656,0.275,1.273,0.238,1.932
			c0.174,0.275,0.023,0.631,0.173,0.882c0.161,0.271-0.093,0.603,0.187,0.821c-0.031,0.292,0.088,0.569,0.104,0.847
			c0.036,0.613,0.181,1.209,0.278,1.808c0.1,0.608,0.132,1.231,0.321,1.831c0.107,0.34,0.085,0.72,0.134,1.081
			c0.025,0.185,0.09,0.364,0.113,0.548c0.021,0.169,0.022,0.327,0.108,0.496c0.072,0.142-0.001,0.352,0.02,0.529
			c0.017,0.145,0.105,0.285,0.109,0.429c0.018,0.614,0.2,1.202,0.268,1.81c0.051,0.459,0.157,0.924,0.297,1.393
			c0.013-0.107,0.017-0.216,0.041-0.32c0.029-0.125,0.105-0.245,0.112-0.369c0.039-0.78,0.35-1.517,0.362-2.3
			c0.182-0.175,0.042-0.437,0.136-0.598c0.123-0.211,0.018-0.456,0.12-0.606c0.145-0.212,0.041-0.425,0.109-0.616
			c0.166-0.46,0.147-0.959,0.326-1.417c0.088-0.226,0.028-0.477,0.128-0.724c0.116-0.291,0.048-0.652,0.147-0.955
			c0.172-0.52,0.148-1.073,0.336-1.591c0.107-0.298,0.085-0.641,0.135-0.961c0.02-0.126,0.129-0.257,0.106-0.367
			c-0.061-0.288,0.124-0.519,0.136-0.788c0.011-0.264,0.042-0.534,0.119-0.785c0.165-0.54,0.225-1.102,0.328-1.65
			c0.093-0.499,0.228-0.996,0.273-1.508c0.028-0.329,0.138-0.655,0.246-0.971C167.318,29.572,167.457,29.485,167.534,29.403z"/>
		<path fill="#FFFFFF" d="M231.659,48.953c0.407,0.344,0.75,0.75,0.888,1.294c0.235,0.749,0.258,1.543,0.159,2.31
			c-0.177,1.379-0.017,2.759-0.113,4.133c-0.059,0.838-0.345,1.631-0.784,2.358c-0.345,0.568-0.787,1.051-1.267,1.508
			c-0.414,0.396-1.696,1.099-2.42,1.229c-0.366,0.066-0.729,0.184-1.099,0.22c-0.375,0.037-0.756,0.008-1.135,0.008
			c-3.783,0-7.566,0-11.4,0c-0.057-0.082-0.137-0.194-0.287-0.406c0.025,0.099,0.008,0.063,0.008,0.027
			c-0.001-3.086,0.001-6.172-0.002-9.258c0-0.83,0.088-1.67-0.344-2.586c-0.225-0.199-0.479-0.611-0.967-0.718
			c0-0.094,0-0.173,0-0.26c0.207-0.104,0.418-0.212,0.679-0.344c0,0.002,0.003-0.063,0.038-0.094
			c0.307-0.281,0.396-0.664,0.533-1.035c0.074-0.201,0.058-0.384,0.058-0.571c0.006-3.584,0.004-7.167,0.004-10.751
			c0.245-2.107,0.05-4.224,0.136-6.334c0.195-0.207,0.432-0.287,0.721-0.286c3.762,0.005,7.523-0.008,11.287,0.018
			c0.459,0.003,0.934,0.128,1.397,0.203c0.47,0.076,0.911,0.216,1.333,0.396c0.947,0.403,1.766,1.015,2.408,1.814
			c0.393,0.487,0.703,1.046,0.876,1.664c0.198,0.714,0.366,1.427,0.364,2.181c-0.015,3.723,0,7.446-0.013,11.169
			c-0.002,0.547-0.11,1.09-0.477,1.531C232.07,48.58,231.857,48.756,231.659,48.953z M225.581,36.209
			c-1.339,0-2.713,0.006-4.086-0.004c-0.324-0.003-0.608,0.047-0.818,0.284c0,2.976,0,5.936,0,8.877
			c0.06,0.06,0.103,0.103,0.161,0.161c1.493,0,3.004,0.005,4.516-0.003c0.369-0.002,0.711-0.106,0.92-0.436
			c0-1.193-0.019-2.368,0.006-3.541c0.025-1.178-0.094-2.357,0.101-3.535c0.077-0.468,0.071-0.967-0.169-1.464
			C226.032,36.452,225.82,36.337,225.581,36.209z M220.54,52.782c0,0.545,0.005,1.121-0.004,1.696
			c-0.003,0.252,0.002,0.497,0.172,0.716c1.636,0,3.278,0,4.873,0c0.219-0.112,0.397-0.204,0.551-0.282
			c0.207-0.322,0.134-0.658,0.142-0.982c0.008-0.356,0-0.712,0-1.067c-0.067-0.35-0.359-0.415-0.629-0.493
			c-0.127-0.036-0.27-0.032-0.402-0.032c-1.449-0.002-2.898-0.001-4.348,0.001c-0.033,0-0.066,0.027-0.123,0.052
			C220.705,52.502,220.629,52.631,220.54,52.782z"/>
		<path fill="#FFFFFF" d="M246.49,103.398c-0.166,0.084-0.248,0.125-0.369,0.186c-1.824,0-3.694,0-5.604,0
			c-0.121-0.167-0.254-0.352-0.388-0.532c0-1.575-0.09-3.155,0.027-4.719c0.104-1.381,0.036-2.755,0.103-4.108
			c-0.113-0.119-0.212-0.218-0.307-0.314c-1.717,0-3.428,0-5.1,0c-0.131,0.066-0.229,0.119-0.338,0.175
			c0,2.581,0.002,5.167-0.004,7.753c-0.001,0.521,0.08,1.055-0.15,1.588c-0.176,0.12-0.403,0.166-0.661,0.164
			c-1.612-0.008-3.226,0-4.837-0.008c-0.203-0.001-0.406-0.059-0.573-0.083c-0.258-0.242-0.226-0.517-0.226-0.782
			c0-3.324-0.012-6.646,0.008-9.973c0.005-0.723-0.174-1.323-0.745-1.786c-0.06-0.048-0.097-0.124-0.121-0.159
			c-0.246,0.021-0.399-0.025-0.47-0.283c0.07-0.056,0.146-0.144,0.242-0.188c0.688-0.311,0.967-0.861,1.106-1.585
			c0.104-0.55,0.092-1.085,0.094-1.627c0.009-3.324-0.013-6.648,0.015-9.972c0.009-1.019,0.256-2.014,0.746-2.91
			c0.402-0.735,0.92-1.379,1.613-1.905c0.582-0.44,1.254-0.647,1.873-0.979c0.236-0.125,0.555-0.115,0.836-0.134
			c0.361-0.024,0.703-0.12,1.049-0.215c0.109-0.028,0.229-0.028,0.347-0.028c1.931,0,3.86-0.033,5.791,0.014
			c0.896,0.021,1.771,0.242,2.585,0.67c0.341,0.18,0.712,0.291,1.048,0.502c0.635,0.398,1.144,0.906,1.544,1.533
			c0.027,0.045,0.033,0.107,0.064,0.15c0.31,0.414,0.672,1.271,0.776,1.77c0.063,0.302,0.069,0.611,0.13,0.904
			c0.194,0.959,0.075,1.922,0.1,2.881c0.022,0.953,0.006,1.91,0.006,2.864c0,1.792,0.002,3.583-0.006,5.374
			c0,0.205,0.091,0.432-0.108,0.614c-0.038,0.035-0.032,0.192,0.006,0.224c0.159,0.125,0.085,0.288,0.109,0.438
			c0.032,0.203,0.077,0.404,0.127,0.65c0.337,0.215,0.415,0.808,1.009,0.765c0.063,0.129,0.129,0.26,0.197,0.397
			c-0.285,0.118-0.555,0.229-0.764,0.316c-0.135,0.182-0.256,0.307-0.328,0.453c-0.209,0.423-0.364,0.859-0.363,1.344
			c0.002,3.305,0.003,6.607-0.003,9.912C246.578,102.971,246.52,103.191,246.49,103.398z M234.518,87.043
			c0.223,0.162,0.463,0.18,0.717,0.18c1.572-0.007,3.146-0.004,4.719-0.004c0.099-0.099,0.195-0.197,0.297-0.298
			c0-2.864,0-5.729,0-8.599c-0.24-0.313-0.579-0.418-0.955-0.42c-1.232-0.006-2.468-0.006-3.702,0
			c-0.375,0.002-0.714,0.106-0.938,0.398c-0.049,0.229-0.131,0.43-0.131,0.631C234.514,81.639,234.518,84.346,234.518,87.043z"/>
		<path fill="#FFFFFF" d="M252.854,103.585c-0.09-0.091-0.174-0.175-0.297-0.299c0-0.114,0-0.269,0-0.422c0-2.907,0-5.813,0-8.72
			c0-0.398,0.019-0.799-0.007-1.194c-0.022-0.382-0.093-0.761-0.14-1.127c-0.229-0.521-0.506-0.989-1.156-1.048
			c0-0.143,0-0.275,0-0.416c0.111-0.025,0.229-0.034,0.326-0.082c0.083-0.041,0.143-0.135,0.22-0.189
			c0.306-0.22,0.533-0.639,0.646-0.99c0.117-0.363,0.109-0.724,0.109-1.089c0-4.12-0.004-8.241,0.006-12.362
			c0-0.461,0.09-0.922,0.108-1.385c0.021-0.477,0.005-0.955,0.005-1.433c0-0.479,0-0.956,0-1.44
			c0.141-0.135,0.283-0.271,0.436-0.416c3.846,0,7.707,0.006,11.57-0.011c0.299-0.002,0.557,0.152,0.846,0.128
			c0.275-0.023,0.509,0.125,0.766,0.174c0.703,0.127,1.328,0.459,1.938,0.795c0.6,0.332,1.172,0.727,1.533,1.35
			c0.077,0.133,0.235,0.216,0.321,0.347c0.286,0.437,0.599,1.166,0.756,1.837c0.15,0.639,0.236,1.275,0.235,1.934
			c-0.008,6.33-0.004,12.66-0.004,18.99c0.002,0.604-0.135,1.195-0.145,1.803c-0.006,0.373-0.135,0.772-0.234,1.149
			c-0.092,0.351-0.282,0.679-0.461,1c-0.316,0.572-0.682,1.089-1.189,1.54c-0.713,0.631-1.548,0.963-2.402,1.285
			c-0.242,0.091-0.511,0.109-0.765,0.175c-0.853,0.216-1.72,0.11-2.578,0.113C259.813,103.593,256.33,103.585,252.854,103.585z
			 M259.186,96.895c1.448,0,2.9,0.006,4.353-0.004c0.224-0.002,0.481-0.019,0.657-0.131c0.258-0.16,0.436-0.419,0.43-0.769
			c-0.012-0.775-0.003-1.552-0.003-2.327c0-1.691,0-3.382,0-5.073c0-1.672-0.019-3.343,0.005-5.015
			c0.025-1.674-0.124-3.354,0.116-4.979c-0.2-0.414-0.448-0.701-0.918-0.699c-1.552,0.004-3.101,0.002-4.634,0.002
			c-0.072,0.068-0.129,0.123-0.186,0.177c0,0.841,0,1.677,0,2.512c0,0.856,0,1.711,0,2.567c0,0.835,0,1.671,0,2.507
			c0,0.854,0,1.711,0,2.565c0,0.836-0.033,1.674,0.01,2.506c0.045,0.849-0.146,1.677-0.133,2.52
			c0.018,1.114,0.004,2.229,0.004,3.344C258.984,96.693,259.083,96.793,259.186,96.895z"/>
		<path fill="#FFFFFF" d="M168.639,103.492c-0.081-0.164-0.122-0.247-0.183-0.369c0-2.977,0-6.001,0-9.041
			c-0.054-0.046-0.113-0.098-0.204-0.174c-1.59,0-3.22-0.004-4.85,0.006c-0.18,0.001-0.36,0.08-0.553,0.126
			c-0.254,1.864-0.089,3.721-0.125,5.571c-0.024,1.229-0.005,2.463-0.005,3.675c-0.104,0.104-0.188,0.188-0.285,0.286
			c-1.894,0-3.801,0-5.765,0c-0.067-0.08-0.167-0.198-0.281-0.334c0-3.53,0-7.094,0-10.656c0-0.574-0.216-1.066-0.604-1.479
			c-0.125-0.131-0.302-0.227-0.472-0.295c-0.202-0.082-0.252-0.219-0.234-0.449c0.393-0.026,0.733-0.234,0.92-0.563
			c0.207-0.364,0.413-0.752,0.394-1.209c-0.078-1.798,0.163-3.586,0.126-5.385c-0.042-2.091-0.017-4.181-0.006-6.271
			c0.005-0.777,0.227-1.515,0.509-2.236c0.366-0.935,0.977-1.697,1.742-2.314c0.604-0.486,1.33-0.797,2.068-1.048
			c0.252-0.086,0.51-0.138,0.786-0.133c0.261,0.004,0.554-0.013,0.777-0.127c0.213-0.108,0.41-0.101,0.616-0.101
			c1.771-0.005,3.543-0.002,5.313-0.002c0.239,0,0.497-0.059,0.713,0.012c0.433,0.14,0.891,0.127,1.318,0.273
			c0.488,0.168,0.965,0.36,1.428,0.592c0.517,0.258,0.945,0.625,1.38,1.004c0.838,0.729,1.265,1.686,1.576,2.696
			c0.107,0.349,0.175,0.734,0.174,1.126c-0.013,3.901-0.007,7.803-0.009,11.704c0,0.481,0.132,0.927,0.36,1.345
			c0.195,0.354,0.487,0.575,0.929,0.619c0,0.122,0,0.254,0,0.42c-0.288,0.049-0.608,0.154-0.78,0.438
			c-0.247,0.413-0.516,0.815-0.514,1.341c0.011,3.125,0.007,6.25,0.005,9.375c-0.001,0.502,0.062,1.012-0.15,1.514
			c-0.19,0.141-0.431,0.157-0.686,0.157c-1.592-0.007-3.185,0-4.777-0.008C169.069,103.58,168.847,103.521,168.639,103.492z
			 M167.87,77.9c-1.427,0-2.9,0-4.37,0c-0.045,0.041-0.083,0.097-0.134,0.117c-0.362,0.144-0.527,0.412-0.527,0.795
			c0.001,2.746,0.001,5.492,0.001,8.226c0.066,0.067,0.123,0.124,0.158,0.16c1.787,0,3.554,0,5.328,0
			c0.161-0.302,0.253-0.595,0.252-0.931c-0.008-2.469-0.006-4.938-0.002-7.406c0.001-0.254-0.007-0.496-0.145-0.678
			C168.236,78.086,168.071,78.002,167.87,77.9z"/>
		<path fill="#FFFFFF" d="M193.242,103.585c-0.098-0.099-0.196-0.196-0.297-0.297c0-3.024,0-6.049,0-9.083
			c-0.098-0.094-0.198-0.188-0.313-0.297c-1.551,0-3.123,0.005-4.694-0.004c-0.29-0.002-0.522,0.086-0.723,0.298
			c0,3.019,0,6.043,0,9.097c-0.13,0.086-0.27,0.18-0.42,0.279c-1.858,0-3.728,0-5.646,0c-0.114-0.154-0.249-0.335-0.423-0.568
			c0.048-0.533,0.14-1.109,0.145-1.689c0.019-2.01,0.007-4.021,0.007-6.03c0-0.776,0.001-1.554,0-2.33
			c0-0.209-0.019-0.405-0.102-0.612c-0.072-0.181-0.052-0.4-0.129-0.604c-0.192-0.509-0.47-0.896-1.067-0.97
			c0-0.133,0-0.267,0-0.416c0.101-0.021,0.217-0.026,0.316-0.072c0.101-0.046,0.185-0.131,0.275-0.198
			c0.076-0.06,0.187-0.103,0.221-0.179c0.23-0.529,0.492-1.043,0.49-1.65c-0.01-3.165-0.005-6.33-0.005-9.496
			c0-0.617,0.006-1.234-0.001-1.852c-0.008-0.604,0.174-1.189,0.131-1.803c-0.044-0.613-0.011-1.233-0.011-1.852
			c0-0.615,0-1.234,0-1.87c0.137-0.124,0.283-0.257,0.454-0.413c1.609,0,3.262,0.01,4.913-0.007
			c0.445-0.004,0.788,0.099,0.965,0.627c0,4.015,0.003,8.115-0.005,12.216c-0.001,0.322-0.091,0.645-0.11,0.967
			c-0.02,0.338-0.004,0.677-0.004,1.016c0,0.338,0,0.676,0,0.982c0.091,0.153,0.167,0.281,0.233,0.395
			c0.057,0.023,0.091,0.05,0.125,0.05c1.553,0.003,3.105-0.001,4.658,0.007c0.255,0,0.495-0.018,0.717-0.181
			c0-2.201,0-4.409,0-6.617c0.248-1.491,0.086-2.993,0.114-4.489c0.028-1.513,0.006-3.025,0.006-4.549
			c0.139-0.133,0.281-0.271,0.434-0.414c1.775,0,3.566,0,5.364,0c0.181,0.129,0.365,0.265,0.533,0.385
			c0,5.789,0.002,11.543-0.002,17.297c-0.001,0.621,0.249,1.113,0.726,1.488c0.172,0.135,0.392,0.209,0.578,0.307
			c0,0.13,0,0.224,0,0.314c-0.816,0.12-1.239,0.93-1.294,1.528c-0.038,0.415-0.008,0.835-0.008,1.253s0.074,0.854-0.021,1.25
			c-0.098,0.408-0.087,0.805-0.097,1.209c-0.01,0.418-0.002,0.836-0.002,1.254s0,0.838,0,1.256c0,1.592,0,3.185,0,4.771
			c-0.103,0.104-0.2,0.202-0.298,0.3C197.065,103.585,195.154,103.585,193.242,103.585z"/>
		<path fill="#FFFFFF" d="M223.467,96.895c0.098,0.101,0.196,0.197,0.297,0.299c0,2.027,0,4.059,0,6.115
			c-0.129,0.084-0.271,0.176-0.422,0.273c-5.881,0-11.773,0-17.705,0c-0.119-0.163-0.254-0.348-0.388-0.53
			c0-0.798-0.087-1.604,0.021-2.387c0.174-1.281,0.063-2.56,0.092-3.836c0.029-1.294,0.009-2.589,0.007-3.882
			c-0.001-0.383-0.136-0.739-0.206-1.107c-0.124-0.637-0.545-0.968-1.092-1.201c-0.063-0.199,0.002-0.382,0.188-0.426
			c0.589-0.137,0.822-0.609,0.97-1.09c0.097-0.314,0.151-0.663,0.15-1.02c-0.018-3.625,0.012-7.248-0.02-10.871
			c-0.019-1.996,0.254-3.98,0.105-5.938c0.215-0.229,0.426-0.327,0.695-0.327c5.771,0.005,11.544,0.005,17.306,0.005
			c0.138,0.137,0.265,0.264,0.403,0.402c0,2.016,0,4.041,0,6.064c-0.137,0.129-0.278,0.264-0.485,0.457c-3.731,0-7.569,0-11.385,0
			c-0.063,0.063-0.104,0.105-0.183,0.183c0,0.14,0,0.313,0,0.489c0,1.533,0.019,3.066-0.004,4.601
			c-0.018,1.198-0.207,2.392-0.08,3.651c0.051,0.087,0.136,0.23,0.229,0.39c1.854,0,3.698,0,5.521,0
			c0.229,0.216,0.313,0.449,0.313,0.738c-0.008,1.731-0.001,3.465-0.009,5.196c-0.001,0.201-0.069,0.402-0.101,0.574
			c-0.259,0.215-0.531,0.188-0.801,0.188c-1.632-0.001-3.263-0.001-4.878-0.001c-0.112,0.107-0.213,0.203-0.308,0.294
			c0,0.806,0,1.602,0,2.396c0.101,0.102,0.197,0.199,0.297,0.297C215.82,96.895,219.645,96.895,223.467,96.895z"/>
		<path fill="#FFFFFF" d="M196.428,45.368c0.064,0.064,0.107,0.106,0.154,0.154c1.785,0,3.575,0,5.381,0
			c0.127,0.141,0.26,0.288,0.415,0.46c0,1.945,0,3.934,0,5.966c-0.161,0.118-0.345,0.253-0.524,0.386c-1.794,0-3.584,0-5.373,0
			c-0.215,0.216-0.194,0.486-0.192,0.754c0.003,0.614,0.001,1.228,0.001,1.812c0.251,0.283,0.546,0.308,0.865,0.307
			c3.583-0.006,7.166-0.003,10.748-0.004c0.146,0.085,0.289,0.171,0.438,0.26c0,2.095,0,4.179,0,6.319
			c-0.207,0.073-0.431,0.155-0.657,0.228c-0.055,0.018-0.119,0.002-0.179,0.002c-5.672,0-11.344,0-17.015,0
			c-0.185-0.136-0.368-0.271-0.533-0.392c0-0.517-0.026-0.997,0.01-1.471c0.023-0.31-0.096-0.6-0.025-0.92
			c0.071-0.323,0.016-0.673,0.016-1.012c0-0.338,0-0.677,0-1.015s0-0.676,0-1.015s0-0.677,0-1.015s0-0.676,0-1.015
			c0-0.339,0-0.677,0-1.015s0-0.677,0-1.015s0.002-0.677,0-1.015c-0.001-0.479-0.221-0.99-0.456-1.484
			c-0.104-0.216-0.262-0.252-0.403-0.356c-0.132-0.096-0.288-0.159-0.452-0.247c-0.033-0.162,0.014-0.314,0.212-0.393
			c0.854-0.338,1.086-1.061,1.094-1.873c0.02-2.03-0.081-4.065,0.032-6.088c0.103-1.837,0.068-3.67,0.089-5.505
			c0.021-1.828,0.005-3.657,0.005-5.467c0.213-0.225,0.45-0.303,0.737-0.303c5.632,0.005,11.265,0.002,16.896,0.008
			c0.202,0,0.403,0.069,0.601,0.105c0.1,0.324,0.338,0.6,0.274,0.923c-0.179,0.917-0.096,1.839-0.108,2.759
			c-0.014,0.913-0.002,1.826-0.002,2.713c-0.244,0.284-0.539,0.309-0.859,0.308c-3.482-0.006-6.967-0.005-10.448,0
			c-0.242,0-0.482,0.056-0.739,0.087C196.428,39.348,196.428,42.348,196.428,45.368z"/>
		<path fill="#FFFFFF" d="M271.443,53.473c-0.451,0.325-0.895,0.644-1.338,0.963c-0.551,0.397-1.121,0.766-1.666,1.173
			c-0.767,0.573-1.58,1.082-2.369,1.626c-0.512,0.354-1.012,0.727-1.521,1.083c-0.354,0.247-0.721,0.474-1.072,0.721
			c-0.313,0.217-0.605,0.458-0.92,0.671c-0.229,0.156-0.476,0.283-0.77,0.455c-0.064-0.727-0.023-1.395-0.032-2.06
			c-0.007-0.674-0.002-1.349-0.002-2.045c-1.821,0-3.627,0-5.435,0c-0.441-0.691-0.875-1.368-1.309-2.045
			c-0.181-0.283-0.369-0.562-0.543-0.85c-0.592-0.992-1.244-1.945-1.83-2.942c-0.445-0.759-0.996-1.456-1.463-2.204
			c-0.413-0.665-0.828-1.328-1.249-1.989c-0.491-0.774-0.998-1.54-1.483-2.314c-0.426-0.676-0.883-1.335-1.271-2.038
			c-0.244-0.443-0.558-0.848-0.845-1.278c-1.938,0-3.864,0-5.801,0c-0.053-0.474-0.125-0.928-0.15-1.384s-0.006-0.916-0.006-1.373
			c0-0.777,0-1.553,0-2.359c2.736,0,5.472,0,8.17,0c0.257,0.405,0.506,0.798,0.754,1.19c0.371,0.583,0.741,1.167,1.109,1.75
			c0.24,0.379,0.477,0.76,0.72,1.136c0.476,0.739,0.956,1.475,1.433,2.213c0.547,0.849,1.084,1.703,1.622,2.556
			c0.847,1.341,1.689,2.685,2.558,4.014c0.563,0.861,1.039,1.777,1.672,2.593c0.029,0.039,0.023,0.105,0.031,0.154
			c1.068,0,2.117,0,3.209,0c0-1.357,0-2.7,0-4.126c0.332,0.207,0.613,0.353,0.861,0.542c0.84,0.642,1.713,1.231,2.596,1.809
			c0.33,0.217,0.641,0.468,0.976,0.675c0.563,0.348,1.063,0.789,1.622,1.136c0.668,0.415,1.271,0.928,1.968,1.298
			c0.167,0.088,0.296,0.243,0.452,0.352C270.555,52.874,270.991,53.166,271.443,53.473z"/>
		<path fill="#FFFFFF" d="M261.721,44.453c-0.029-0.002-0.105-0.008-0.199-0.015c0-1.347,0-2.674,0-4.025c-1.066,0-2.115,0-3.221,0
			c-0.721,1.18-1.467,2.401-2.236,3.66c-0.33-0.268-0.526-0.677-0.748-1.042c-0.428-0.701-0.871-1.39-1.308-2.083
			c-0.239-0.379-0.481-0.758-0.745-1.173c0.904-1.479,1.825-2.987,2.75-4.5c1.788,0,3.553,0,5.295,0
			c0.039-0.034,0.056-0.046,0.065-0.061c0.011-0.015,0.021-0.034,0.021-0.051c0.002-1.35,0.002-2.7,0.002-4.117
			c0.313,0.212,0.582,0.393,0.849,0.578c0.276,0.191,0.558,0.375,0.825,0.581c0.269,0.207,0.544,0.407,0.83,0.59
			c0.303,0.194,0.576,0.447,0.881,0.616c0.496,0.277,0.932,0.629,1.396,0.947c0.603,0.414,1.205,0.827,1.82,1.222
			c0.684,0.438,1.334,0.917,1.99,1.393c0.195,0.141,0.418,0.245,0.613,0.385c0.203,0.143,0.391,0.309,0.597,0.475
			c-0.263,0.178-0.53,0.353-0.789,0.535c-0.956,0.674-1.894,1.372-2.868,2.018c-0.718,0.476-1.436,0.961-2.13,1.463
			c-0.905,0.653-1.856,1.244-2.72,1.958C262.416,44.033,262.096,44.206,261.721,44.453z"/>
		<path fill="#FFFFFF" d="M246.447,50.903c0.822-1.177,1.49-2.481,2.342-3.725c0.896,1.398,1.775,2.775,2.695,4.21
			c0.016,0.119-0.012,0.295-0.121,0.47c-0.346,0.552-0.678,1.112-1.016,1.669c-0.3,0.493-0.597,0.988-0.899,1.478
			c-0.206,0.333-0.423,0.66-0.663,1.033c-1.326,0-2.695,0-4.063,0c-1.354,0-2.707,0-4.086,0c0-1.707,0-3.407,0-5.137
			c0.197,0,0.394,0,0.59,0c0.179,0,0.36-0.022,0.535,0.006c0.172,0.028,0.334-0.188,0.499-0.006
			c0.146-0.155,0.294-0.002,0.439-0.001c0.198,0.002,0.397,0.001,0.597,0.001c0.18,0,0.389,0.057,0.529-0.016
			c0.154-0.079,0.32,0.034,0.447-0.082c0.138,0.179,0.33,0.079,0.498,0.093c0.196,0.017,0.429,0.066,0.588-0.012
			c0.183-0.089,0.302,0.017,0.447,0.017C246.006,50.902,246.205,50.903,246.447,50.903z"/>
		<path fill="#FFFFFF" d="M141.207,41.008c0,1.648,0,3.277,0,4.912c0.125,0.187,0.249,0.373,0.376,0.563
			c-0.115,0.173-0.229,0.344-0.364,0.546c0,1.018,0,2.066,0,3.136c-0.59,0-1.161,0-1.785,0c-0.021-0.881,0.001-1.786-0.013-2.708
			c-0.509,0-1.001,0-1.509,0c-0.04,0.04-0.096,0.096-0.173,0.173c0,0.83,0,1.679,0,2.542c-0.591,0-1.162,0-1.756,0
			c0-1.088,0-2.176,0-3.24c-0.153-0.164-0.284-0.303-0.432-0.461c0.161-0.104,0.281-0.183,0.415-0.271c0-1.69,0-3.375,0-5.112
			c0.129-0.035,0.25-0.095,0.374-0.098c0.455-0.012,0.911-0.005,1.355-0.005c0.171,0.226,0.203,0.469,0.174,0.721
			c-0.029,0.247,0.077,0.502-0.078,0.744c-0.056,0.086-0.038,0.226-0.038,0.34c-0.003,0.894-0.001,1.788-0.001,2.708
			c0.553,0,1.098,0,1.663,0c0-1.452,0-2.898,0-4.325c0.062-0.062,0.104-0.104,0.167-0.167
			C140.093,41.008,140.624,41.008,141.207,41.008z"/>
		<path fill="#FFFFFF" d="M144.821,45.53c0.553,0,1.085,0,1.634,0c0,0.631,0,1.242,0,1.895c-0.53,0-1.077,0-1.639,0
			c0,0.293,0,0.546,0,0.85c0.363,0,0.735,0,1.106,0c0.656,0,1.313-0.005,1.969,0.004c0.123,0.002,0.245,0.066,0.363,0.101
			c0,0.583,0,1.115,0,1.611c-0.115,0.24-0.307,0.193-0.48,0.194c-1.174,0.001-2.347,0-3.521,0c-0.396,0-0.794,0-1.186,0
			c-0.062-0.062-0.118-0.118-0.194-0.195c0.043-0.401,0.107-0.82,0.13-1.24c0.023-0.436,0.012-0.875,0.003-1.312
			c-0.008-0.348-0.084-0.677-0.385-0.921c0.135-0.201,0.26-0.387,0.387-0.577c0-1.625,0-3.256,0-4.887
			c0.487-0.094,3.229-0.12,5.234-0.048c0,0.609,0,1.22,0,1.854c0.009-0.009-0.003,0.008-0.018,0.019
			c-0.016,0.01-0.034,0.02-0.052,0.02c-1.11,0.001-2.222,0.001-3.353,0.001C144.821,43.768,144.821,44.617,144.821,45.53z"/>
		<path fill="#FFFFFF" d="M133.139,46.51c-0.159,0.094-0.27,0.16-0.391,0.232c0,1.095,0,2.184,0,3.252
			c-0.076,0.076-0.133,0.131-0.19,0.19c-0.515,0-1.031,0-1.563,0c-0.044-0.051-0.096-0.11-0.175-0.201c0-1.049,0-2.138,0-3.237
			c-0.124-0.071-0.238-0.137-0.358-0.206c0.116-0.107,0.231-0.213,0.349-0.321c0-1.098,0-2.186,0-3.315c-0.543,0-1.09,0-1.647,0
			c0-0.652,0-1.263,0-1.895c1.742,0,3.481,0,5.232,0c0,0.624,0,1.234,0,1.867c-0.533,0-1.064,0-1.57,0
			c-0.04,0.035-0.057,0.046-0.068,0.062c-0.011,0.014-0.021,0.033-0.021,0.05c-0.001,1.053-0.001,2.107-0.001,3.19
			C132.855,46.277,132.991,46.389,133.139,46.51z"/>
		<path d="M225.581,36.209c0.239,0.128,0.451,0.243,0.629,0.339c0.24,0.497,0.246,0.997,0.169,1.464
			c-0.193,1.177-0.074,2.357-0.102,3.535c-0.022,1.173-0.004,2.348-0.004,3.541c-0.211,0.329-0.553,0.434-0.922,0.436
			c-1.511,0.009-3.021,0.003-4.515,0.003c-0.06-0.059-0.103-0.101-0.161-0.161c0-2.942,0-5.901,0-8.877
			c0.209-0.236,0.494-0.287,0.818-0.284C222.868,36.215,224.242,36.209,225.581,36.209z"/>
		<path d="M220.54,52.782c0.089-0.151,0.165-0.28,0.229-0.392c0.058-0.025,0.09-0.052,0.125-0.052
			c1.447-0.002,2.896-0.003,4.347-0.001c0.134,0,0.276-0.004,0.403,0.032c0.269,0.078,0.561,0.143,0.629,0.493
			c0,0.355,0.006,0.711-0.002,1.067c-0.008,0.324,0.066,0.66-0.141,0.982c-0.152,0.079-0.332,0.17-0.551,0.282
			c-1.596,0-3.237,0-4.873,0c-0.17-0.22-0.176-0.464-0.172-0.716C220.545,53.903,220.54,53.328,220.54,52.782z"/>
		<path d="M234.518,87.043c0-2.697-0.004-5.404,0.006-8.109c0-0.203,0.082-0.404,0.131-0.632c0.225-0.292,0.563-0.397,0.938-0.399
			c1.234-0.004,2.47-0.004,3.702,0c0.376,0.002,0.715,0.107,0.955,0.421c0,2.868,0,5.733,0,8.599
			c-0.102,0.102-0.198,0.199-0.297,0.299c-1.572,0-3.146-0.004-4.719,0.004C234.979,87.223,234.739,87.205,234.518,87.043z"/>
		<path d="M259.186,96.895c-0.103-0.102-0.199-0.199-0.299-0.297c0-1.115,0.014-2.229-0.004-3.344
			c-0.014-0.843,0.178-1.671,0.133-2.52c-0.043-0.832-0.01-1.67-0.01-2.506c0-0.854,0-1.711,0-2.565c0-0.836,0-1.672,0-2.507
			c0-0.856,0-1.711,0-2.567c0-0.835,0-1.671,0-2.512c0.057-0.054,0.112-0.106,0.186-0.177c1.533,0,3.082,0.002,4.634-0.002
			c0.47-0.002,0.718,0.285,0.918,0.699c-0.24,1.625-0.091,3.305-0.116,4.979c-0.023,1.672-0.005,3.343-0.005,5.015
			c0,1.691,0,3.382,0,5.073c0,0.775-0.009,1.552,0.003,2.327c0.006,0.35-0.172,0.606-0.43,0.769
			c-0.176,0.112-0.435,0.129-0.657,0.131C262.086,96.898,260.634,96.895,259.186,96.895z"/>
		<path d="M167.87,77.9c0.201,0.102,0.366,0.186,0.562,0.283c0.138,0.182,0.146,0.424,0.145,0.678
			c-0.004,2.469-0.006,4.938,0.002,7.406c0.001,0.336-0.091,0.629-0.252,0.931c-1.774,0-3.541,0-5.328,0
			c-0.035-0.036-0.092-0.093-0.158-0.16c0-2.733,0-5.479-0.001-8.226c0-0.383,0.165-0.651,0.527-0.795
			c0.051-0.021,0.089-0.076,0.134-0.117C164.97,77.9,166.443,77.9,167.87,77.9z"/>
	</g>
</g>
</svg>
