<?xml version="1.0" encoding="utf-8"?>
<!-- Generator: Adobe Illustrator 16.0.0, SVG Export Plug-In . SVG Version: 6.00 Build 0)  -->
<!DOCTYPE svg PUBLIC "-//W3C//DTD SVG 1.1//EN" "http://www.w3.org/Graphics/SVG/1.1/DTD/svg11.dtd">
<svg version="1.1" id="Layer_1" xmlns="http://www.w3.org/2000/svg" xmlns:xlink="http://www.w3.org/1999/xlink" x="0px" y="0px"
	 width="400px" height="133px" viewBox="0 0 400 133" enable-background="new 0 0 400 133" xml:space="preserve">
<g id="Layer_1_1_">
	<rect y="-0.5" width="400" height="134"/>
</g>
<g id="Layer_2">
	<g>
		<path fill="#FFFFFF" d="M82.535,74.578c-3.454,0-4.897-2.613-3.995-6.878l1.142-5.347c0.541-2.553,1.44-3.394,3.243-3.394h0.721
			c1.892,0,3.634,0.781,3.063,3.394l-1.021,4.506c-0.33,1.262,0.061,2.103,1.112,2.103c0.601,0,0.931-0.18,1.352-0.571l1.291-6.038
			c0.541-2.553,1.442-3.394,3.244-3.394h0.72c1.893,0,3.635,0.781,3.064,3.394l-1.592,7.45c-0.42,1.893-0.121,2.643,0.811,3.063
			c0.06,0.06-0.601,1.711-3.574,1.711c-2.583,0-3.845-1.263-4.055-3.093C86.709,73.378,85.028,74.578,82.535,74.578z"/>
		<path fill="#FFFFFF" d="M111.128,58.721c2.793,0,4.385,1.832,4.385,4.625c0,1.052-0.27,2.223-0.841,4.234
			c-0.391,1.413-0.691,2.584-0.691,3.186c0,0.9,0.39,1.32,1.141,1.531c0.09,0.03-0.661,2.281-4.115,2.281
			c-2.944,0-4.085-1.291-4.085-3.184c0-0.9,0.15-1.592,0.661-3.395c0.331-1.201,0.511-2.012,0.511-2.402
			c0-0.781-0.421-1.262-1.232-1.262c-0.601,0-0.931,0.18-1.351,0.571l-1.292,6.036c-0.541,2.555-1.441,3.396-3.244,3.396h-0.721
			c-1.893,0-3.634-0.78-3.064-3.396l2.433-11.503c0.03-0.15,0.931-0.481,2.072-0.481c1.712,0,3.364,0.872,3.724,3.094
			C106.833,60.041,108.515,58.721,111.128,58.721z"/>
		<path fill="#FFFFFF" d="M139.42,58.721c2.673,0,4.235,2.012,4.235,4.625c0,1.052-0.271,2.223-0.842,4.234
			c-0.39,1.413-0.69,2.584-0.69,3.186c0,0.9,0.391,1.32,1.142,1.531c0.09,0.03-0.661,2.281-4.115,2.281
			c-2.945,0-4.086-1.291-4.086-3.184c0-0.9,0.15-1.592,0.66-3.395c0.331-1.201,0.511-2.012,0.511-2.402
			c0-0.781-0.42-1.262-1.081-1.262c-0.331,0-0.751,0.15-1.142,0.541c0-0.03-1.292,6.066-1.292,6.066
			c-0.541,2.555-1.442,3.396-3.244,3.396h-0.721c-1.892,0-3.634-0.78-3.063-3.396l1.021-4.804c0.21-1.052-0.15-1.803-0.901-1.803
			c-0.45,0-0.781,0.15-1.171,0.421l-1.321,6.187c-0.541,2.555-1.442,3.396-3.244,3.396h-0.721c-1.892,0-3.634-0.78-3.063-3.396
			l2.433-11.503c0.03-0.15,0.931-0.481,2.072-0.481c1.712,0,3.364,0.872,3.725,3.094c1.412-2.012,3.063-3.333,5.527-3.333
			c2.012,0,3.664,1.201,4.116,3.184C135.456,59.981,137.107,58.721,139.42,58.721z"/>
		<path fill="#FFFFFF" d="M150.141,74.549c-3.243,0-5.316-2.373-5.316-5.918c0-5.045,3.214-9.911,7.989-9.911
			c1.772,0,3.634,0.811,4.477,2.613c0.96-1.682,2.403-2.373,4.565-2.373c1.352,0,2.432,0.571,2.373,0.841l-2.134,10.004
			c-0.42,1.893-0.121,2.643,0.811,3.063c0.06,0.06-0.601,1.711-3.574,1.711c-2.613,0-3.845-1.262-4.055-3.124
			C154.316,73.227,152.483,74.549,150.141,74.549z M154.226,64.007c-1.622,0-2.673,1.531-2.673,3.334
			c0,1.021,0.631,1.802,1.711,1.802c1.142,0,2.103-0.722,2.434-2.283l0.36-1.652C155.698,64.517,155.188,64.007,154.226,64.007z"/>
		<path fill="#FFFFFF" d="M166.208,68.602l0.901-4.293h-0.06c-1.472,0-2.373-0.781-2.373-1.892c0-0.541,0.24-1.922,0.931-2.613
			c0.451-0.45,0.96-0.69,2.373-0.69h0.24l0.03-0.15c0.601-3.003,1.922-4.355,5.047-4.355c1.562,0,2.643,0.571,2.583,0.841
			l-0.781,3.665h1.051c1.622,0,2.493,0.781,2.493,1.892c0,0.541-0.241,1.922-0.931,2.613c-0.45,0.45-0.961,0.69-2.373,0.69h-1.472
			l-0.841,3.934c-0.18,0.812,0.24,1.263,0.841,1.263c0.571,0,1.142-0.242,1.592-0.602c0.15-0.119,0.96,0.479,0.96,1.771
			c0,1.021-0.39,1.862-1.081,2.553c-0.931,0.931-2.313,1.412-4.115,1.412C167.019,74.639,165.427,72.297,166.208,68.602z"/>
		<path fill="#FFFFFF" d="M177.826,67.73c0-4.925,3.814-9.01,8.71-9.01c2.673,0,4.476,0.751,5.557,1.832
			c0.69,0.691,1.021,1.502,1.021,2.283c0,3.304-4.175,3.394-4.235,3.124c-0.21-1.021-0.811-1.833-2.193-1.833
			c-1.592,0-2.613,1.412-2.613,3.004c0,1.142,0.69,2.042,2.133,2.042c0.871,0,1.711-0.39,2.252-1.32
			c0.12-0.182,3.033,0.39,3.033,2.703c0,0.869-0.39,1.682-1.081,2.371c-1.021,1.021-2.673,1.651-4.807,1.651
			C180.801,74.578,177.826,72.086,177.826,67.73z"/>
		<path fill="#FFFFFF" d="M202.607,71.396c0-0.901,0.147-1.592,0.658-3.396c0.33-1.201,0.512-2.012,0.512-2.402
			c0-0.781-0.42-1.262-1.232-1.262c-0.602,0-0.932,0.18-1.352,0.571l-1.292,6.037c-0.541,2.554-1.442,3.395-3.244,3.395h-0.721
			c-1.892,0-3.604-0.781-3.063-3.395l3.123-14.748c0.541-2.553,1.442-3.394,3.244-3.394h0.72c1.893,0,3.633,0.781,3.064,3.394
			l-1.172,5.468c1.109-1.712,2.912-2.943,5.107-2.943c2.641,0,4.234,1.832,4.234,4.625c0,1.052-0.271,2.223-0.842,4.234
			c-0.39,1.413-0.693,2.584-0.693,3.185c0,0.901,0.393,1.321,1.143,1.532c0.09,0.03-0.658,2.281-4.113,2.281
			C203.748,74.578,202.607,73.287,202.607,71.396z"/>
		<path fill="#FFFFFF" d="M220.535,70.014c1.594,0,2.975-0.721,3.695-1.65c0.028-0.03,2.733,0.269,2.733,2.402
			c0,0.811-0.36,1.5-1.021,2.161c-0.871,0.872-2.764,1.651-5.496,1.651c-5.707,0-8.141-2.883-8.141-6.758
			c0-5.556,4.266-9.1,9.463-9.1c4.385,0,6.639,1.982,6.639,4.835c0,2.913-1.953,4.956-8.592,4.956c-0.601,0-1.23,0-1.894-0.028
			C218.193,69.473,219.092,70.014,220.535,70.014z M219.215,65.178c2.643,0,3.664-0.42,3.664-1.262c0-0.51-0.48-0.991-1.412-0.991
			c-1.352,0-2.402,0.961-3.033,2.253C218.703,65.178,218.975,65.178,219.215,65.178z"/>
		<path fill="#FFFFFF" d="M234.801,74.549c-3.305,0-5.615-2.402-5.615-6.249c0-4.895,2.853-9.58,7.479-9.58
			c1.711,0,3.543,0.721,4.537,2.252l1.019-4.775c0.543-2.553,1.442-3.394,3.245-3.394h0.722c1.893,0,3.635,0.781,3.063,3.394
			l-2.883,13.608c-0.449,1.922-0.121,2.643,0.811,3.063c0.059,0.06-0.602,1.711-3.576,1.711c-2.582,0-3.783-1.262-4.021-3.092
			C238.705,73.258,237.023,74.549,234.801,74.549z M238.346,64.007c-1.652,0-2.465,1.501-2.465,3.214
			c0,1.111,0.57,1.922,1.803,1.922c0.99,0,1.953-0.722,2.283-2.283l0.359-1.652C239.967,64.517,239.426,64.007,238.346,64.007z"/>
		<path fill="#FFFFFF" d="M248.979,72.537c-0.602-0.602-0.994-1.322-0.994-2.135c0-1.771,1.716-2.702,1.863-2.551
			c1.203,1.142,3.244,2.222,4.717,2.222c0.511,0,0.689-0.119,0.689-0.48c0-0.27-0.42-0.511-1.051-0.78
			c-2.041-0.9-4.174-1.922-4.174-4.806c0-2.793,2.162-5.196,6.699-5.196c2.672,0,4.926,0.781,6.215,2.073
			c0.451,0.45,0.754,1.051,0.754,1.832c0,2.103-2.012,3.003-2.133,2.883c-1.111-1.201-2.703-2.343-4.265-2.343
			c-0.543,0-0.842,0.21-0.842,0.51c0,0.331,0.658,0.602,1.53,0.961c2.466,1.021,4.564,2.132,4.564,4.714
			c0,2.945-2.314,5.049-6.969,5.049C252.311,74.49,250.088,73.648,248.979,72.537z"/>
		<path fill="#FFFFFF" d="M265.85,68.602l0.902-4.293h-0.061c-1.474,0-2.373-0.781-2.373-1.892c0-0.541,0.238-1.922,0.932-2.613
			c0.449-0.45,0.961-0.69,2.371-0.69h0.242l0.029-0.15c0.6-3.003,1.922-4.355,5.045-4.355c1.563,0,2.645,0.571,2.584,0.841
			l-0.781,3.665h1.051c1.623,0,2.494,0.781,2.494,1.892c0,0.541-0.24,1.922-0.932,2.613c-0.451,0.45-0.961,0.69-2.373,0.69h-1.474
			l-0.84,3.934c-0.183,0.812,0.238,1.263,0.84,1.263c0.572,0,1.144-0.242,1.593-0.602c0.149-0.119,0.963,0.479,0.963,1.771
			c0,1.021-0.394,1.862-1.082,2.553c-0.93,0.931-2.313,1.412-4.115,1.412C266.66,74.639,265.068,72.297,265.85,68.602z"/>
		<path fill="#FFFFFF" d="M277.893,79.084c-0.602-0.602-0.871-1.352-0.871-2.313c0-1.172,0.843-2.281,0.902-2.252
			c0.299,0.211,0.992,0.42,1.623,0.42c1.051,0,1.83-0.36,2.732-1.682l0.24-0.361c-0.691-0.238-1.175-0.84-1.322-1.892l-0.902-6.397
			c-0.301-2.222-1.111-2.793-2.072-3.003c-0.147-0.031,0.693-2.884,4.146-2.884c2.493,0,3.965,1.592,4.176,5.286l0.121,2.433
			l4.265-7.69c0.061-0.09,4.807,0.391,4.807,3.394c0,1.052-0.361,1.773-1.262,3.155l-6.759,10.573
			c-1.44,2.254-3.213,4.326-6.245,4.326C279.814,80.197,278.613,79.807,277.893,79.084z"/>
		<path fill="#FFFFFF" d="M296.363,69.504l2.822-13.308c0.543-2.553,1.442-3.394,3.246-3.394h0.719c1.893,0,3.635,0.781,3.063,3.394
			l-2.885,13.607c-0.42,1.893-0.119,2.643,0.812,3.063c0.061,0.06-0.601,1.711-3.726,1.711
			C296.516,74.578,295.791,72.236,296.363,69.504z"/>
		<path fill="#FFFFFF" d="M314.293,70.014c1.594,0,2.975-0.721,3.695-1.65c0.031-0.03,2.734,0.269,2.734,2.402
			c0,0.811-0.359,1.5-1.021,2.161c-0.871,0.872-2.764,1.651-5.498,1.651c-5.707,0-8.139-2.883-8.139-6.758
			c0-5.556,4.266-9.1,9.463-9.1c4.385,0,6.639,1.982,6.639,4.835c0,2.913-1.953,4.956-8.592,4.956c-0.6,0-1.23,0-1.891-0.028
			C311.953,69.473,312.852,70.014,314.293,70.014z M312.973,65.178c2.644,0,3.666-0.42,3.666-1.262c0-0.51-0.481-0.991-1.414-0.991
			c-1.352,0-2.402,0.961-3.033,2.253C312.461,65.178,312.732,65.178,312.973,65.178z"/>
	</g>
</g>
</svg>
