<?xml version="1.0" encoding="utf-8"?>
<!-- Generator: Adobe Illustrator 16.0.0, SVG Export Plug-In . SVG Version: 6.00 Build 0)  -->
<!DOCTYPE svg PUBLIC "-//W3C//DTD SVG 1.1//EN" "http://www.w3.org/Graphics/SVG/1.1/DTD/svg11.dtd">
<svg version="1.1" id="Layer_1" xmlns="http://www.w3.org/2000/svg" xmlns:xlink="http://www.w3.org/1999/xlink" x="0px" y="0px"
	 width="400px" height="133px" viewBox="0 0 400 133" enable-background="new 0 0 400 133" xml:space="preserve">
<g id="Layer_1_1_">
	<rect width="400" height="134"/>
</g>
<g id="Layer_2">
</g>
<g>
	<text transform="matrix(1 0 0 1 160.4634 34.6895)" fill="#999999" font-family="'Roboto-Light'" font-size="14.1645">With Kerning</text>
	<g>
		<path fill="#FFFFFF" d="M212.684,62.268l-4.516,0.564l-11.1,47.596h-10.197L176.825,74.27H176.6l-10.046,36.158h-10.197
			l-11.175-47.596l-4.479-0.564v-6.623h20.167v6.623l-5.004,0.865l6.284,30.026l0.226,0.038l10.272-37.552h8.089l10.348,37.552
			l0.227-0.038l6.246-30.026l-5.004-0.865v-6.623h20.129L212.684,62.268L212.684,62.268z"/>
		<path fill="#FFFFFF" d="M206.996,103.844l3.912-0.564l16.668-47.635h11.252l16.556,47.635l3.913,0.564v6.584h-18.663v-6.584
			l3.801-0.678l-2.408-7.524h-17.76l-2.408,7.524l3.802,0.678v6.584h-18.664V103.844L206.996,103.844z M226.861,87.551h12.568
			l-6.172-19.301h-0.225L226.861,87.551z"/>
	</g>
</g>
</svg>
