<?xml version="1.0" encoding="utf-8"?>
<!-- Generator: Adobe Illustrator 16.0.0, SVG Export Plug-In . SVG Version: 6.00 Build 0)  -->
<!DOCTYPE svg PUBLIC "-//W3C//DTD SVG 1.1//EN" "http://www.w3.org/Graphics/SVG/1.1/DTD/svg11.dtd">
<svg version="1.1" id="Layer_1" xmlns="http://www.w3.org/2000/svg" xmlns:xlink="http://www.w3.org/1999/xlink" x="0px" y="0px"
	 width="400px" height="133px" viewBox="0 0 400 133" enable-background="new 0 0 400 133" xml:space="preserve">
<g id="Layer_1_1_">
	<rect width="400" height="134"/>
</g>
<g id="Layer_2">
</g>
<g>
	<text transform="matrix(1 0 0 1 150.3306 34.6895)" fill="#999999" font-family="'Roboto-Light'" font-size="14.1645">Without Kerning</text>
	<g enable-background="new    ">
		<path fill="#FFFFFF" d="M207.251,62.267l-4.515,0.564l-11.1,47.597h-10.197L171.394,74.27h-0.227l-10.046,36.158h-10.196
			l-11.176-47.597l-4.478-0.564v-6.622h20.167v6.622l-5.004,0.865l6.284,30.026l0.226,0.038l10.272-37.552h8.089l10.348,37.552
			l0.226-0.038l6.246-30.026l-5.004-0.865v-6.622h20.13V62.267L207.251,62.267z"/>
		<path fill="#FFFFFF" d="M212.428,103.844l3.914-0.564l16.668-47.635h11.25l16.555,47.635l3.914,0.564v6.584h-18.662v-6.584
			l3.801-0.678l-2.408-7.524h-17.76l-2.408,7.524l3.801,0.678v6.584h-18.664V103.844L212.428,103.844z M232.295,87.551h12.566
			l-6.172-19.303h-0.227L232.295,87.551z"/>
	</g>
</g>
</svg>
