<?xml version="1.0" encoding="utf-8"?>
<!-- Generator: Adobe Illustrator 16.0.0, SVG Export Plug-In . SVG Version: 6.00 Build 0)  -->
<!DOCTYPE svg PUBLIC "-//W3C//DTD SVG 1.1//EN" "http://www.w3.org/Graphics/SVG/1.1/DTD/svg11.dtd">
<svg version="1.1" id="Layer_1" xmlns="http://www.w3.org/2000/svg" xmlns:xlink="http://www.w3.org/1999/xlink" x="0px" y="0px"
	 width="150px" height="130px" viewBox="15 25 150 130" enable-background="new 15 25 150 130" xml:space="preserve">
<g id="Layer_1_1_">
	<g>
		<g>
			<path fill="#FFFFFF" d="M93.439,100.826l6.172,13.443l-5.178,15.469l-0.037,0.111l-0.02,0.114l-2.148,12.578h-3.685l-2.158-12.59
				l-0.02-0.115l-0.037-0.11l-5.178-15.455l6.172-13.444L93.439,100.826 M94.412,99.309H86.35l-6.828,14.875l5.368,16.025
				l2.374,13.852h6.245l2.364-13.84l5.367-16.037L94.412,99.309L94.412,99.309z"/>
		</g>
		<g>
			<path fill="#FFFFFF" d="M38.511,46.808l-2.254,2.999l-0.377,0.501l0.088,0.622l1.686,11.972l0.048,0.344l0.193,0.289
				l9.434,14.088l0.316,0.473l0.55,0.148l14.953,4.028l1.751,0.472l0.155-1.808l1.026-11.969l4.341-4.873l-2.298,5.048l-0.149,0.328
				l0.014,0.36l0.506,13.151l0.021,0.546l0.364,0.408l13.704,15.309l-3.451,7.473c-1.689-2.412-5.119-7.242-12.128-17.043
				l-0.25-0.35l-0.397-0.167l-17.71-7.421l-0.31-0.13l-0.335,0.013l-12.395,0.476l-0.371,0.015l-0.322,0.183l-1.729,0.984
				c0.84-0.851,1.491-1.505,1.811-1.817c1.065-0.323,4.853-1.425,7.267-2.125l2.003-0.58L43.1,77.027l-9.38-13.876l1.195-13.414
				L38.511,46.808 M47.21,37.76L33.46,48.966l-1.3,14.588l9.682,14.323c0,0-7.437,2.153-7.626,2.238
				c-0.189,0.086-9.694,9.839-9.694,9.839l11.144-6.343l12.395-0.476l17.71,7.422c0,0,13.498,18.873,13.625,19.209l4.984-10.791
				L70.011,82.923l-0.506-13.151l6.448-14.167l-11.342,12.73l-1.069,12.472l-14.953-4.028L39.156,62.69L37.47,50.718L47.21,37.76
				L47.21,37.76z"/>
		</g>
		<polyline fill="none" stroke="#FFFFFF" stroke-width="1.5175" stroke-miterlimit="10" points="69.379,83.091 64.11,81.89 
			66.218,90.004 		"/>
		
			<line fill="none" stroke="#FFFFFF" stroke-width="1.5175" stroke-miterlimit="10" x1="65.48" y1="68.738" x2="68.894" y2="69.813"/>
		
			<line fill="none" stroke="#FFFFFF" stroke-width="1.5175" stroke-miterlimit="10" x1="43.034" y1="78.349" x2="48.25" y2="82.427"/>
		
			<line fill="none" stroke="#FFFFFF" stroke-width="1.5175" stroke-miterlimit="10" x1="42.623" y1="78.349" x2="48.25" y2="77.495"/>
		
			<line fill="none" stroke="#FFFFFF" stroke-width="1.5175" stroke-miterlimit="10" x1="33.002" y1="63.483" x2="38.565" y2="63.02"/>
		<line fill="none" stroke="#FFFFFF" stroke-width="1.5175" stroke-miterlimit="10" x1="34.14" y1="49.438" x2="36.88" y2="50.66"/>
		<g>
			<path fill="#FFFFFF" d="M142.098,46.808l3.594,2.93l1.195,13.414l-9.38,13.876l-1.167,1.728l2.003,0.58
				c2.414,0.699,6.202,1.801,7.267,2.125c0.32,0.312,0.972,0.966,1.812,1.817l-1.729-0.984l-0.321-0.183L145,82.095l-12.395-0.476
				l-0.336-0.013l-0.31,0.13l-17.71,7.421l-0.396,0.167l-0.25,0.35c-7.011,9.803-10.439,14.633-12.129,17.043l-3.451-7.473
				l13.705-15.309l0.364-0.408l0.021-0.546l0.507-13.151l0.014-0.36l-0.149-0.328l-2.297-5.047l4.34,4.873l1.027,11.969l0.154,1.808
				l1.751-0.472l14.954-4.028l0.55-0.148l0.315-0.473l9.434-14.088l0.193-0.289l0.048-0.344l1.687-11.973l0.088-0.622l-0.377-0.501
				L142.098,46.808 M133.396,37.76l9.742,12.958l-1.688,11.972l-9.434,14.088l-14.953,4.028l-1.069-12.472l-11.343-12.73
				l6.449,14.167l-0.506,13.151L96.227,98.975l4.983,10.791c0.128-0.336,13.626-19.209,13.626-19.209l17.71-7.422l12.396,0.476
				l11.144,6.343c0,0-9.505-9.753-9.694-9.839c-0.189-0.085-7.627-2.238-7.627-2.238l9.682-14.323l-1.299-14.588L133.396,37.76
				L133.396,37.76z"/>
		</g>
		<polyline fill="none" stroke="#FFFFFF" stroke-width="1.5175" stroke-miterlimit="10" points="111.229,83.091 116.498,81.89 
			114.389,90.004 		"/>
		
			<line fill="none" stroke="#FFFFFF" stroke-width="1.5175" stroke-miterlimit="10" x1="115.127" y1="68.738" x2="111.713" y2="69.813"/>
		
			<line fill="none" stroke="#FFFFFF" stroke-width="1.5175" stroke-miterlimit="10" x1="137.573" y1="78.349" x2="132.357" y2="82.427"/>
		
			<line fill="none" stroke="#FFFFFF" stroke-width="1.5175" stroke-miterlimit="10" x1="137.984" y1="78.349" x2="132.357" y2="77.495"/>
		
			<line fill="none" stroke="#FFFFFF" stroke-width="1.5175" stroke-miterlimit="10" x1="147.605" y1="63.483" x2="142.042" y2="63.02"/>
		
			<line fill="none" stroke="#FFFFFF" stroke-width="1.5175" stroke-miterlimit="10" x1="146.467" y1="49.438" x2="143.727" y2="50.66"/>
		
			<line fill="none" stroke="#FFFFFF" stroke-width="1.5175" stroke-miterlimit="10" x1="80.212" y1="114.516" x2="95.26" y2="130.195"/>
		
			<line fill="none" stroke="#FFFFFF" stroke-width="1.5175" stroke-miterlimit="10" x1="100.477" y1="114.516" x2="85.427" y2="130.195"/>
	</g>
</g>
</svg>
